G04 #@! TF.GenerationSoftware,KiCad,Pcbnew,(5.1.6)-1*
G04 #@! TF.CreationDate,2020-07-20T23:37:44+02:00*
G04 #@! TF.ProjectId,TrackRay_H02,54726163-6b52-4617-995f-4830322e6b69,rev?*
G04 #@! TF.SameCoordinates,Original*
G04 #@! TF.FileFunction,Paste,Bot*
G04 #@! TF.FilePolarity,Positive*
%FSLAX46Y46*%
G04 Gerber Fmt 4.6, Leading zero omitted, Abs format (unit mm)*
G04 Created by KiCad (PCBNEW (5.1.6)-1) date 2020-07-20 23:37:44*
%MOMM*%
%LPD*%
G01*
G04 APERTURE LIST*
%ADD10R,1.450000X0.450000*%
%ADD11R,2.500000X1.800000*%
%ADD12R,3.050000X2.750000*%
%ADD13R,2.200000X1.200000*%
%ADD14R,0.900000X0.800000*%
%ADD15R,2.900000X5.400000*%
%ADD16R,0.650000X1.060000*%
%ADD17R,1.060000X0.650000*%
%ADD18R,0.800000X2.300000*%
%ADD19R,0.450000X1.050000*%
%ADD20R,0.500000X0.800000*%
%ADD21R,0.400000X0.800000*%
%ADD22R,0.800000X0.900000*%
%ADD23R,1.800000X2.500000*%
G04 APERTURE END LIST*
G36*
G01*
X73750000Y-10443750D02*
X73750000Y-11356250D01*
G75*
G02*
X73506250Y-11600000I-243750J0D01*
G01*
X73018750Y-11600000D01*
G75*
G02*
X72775000Y-11356250I0J243750D01*
G01*
X72775000Y-10443750D01*
G75*
G02*
X73018750Y-10200000I243750J0D01*
G01*
X73506250Y-10200000D01*
G75*
G02*
X73750000Y-10443750I0J-243750D01*
G01*
G37*
G36*
G01*
X75625000Y-10443750D02*
X75625000Y-11356250D01*
G75*
G02*
X75381250Y-11600000I-243750J0D01*
G01*
X74893750Y-11600000D01*
G75*
G02*
X74650000Y-11356250I0J243750D01*
G01*
X74650000Y-10443750D01*
G75*
G02*
X74893750Y-10200000I243750J0D01*
G01*
X75381250Y-10200000D01*
G75*
G02*
X75625000Y-10443750I0J-243750D01*
G01*
G37*
D10*
X61141400Y-79674000D03*
X61141400Y-79024000D03*
X61141400Y-78374000D03*
X61141400Y-77724000D03*
X61141400Y-77074000D03*
X61141400Y-76424000D03*
X61141400Y-75774000D03*
X55241400Y-75774000D03*
X55241400Y-76424000D03*
X55241400Y-77074000D03*
X55241400Y-77724000D03*
X55241400Y-78374000D03*
X55241400Y-79024000D03*
X55241400Y-79674000D03*
G36*
G01*
X45134850Y-74632400D02*
X44222350Y-74632400D01*
G75*
G02*
X43978600Y-74388650I0J243750D01*
G01*
X43978600Y-73901150D01*
G75*
G02*
X44222350Y-73657400I243750J0D01*
G01*
X45134850Y-73657400D01*
G75*
G02*
X45378600Y-73901150I0J-243750D01*
G01*
X45378600Y-74388650D01*
G75*
G02*
X45134850Y-74632400I-243750J0D01*
G01*
G37*
G36*
G01*
X45134850Y-76507400D02*
X44222350Y-76507400D01*
G75*
G02*
X43978600Y-76263650I0J243750D01*
G01*
X43978600Y-75776150D01*
G75*
G02*
X44222350Y-75532400I243750J0D01*
G01*
X45134850Y-75532400D01*
G75*
G02*
X45378600Y-75776150I0J-243750D01*
G01*
X45378600Y-76263650D01*
G75*
G02*
X45134850Y-76507400I-243750J0D01*
G01*
G37*
D11*
X74400000Y-23800000D03*
X70400000Y-23800000D03*
G36*
G01*
X33350000Y-80356250D02*
X33350000Y-79443750D01*
G75*
G02*
X33593750Y-79200000I243750J0D01*
G01*
X34081250Y-79200000D01*
G75*
G02*
X34325000Y-79443750I0J-243750D01*
G01*
X34325000Y-80356250D01*
G75*
G02*
X34081250Y-80600000I-243750J0D01*
G01*
X33593750Y-80600000D01*
G75*
G02*
X33350000Y-80356250I0J243750D01*
G01*
G37*
G36*
G01*
X31475000Y-80356250D02*
X31475000Y-79443750D01*
G75*
G02*
X31718750Y-79200000I243750J0D01*
G01*
X32206250Y-79200000D01*
G75*
G02*
X32450000Y-79443750I0J-243750D01*
G01*
X32450000Y-80356250D01*
G75*
G02*
X32206250Y-80600000I-243750J0D01*
G01*
X31718750Y-80600000D01*
G75*
G02*
X31475000Y-80356250I0J243750D01*
G01*
G37*
G36*
G01*
X75275000Y-59881250D02*
X75275000Y-58968750D01*
G75*
G02*
X75518750Y-58725000I243750J0D01*
G01*
X76006250Y-58725000D01*
G75*
G02*
X76250000Y-58968750I0J-243750D01*
G01*
X76250000Y-59881250D01*
G75*
G02*
X76006250Y-60125000I-243750J0D01*
G01*
X75518750Y-60125000D01*
G75*
G02*
X75275000Y-59881250I0J243750D01*
G01*
G37*
G36*
G01*
X73400000Y-59881250D02*
X73400000Y-58968750D01*
G75*
G02*
X73643750Y-58725000I243750J0D01*
G01*
X74131250Y-58725000D01*
G75*
G02*
X74375000Y-58968750I0J-243750D01*
G01*
X74375000Y-59881250D01*
G75*
G02*
X74131250Y-60125000I-243750J0D01*
G01*
X73643750Y-60125000D01*
G75*
G02*
X73400000Y-59881250I0J243750D01*
G01*
G37*
D12*
X37300000Y-13975000D03*
X40650000Y-17025000D03*
X37300000Y-17025000D03*
X40650000Y-13975000D03*
D13*
X32675000Y-13220000D03*
X32675000Y-15500000D03*
X32675000Y-17780000D03*
G36*
G01*
X36848200Y-86054250D02*
X36848200Y-85141750D01*
G75*
G02*
X37091950Y-84898000I243750J0D01*
G01*
X37579450Y-84898000D01*
G75*
G02*
X37823200Y-85141750I0J-243750D01*
G01*
X37823200Y-86054250D01*
G75*
G02*
X37579450Y-86298000I-243750J0D01*
G01*
X37091950Y-86298000D01*
G75*
G02*
X36848200Y-86054250I0J243750D01*
G01*
G37*
G36*
G01*
X34973200Y-86054250D02*
X34973200Y-85141750D01*
G75*
G02*
X35216950Y-84898000I243750J0D01*
G01*
X35704450Y-84898000D01*
G75*
G02*
X35948200Y-85141750I0J-243750D01*
G01*
X35948200Y-86054250D01*
G75*
G02*
X35704450Y-86298000I-243750J0D01*
G01*
X35216950Y-86298000D01*
G75*
G02*
X34973200Y-86054250I0J243750D01*
G01*
G37*
G36*
G01*
X36822800Y-88365650D02*
X36822800Y-87453150D01*
G75*
G02*
X37066550Y-87209400I243750J0D01*
G01*
X37554050Y-87209400D01*
G75*
G02*
X37797800Y-87453150I0J-243750D01*
G01*
X37797800Y-88365650D01*
G75*
G02*
X37554050Y-88609400I-243750J0D01*
G01*
X37066550Y-88609400D01*
G75*
G02*
X36822800Y-88365650I0J243750D01*
G01*
G37*
G36*
G01*
X34947800Y-88365650D02*
X34947800Y-87453150D01*
G75*
G02*
X35191550Y-87209400I243750J0D01*
G01*
X35679050Y-87209400D01*
G75*
G02*
X35922800Y-87453150I0J-243750D01*
G01*
X35922800Y-88365650D01*
G75*
G02*
X35679050Y-88609400I-243750J0D01*
G01*
X35191550Y-88609400D01*
G75*
G02*
X34947800Y-88365650I0J243750D01*
G01*
G37*
G36*
G01*
X3453450Y-77985200D02*
X2540950Y-77985200D01*
G75*
G02*
X2297200Y-77741450I0J243750D01*
G01*
X2297200Y-77253950D01*
G75*
G02*
X2540950Y-77010200I243750J0D01*
G01*
X3453450Y-77010200D01*
G75*
G02*
X3697200Y-77253950I0J-243750D01*
G01*
X3697200Y-77741450D01*
G75*
G02*
X3453450Y-77985200I-243750J0D01*
G01*
G37*
G36*
G01*
X3453450Y-79860200D02*
X2540950Y-79860200D01*
G75*
G02*
X2297200Y-79616450I0J243750D01*
G01*
X2297200Y-79128950D01*
G75*
G02*
X2540950Y-78885200I243750J0D01*
G01*
X3453450Y-78885200D01*
G75*
G02*
X3697200Y-79128950I0J-243750D01*
G01*
X3697200Y-79616450D01*
G75*
G02*
X3453450Y-79860200I-243750J0D01*
G01*
G37*
G36*
G01*
X60129000Y-84709950D02*
X60129000Y-85622450D01*
G75*
G02*
X59885250Y-85866200I-243750J0D01*
G01*
X59397750Y-85866200D01*
G75*
G02*
X59154000Y-85622450I0J243750D01*
G01*
X59154000Y-84709950D01*
G75*
G02*
X59397750Y-84466200I243750J0D01*
G01*
X59885250Y-84466200D01*
G75*
G02*
X60129000Y-84709950I0J-243750D01*
G01*
G37*
G36*
G01*
X62004000Y-84709950D02*
X62004000Y-85622450D01*
G75*
G02*
X61760250Y-85866200I-243750J0D01*
G01*
X61272750Y-85866200D01*
G75*
G02*
X61029000Y-85622450I0J243750D01*
G01*
X61029000Y-84709950D01*
G75*
G02*
X61272750Y-84466200I243750J0D01*
G01*
X61760250Y-84466200D01*
G75*
G02*
X62004000Y-84709950I0J-243750D01*
G01*
G37*
G36*
G01*
X54871200Y-88342150D02*
X54871200Y-89254650D01*
G75*
G02*
X54627450Y-89498400I-243750J0D01*
G01*
X54139950Y-89498400D01*
G75*
G02*
X53896200Y-89254650I0J243750D01*
G01*
X53896200Y-88342150D01*
G75*
G02*
X54139950Y-88098400I243750J0D01*
G01*
X54627450Y-88098400D01*
G75*
G02*
X54871200Y-88342150I0J-243750D01*
G01*
G37*
G36*
G01*
X56746200Y-88342150D02*
X56746200Y-89254650D01*
G75*
G02*
X56502450Y-89498400I-243750J0D01*
G01*
X56014950Y-89498400D01*
G75*
G02*
X55771200Y-89254650I0J243750D01*
G01*
X55771200Y-88342150D01*
G75*
G02*
X56014950Y-88098400I243750J0D01*
G01*
X56502450Y-88098400D01*
G75*
G02*
X56746200Y-88342150I0J-243750D01*
G01*
G37*
D14*
X71545200Y-32933600D03*
X69545200Y-31983600D03*
X69545200Y-33883600D03*
D15*
X28038600Y-86537800D03*
X18138600Y-86537800D03*
D16*
X32334200Y-87688600D03*
X31384200Y-87688600D03*
X33284200Y-87688600D03*
X33284200Y-85488600D03*
X32334200Y-85488600D03*
X31384200Y-85488600D03*
D17*
X58869400Y-88747600D03*
X58869400Y-87797600D03*
X58869400Y-89697600D03*
X61069400Y-89697600D03*
X61069400Y-88747600D03*
X61069400Y-87797600D03*
D18*
X15849200Y-54254400D03*
X14529200Y-54254400D03*
D19*
X12914200Y-57029400D03*
X13564200Y-57029400D03*
X14214200Y-57029400D03*
X14864200Y-57029400D03*
X15514200Y-57029400D03*
X16164200Y-57029400D03*
X16814200Y-57029400D03*
X17464200Y-57029400D03*
X17464200Y-51479400D03*
X16814200Y-51479400D03*
X16164200Y-51479400D03*
X15514200Y-51479400D03*
X14864200Y-51479400D03*
X14214200Y-51479400D03*
X13564200Y-51479400D03*
X12914200Y-51479400D03*
G36*
G01*
X16968600Y-45133400D02*
X16968600Y-44833400D01*
G75*
G02*
X17118600Y-44683400I150000J0D01*
G01*
X18768600Y-44683400D01*
G75*
G02*
X18918600Y-44833400I0J-150000D01*
G01*
X18918600Y-45133400D01*
G75*
G02*
X18768600Y-45283400I-150000J0D01*
G01*
X17118600Y-45283400D01*
G75*
G02*
X16968600Y-45133400I0J150000D01*
G01*
G37*
G36*
G01*
X16968600Y-43863400D02*
X16968600Y-43563400D01*
G75*
G02*
X17118600Y-43413400I150000J0D01*
G01*
X18768600Y-43413400D01*
G75*
G02*
X18918600Y-43563400I0J-150000D01*
G01*
X18918600Y-43863400D01*
G75*
G02*
X18768600Y-44013400I-150000J0D01*
G01*
X17118600Y-44013400D01*
G75*
G02*
X16968600Y-43863400I0J150000D01*
G01*
G37*
G36*
G01*
X16968600Y-42593400D02*
X16968600Y-42293400D01*
G75*
G02*
X17118600Y-42143400I150000J0D01*
G01*
X18768600Y-42143400D01*
G75*
G02*
X18918600Y-42293400I0J-150000D01*
G01*
X18918600Y-42593400D01*
G75*
G02*
X18768600Y-42743400I-150000J0D01*
G01*
X17118600Y-42743400D01*
G75*
G02*
X16968600Y-42593400I0J150000D01*
G01*
G37*
G36*
G01*
X16968600Y-41323400D02*
X16968600Y-41023400D01*
G75*
G02*
X17118600Y-40873400I150000J0D01*
G01*
X18768600Y-40873400D01*
G75*
G02*
X18918600Y-41023400I0J-150000D01*
G01*
X18918600Y-41323400D01*
G75*
G02*
X18768600Y-41473400I-150000J0D01*
G01*
X17118600Y-41473400D01*
G75*
G02*
X16968600Y-41323400I0J150000D01*
G01*
G37*
G36*
G01*
X16968600Y-40053400D02*
X16968600Y-39753400D01*
G75*
G02*
X17118600Y-39603400I150000J0D01*
G01*
X18768600Y-39603400D01*
G75*
G02*
X18918600Y-39753400I0J-150000D01*
G01*
X18918600Y-40053400D01*
G75*
G02*
X18768600Y-40203400I-150000J0D01*
G01*
X17118600Y-40203400D01*
G75*
G02*
X16968600Y-40053400I0J150000D01*
G01*
G37*
G36*
G01*
X16968600Y-38783400D02*
X16968600Y-38483400D01*
G75*
G02*
X17118600Y-38333400I150000J0D01*
G01*
X18768600Y-38333400D01*
G75*
G02*
X18918600Y-38483400I0J-150000D01*
G01*
X18918600Y-38783400D01*
G75*
G02*
X18768600Y-38933400I-150000J0D01*
G01*
X17118600Y-38933400D01*
G75*
G02*
X16968600Y-38783400I0J150000D01*
G01*
G37*
G36*
G01*
X16968600Y-37513400D02*
X16968600Y-37213400D01*
G75*
G02*
X17118600Y-37063400I150000J0D01*
G01*
X18768600Y-37063400D01*
G75*
G02*
X18918600Y-37213400I0J-150000D01*
G01*
X18918600Y-37513400D01*
G75*
G02*
X18768600Y-37663400I-150000J0D01*
G01*
X17118600Y-37663400D01*
G75*
G02*
X16968600Y-37513400I0J150000D01*
G01*
G37*
G36*
G01*
X16968600Y-36243400D02*
X16968600Y-35943400D01*
G75*
G02*
X17118600Y-35793400I150000J0D01*
G01*
X18768600Y-35793400D01*
G75*
G02*
X18918600Y-35943400I0J-150000D01*
G01*
X18918600Y-36243400D01*
G75*
G02*
X18768600Y-36393400I-150000J0D01*
G01*
X17118600Y-36393400D01*
G75*
G02*
X16968600Y-36243400I0J150000D01*
G01*
G37*
G36*
G01*
X12018600Y-36243400D02*
X12018600Y-35943400D01*
G75*
G02*
X12168600Y-35793400I150000J0D01*
G01*
X13818600Y-35793400D01*
G75*
G02*
X13968600Y-35943400I0J-150000D01*
G01*
X13968600Y-36243400D01*
G75*
G02*
X13818600Y-36393400I-150000J0D01*
G01*
X12168600Y-36393400D01*
G75*
G02*
X12018600Y-36243400I0J150000D01*
G01*
G37*
G36*
G01*
X12018600Y-37513400D02*
X12018600Y-37213400D01*
G75*
G02*
X12168600Y-37063400I150000J0D01*
G01*
X13818600Y-37063400D01*
G75*
G02*
X13968600Y-37213400I0J-150000D01*
G01*
X13968600Y-37513400D01*
G75*
G02*
X13818600Y-37663400I-150000J0D01*
G01*
X12168600Y-37663400D01*
G75*
G02*
X12018600Y-37513400I0J150000D01*
G01*
G37*
G36*
G01*
X12018600Y-38783400D02*
X12018600Y-38483400D01*
G75*
G02*
X12168600Y-38333400I150000J0D01*
G01*
X13818600Y-38333400D01*
G75*
G02*
X13968600Y-38483400I0J-150000D01*
G01*
X13968600Y-38783400D01*
G75*
G02*
X13818600Y-38933400I-150000J0D01*
G01*
X12168600Y-38933400D01*
G75*
G02*
X12018600Y-38783400I0J150000D01*
G01*
G37*
G36*
G01*
X12018600Y-40053400D02*
X12018600Y-39753400D01*
G75*
G02*
X12168600Y-39603400I150000J0D01*
G01*
X13818600Y-39603400D01*
G75*
G02*
X13968600Y-39753400I0J-150000D01*
G01*
X13968600Y-40053400D01*
G75*
G02*
X13818600Y-40203400I-150000J0D01*
G01*
X12168600Y-40203400D01*
G75*
G02*
X12018600Y-40053400I0J150000D01*
G01*
G37*
G36*
G01*
X12018600Y-41323400D02*
X12018600Y-41023400D01*
G75*
G02*
X12168600Y-40873400I150000J0D01*
G01*
X13818600Y-40873400D01*
G75*
G02*
X13968600Y-41023400I0J-150000D01*
G01*
X13968600Y-41323400D01*
G75*
G02*
X13818600Y-41473400I-150000J0D01*
G01*
X12168600Y-41473400D01*
G75*
G02*
X12018600Y-41323400I0J150000D01*
G01*
G37*
G36*
G01*
X12018600Y-42593400D02*
X12018600Y-42293400D01*
G75*
G02*
X12168600Y-42143400I150000J0D01*
G01*
X13818600Y-42143400D01*
G75*
G02*
X13968600Y-42293400I0J-150000D01*
G01*
X13968600Y-42593400D01*
G75*
G02*
X13818600Y-42743400I-150000J0D01*
G01*
X12168600Y-42743400D01*
G75*
G02*
X12018600Y-42593400I0J150000D01*
G01*
G37*
G36*
G01*
X12018600Y-43863400D02*
X12018600Y-43563400D01*
G75*
G02*
X12168600Y-43413400I150000J0D01*
G01*
X13818600Y-43413400D01*
G75*
G02*
X13968600Y-43563400I0J-150000D01*
G01*
X13968600Y-43863400D01*
G75*
G02*
X13818600Y-44013400I-150000J0D01*
G01*
X12168600Y-44013400D01*
G75*
G02*
X12018600Y-43863400I0J150000D01*
G01*
G37*
G36*
G01*
X12018600Y-45133400D02*
X12018600Y-44833400D01*
G75*
G02*
X12168600Y-44683400I150000J0D01*
G01*
X13818600Y-44683400D01*
G75*
G02*
X13968600Y-44833400I0J-150000D01*
G01*
X13968600Y-45133400D01*
G75*
G02*
X13818600Y-45283400I-150000J0D01*
G01*
X12168600Y-45283400D01*
G75*
G02*
X12018600Y-45133400I0J150000D01*
G01*
G37*
G36*
G01*
X42593400Y-37409800D02*
X42293400Y-37409800D01*
G75*
G02*
X42143400Y-37259800I0J150000D01*
G01*
X42143400Y-35609800D01*
G75*
G02*
X42293400Y-35459800I150000J0D01*
G01*
X42593400Y-35459800D01*
G75*
G02*
X42743400Y-35609800I0J-150000D01*
G01*
X42743400Y-37259800D01*
G75*
G02*
X42593400Y-37409800I-150000J0D01*
G01*
G37*
G36*
G01*
X41323400Y-37409800D02*
X41023400Y-37409800D01*
G75*
G02*
X40873400Y-37259800I0J150000D01*
G01*
X40873400Y-35609800D01*
G75*
G02*
X41023400Y-35459800I150000J0D01*
G01*
X41323400Y-35459800D01*
G75*
G02*
X41473400Y-35609800I0J-150000D01*
G01*
X41473400Y-37259800D01*
G75*
G02*
X41323400Y-37409800I-150000J0D01*
G01*
G37*
G36*
G01*
X40053400Y-37409800D02*
X39753400Y-37409800D01*
G75*
G02*
X39603400Y-37259800I0J150000D01*
G01*
X39603400Y-35609800D01*
G75*
G02*
X39753400Y-35459800I150000J0D01*
G01*
X40053400Y-35459800D01*
G75*
G02*
X40203400Y-35609800I0J-150000D01*
G01*
X40203400Y-37259800D01*
G75*
G02*
X40053400Y-37409800I-150000J0D01*
G01*
G37*
G36*
G01*
X38783400Y-37409800D02*
X38483400Y-37409800D01*
G75*
G02*
X38333400Y-37259800I0J150000D01*
G01*
X38333400Y-35609800D01*
G75*
G02*
X38483400Y-35459800I150000J0D01*
G01*
X38783400Y-35459800D01*
G75*
G02*
X38933400Y-35609800I0J-150000D01*
G01*
X38933400Y-37259800D01*
G75*
G02*
X38783400Y-37409800I-150000J0D01*
G01*
G37*
G36*
G01*
X37513400Y-37409800D02*
X37213400Y-37409800D01*
G75*
G02*
X37063400Y-37259800I0J150000D01*
G01*
X37063400Y-35609800D01*
G75*
G02*
X37213400Y-35459800I150000J0D01*
G01*
X37513400Y-35459800D01*
G75*
G02*
X37663400Y-35609800I0J-150000D01*
G01*
X37663400Y-37259800D01*
G75*
G02*
X37513400Y-37409800I-150000J0D01*
G01*
G37*
G36*
G01*
X36243400Y-37409800D02*
X35943400Y-37409800D01*
G75*
G02*
X35793400Y-37259800I0J150000D01*
G01*
X35793400Y-35609800D01*
G75*
G02*
X35943400Y-35459800I150000J0D01*
G01*
X36243400Y-35459800D01*
G75*
G02*
X36393400Y-35609800I0J-150000D01*
G01*
X36393400Y-37259800D01*
G75*
G02*
X36243400Y-37409800I-150000J0D01*
G01*
G37*
G36*
G01*
X34973400Y-37409800D02*
X34673400Y-37409800D01*
G75*
G02*
X34523400Y-37259800I0J150000D01*
G01*
X34523400Y-35609800D01*
G75*
G02*
X34673400Y-35459800I150000J0D01*
G01*
X34973400Y-35459800D01*
G75*
G02*
X35123400Y-35609800I0J-150000D01*
G01*
X35123400Y-37259800D01*
G75*
G02*
X34973400Y-37409800I-150000J0D01*
G01*
G37*
G36*
G01*
X33703400Y-37409800D02*
X33403400Y-37409800D01*
G75*
G02*
X33253400Y-37259800I0J150000D01*
G01*
X33253400Y-35609800D01*
G75*
G02*
X33403400Y-35459800I150000J0D01*
G01*
X33703400Y-35459800D01*
G75*
G02*
X33853400Y-35609800I0J-150000D01*
G01*
X33853400Y-37259800D01*
G75*
G02*
X33703400Y-37409800I-150000J0D01*
G01*
G37*
G36*
G01*
X33703400Y-32459800D02*
X33403400Y-32459800D01*
G75*
G02*
X33253400Y-32309800I0J150000D01*
G01*
X33253400Y-30659800D01*
G75*
G02*
X33403400Y-30509800I150000J0D01*
G01*
X33703400Y-30509800D01*
G75*
G02*
X33853400Y-30659800I0J-150000D01*
G01*
X33853400Y-32309800D01*
G75*
G02*
X33703400Y-32459800I-150000J0D01*
G01*
G37*
G36*
G01*
X34973400Y-32459800D02*
X34673400Y-32459800D01*
G75*
G02*
X34523400Y-32309800I0J150000D01*
G01*
X34523400Y-30659800D01*
G75*
G02*
X34673400Y-30509800I150000J0D01*
G01*
X34973400Y-30509800D01*
G75*
G02*
X35123400Y-30659800I0J-150000D01*
G01*
X35123400Y-32309800D01*
G75*
G02*
X34973400Y-32459800I-150000J0D01*
G01*
G37*
G36*
G01*
X36243400Y-32459800D02*
X35943400Y-32459800D01*
G75*
G02*
X35793400Y-32309800I0J150000D01*
G01*
X35793400Y-30659800D01*
G75*
G02*
X35943400Y-30509800I150000J0D01*
G01*
X36243400Y-30509800D01*
G75*
G02*
X36393400Y-30659800I0J-150000D01*
G01*
X36393400Y-32309800D01*
G75*
G02*
X36243400Y-32459800I-150000J0D01*
G01*
G37*
G36*
G01*
X37513400Y-32459800D02*
X37213400Y-32459800D01*
G75*
G02*
X37063400Y-32309800I0J150000D01*
G01*
X37063400Y-30659800D01*
G75*
G02*
X37213400Y-30509800I150000J0D01*
G01*
X37513400Y-30509800D01*
G75*
G02*
X37663400Y-30659800I0J-150000D01*
G01*
X37663400Y-32309800D01*
G75*
G02*
X37513400Y-32459800I-150000J0D01*
G01*
G37*
G36*
G01*
X38783400Y-32459800D02*
X38483400Y-32459800D01*
G75*
G02*
X38333400Y-32309800I0J150000D01*
G01*
X38333400Y-30659800D01*
G75*
G02*
X38483400Y-30509800I150000J0D01*
G01*
X38783400Y-30509800D01*
G75*
G02*
X38933400Y-30659800I0J-150000D01*
G01*
X38933400Y-32309800D01*
G75*
G02*
X38783400Y-32459800I-150000J0D01*
G01*
G37*
G36*
G01*
X40053400Y-32459800D02*
X39753400Y-32459800D01*
G75*
G02*
X39603400Y-32309800I0J150000D01*
G01*
X39603400Y-30659800D01*
G75*
G02*
X39753400Y-30509800I150000J0D01*
G01*
X40053400Y-30509800D01*
G75*
G02*
X40203400Y-30659800I0J-150000D01*
G01*
X40203400Y-32309800D01*
G75*
G02*
X40053400Y-32459800I-150000J0D01*
G01*
G37*
G36*
G01*
X41323400Y-32459800D02*
X41023400Y-32459800D01*
G75*
G02*
X40873400Y-32309800I0J150000D01*
G01*
X40873400Y-30659800D01*
G75*
G02*
X41023400Y-30509800I150000J0D01*
G01*
X41323400Y-30509800D01*
G75*
G02*
X41473400Y-30659800I0J-150000D01*
G01*
X41473400Y-32309800D01*
G75*
G02*
X41323400Y-32459800I-150000J0D01*
G01*
G37*
G36*
G01*
X42593400Y-32459800D02*
X42293400Y-32459800D01*
G75*
G02*
X42143400Y-32309800I0J150000D01*
G01*
X42143400Y-30659800D01*
G75*
G02*
X42293400Y-30509800I150000J0D01*
G01*
X42593400Y-30509800D01*
G75*
G02*
X42743400Y-30659800I0J-150000D01*
G01*
X42743400Y-32309800D01*
G75*
G02*
X42593400Y-32459800I-150000J0D01*
G01*
G37*
G36*
G01*
X32103200Y-37398600D02*
X31803200Y-37398600D01*
G75*
G02*
X31653200Y-37248600I0J150000D01*
G01*
X31653200Y-35598600D01*
G75*
G02*
X31803200Y-35448600I150000J0D01*
G01*
X32103200Y-35448600D01*
G75*
G02*
X32253200Y-35598600I0J-150000D01*
G01*
X32253200Y-37248600D01*
G75*
G02*
X32103200Y-37398600I-150000J0D01*
G01*
G37*
G36*
G01*
X30833200Y-37398600D02*
X30533200Y-37398600D01*
G75*
G02*
X30383200Y-37248600I0J150000D01*
G01*
X30383200Y-35598600D01*
G75*
G02*
X30533200Y-35448600I150000J0D01*
G01*
X30833200Y-35448600D01*
G75*
G02*
X30983200Y-35598600I0J-150000D01*
G01*
X30983200Y-37248600D01*
G75*
G02*
X30833200Y-37398600I-150000J0D01*
G01*
G37*
G36*
G01*
X29563200Y-37398600D02*
X29263200Y-37398600D01*
G75*
G02*
X29113200Y-37248600I0J150000D01*
G01*
X29113200Y-35598600D01*
G75*
G02*
X29263200Y-35448600I150000J0D01*
G01*
X29563200Y-35448600D01*
G75*
G02*
X29713200Y-35598600I0J-150000D01*
G01*
X29713200Y-37248600D01*
G75*
G02*
X29563200Y-37398600I-150000J0D01*
G01*
G37*
G36*
G01*
X28293200Y-37398600D02*
X27993200Y-37398600D01*
G75*
G02*
X27843200Y-37248600I0J150000D01*
G01*
X27843200Y-35598600D01*
G75*
G02*
X27993200Y-35448600I150000J0D01*
G01*
X28293200Y-35448600D01*
G75*
G02*
X28443200Y-35598600I0J-150000D01*
G01*
X28443200Y-37248600D01*
G75*
G02*
X28293200Y-37398600I-150000J0D01*
G01*
G37*
G36*
G01*
X27023200Y-37398600D02*
X26723200Y-37398600D01*
G75*
G02*
X26573200Y-37248600I0J150000D01*
G01*
X26573200Y-35598600D01*
G75*
G02*
X26723200Y-35448600I150000J0D01*
G01*
X27023200Y-35448600D01*
G75*
G02*
X27173200Y-35598600I0J-150000D01*
G01*
X27173200Y-37248600D01*
G75*
G02*
X27023200Y-37398600I-150000J0D01*
G01*
G37*
G36*
G01*
X25753200Y-37398600D02*
X25453200Y-37398600D01*
G75*
G02*
X25303200Y-37248600I0J150000D01*
G01*
X25303200Y-35598600D01*
G75*
G02*
X25453200Y-35448600I150000J0D01*
G01*
X25753200Y-35448600D01*
G75*
G02*
X25903200Y-35598600I0J-150000D01*
G01*
X25903200Y-37248600D01*
G75*
G02*
X25753200Y-37398600I-150000J0D01*
G01*
G37*
G36*
G01*
X24483200Y-37398600D02*
X24183200Y-37398600D01*
G75*
G02*
X24033200Y-37248600I0J150000D01*
G01*
X24033200Y-35598600D01*
G75*
G02*
X24183200Y-35448600I150000J0D01*
G01*
X24483200Y-35448600D01*
G75*
G02*
X24633200Y-35598600I0J-150000D01*
G01*
X24633200Y-37248600D01*
G75*
G02*
X24483200Y-37398600I-150000J0D01*
G01*
G37*
G36*
G01*
X23213200Y-37398600D02*
X22913200Y-37398600D01*
G75*
G02*
X22763200Y-37248600I0J150000D01*
G01*
X22763200Y-35598600D01*
G75*
G02*
X22913200Y-35448600I150000J0D01*
G01*
X23213200Y-35448600D01*
G75*
G02*
X23363200Y-35598600I0J-150000D01*
G01*
X23363200Y-37248600D01*
G75*
G02*
X23213200Y-37398600I-150000J0D01*
G01*
G37*
G36*
G01*
X23213200Y-32448600D02*
X22913200Y-32448600D01*
G75*
G02*
X22763200Y-32298600I0J150000D01*
G01*
X22763200Y-30648600D01*
G75*
G02*
X22913200Y-30498600I150000J0D01*
G01*
X23213200Y-30498600D01*
G75*
G02*
X23363200Y-30648600I0J-150000D01*
G01*
X23363200Y-32298600D01*
G75*
G02*
X23213200Y-32448600I-150000J0D01*
G01*
G37*
G36*
G01*
X24483200Y-32448600D02*
X24183200Y-32448600D01*
G75*
G02*
X24033200Y-32298600I0J150000D01*
G01*
X24033200Y-30648600D01*
G75*
G02*
X24183200Y-30498600I150000J0D01*
G01*
X24483200Y-30498600D01*
G75*
G02*
X24633200Y-30648600I0J-150000D01*
G01*
X24633200Y-32298600D01*
G75*
G02*
X24483200Y-32448600I-150000J0D01*
G01*
G37*
G36*
G01*
X25753200Y-32448600D02*
X25453200Y-32448600D01*
G75*
G02*
X25303200Y-32298600I0J150000D01*
G01*
X25303200Y-30648600D01*
G75*
G02*
X25453200Y-30498600I150000J0D01*
G01*
X25753200Y-30498600D01*
G75*
G02*
X25903200Y-30648600I0J-150000D01*
G01*
X25903200Y-32298600D01*
G75*
G02*
X25753200Y-32448600I-150000J0D01*
G01*
G37*
G36*
G01*
X27023200Y-32448600D02*
X26723200Y-32448600D01*
G75*
G02*
X26573200Y-32298600I0J150000D01*
G01*
X26573200Y-30648600D01*
G75*
G02*
X26723200Y-30498600I150000J0D01*
G01*
X27023200Y-30498600D01*
G75*
G02*
X27173200Y-30648600I0J-150000D01*
G01*
X27173200Y-32298600D01*
G75*
G02*
X27023200Y-32448600I-150000J0D01*
G01*
G37*
G36*
G01*
X28293200Y-32448600D02*
X27993200Y-32448600D01*
G75*
G02*
X27843200Y-32298600I0J150000D01*
G01*
X27843200Y-30648600D01*
G75*
G02*
X27993200Y-30498600I150000J0D01*
G01*
X28293200Y-30498600D01*
G75*
G02*
X28443200Y-30648600I0J-150000D01*
G01*
X28443200Y-32298600D01*
G75*
G02*
X28293200Y-32448600I-150000J0D01*
G01*
G37*
G36*
G01*
X29563200Y-32448600D02*
X29263200Y-32448600D01*
G75*
G02*
X29113200Y-32298600I0J150000D01*
G01*
X29113200Y-30648600D01*
G75*
G02*
X29263200Y-30498600I150000J0D01*
G01*
X29563200Y-30498600D01*
G75*
G02*
X29713200Y-30648600I0J-150000D01*
G01*
X29713200Y-32298600D01*
G75*
G02*
X29563200Y-32448600I-150000J0D01*
G01*
G37*
G36*
G01*
X30833200Y-32448600D02*
X30533200Y-32448600D01*
G75*
G02*
X30383200Y-32298600I0J150000D01*
G01*
X30383200Y-30648600D01*
G75*
G02*
X30533200Y-30498600I150000J0D01*
G01*
X30833200Y-30498600D01*
G75*
G02*
X30983200Y-30648600I0J-150000D01*
G01*
X30983200Y-32298600D01*
G75*
G02*
X30833200Y-32448600I-150000J0D01*
G01*
G37*
G36*
G01*
X32103200Y-32448600D02*
X31803200Y-32448600D01*
G75*
G02*
X31653200Y-32298600I0J150000D01*
G01*
X31653200Y-30648600D01*
G75*
G02*
X31803200Y-30498600I150000J0D01*
G01*
X32103200Y-30498600D01*
G75*
G02*
X32253200Y-30648600I0J-150000D01*
G01*
X32253200Y-32298600D01*
G75*
G02*
X32103200Y-32448600I-150000J0D01*
G01*
G37*
G36*
G01*
X53058200Y-37409800D02*
X52758200Y-37409800D01*
G75*
G02*
X52608200Y-37259800I0J150000D01*
G01*
X52608200Y-35609800D01*
G75*
G02*
X52758200Y-35459800I150000J0D01*
G01*
X53058200Y-35459800D01*
G75*
G02*
X53208200Y-35609800I0J-150000D01*
G01*
X53208200Y-37259800D01*
G75*
G02*
X53058200Y-37409800I-150000J0D01*
G01*
G37*
G36*
G01*
X51788200Y-37409800D02*
X51488200Y-37409800D01*
G75*
G02*
X51338200Y-37259800I0J150000D01*
G01*
X51338200Y-35609800D01*
G75*
G02*
X51488200Y-35459800I150000J0D01*
G01*
X51788200Y-35459800D01*
G75*
G02*
X51938200Y-35609800I0J-150000D01*
G01*
X51938200Y-37259800D01*
G75*
G02*
X51788200Y-37409800I-150000J0D01*
G01*
G37*
G36*
G01*
X50518200Y-37409800D02*
X50218200Y-37409800D01*
G75*
G02*
X50068200Y-37259800I0J150000D01*
G01*
X50068200Y-35609800D01*
G75*
G02*
X50218200Y-35459800I150000J0D01*
G01*
X50518200Y-35459800D01*
G75*
G02*
X50668200Y-35609800I0J-150000D01*
G01*
X50668200Y-37259800D01*
G75*
G02*
X50518200Y-37409800I-150000J0D01*
G01*
G37*
G36*
G01*
X49248200Y-37409800D02*
X48948200Y-37409800D01*
G75*
G02*
X48798200Y-37259800I0J150000D01*
G01*
X48798200Y-35609800D01*
G75*
G02*
X48948200Y-35459800I150000J0D01*
G01*
X49248200Y-35459800D01*
G75*
G02*
X49398200Y-35609800I0J-150000D01*
G01*
X49398200Y-37259800D01*
G75*
G02*
X49248200Y-37409800I-150000J0D01*
G01*
G37*
G36*
G01*
X47978200Y-37409800D02*
X47678200Y-37409800D01*
G75*
G02*
X47528200Y-37259800I0J150000D01*
G01*
X47528200Y-35609800D01*
G75*
G02*
X47678200Y-35459800I150000J0D01*
G01*
X47978200Y-35459800D01*
G75*
G02*
X48128200Y-35609800I0J-150000D01*
G01*
X48128200Y-37259800D01*
G75*
G02*
X47978200Y-37409800I-150000J0D01*
G01*
G37*
G36*
G01*
X46708200Y-37409800D02*
X46408200Y-37409800D01*
G75*
G02*
X46258200Y-37259800I0J150000D01*
G01*
X46258200Y-35609800D01*
G75*
G02*
X46408200Y-35459800I150000J0D01*
G01*
X46708200Y-35459800D01*
G75*
G02*
X46858200Y-35609800I0J-150000D01*
G01*
X46858200Y-37259800D01*
G75*
G02*
X46708200Y-37409800I-150000J0D01*
G01*
G37*
G36*
G01*
X45438200Y-37409800D02*
X45138200Y-37409800D01*
G75*
G02*
X44988200Y-37259800I0J150000D01*
G01*
X44988200Y-35609800D01*
G75*
G02*
X45138200Y-35459800I150000J0D01*
G01*
X45438200Y-35459800D01*
G75*
G02*
X45588200Y-35609800I0J-150000D01*
G01*
X45588200Y-37259800D01*
G75*
G02*
X45438200Y-37409800I-150000J0D01*
G01*
G37*
G36*
G01*
X44168200Y-37409800D02*
X43868200Y-37409800D01*
G75*
G02*
X43718200Y-37259800I0J150000D01*
G01*
X43718200Y-35609800D01*
G75*
G02*
X43868200Y-35459800I150000J0D01*
G01*
X44168200Y-35459800D01*
G75*
G02*
X44318200Y-35609800I0J-150000D01*
G01*
X44318200Y-37259800D01*
G75*
G02*
X44168200Y-37409800I-150000J0D01*
G01*
G37*
G36*
G01*
X44168200Y-32459800D02*
X43868200Y-32459800D01*
G75*
G02*
X43718200Y-32309800I0J150000D01*
G01*
X43718200Y-30659800D01*
G75*
G02*
X43868200Y-30509800I150000J0D01*
G01*
X44168200Y-30509800D01*
G75*
G02*
X44318200Y-30659800I0J-150000D01*
G01*
X44318200Y-32309800D01*
G75*
G02*
X44168200Y-32459800I-150000J0D01*
G01*
G37*
G36*
G01*
X45438200Y-32459800D02*
X45138200Y-32459800D01*
G75*
G02*
X44988200Y-32309800I0J150000D01*
G01*
X44988200Y-30659800D01*
G75*
G02*
X45138200Y-30509800I150000J0D01*
G01*
X45438200Y-30509800D01*
G75*
G02*
X45588200Y-30659800I0J-150000D01*
G01*
X45588200Y-32309800D01*
G75*
G02*
X45438200Y-32459800I-150000J0D01*
G01*
G37*
G36*
G01*
X46708200Y-32459800D02*
X46408200Y-32459800D01*
G75*
G02*
X46258200Y-32309800I0J150000D01*
G01*
X46258200Y-30659800D01*
G75*
G02*
X46408200Y-30509800I150000J0D01*
G01*
X46708200Y-30509800D01*
G75*
G02*
X46858200Y-30659800I0J-150000D01*
G01*
X46858200Y-32309800D01*
G75*
G02*
X46708200Y-32459800I-150000J0D01*
G01*
G37*
G36*
G01*
X47978200Y-32459800D02*
X47678200Y-32459800D01*
G75*
G02*
X47528200Y-32309800I0J150000D01*
G01*
X47528200Y-30659800D01*
G75*
G02*
X47678200Y-30509800I150000J0D01*
G01*
X47978200Y-30509800D01*
G75*
G02*
X48128200Y-30659800I0J-150000D01*
G01*
X48128200Y-32309800D01*
G75*
G02*
X47978200Y-32459800I-150000J0D01*
G01*
G37*
G36*
G01*
X49248200Y-32459800D02*
X48948200Y-32459800D01*
G75*
G02*
X48798200Y-32309800I0J150000D01*
G01*
X48798200Y-30659800D01*
G75*
G02*
X48948200Y-30509800I150000J0D01*
G01*
X49248200Y-30509800D01*
G75*
G02*
X49398200Y-30659800I0J-150000D01*
G01*
X49398200Y-32309800D01*
G75*
G02*
X49248200Y-32459800I-150000J0D01*
G01*
G37*
G36*
G01*
X50518200Y-32459800D02*
X50218200Y-32459800D01*
G75*
G02*
X50068200Y-32309800I0J150000D01*
G01*
X50068200Y-30659800D01*
G75*
G02*
X50218200Y-30509800I150000J0D01*
G01*
X50518200Y-30509800D01*
G75*
G02*
X50668200Y-30659800I0J-150000D01*
G01*
X50668200Y-32309800D01*
G75*
G02*
X50518200Y-32459800I-150000J0D01*
G01*
G37*
G36*
G01*
X51788200Y-32459800D02*
X51488200Y-32459800D01*
G75*
G02*
X51338200Y-32309800I0J150000D01*
G01*
X51338200Y-30659800D01*
G75*
G02*
X51488200Y-30509800I150000J0D01*
G01*
X51788200Y-30509800D01*
G75*
G02*
X51938200Y-30659800I0J-150000D01*
G01*
X51938200Y-32309800D01*
G75*
G02*
X51788200Y-32459800I-150000J0D01*
G01*
G37*
G36*
G01*
X53058200Y-32459800D02*
X52758200Y-32459800D01*
G75*
G02*
X52608200Y-32309800I0J150000D01*
G01*
X52608200Y-30659800D01*
G75*
G02*
X52758200Y-30509800I150000J0D01*
G01*
X53058200Y-30509800D01*
G75*
G02*
X53208200Y-30659800I0J-150000D01*
G01*
X53208200Y-32309800D01*
G75*
G02*
X53058200Y-32459800I-150000J0D01*
G01*
G37*
G36*
G01*
X7927200Y-17933800D02*
X8227200Y-17933800D01*
G75*
G02*
X8377200Y-18083800I0J-150000D01*
G01*
X8377200Y-19733800D01*
G75*
G02*
X8227200Y-19883800I-150000J0D01*
G01*
X7927200Y-19883800D01*
G75*
G02*
X7777200Y-19733800I0J150000D01*
G01*
X7777200Y-18083800D01*
G75*
G02*
X7927200Y-17933800I150000J0D01*
G01*
G37*
G36*
G01*
X9197200Y-17933800D02*
X9497200Y-17933800D01*
G75*
G02*
X9647200Y-18083800I0J-150000D01*
G01*
X9647200Y-19733800D01*
G75*
G02*
X9497200Y-19883800I-150000J0D01*
G01*
X9197200Y-19883800D01*
G75*
G02*
X9047200Y-19733800I0J150000D01*
G01*
X9047200Y-18083800D01*
G75*
G02*
X9197200Y-17933800I150000J0D01*
G01*
G37*
G36*
G01*
X10467200Y-17933800D02*
X10767200Y-17933800D01*
G75*
G02*
X10917200Y-18083800I0J-150000D01*
G01*
X10917200Y-19733800D01*
G75*
G02*
X10767200Y-19883800I-150000J0D01*
G01*
X10467200Y-19883800D01*
G75*
G02*
X10317200Y-19733800I0J150000D01*
G01*
X10317200Y-18083800D01*
G75*
G02*
X10467200Y-17933800I150000J0D01*
G01*
G37*
G36*
G01*
X11737200Y-17933800D02*
X12037200Y-17933800D01*
G75*
G02*
X12187200Y-18083800I0J-150000D01*
G01*
X12187200Y-19733800D01*
G75*
G02*
X12037200Y-19883800I-150000J0D01*
G01*
X11737200Y-19883800D01*
G75*
G02*
X11587200Y-19733800I0J150000D01*
G01*
X11587200Y-18083800D01*
G75*
G02*
X11737200Y-17933800I150000J0D01*
G01*
G37*
G36*
G01*
X13007200Y-17933800D02*
X13307200Y-17933800D01*
G75*
G02*
X13457200Y-18083800I0J-150000D01*
G01*
X13457200Y-19733800D01*
G75*
G02*
X13307200Y-19883800I-150000J0D01*
G01*
X13007200Y-19883800D01*
G75*
G02*
X12857200Y-19733800I0J150000D01*
G01*
X12857200Y-18083800D01*
G75*
G02*
X13007200Y-17933800I150000J0D01*
G01*
G37*
G36*
G01*
X14277200Y-17933800D02*
X14577200Y-17933800D01*
G75*
G02*
X14727200Y-18083800I0J-150000D01*
G01*
X14727200Y-19733800D01*
G75*
G02*
X14577200Y-19883800I-150000J0D01*
G01*
X14277200Y-19883800D01*
G75*
G02*
X14127200Y-19733800I0J150000D01*
G01*
X14127200Y-18083800D01*
G75*
G02*
X14277200Y-17933800I150000J0D01*
G01*
G37*
G36*
G01*
X15547200Y-17933800D02*
X15847200Y-17933800D01*
G75*
G02*
X15997200Y-18083800I0J-150000D01*
G01*
X15997200Y-19733800D01*
G75*
G02*
X15847200Y-19883800I-150000J0D01*
G01*
X15547200Y-19883800D01*
G75*
G02*
X15397200Y-19733800I0J150000D01*
G01*
X15397200Y-18083800D01*
G75*
G02*
X15547200Y-17933800I150000J0D01*
G01*
G37*
G36*
G01*
X16817200Y-17933800D02*
X17117200Y-17933800D01*
G75*
G02*
X17267200Y-18083800I0J-150000D01*
G01*
X17267200Y-19733800D01*
G75*
G02*
X17117200Y-19883800I-150000J0D01*
G01*
X16817200Y-19883800D01*
G75*
G02*
X16667200Y-19733800I0J150000D01*
G01*
X16667200Y-18083800D01*
G75*
G02*
X16817200Y-17933800I150000J0D01*
G01*
G37*
G36*
G01*
X16817200Y-12983800D02*
X17117200Y-12983800D01*
G75*
G02*
X17267200Y-13133800I0J-150000D01*
G01*
X17267200Y-14783800D01*
G75*
G02*
X17117200Y-14933800I-150000J0D01*
G01*
X16817200Y-14933800D01*
G75*
G02*
X16667200Y-14783800I0J150000D01*
G01*
X16667200Y-13133800D01*
G75*
G02*
X16817200Y-12983800I150000J0D01*
G01*
G37*
G36*
G01*
X15547200Y-12983800D02*
X15847200Y-12983800D01*
G75*
G02*
X15997200Y-13133800I0J-150000D01*
G01*
X15997200Y-14783800D01*
G75*
G02*
X15847200Y-14933800I-150000J0D01*
G01*
X15547200Y-14933800D01*
G75*
G02*
X15397200Y-14783800I0J150000D01*
G01*
X15397200Y-13133800D01*
G75*
G02*
X15547200Y-12983800I150000J0D01*
G01*
G37*
G36*
G01*
X14277200Y-12983800D02*
X14577200Y-12983800D01*
G75*
G02*
X14727200Y-13133800I0J-150000D01*
G01*
X14727200Y-14783800D01*
G75*
G02*
X14577200Y-14933800I-150000J0D01*
G01*
X14277200Y-14933800D01*
G75*
G02*
X14127200Y-14783800I0J150000D01*
G01*
X14127200Y-13133800D01*
G75*
G02*
X14277200Y-12983800I150000J0D01*
G01*
G37*
G36*
G01*
X13007200Y-12983800D02*
X13307200Y-12983800D01*
G75*
G02*
X13457200Y-13133800I0J-150000D01*
G01*
X13457200Y-14783800D01*
G75*
G02*
X13307200Y-14933800I-150000J0D01*
G01*
X13007200Y-14933800D01*
G75*
G02*
X12857200Y-14783800I0J150000D01*
G01*
X12857200Y-13133800D01*
G75*
G02*
X13007200Y-12983800I150000J0D01*
G01*
G37*
G36*
G01*
X11737200Y-12983800D02*
X12037200Y-12983800D01*
G75*
G02*
X12187200Y-13133800I0J-150000D01*
G01*
X12187200Y-14783800D01*
G75*
G02*
X12037200Y-14933800I-150000J0D01*
G01*
X11737200Y-14933800D01*
G75*
G02*
X11587200Y-14783800I0J150000D01*
G01*
X11587200Y-13133800D01*
G75*
G02*
X11737200Y-12983800I150000J0D01*
G01*
G37*
G36*
G01*
X10467200Y-12983800D02*
X10767200Y-12983800D01*
G75*
G02*
X10917200Y-13133800I0J-150000D01*
G01*
X10917200Y-14783800D01*
G75*
G02*
X10767200Y-14933800I-150000J0D01*
G01*
X10467200Y-14933800D01*
G75*
G02*
X10317200Y-14783800I0J150000D01*
G01*
X10317200Y-13133800D01*
G75*
G02*
X10467200Y-12983800I150000J0D01*
G01*
G37*
G36*
G01*
X9197200Y-12983800D02*
X9497200Y-12983800D01*
G75*
G02*
X9647200Y-13133800I0J-150000D01*
G01*
X9647200Y-14783800D01*
G75*
G02*
X9497200Y-14933800I-150000J0D01*
G01*
X9197200Y-14933800D01*
G75*
G02*
X9047200Y-14783800I0J150000D01*
G01*
X9047200Y-13133800D01*
G75*
G02*
X9197200Y-12983800I150000J0D01*
G01*
G37*
G36*
G01*
X7927200Y-12983800D02*
X8227200Y-12983800D01*
G75*
G02*
X8377200Y-13133800I0J-150000D01*
G01*
X8377200Y-14783800D01*
G75*
G02*
X8227200Y-14933800I-150000J0D01*
G01*
X7927200Y-14933800D01*
G75*
G02*
X7777200Y-14783800I0J150000D01*
G01*
X7777200Y-13133800D01*
G75*
G02*
X7927200Y-12983800I150000J0D01*
G01*
G37*
D20*
X37268000Y-41032000D03*
D21*
X35668000Y-41032000D03*
X36468000Y-41032000D03*
D20*
X34868000Y-41032000D03*
D21*
X36468000Y-39232000D03*
D20*
X37268000Y-39232000D03*
D21*
X35668000Y-39232000D03*
D20*
X34868000Y-39232000D03*
X41103400Y-41032000D03*
D21*
X39503400Y-41032000D03*
X40303400Y-41032000D03*
D20*
X38703400Y-41032000D03*
D21*
X40303400Y-39232000D03*
D20*
X41103400Y-39232000D03*
D21*
X39503400Y-39232000D03*
D20*
X38703400Y-39232000D03*
X27133400Y-40981200D03*
D21*
X25533400Y-40981200D03*
X26333400Y-40981200D03*
D20*
X24733400Y-40981200D03*
D21*
X26333400Y-39181200D03*
D20*
X27133400Y-39181200D03*
D21*
X25533400Y-39181200D03*
D20*
X24733400Y-39181200D03*
X30918000Y-40981200D03*
D21*
X29318000Y-40981200D03*
X30118000Y-40981200D03*
D20*
X28518000Y-40981200D03*
D21*
X30118000Y-39181200D03*
D20*
X30918000Y-39181200D03*
D21*
X29318000Y-39181200D03*
D20*
X28518000Y-39181200D03*
X47936000Y-40981200D03*
D21*
X46336000Y-40981200D03*
X47136000Y-40981200D03*
D20*
X45536000Y-40981200D03*
D21*
X47136000Y-39181200D03*
D20*
X47936000Y-39181200D03*
D21*
X46336000Y-39181200D03*
D20*
X45536000Y-39181200D03*
X51720600Y-40981200D03*
D21*
X50120600Y-40981200D03*
X50920600Y-40981200D03*
D20*
X49320600Y-40981200D03*
D21*
X50920600Y-39181200D03*
D20*
X51720600Y-39181200D03*
D21*
X50120600Y-39181200D03*
D20*
X49320600Y-39181200D03*
G36*
G01*
X32493800Y-81915950D02*
X32493800Y-82828450D01*
G75*
G02*
X32250050Y-83072200I-243750J0D01*
G01*
X31762550Y-83072200D01*
G75*
G02*
X31518800Y-82828450I0J243750D01*
G01*
X31518800Y-81915950D01*
G75*
G02*
X31762550Y-81672200I243750J0D01*
G01*
X32250050Y-81672200D01*
G75*
G02*
X32493800Y-81915950I0J-243750D01*
G01*
G37*
G36*
G01*
X34368800Y-81915950D02*
X34368800Y-82828450D01*
G75*
G02*
X34125050Y-83072200I-243750J0D01*
G01*
X33637550Y-83072200D01*
G75*
G02*
X33393800Y-82828450I0J243750D01*
G01*
X33393800Y-81915950D01*
G75*
G02*
X33637550Y-81672200I243750J0D01*
G01*
X34125050Y-81672200D01*
G75*
G02*
X34368800Y-81915950I0J-243750D01*
G01*
G37*
G36*
G01*
X49910050Y-76082500D02*
X48997550Y-76082500D01*
G75*
G02*
X48753800Y-75838750I0J243750D01*
G01*
X48753800Y-75351250D01*
G75*
G02*
X48997550Y-75107500I243750J0D01*
G01*
X49910050Y-75107500D01*
G75*
G02*
X50153800Y-75351250I0J-243750D01*
G01*
X50153800Y-75838750D01*
G75*
G02*
X49910050Y-76082500I-243750J0D01*
G01*
G37*
G36*
G01*
X49910050Y-77957500D02*
X48997550Y-77957500D01*
G75*
G02*
X48753800Y-77713750I0J243750D01*
G01*
X48753800Y-77226250D01*
G75*
G02*
X48997550Y-76982500I243750J0D01*
G01*
X49910050Y-76982500D01*
G75*
G02*
X50153800Y-77226250I0J-243750D01*
G01*
X50153800Y-77713750D01*
G75*
G02*
X49910050Y-77957500I-243750J0D01*
G01*
G37*
G36*
G01*
X45134850Y-85047700D02*
X44222350Y-85047700D01*
G75*
G02*
X43978600Y-84803950I0J243750D01*
G01*
X43978600Y-84316450D01*
G75*
G02*
X44222350Y-84072700I243750J0D01*
G01*
X45134850Y-84072700D01*
G75*
G02*
X45378600Y-84316450I0J-243750D01*
G01*
X45378600Y-84803950D01*
G75*
G02*
X45134850Y-85047700I-243750J0D01*
G01*
G37*
G36*
G01*
X45134850Y-86922700D02*
X44222350Y-86922700D01*
G75*
G02*
X43978600Y-86678950I0J243750D01*
G01*
X43978600Y-86191450D01*
G75*
G02*
X44222350Y-85947700I243750J0D01*
G01*
X45134850Y-85947700D01*
G75*
G02*
X45378600Y-86191450I0J-243750D01*
G01*
X45378600Y-86678950D01*
G75*
G02*
X45134850Y-86922700I-243750J0D01*
G01*
G37*
G36*
G01*
X45134850Y-81541200D02*
X44222350Y-81541200D01*
G75*
G02*
X43978600Y-81297450I0J243750D01*
G01*
X43978600Y-80809950D01*
G75*
G02*
X44222350Y-80566200I243750J0D01*
G01*
X45134850Y-80566200D01*
G75*
G02*
X45378600Y-80809950I0J-243750D01*
G01*
X45378600Y-81297450D01*
G75*
G02*
X45134850Y-81541200I-243750J0D01*
G01*
G37*
G36*
G01*
X45134850Y-83416200D02*
X44222350Y-83416200D01*
G75*
G02*
X43978600Y-83172450I0J243750D01*
G01*
X43978600Y-82684950D01*
G75*
G02*
X44222350Y-82441200I243750J0D01*
G01*
X45134850Y-82441200D01*
G75*
G02*
X45378600Y-82684950I0J-243750D01*
G01*
X45378600Y-83172450D01*
G75*
G02*
X45134850Y-83416200I-243750J0D01*
G01*
G37*
G36*
G01*
X45134850Y-78086800D02*
X44222350Y-78086800D01*
G75*
G02*
X43978600Y-77843050I0J243750D01*
G01*
X43978600Y-77355550D01*
G75*
G02*
X44222350Y-77111800I243750J0D01*
G01*
X45134850Y-77111800D01*
G75*
G02*
X45378600Y-77355550I0J-243750D01*
G01*
X45378600Y-77843050D01*
G75*
G02*
X45134850Y-78086800I-243750J0D01*
G01*
G37*
G36*
G01*
X45134850Y-79961800D02*
X44222350Y-79961800D01*
G75*
G02*
X43978600Y-79718050I0J243750D01*
G01*
X43978600Y-79230550D01*
G75*
G02*
X44222350Y-78986800I243750J0D01*
G01*
X45134850Y-78986800D01*
G75*
G02*
X45378600Y-79230550I0J-243750D01*
G01*
X45378600Y-79718050D01*
G75*
G02*
X45134850Y-79961800I-243750J0D01*
G01*
G37*
G36*
G01*
X18761100Y-78332650D02*
X18761100Y-77420150D01*
G75*
G02*
X19004850Y-77176400I243750J0D01*
G01*
X19492350Y-77176400D01*
G75*
G02*
X19736100Y-77420150I0J-243750D01*
G01*
X19736100Y-78332650D01*
G75*
G02*
X19492350Y-78576400I-243750J0D01*
G01*
X19004850Y-78576400D01*
G75*
G02*
X18761100Y-78332650I0J243750D01*
G01*
G37*
G36*
G01*
X16886100Y-78332650D02*
X16886100Y-77420150D01*
G75*
G02*
X17129850Y-77176400I243750J0D01*
G01*
X17617350Y-77176400D01*
G75*
G02*
X17861100Y-77420150I0J-243750D01*
G01*
X17861100Y-78332650D01*
G75*
G02*
X17617350Y-78576400I-243750J0D01*
G01*
X17129850Y-78576400D01*
G75*
G02*
X16886100Y-78332650I0J243750D01*
G01*
G37*
G36*
G01*
X18761100Y-76376850D02*
X18761100Y-75464350D01*
G75*
G02*
X19004850Y-75220600I243750J0D01*
G01*
X19492350Y-75220600D01*
G75*
G02*
X19736100Y-75464350I0J-243750D01*
G01*
X19736100Y-76376850D01*
G75*
G02*
X19492350Y-76620600I-243750J0D01*
G01*
X19004850Y-76620600D01*
G75*
G02*
X18761100Y-76376850I0J243750D01*
G01*
G37*
G36*
G01*
X16886100Y-76376850D02*
X16886100Y-75464350D01*
G75*
G02*
X17129850Y-75220600I243750J0D01*
G01*
X17617350Y-75220600D01*
G75*
G02*
X17861100Y-75464350I0J-243750D01*
G01*
X17861100Y-76376850D01*
G75*
G02*
X17617350Y-76620600I-243750J0D01*
G01*
X17129850Y-76620600D01*
G75*
G02*
X16886100Y-76376850I0J243750D01*
G01*
G37*
G36*
G01*
X67444200Y-55423750D02*
X67444200Y-56336250D01*
G75*
G02*
X67200450Y-56580000I-243750J0D01*
G01*
X66712950Y-56580000D01*
G75*
G02*
X66469200Y-56336250I0J243750D01*
G01*
X66469200Y-55423750D01*
G75*
G02*
X66712950Y-55180000I243750J0D01*
G01*
X67200450Y-55180000D01*
G75*
G02*
X67444200Y-55423750I0J-243750D01*
G01*
G37*
G36*
G01*
X69319200Y-55423750D02*
X69319200Y-56336250D01*
G75*
G02*
X69075450Y-56580000I-243750J0D01*
G01*
X68587950Y-56580000D01*
G75*
G02*
X68344200Y-56336250I0J243750D01*
G01*
X68344200Y-55423750D01*
G75*
G02*
X68587950Y-55180000I243750J0D01*
G01*
X69075450Y-55180000D01*
G75*
G02*
X69319200Y-55423750I0J-243750D01*
G01*
G37*
G36*
G01*
X67444200Y-53442550D02*
X67444200Y-54355050D01*
G75*
G02*
X67200450Y-54598800I-243750J0D01*
G01*
X66712950Y-54598800D01*
G75*
G02*
X66469200Y-54355050I0J243750D01*
G01*
X66469200Y-53442550D01*
G75*
G02*
X66712950Y-53198800I243750J0D01*
G01*
X67200450Y-53198800D01*
G75*
G02*
X67444200Y-53442550I0J-243750D01*
G01*
G37*
G36*
G01*
X69319200Y-53442550D02*
X69319200Y-54355050D01*
G75*
G02*
X69075450Y-54598800I-243750J0D01*
G01*
X68587950Y-54598800D01*
G75*
G02*
X68344200Y-54355050I0J243750D01*
G01*
X68344200Y-53442550D01*
G75*
G02*
X68587950Y-53198800I243750J0D01*
G01*
X69075450Y-53198800D01*
G75*
G02*
X69319200Y-53442550I0J-243750D01*
G01*
G37*
G36*
G01*
X67444200Y-51461350D02*
X67444200Y-52373850D01*
G75*
G02*
X67200450Y-52617600I-243750J0D01*
G01*
X66712950Y-52617600D01*
G75*
G02*
X66469200Y-52373850I0J243750D01*
G01*
X66469200Y-51461350D01*
G75*
G02*
X66712950Y-51217600I243750J0D01*
G01*
X67200450Y-51217600D01*
G75*
G02*
X67444200Y-51461350I0J-243750D01*
G01*
G37*
G36*
G01*
X69319200Y-51461350D02*
X69319200Y-52373850D01*
G75*
G02*
X69075450Y-52617600I-243750J0D01*
G01*
X68587950Y-52617600D01*
G75*
G02*
X68344200Y-52373850I0J243750D01*
G01*
X68344200Y-51461350D01*
G75*
G02*
X68587950Y-51217600I243750J0D01*
G01*
X69075450Y-51217600D01*
G75*
G02*
X69319200Y-51461350I0J-243750D01*
G01*
G37*
G36*
G01*
X67444200Y-49480150D02*
X67444200Y-50392650D01*
G75*
G02*
X67200450Y-50636400I-243750J0D01*
G01*
X66712950Y-50636400D01*
G75*
G02*
X66469200Y-50392650I0J243750D01*
G01*
X66469200Y-49480150D01*
G75*
G02*
X66712950Y-49236400I243750J0D01*
G01*
X67200450Y-49236400D01*
G75*
G02*
X67444200Y-49480150I0J-243750D01*
G01*
G37*
G36*
G01*
X69319200Y-49480150D02*
X69319200Y-50392650D01*
G75*
G02*
X69075450Y-50636400I-243750J0D01*
G01*
X68587950Y-50636400D01*
G75*
G02*
X68344200Y-50392650I0J243750D01*
G01*
X68344200Y-49480150D01*
G75*
G02*
X68587950Y-49236400I243750J0D01*
G01*
X69075450Y-49236400D01*
G75*
G02*
X69319200Y-49480150I0J-243750D01*
G01*
G37*
G36*
G01*
X64921450Y-68589500D02*
X64008950Y-68589500D01*
G75*
G02*
X63765200Y-68345750I0J243750D01*
G01*
X63765200Y-67858250D01*
G75*
G02*
X64008950Y-67614500I243750J0D01*
G01*
X64921450Y-67614500D01*
G75*
G02*
X65165200Y-67858250I0J-243750D01*
G01*
X65165200Y-68345750D01*
G75*
G02*
X64921450Y-68589500I-243750J0D01*
G01*
G37*
G36*
G01*
X64921450Y-70464500D02*
X64008950Y-70464500D01*
G75*
G02*
X63765200Y-70220750I0J243750D01*
G01*
X63765200Y-69733250D01*
G75*
G02*
X64008950Y-69489500I243750J0D01*
G01*
X64921450Y-69489500D01*
G75*
G02*
X65165200Y-69733250I0J-243750D01*
G01*
X65165200Y-70220750D01*
G75*
G02*
X64921450Y-70464500I-243750J0D01*
G01*
G37*
G36*
G01*
X51004150Y-76982500D02*
X51916650Y-76982500D01*
G75*
G02*
X52160400Y-77226250I0J-243750D01*
G01*
X52160400Y-77713750D01*
G75*
G02*
X51916650Y-77957500I-243750J0D01*
G01*
X51004150Y-77957500D01*
G75*
G02*
X50760400Y-77713750I0J243750D01*
G01*
X50760400Y-77226250D01*
G75*
G02*
X51004150Y-76982500I243750J0D01*
G01*
G37*
G36*
G01*
X51004150Y-75107500D02*
X51916650Y-75107500D01*
G75*
G02*
X52160400Y-75351250I0J-243750D01*
G01*
X52160400Y-75838750D01*
G75*
G02*
X51916650Y-76082500I-243750J0D01*
G01*
X51004150Y-76082500D01*
G75*
G02*
X50760400Y-75838750I0J243750D01*
G01*
X50760400Y-75351250D01*
G75*
G02*
X51004150Y-75107500I243750J0D01*
G01*
G37*
G36*
G01*
X61799150Y-69487200D02*
X62711650Y-69487200D01*
G75*
G02*
X62955400Y-69730950I0J-243750D01*
G01*
X62955400Y-70218450D01*
G75*
G02*
X62711650Y-70462200I-243750J0D01*
G01*
X61799150Y-70462200D01*
G75*
G02*
X61555400Y-70218450I0J243750D01*
G01*
X61555400Y-69730950D01*
G75*
G02*
X61799150Y-69487200I243750J0D01*
G01*
G37*
G36*
G01*
X61799150Y-67612200D02*
X62711650Y-67612200D01*
G75*
G02*
X62955400Y-67855950I0J-243750D01*
G01*
X62955400Y-68343450D01*
G75*
G02*
X62711650Y-68587200I-243750J0D01*
G01*
X61799150Y-68587200D01*
G75*
G02*
X61555400Y-68343450I0J243750D01*
G01*
X61555400Y-67855950D01*
G75*
G02*
X61799150Y-67612200I243750J0D01*
G01*
G37*
G36*
G01*
X54605100Y-67537650D02*
X54605100Y-66625150D01*
G75*
G02*
X54848850Y-66381400I243750J0D01*
G01*
X55336350Y-66381400D01*
G75*
G02*
X55580100Y-66625150I0J-243750D01*
G01*
X55580100Y-67537650D01*
G75*
G02*
X55336350Y-67781400I-243750J0D01*
G01*
X54848850Y-67781400D01*
G75*
G02*
X54605100Y-67537650I0J243750D01*
G01*
G37*
G36*
G01*
X52730100Y-67537650D02*
X52730100Y-66625150D01*
G75*
G02*
X52973850Y-66381400I243750J0D01*
G01*
X53461350Y-66381400D01*
G75*
G02*
X53705100Y-66625150I0J-243750D01*
G01*
X53705100Y-67537650D01*
G75*
G02*
X53461350Y-67781400I-243750J0D01*
G01*
X52973850Y-67781400D01*
G75*
G02*
X52730100Y-67537650I0J243750D01*
G01*
G37*
G36*
G01*
X59195400Y-23211750D02*
X59195400Y-24124250D01*
G75*
G02*
X58951650Y-24368000I-243750J0D01*
G01*
X58464150Y-24368000D01*
G75*
G02*
X58220400Y-24124250I0J243750D01*
G01*
X58220400Y-23211750D01*
G75*
G02*
X58464150Y-22968000I243750J0D01*
G01*
X58951650Y-22968000D01*
G75*
G02*
X59195400Y-23211750I0J-243750D01*
G01*
G37*
G36*
G01*
X61070400Y-23211750D02*
X61070400Y-24124250D01*
G75*
G02*
X60826650Y-24368000I-243750J0D01*
G01*
X60339150Y-24368000D01*
G75*
G02*
X60095400Y-24124250I0J243750D01*
G01*
X60095400Y-23211750D01*
G75*
G02*
X60339150Y-22968000I243750J0D01*
G01*
X60826650Y-22968000D01*
G75*
G02*
X61070400Y-23211750I0J-243750D01*
G01*
G37*
G36*
G01*
X59195400Y-21205150D02*
X59195400Y-22117650D01*
G75*
G02*
X58951650Y-22361400I-243750J0D01*
G01*
X58464150Y-22361400D01*
G75*
G02*
X58220400Y-22117650I0J243750D01*
G01*
X58220400Y-21205150D01*
G75*
G02*
X58464150Y-20961400I243750J0D01*
G01*
X58951650Y-20961400D01*
G75*
G02*
X59195400Y-21205150I0J-243750D01*
G01*
G37*
G36*
G01*
X61070400Y-21205150D02*
X61070400Y-22117650D01*
G75*
G02*
X60826650Y-22361400I-243750J0D01*
G01*
X60339150Y-22361400D01*
G75*
G02*
X60095400Y-22117650I0J243750D01*
G01*
X60095400Y-21205150D01*
G75*
G02*
X60339150Y-20961400I243750J0D01*
G01*
X60826650Y-20961400D01*
G75*
G02*
X61070400Y-21205150I0J-243750D01*
G01*
G37*
G36*
G01*
X43733900Y-24154450D02*
X43733900Y-23241950D01*
G75*
G02*
X43977650Y-22998200I243750J0D01*
G01*
X44465150Y-22998200D01*
G75*
G02*
X44708900Y-23241950I0J-243750D01*
G01*
X44708900Y-24154450D01*
G75*
G02*
X44465150Y-24398200I-243750J0D01*
G01*
X43977650Y-24398200D01*
G75*
G02*
X43733900Y-24154450I0J243750D01*
G01*
G37*
G36*
G01*
X41858900Y-24154450D02*
X41858900Y-23241950D01*
G75*
G02*
X42102650Y-22998200I243750J0D01*
G01*
X42590150Y-22998200D01*
G75*
G02*
X42833900Y-23241950I0J-243750D01*
G01*
X42833900Y-24154450D01*
G75*
G02*
X42590150Y-24398200I-243750J0D01*
G01*
X42102650Y-24398200D01*
G75*
G02*
X41858900Y-24154450I0J243750D01*
G01*
G37*
G36*
G01*
X47302000Y-20651150D02*
X47302000Y-21563650D01*
G75*
G02*
X47058250Y-21807400I-243750J0D01*
G01*
X46570750Y-21807400D01*
G75*
G02*
X46327000Y-21563650I0J243750D01*
G01*
X46327000Y-20651150D01*
G75*
G02*
X46570750Y-20407400I243750J0D01*
G01*
X47058250Y-20407400D01*
G75*
G02*
X47302000Y-20651150I0J-243750D01*
G01*
G37*
G36*
G01*
X49177000Y-20651150D02*
X49177000Y-21563650D01*
G75*
G02*
X48933250Y-21807400I-243750J0D01*
G01*
X48445750Y-21807400D01*
G75*
G02*
X48202000Y-21563650I0J243750D01*
G01*
X48202000Y-20651150D01*
G75*
G02*
X48445750Y-20407400I243750J0D01*
G01*
X48933250Y-20407400D01*
G75*
G02*
X49177000Y-20651150I0J-243750D01*
G01*
G37*
G36*
G01*
X47263900Y-18403250D02*
X47263900Y-19315750D01*
G75*
G02*
X47020150Y-19559500I-243750J0D01*
G01*
X46532650Y-19559500D01*
G75*
G02*
X46288900Y-19315750I0J243750D01*
G01*
X46288900Y-18403250D01*
G75*
G02*
X46532650Y-18159500I243750J0D01*
G01*
X47020150Y-18159500D01*
G75*
G02*
X47263900Y-18403250I0J-243750D01*
G01*
G37*
G36*
G01*
X49138900Y-18403250D02*
X49138900Y-19315750D01*
G75*
G02*
X48895150Y-19559500I-243750J0D01*
G01*
X48407650Y-19559500D01*
G75*
G02*
X48163900Y-19315750I0J243750D01*
G01*
X48163900Y-18403250D01*
G75*
G02*
X48407650Y-18159500I243750J0D01*
G01*
X48895150Y-18159500D01*
G75*
G02*
X49138900Y-18403250I0J-243750D01*
G01*
G37*
D10*
X65630000Y-87747200D03*
X65630000Y-88397200D03*
X65630000Y-89047200D03*
X65630000Y-89697200D03*
X71530000Y-89697200D03*
X71530000Y-89047200D03*
X71530000Y-88397200D03*
X71530000Y-87747200D03*
D22*
X43281600Y-19853400D03*
X42331600Y-21853400D03*
X44231600Y-21853400D03*
G36*
G01*
X10765800Y-78966200D02*
X10765800Y-78666200D01*
G75*
G02*
X10915800Y-78516200I150000J0D01*
G01*
X12240800Y-78516200D01*
G75*
G02*
X12390800Y-78666200I0J-150000D01*
G01*
X12390800Y-78966200D01*
G75*
G02*
X12240800Y-79116200I-150000J0D01*
G01*
X10915800Y-79116200D01*
G75*
G02*
X10765800Y-78966200I0J150000D01*
G01*
G37*
G36*
G01*
X10765800Y-77696200D02*
X10765800Y-77396200D01*
G75*
G02*
X10915800Y-77246200I150000J0D01*
G01*
X12240800Y-77246200D01*
G75*
G02*
X12390800Y-77396200I0J-150000D01*
G01*
X12390800Y-77696200D01*
G75*
G02*
X12240800Y-77846200I-150000J0D01*
G01*
X10915800Y-77846200D01*
G75*
G02*
X10765800Y-77696200I0J150000D01*
G01*
G37*
G36*
G01*
X10765800Y-76426200D02*
X10765800Y-76126200D01*
G75*
G02*
X10915800Y-75976200I150000J0D01*
G01*
X12240800Y-75976200D01*
G75*
G02*
X12390800Y-76126200I0J-150000D01*
G01*
X12390800Y-76426200D01*
G75*
G02*
X12240800Y-76576200I-150000J0D01*
G01*
X10915800Y-76576200D01*
G75*
G02*
X10765800Y-76426200I0J150000D01*
G01*
G37*
G36*
G01*
X10765800Y-75156200D02*
X10765800Y-74856200D01*
G75*
G02*
X10915800Y-74706200I150000J0D01*
G01*
X12240800Y-74706200D01*
G75*
G02*
X12390800Y-74856200I0J-150000D01*
G01*
X12390800Y-75156200D01*
G75*
G02*
X12240800Y-75306200I-150000J0D01*
G01*
X10915800Y-75306200D01*
G75*
G02*
X10765800Y-75156200I0J150000D01*
G01*
G37*
G36*
G01*
X5490800Y-75156200D02*
X5490800Y-74856200D01*
G75*
G02*
X5640800Y-74706200I150000J0D01*
G01*
X6965800Y-74706200D01*
G75*
G02*
X7115800Y-74856200I0J-150000D01*
G01*
X7115800Y-75156200D01*
G75*
G02*
X6965800Y-75306200I-150000J0D01*
G01*
X5640800Y-75306200D01*
G75*
G02*
X5490800Y-75156200I0J150000D01*
G01*
G37*
G36*
G01*
X5490800Y-76426200D02*
X5490800Y-76126200D01*
G75*
G02*
X5640800Y-75976200I150000J0D01*
G01*
X6965800Y-75976200D01*
G75*
G02*
X7115800Y-76126200I0J-150000D01*
G01*
X7115800Y-76426200D01*
G75*
G02*
X6965800Y-76576200I-150000J0D01*
G01*
X5640800Y-76576200D01*
G75*
G02*
X5490800Y-76426200I0J150000D01*
G01*
G37*
G36*
G01*
X5490800Y-77696200D02*
X5490800Y-77396200D01*
G75*
G02*
X5640800Y-77246200I150000J0D01*
G01*
X6965800Y-77246200D01*
G75*
G02*
X7115800Y-77396200I0J-150000D01*
G01*
X7115800Y-77696200D01*
G75*
G02*
X6965800Y-77846200I-150000J0D01*
G01*
X5640800Y-77846200D01*
G75*
G02*
X5490800Y-77696200I0J150000D01*
G01*
G37*
G36*
G01*
X5490800Y-78966200D02*
X5490800Y-78666200D01*
G75*
G02*
X5640800Y-78516200I150000J0D01*
G01*
X6965800Y-78516200D01*
G75*
G02*
X7115800Y-78666200I0J-150000D01*
G01*
X7115800Y-78966200D01*
G75*
G02*
X6965800Y-79116200I-150000J0D01*
G01*
X5640800Y-79116200D01*
G75*
G02*
X5490800Y-78966200I0J150000D01*
G01*
G37*
G36*
G01*
X9045800Y-76531201D02*
X9045800Y-75691199D01*
G75*
G02*
X9295799Y-75441200I249999J0D01*
G01*
X9845801Y-75441200D01*
G75*
G02*
X10095800Y-75691199I0J-249999D01*
G01*
X10095800Y-76531201D01*
G75*
G02*
X9845801Y-76781200I-249999J0D01*
G01*
X9295799Y-76781200D01*
G75*
G02*
X9045800Y-76531201I0J249999D01*
G01*
G37*
G36*
G01*
X9045800Y-78131201D02*
X9045800Y-77291199D01*
G75*
G02*
X9295799Y-77041200I249999J0D01*
G01*
X9845801Y-77041200D01*
G75*
G02*
X10095800Y-77291199I0J-249999D01*
G01*
X10095800Y-78131201D01*
G75*
G02*
X9845801Y-78381200I-249999J0D01*
G01*
X9295799Y-78381200D01*
G75*
G02*
X9045800Y-78131201I0J249999D01*
G01*
G37*
G36*
G01*
X7785800Y-76531201D02*
X7785800Y-75691199D01*
G75*
G02*
X8035799Y-75441200I249999J0D01*
G01*
X8585801Y-75441200D01*
G75*
G02*
X8835800Y-75691199I0J-249999D01*
G01*
X8835800Y-76531201D01*
G75*
G02*
X8585801Y-76781200I-249999J0D01*
G01*
X8035799Y-76781200D01*
G75*
G02*
X7785800Y-76531201I0J249999D01*
G01*
G37*
G36*
G01*
X7785800Y-78131201D02*
X7785800Y-77291199D01*
G75*
G02*
X8035799Y-77041200I249999J0D01*
G01*
X8585801Y-77041200D01*
G75*
G02*
X8835800Y-77291199I0J-249999D01*
G01*
X8835800Y-78131201D01*
G75*
G02*
X8585801Y-78381200I-249999J0D01*
G01*
X8035799Y-78381200D01*
G75*
G02*
X7785800Y-78131201I0J249999D01*
G01*
G37*
D23*
X41300000Y-91000000D03*
X41300000Y-87000000D03*
G36*
G01*
X38888350Y-10152800D02*
X39800850Y-10152800D01*
G75*
G02*
X40044600Y-10396550I0J-243750D01*
G01*
X40044600Y-10884050D01*
G75*
G02*
X39800850Y-11127800I-243750J0D01*
G01*
X38888350Y-11127800D01*
G75*
G02*
X38644600Y-10884050I0J243750D01*
G01*
X38644600Y-10396550D01*
G75*
G02*
X38888350Y-10152800I243750J0D01*
G01*
G37*
G36*
G01*
X38888350Y-8277800D02*
X39800850Y-8277800D01*
G75*
G02*
X40044600Y-8521550I0J-243750D01*
G01*
X40044600Y-9009050D01*
G75*
G02*
X39800850Y-9252800I-243750J0D01*
G01*
X38888350Y-9252800D01*
G75*
G02*
X38644600Y-9009050I0J243750D01*
G01*
X38644600Y-8521550D01*
G75*
G02*
X38888350Y-8277800I243750J0D01*
G01*
G37*
G36*
G01*
X36881750Y-10152800D02*
X37794250Y-10152800D01*
G75*
G02*
X38038000Y-10396550I0J-243750D01*
G01*
X38038000Y-10884050D01*
G75*
G02*
X37794250Y-11127800I-243750J0D01*
G01*
X36881750Y-11127800D01*
G75*
G02*
X36638000Y-10884050I0J243750D01*
G01*
X36638000Y-10396550D01*
G75*
G02*
X36881750Y-10152800I243750J0D01*
G01*
G37*
G36*
G01*
X36881750Y-8277800D02*
X37794250Y-8277800D01*
G75*
G02*
X38038000Y-8521550I0J-243750D01*
G01*
X38038000Y-9009050D01*
G75*
G02*
X37794250Y-9252800I-243750J0D01*
G01*
X36881750Y-9252800D01*
G75*
G02*
X36638000Y-9009050I0J243750D01*
G01*
X36638000Y-8521550D01*
G75*
G02*
X36881750Y-8277800I243750J0D01*
G01*
G37*
G36*
G01*
X33851000Y-11352850D02*
X33851000Y-10440350D01*
G75*
G02*
X34094750Y-10196600I243750J0D01*
G01*
X34582250Y-10196600D01*
G75*
G02*
X34826000Y-10440350I0J-243750D01*
G01*
X34826000Y-11352850D01*
G75*
G02*
X34582250Y-11596600I-243750J0D01*
G01*
X34094750Y-11596600D01*
G75*
G02*
X33851000Y-11352850I0J243750D01*
G01*
G37*
G36*
G01*
X31976000Y-11352850D02*
X31976000Y-10440350D01*
G75*
G02*
X32219750Y-10196600I243750J0D01*
G01*
X32707250Y-10196600D01*
G75*
G02*
X32951000Y-10440350I0J-243750D01*
G01*
X32951000Y-11352850D01*
G75*
G02*
X32707250Y-11596600I-243750J0D01*
G01*
X32219750Y-11596600D01*
G75*
G02*
X31976000Y-11352850I0J243750D01*
G01*
G37*
G36*
G01*
X33851000Y-22655850D02*
X33851000Y-21743350D01*
G75*
G02*
X34094750Y-21499600I243750J0D01*
G01*
X34582250Y-21499600D01*
G75*
G02*
X34826000Y-21743350I0J-243750D01*
G01*
X34826000Y-22655850D01*
G75*
G02*
X34582250Y-22899600I-243750J0D01*
G01*
X34094750Y-22899600D01*
G75*
G02*
X33851000Y-22655850I0J243750D01*
G01*
G37*
G36*
G01*
X31976000Y-22655850D02*
X31976000Y-21743350D01*
G75*
G02*
X32219750Y-21499600I243750J0D01*
G01*
X32707250Y-21499600D01*
G75*
G02*
X32951000Y-21743350I0J-243750D01*
G01*
X32951000Y-22655850D01*
G75*
G02*
X32707250Y-22899600I-243750J0D01*
G01*
X32219750Y-22899600D01*
G75*
G02*
X31976000Y-22655850I0J243750D01*
G01*
G37*
G36*
G01*
X33851000Y-20649250D02*
X33851000Y-19736750D01*
G75*
G02*
X34094750Y-19493000I243750J0D01*
G01*
X34582250Y-19493000D01*
G75*
G02*
X34826000Y-19736750I0J-243750D01*
G01*
X34826000Y-20649250D01*
G75*
G02*
X34582250Y-20893000I-243750J0D01*
G01*
X34094750Y-20893000D01*
G75*
G02*
X33851000Y-20649250I0J243750D01*
G01*
G37*
G36*
G01*
X31976000Y-20649250D02*
X31976000Y-19736750D01*
G75*
G02*
X32219750Y-19493000I243750J0D01*
G01*
X32707250Y-19493000D01*
G75*
G02*
X32951000Y-19736750I0J-243750D01*
G01*
X32951000Y-20649250D01*
G75*
G02*
X32707250Y-20893000I-243750J0D01*
G01*
X32219750Y-20893000D01*
G75*
G02*
X31976000Y-20649250I0J243750D01*
G01*
G37*
G36*
G01*
X57346000Y-85622450D02*
X57346000Y-84709950D01*
G75*
G02*
X57589750Y-84466200I243750J0D01*
G01*
X58077250Y-84466200D01*
G75*
G02*
X58321000Y-84709950I0J-243750D01*
G01*
X58321000Y-85622450D01*
G75*
G02*
X58077250Y-85866200I-243750J0D01*
G01*
X57589750Y-85866200D01*
G75*
G02*
X57346000Y-85622450I0J243750D01*
G01*
G37*
G36*
G01*
X55471000Y-85622450D02*
X55471000Y-84709950D01*
G75*
G02*
X55714750Y-84466200I243750J0D01*
G01*
X56202250Y-84466200D01*
G75*
G02*
X56446000Y-84709950I0J-243750D01*
G01*
X56446000Y-85622450D01*
G75*
G02*
X56202250Y-85866200I-243750J0D01*
G01*
X55714750Y-85866200D01*
G75*
G02*
X55471000Y-85622450I0J243750D01*
G01*
G37*
G36*
G01*
X4920400Y-73633650D02*
X4920400Y-72721150D01*
G75*
G02*
X5164150Y-72477400I243750J0D01*
G01*
X5651650Y-72477400D01*
G75*
G02*
X5895400Y-72721150I0J-243750D01*
G01*
X5895400Y-73633650D01*
G75*
G02*
X5651650Y-73877400I-243750J0D01*
G01*
X5164150Y-73877400D01*
G75*
G02*
X4920400Y-73633650I0J243750D01*
G01*
G37*
G36*
G01*
X3045400Y-73633650D02*
X3045400Y-72721150D01*
G75*
G02*
X3289150Y-72477400I243750J0D01*
G01*
X3776650Y-72477400D01*
G75*
G02*
X4020400Y-72721150I0J-243750D01*
G01*
X4020400Y-73633650D01*
G75*
G02*
X3776650Y-73877400I-243750J0D01*
G01*
X3289150Y-73877400D01*
G75*
G02*
X3045400Y-73633650I0J243750D01*
G01*
G37*
G36*
G01*
X8465400Y-80290350D02*
X8465400Y-81202850D01*
G75*
G02*
X8221650Y-81446600I-243750J0D01*
G01*
X7734150Y-81446600D01*
G75*
G02*
X7490400Y-81202850I0J243750D01*
G01*
X7490400Y-80290350D01*
G75*
G02*
X7734150Y-80046600I243750J0D01*
G01*
X8221650Y-80046600D01*
G75*
G02*
X8465400Y-80290350I0J-243750D01*
G01*
G37*
G36*
G01*
X10340400Y-80290350D02*
X10340400Y-81202850D01*
G75*
G02*
X10096650Y-81446600I-243750J0D01*
G01*
X9609150Y-81446600D01*
G75*
G02*
X9365400Y-81202850I0J243750D01*
G01*
X9365400Y-80290350D01*
G75*
G02*
X9609150Y-80046600I243750J0D01*
G01*
X10096650Y-80046600D01*
G75*
G02*
X10340400Y-80290350I0J-243750D01*
G01*
G37*
G36*
G01*
X18714900Y-60400250D02*
X18714900Y-59487750D01*
G75*
G02*
X18958650Y-59244000I243750J0D01*
G01*
X19446150Y-59244000D01*
G75*
G02*
X19689900Y-59487750I0J-243750D01*
G01*
X19689900Y-60400250D01*
G75*
G02*
X19446150Y-60644000I-243750J0D01*
G01*
X18958650Y-60644000D01*
G75*
G02*
X18714900Y-60400250I0J243750D01*
G01*
G37*
G36*
G01*
X16839900Y-60400250D02*
X16839900Y-59487750D01*
G75*
G02*
X17083650Y-59244000I243750J0D01*
G01*
X17571150Y-59244000D01*
G75*
G02*
X17814900Y-59487750I0J-243750D01*
G01*
X17814900Y-60400250D01*
G75*
G02*
X17571150Y-60644000I-243750J0D01*
G01*
X17083650Y-60644000D01*
G75*
G02*
X16839900Y-60400250I0J243750D01*
G01*
G37*
G36*
G01*
X11778400Y-60400250D02*
X11778400Y-59487750D01*
G75*
G02*
X12022150Y-59244000I243750J0D01*
G01*
X12509650Y-59244000D01*
G75*
G02*
X12753400Y-59487750I0J-243750D01*
G01*
X12753400Y-60400250D01*
G75*
G02*
X12509650Y-60644000I-243750J0D01*
G01*
X12022150Y-60644000D01*
G75*
G02*
X11778400Y-60400250I0J243750D01*
G01*
G37*
G36*
G01*
X9903400Y-60400250D02*
X9903400Y-59487750D01*
G75*
G02*
X10147150Y-59244000I243750J0D01*
G01*
X10634650Y-59244000D01*
G75*
G02*
X10878400Y-59487750I0J-243750D01*
G01*
X10878400Y-60400250D01*
G75*
G02*
X10634650Y-60644000I-243750J0D01*
G01*
X10147150Y-60644000D01*
G75*
G02*
X9903400Y-60400250I0J243750D01*
G01*
G37*
G36*
G01*
X14332800Y-59487750D02*
X14332800Y-60400250D01*
G75*
G02*
X14089050Y-60644000I-243750J0D01*
G01*
X13601550Y-60644000D01*
G75*
G02*
X13357800Y-60400250I0J243750D01*
G01*
X13357800Y-59487750D01*
G75*
G02*
X13601550Y-59244000I243750J0D01*
G01*
X14089050Y-59244000D01*
G75*
G02*
X14332800Y-59487750I0J-243750D01*
G01*
G37*
G36*
G01*
X16207800Y-59487750D02*
X16207800Y-60400250D01*
G75*
G02*
X15964050Y-60644000I-243750J0D01*
G01*
X15476550Y-60644000D01*
G75*
G02*
X15232800Y-60400250I0J243750D01*
G01*
X15232800Y-59487750D01*
G75*
G02*
X15476550Y-59244000I243750J0D01*
G01*
X15964050Y-59244000D01*
G75*
G02*
X16207800Y-59487750I0J-243750D01*
G01*
G37*
G36*
G01*
X20784400Y-20498750D02*
X20784400Y-21411250D01*
G75*
G02*
X20540650Y-21655000I-243750J0D01*
G01*
X20053150Y-21655000D01*
G75*
G02*
X19809400Y-21411250I0J243750D01*
G01*
X19809400Y-20498750D01*
G75*
G02*
X20053150Y-20255000I243750J0D01*
G01*
X20540650Y-20255000D01*
G75*
G02*
X20784400Y-20498750I0J-243750D01*
G01*
G37*
G36*
G01*
X22659400Y-20498750D02*
X22659400Y-21411250D01*
G75*
G02*
X22415650Y-21655000I-243750J0D01*
G01*
X21928150Y-21655000D01*
G75*
G02*
X21684400Y-21411250I0J243750D01*
G01*
X21684400Y-20498750D01*
G75*
G02*
X21928150Y-20255000I243750J0D01*
G01*
X22415650Y-20255000D01*
G75*
G02*
X22659400Y-20498750I0J-243750D01*
G01*
G37*
G36*
G01*
X20555800Y-8103550D02*
X20555800Y-9016050D01*
G75*
G02*
X20312050Y-9259800I-243750J0D01*
G01*
X19824550Y-9259800D01*
G75*
G02*
X19580800Y-9016050I0J243750D01*
G01*
X19580800Y-8103550D01*
G75*
G02*
X19824550Y-7859800I243750J0D01*
G01*
X20312050Y-7859800D01*
G75*
G02*
X20555800Y-8103550I0J-243750D01*
G01*
G37*
G36*
G01*
X22430800Y-8103550D02*
X22430800Y-9016050D01*
G75*
G02*
X22187050Y-9259800I-243750J0D01*
G01*
X21699550Y-9259800D01*
G75*
G02*
X21455800Y-9016050I0J243750D01*
G01*
X21455800Y-8103550D01*
G75*
G02*
X21699550Y-7859800I243750J0D01*
G01*
X22187050Y-7859800D01*
G75*
G02*
X22430800Y-8103550I0J-243750D01*
G01*
G37*
G36*
G01*
X5481250Y-15625000D02*
X4568750Y-15625000D01*
G75*
G02*
X4325000Y-15381250I0J243750D01*
G01*
X4325000Y-14893750D01*
G75*
G02*
X4568750Y-14650000I243750J0D01*
G01*
X5481250Y-14650000D01*
G75*
G02*
X5725000Y-14893750I0J-243750D01*
G01*
X5725000Y-15381250D01*
G75*
G02*
X5481250Y-15625000I-243750J0D01*
G01*
G37*
G36*
G01*
X5481250Y-17500000D02*
X4568750Y-17500000D01*
G75*
G02*
X4325000Y-17256250I0J243750D01*
G01*
X4325000Y-16768750D01*
G75*
G02*
X4568750Y-16525000I243750J0D01*
G01*
X5481250Y-16525000D01*
G75*
G02*
X5725000Y-16768750I0J-243750D01*
G01*
X5725000Y-17256250D01*
G75*
G02*
X5481250Y-17500000I-243750J0D01*
G01*
G37*
M02*
