G04 #@! TF.GenerationSoftware,KiCad,Pcbnew,(5.1.5)-3*
G04 #@! TF.CreationDate,2020-05-04T23:08:05+02:00*
G04 #@! TF.ProjectId,TrackRay_H01,54726163-6b52-4617-995f-4830312e6b69,rev?*
G04 #@! TF.SameCoordinates,Original*
G04 #@! TF.FileFunction,Paste,Top*
G04 #@! TF.FilePolarity,Positive*
%FSLAX46Y46*%
G04 Gerber Fmt 4.6, Leading zero omitted, Abs format (unit mm)*
G04 Created by KiCad (PCBNEW (5.1.5)-3) date 2020-05-04 23:08:05*
%MOMM*%
%LPD*%
G04 APERTURE LIST*
%ADD10C,0.100000*%
G04 APERTURE END LIST*
D10*
G36*
X23160904Y-52898004D02*
G01*
X23185173Y-52901604D01*
X23208971Y-52907565D01*
X23232071Y-52915830D01*
X23254249Y-52926320D01*
X23275293Y-52938933D01*
X23294998Y-52953547D01*
X23313177Y-52970023D01*
X23329653Y-52988202D01*
X23344267Y-53007907D01*
X23356880Y-53028951D01*
X23367370Y-53051129D01*
X23375635Y-53074229D01*
X23381596Y-53098027D01*
X23385196Y-53122296D01*
X23386400Y-53146800D01*
X23386400Y-54396800D01*
X23385196Y-54421304D01*
X23381596Y-54445573D01*
X23375635Y-54469371D01*
X23367370Y-54492471D01*
X23356880Y-54514649D01*
X23344267Y-54535693D01*
X23329653Y-54555398D01*
X23313177Y-54573577D01*
X23294998Y-54590053D01*
X23275293Y-54604667D01*
X23254249Y-54617280D01*
X23232071Y-54627770D01*
X23208971Y-54636035D01*
X23185173Y-54641996D01*
X23160904Y-54645596D01*
X23136400Y-54646800D01*
X22386400Y-54646800D01*
X22361896Y-54645596D01*
X22337627Y-54641996D01*
X22313829Y-54636035D01*
X22290729Y-54627770D01*
X22268551Y-54617280D01*
X22247507Y-54604667D01*
X22227802Y-54590053D01*
X22209623Y-54573577D01*
X22193147Y-54555398D01*
X22178533Y-54535693D01*
X22165920Y-54514649D01*
X22155430Y-54492471D01*
X22147165Y-54469371D01*
X22141204Y-54445573D01*
X22137604Y-54421304D01*
X22136400Y-54396800D01*
X22136400Y-53146800D01*
X22137604Y-53122296D01*
X22141204Y-53098027D01*
X22147165Y-53074229D01*
X22155430Y-53051129D01*
X22165920Y-53028951D01*
X22178533Y-53007907D01*
X22193147Y-52988202D01*
X22209623Y-52970023D01*
X22227802Y-52953547D01*
X22247507Y-52938933D01*
X22268551Y-52926320D01*
X22290729Y-52915830D01*
X22313829Y-52907565D01*
X22337627Y-52901604D01*
X22361896Y-52898004D01*
X22386400Y-52896800D01*
X23136400Y-52896800D01*
X23160904Y-52898004D01*
G37*
G36*
X20360904Y-52898004D02*
G01*
X20385173Y-52901604D01*
X20408971Y-52907565D01*
X20432071Y-52915830D01*
X20454249Y-52926320D01*
X20475293Y-52938933D01*
X20494998Y-52953547D01*
X20513177Y-52970023D01*
X20529653Y-52988202D01*
X20544267Y-53007907D01*
X20556880Y-53028951D01*
X20567370Y-53051129D01*
X20575635Y-53074229D01*
X20581596Y-53098027D01*
X20585196Y-53122296D01*
X20586400Y-53146800D01*
X20586400Y-54396800D01*
X20585196Y-54421304D01*
X20581596Y-54445573D01*
X20575635Y-54469371D01*
X20567370Y-54492471D01*
X20556880Y-54514649D01*
X20544267Y-54535693D01*
X20529653Y-54555398D01*
X20513177Y-54573577D01*
X20494998Y-54590053D01*
X20475293Y-54604667D01*
X20454249Y-54617280D01*
X20432071Y-54627770D01*
X20408971Y-54636035D01*
X20385173Y-54641996D01*
X20360904Y-54645596D01*
X20336400Y-54646800D01*
X19586400Y-54646800D01*
X19561896Y-54645596D01*
X19537627Y-54641996D01*
X19513829Y-54636035D01*
X19490729Y-54627770D01*
X19468551Y-54617280D01*
X19447507Y-54604667D01*
X19427802Y-54590053D01*
X19409623Y-54573577D01*
X19393147Y-54555398D01*
X19378533Y-54535693D01*
X19365920Y-54514649D01*
X19355430Y-54492471D01*
X19347165Y-54469371D01*
X19341204Y-54445573D01*
X19337604Y-54421304D01*
X19336400Y-54396800D01*
X19336400Y-53146800D01*
X19337604Y-53122296D01*
X19341204Y-53098027D01*
X19347165Y-53074229D01*
X19355430Y-53051129D01*
X19365920Y-53028951D01*
X19378533Y-53007907D01*
X19393147Y-52988202D01*
X19409623Y-52970023D01*
X19427802Y-52953547D01*
X19447507Y-52938933D01*
X19468551Y-52926320D01*
X19490729Y-52915830D01*
X19513829Y-52907565D01*
X19537627Y-52901604D01*
X19561896Y-52898004D01*
X19586400Y-52896800D01*
X20336400Y-52896800D01*
X20360904Y-52898004D01*
G37*
G36*
X23160904Y-50586604D02*
G01*
X23185173Y-50590204D01*
X23208971Y-50596165D01*
X23232071Y-50604430D01*
X23254249Y-50614920D01*
X23275293Y-50627533D01*
X23294998Y-50642147D01*
X23313177Y-50658623D01*
X23329653Y-50676802D01*
X23344267Y-50696507D01*
X23356880Y-50717551D01*
X23367370Y-50739729D01*
X23375635Y-50762829D01*
X23381596Y-50786627D01*
X23385196Y-50810896D01*
X23386400Y-50835400D01*
X23386400Y-52085400D01*
X23385196Y-52109904D01*
X23381596Y-52134173D01*
X23375635Y-52157971D01*
X23367370Y-52181071D01*
X23356880Y-52203249D01*
X23344267Y-52224293D01*
X23329653Y-52243998D01*
X23313177Y-52262177D01*
X23294998Y-52278653D01*
X23275293Y-52293267D01*
X23254249Y-52305880D01*
X23232071Y-52316370D01*
X23208971Y-52324635D01*
X23185173Y-52330596D01*
X23160904Y-52334196D01*
X23136400Y-52335400D01*
X22386400Y-52335400D01*
X22361896Y-52334196D01*
X22337627Y-52330596D01*
X22313829Y-52324635D01*
X22290729Y-52316370D01*
X22268551Y-52305880D01*
X22247507Y-52293267D01*
X22227802Y-52278653D01*
X22209623Y-52262177D01*
X22193147Y-52243998D01*
X22178533Y-52224293D01*
X22165920Y-52203249D01*
X22155430Y-52181071D01*
X22147165Y-52157971D01*
X22141204Y-52134173D01*
X22137604Y-52109904D01*
X22136400Y-52085400D01*
X22136400Y-50835400D01*
X22137604Y-50810896D01*
X22141204Y-50786627D01*
X22147165Y-50762829D01*
X22155430Y-50739729D01*
X22165920Y-50717551D01*
X22178533Y-50696507D01*
X22193147Y-50676802D01*
X22209623Y-50658623D01*
X22227802Y-50642147D01*
X22247507Y-50627533D01*
X22268551Y-50614920D01*
X22290729Y-50604430D01*
X22313829Y-50596165D01*
X22337627Y-50590204D01*
X22361896Y-50586604D01*
X22386400Y-50585400D01*
X23136400Y-50585400D01*
X23160904Y-50586604D01*
G37*
G36*
X20360904Y-50586604D02*
G01*
X20385173Y-50590204D01*
X20408971Y-50596165D01*
X20432071Y-50604430D01*
X20454249Y-50614920D01*
X20475293Y-50627533D01*
X20494998Y-50642147D01*
X20513177Y-50658623D01*
X20529653Y-50676802D01*
X20544267Y-50696507D01*
X20556880Y-50717551D01*
X20567370Y-50739729D01*
X20575635Y-50762829D01*
X20581596Y-50786627D01*
X20585196Y-50810896D01*
X20586400Y-50835400D01*
X20586400Y-52085400D01*
X20585196Y-52109904D01*
X20581596Y-52134173D01*
X20575635Y-52157971D01*
X20567370Y-52181071D01*
X20556880Y-52203249D01*
X20544267Y-52224293D01*
X20529653Y-52243998D01*
X20513177Y-52262177D01*
X20494998Y-52278653D01*
X20475293Y-52293267D01*
X20454249Y-52305880D01*
X20432071Y-52316370D01*
X20408971Y-52324635D01*
X20385173Y-52330596D01*
X20360904Y-52334196D01*
X20336400Y-52335400D01*
X19586400Y-52335400D01*
X19561896Y-52334196D01*
X19537627Y-52330596D01*
X19513829Y-52324635D01*
X19490729Y-52316370D01*
X19468551Y-52305880D01*
X19447507Y-52293267D01*
X19427802Y-52278653D01*
X19409623Y-52262177D01*
X19393147Y-52243998D01*
X19378533Y-52224293D01*
X19365920Y-52203249D01*
X19355430Y-52181071D01*
X19347165Y-52157971D01*
X19341204Y-52134173D01*
X19337604Y-52109904D01*
X19336400Y-52085400D01*
X19336400Y-50835400D01*
X19337604Y-50810896D01*
X19341204Y-50786627D01*
X19347165Y-50762829D01*
X19355430Y-50739729D01*
X19365920Y-50717551D01*
X19378533Y-50696507D01*
X19393147Y-50676802D01*
X19409623Y-50658623D01*
X19427802Y-50642147D01*
X19447507Y-50627533D01*
X19468551Y-50614920D01*
X19490729Y-50604430D01*
X19513829Y-50596165D01*
X19537627Y-50590204D01*
X19561896Y-50586604D01*
X19586400Y-50585400D01*
X20336400Y-50585400D01*
X20360904Y-50586604D01*
G37*
M02*
