G04 #@! TF.GenerationSoftware,KiCad,Pcbnew,(5.1.5)-3*
G04 #@! TF.CreationDate,2020-05-04T23:08:05+02:00*
G04 #@! TF.ProjectId,TrackRay_H01,54726163-6b52-4617-995f-4830312e6b69,rev?*
G04 #@! TF.SameCoordinates,Original*
G04 #@! TF.FileFunction,Legend,Top*
G04 #@! TF.FilePolarity,Positive*
%FSLAX46Y46*%
G04 Gerber Fmt 4.6, Leading zero omitted, Abs format (unit mm)*
G04 Created by KiCad (PCBNEW (5.1.5)-3) date 2020-05-04 23:08:05*
%MOMM*%
%LPD*%
G04 APERTURE LIST*
%ADD10C,0.600000*%
%ADD11C,0.150000*%
%ADD12C,0.120000*%
%ADD13C,0.140000*%
%ADD14C,0.300000*%
%ADD15C,0.262500*%
%ADD16C,0.200000*%
%ADD17C,0.127000*%
%ADD18C,0.100000*%
%ADD19C,0.203200*%
%ADD20C,0.250002*%
%ADD21C,0.254000*%
G04 APERTURE END LIST*
D10*
X66976190Y-71885714D02*
X70023809Y-71885714D01*
X14176190Y-71585714D02*
X17223809Y-71585714D01*
X15700000Y-73109523D02*
X15700000Y-70061904D01*
D11*
X69571428Y-39228571D02*
X69714285Y-39276190D01*
X69761904Y-39323809D01*
X69809523Y-39419047D01*
X69809523Y-39561904D01*
X69761904Y-39657142D01*
X69714285Y-39704761D01*
X69619047Y-39752380D01*
X69238095Y-39752380D01*
X69238095Y-38752380D01*
X69571428Y-38752380D01*
X69666666Y-38800000D01*
X69714285Y-38847619D01*
X69761904Y-38942857D01*
X69761904Y-39038095D01*
X69714285Y-39133333D01*
X69666666Y-39180952D01*
X69571428Y-39228571D01*
X69238095Y-39228571D01*
X69261904Y-35566666D02*
X69738095Y-35566666D01*
X69166666Y-35852380D02*
X69500000Y-34852380D01*
X69833333Y-35852380D01*
X68038095Y-50200000D02*
X67942857Y-50152380D01*
X67800000Y-50152380D01*
X67657142Y-50200000D01*
X67561904Y-50295238D01*
X67514285Y-50390476D01*
X67466666Y-50580952D01*
X67466666Y-50723809D01*
X67514285Y-50914285D01*
X67561904Y-51009523D01*
X67657142Y-51104761D01*
X67800000Y-51152380D01*
X67895238Y-51152380D01*
X68038095Y-51104761D01*
X68085714Y-51057142D01*
X68085714Y-50723809D01*
X67895238Y-50723809D01*
X68514285Y-51152380D02*
X68514285Y-50152380D01*
X69085714Y-51152380D01*
X69085714Y-50152380D01*
X69561904Y-51152380D02*
X69561904Y-50152380D01*
X69800000Y-50152380D01*
X69942857Y-50200000D01*
X70038095Y-50295238D01*
X70085714Y-50390476D01*
X70133333Y-50580952D01*
X70133333Y-50723809D01*
X70085714Y-50914285D01*
X70038095Y-51009523D01*
X69942857Y-51104761D01*
X69800000Y-51152380D01*
X69561904Y-51152380D01*
X67766666Y-45152380D02*
X68100000Y-46152380D01*
X68433333Y-45152380D01*
X69338095Y-46057142D02*
X69290476Y-46104761D01*
X69147619Y-46152380D01*
X69052380Y-46152380D01*
X68909523Y-46104761D01*
X68814285Y-46009523D01*
X68766666Y-45914285D01*
X68719047Y-45723809D01*
X68719047Y-45580952D01*
X68766666Y-45390476D01*
X68814285Y-45295238D01*
X68909523Y-45200000D01*
X69052380Y-45152380D01*
X69147619Y-45152380D01*
X69290476Y-45200000D01*
X69338095Y-45247619D01*
X70338095Y-46057142D02*
X70290476Y-46104761D01*
X70147619Y-46152380D01*
X70052380Y-46152380D01*
X69909523Y-46104761D01*
X69814285Y-46009523D01*
X69766666Y-45914285D01*
X69719047Y-45723809D01*
X69719047Y-45580952D01*
X69766666Y-45390476D01*
X69814285Y-45295238D01*
X69909523Y-45200000D01*
X70052380Y-45152380D01*
X70147619Y-45152380D01*
X70290476Y-45200000D01*
X70338095Y-45247619D01*
X9171428Y-51028571D02*
X9314285Y-51076190D01*
X9361904Y-51123809D01*
X9409523Y-51219047D01*
X9409523Y-51361904D01*
X9361904Y-51457142D01*
X9314285Y-51504761D01*
X9219047Y-51552380D01*
X8838095Y-51552380D01*
X8838095Y-50552380D01*
X9171428Y-50552380D01*
X9266666Y-50600000D01*
X9314285Y-50647619D01*
X9361904Y-50742857D01*
X9361904Y-50838095D01*
X9314285Y-50933333D01*
X9266666Y-50980952D01*
X9171428Y-51028571D01*
X8838095Y-51028571D01*
X8861904Y-47166666D02*
X9338095Y-47166666D01*
X8766666Y-47452380D02*
X9100000Y-46452380D01*
X9433333Y-47452380D01*
X68866666Y-62652380D02*
X68866666Y-61652380D01*
X69247619Y-61652380D01*
X69342857Y-61700000D01*
X69390476Y-61747619D01*
X69438095Y-61842857D01*
X69438095Y-61985714D01*
X69390476Y-62080952D01*
X69342857Y-62128571D01*
X69247619Y-62176190D01*
X68866666Y-62176190D01*
X69771428Y-61652380D02*
X70009523Y-62652380D01*
X70200000Y-61938095D01*
X70390476Y-62652380D01*
X70628571Y-61652380D01*
X71580952Y-62652380D02*
X71247619Y-62176190D01*
X71009523Y-62652380D02*
X71009523Y-61652380D01*
X71390476Y-61652380D01*
X71485714Y-61700000D01*
X71533333Y-61747619D01*
X71580952Y-61842857D01*
X71580952Y-61985714D01*
X71533333Y-62080952D01*
X71485714Y-62128571D01*
X71390476Y-62176190D01*
X71009523Y-62176190D01*
X8166666Y-55328571D02*
X7833333Y-55328571D01*
X7833333Y-55852380D02*
X7833333Y-54852380D01*
X8309523Y-54852380D01*
X9119047Y-55185714D02*
X9119047Y-55852380D01*
X8690476Y-55185714D02*
X8690476Y-55709523D01*
X8738095Y-55804761D01*
X8833333Y-55852380D01*
X8976190Y-55852380D01*
X9071428Y-55804761D01*
X9119047Y-55757142D01*
X9738095Y-55852380D02*
X9642857Y-55804761D01*
X9595238Y-55709523D01*
X9595238Y-54852380D01*
X10261904Y-55852380D02*
X10166666Y-55804761D01*
X10119047Y-55709523D01*
X10119047Y-54852380D01*
X8100000Y-60257142D02*
X8052380Y-60304761D01*
X7909523Y-60352380D01*
X7814285Y-60352380D01*
X7671428Y-60304761D01*
X7576190Y-60209523D01*
X7528571Y-60114285D01*
X7480952Y-59923809D01*
X7480952Y-59780952D01*
X7528571Y-59590476D01*
X7576190Y-59495238D01*
X7671428Y-59400000D01*
X7814285Y-59352380D01*
X7909523Y-59352380D01*
X8052380Y-59400000D01*
X8100000Y-59447619D01*
X8528571Y-60352380D02*
X8528571Y-59352380D01*
X8957142Y-60352380D02*
X8957142Y-59828571D01*
X8909523Y-59733333D01*
X8814285Y-59685714D01*
X8671428Y-59685714D01*
X8576190Y-59733333D01*
X8528571Y-59780952D01*
X9861904Y-60352380D02*
X9861904Y-59828571D01*
X9814285Y-59733333D01*
X9719047Y-59685714D01*
X9528571Y-59685714D01*
X9433333Y-59733333D01*
X9861904Y-60304761D02*
X9766666Y-60352380D01*
X9528571Y-60352380D01*
X9433333Y-60304761D01*
X9385714Y-60209523D01*
X9385714Y-60114285D01*
X9433333Y-60019047D01*
X9528571Y-59971428D01*
X9766666Y-59971428D01*
X9861904Y-59923809D01*
X10338095Y-60352380D02*
X10338095Y-59685714D01*
X10338095Y-59876190D02*
X10385714Y-59780952D01*
X10433333Y-59733333D01*
X10528571Y-59685714D01*
X10623809Y-59685714D01*
X11385714Y-59685714D02*
X11385714Y-60495238D01*
X11338095Y-60590476D01*
X11290476Y-60638095D01*
X11195238Y-60685714D01*
X11052380Y-60685714D01*
X10957142Y-60638095D01*
X11385714Y-60304761D02*
X11290476Y-60352380D01*
X11100000Y-60352380D01*
X11004761Y-60304761D01*
X10957142Y-60257142D01*
X10909523Y-60161904D01*
X10909523Y-59876190D01*
X10957142Y-59780952D01*
X11004761Y-59733333D01*
X11100000Y-59685714D01*
X11290476Y-59685714D01*
X11385714Y-59733333D01*
X11861904Y-60352380D02*
X11861904Y-59685714D01*
X11861904Y-59352380D02*
X11814285Y-59400000D01*
X11861904Y-59447619D01*
X11909523Y-59400000D01*
X11861904Y-59352380D01*
X11861904Y-59447619D01*
X12338095Y-59685714D02*
X12338095Y-60352380D01*
X12338095Y-59780952D02*
X12385714Y-59733333D01*
X12480952Y-59685714D01*
X12623809Y-59685714D01*
X12719047Y-59733333D01*
X12766666Y-59828571D01*
X12766666Y-60352380D01*
X13671428Y-59685714D02*
X13671428Y-60495238D01*
X13623809Y-60590476D01*
X13576190Y-60638095D01*
X13480952Y-60685714D01*
X13338095Y-60685714D01*
X13242857Y-60638095D01*
X13671428Y-60304761D02*
X13576190Y-60352380D01*
X13385714Y-60352380D01*
X13290476Y-60304761D01*
X13242857Y-60257142D01*
X13195238Y-60161904D01*
X13195238Y-59876190D01*
X13242857Y-59780952D01*
X13290476Y-59733333D01*
X13385714Y-59685714D01*
X13576190Y-59685714D01*
X13671428Y-59733333D01*
D12*
X59328571Y-40842857D02*
X59442857Y-40880952D01*
X59480952Y-40919047D01*
X59519047Y-40995238D01*
X59519047Y-41109523D01*
X59480952Y-41185714D01*
X59442857Y-41223809D01*
X59366666Y-41261904D01*
X59061904Y-41261904D01*
X59061904Y-40461904D01*
X59328571Y-40461904D01*
X59404761Y-40500000D01*
X59442857Y-40538095D01*
X59480952Y-40614285D01*
X59480952Y-40690476D01*
X59442857Y-40766666D01*
X59404761Y-40804761D01*
X59328571Y-40842857D01*
X59061904Y-40842857D01*
X60204761Y-41261904D02*
X60204761Y-40842857D01*
X60166666Y-40766666D01*
X60090476Y-40728571D01*
X59938095Y-40728571D01*
X59861904Y-40766666D01*
X60204761Y-41223809D02*
X60128571Y-41261904D01*
X59938095Y-41261904D01*
X59861904Y-41223809D01*
X59823809Y-41147619D01*
X59823809Y-41071428D01*
X59861904Y-40995238D01*
X59938095Y-40957142D01*
X60128571Y-40957142D01*
X60204761Y-40919047D01*
X60471428Y-40728571D02*
X60776190Y-40728571D01*
X60585714Y-40461904D02*
X60585714Y-41147619D01*
X60623809Y-41223809D01*
X60700000Y-41261904D01*
X60776190Y-41261904D01*
X60928571Y-40728571D02*
X61233333Y-40728571D01*
X61042857Y-40461904D02*
X61042857Y-41147619D01*
X61080952Y-41223809D01*
X61157142Y-41261904D01*
X61233333Y-41261904D01*
X61804761Y-41223809D02*
X61728571Y-41261904D01*
X61576190Y-41261904D01*
X61500000Y-41223809D01*
X61461904Y-41147619D01*
X61461904Y-40842857D01*
X61500000Y-40766666D01*
X61576190Y-40728571D01*
X61728571Y-40728571D01*
X61804761Y-40766666D01*
X61842857Y-40842857D01*
X61842857Y-40919047D01*
X61461904Y-40995238D01*
X62185714Y-41261904D02*
X62185714Y-40728571D01*
X62185714Y-40880952D02*
X62223809Y-40804761D01*
X62261904Y-40766666D01*
X62338095Y-40728571D01*
X62414285Y-40728571D01*
X62604761Y-40728571D02*
X62795238Y-41261904D01*
X62985714Y-40728571D02*
X62795238Y-41261904D01*
X62719047Y-41452380D01*
X62680952Y-41490476D01*
X62604761Y-41528571D01*
X64014285Y-41261904D02*
X63938095Y-41223809D01*
X63900000Y-41147619D01*
X63900000Y-40461904D01*
X64623809Y-41223809D02*
X64547619Y-41261904D01*
X64395238Y-41261904D01*
X64319047Y-41223809D01*
X64280952Y-41147619D01*
X64280952Y-40842857D01*
X64319047Y-40766666D01*
X64395238Y-40728571D01*
X64547619Y-40728571D01*
X64623809Y-40766666D01*
X64661904Y-40842857D01*
X64661904Y-40919047D01*
X64280952Y-40995238D01*
X64928571Y-40728571D02*
X65119047Y-41261904D01*
X65309523Y-40728571D01*
X65919047Y-41223809D02*
X65842857Y-41261904D01*
X65690476Y-41261904D01*
X65614285Y-41223809D01*
X65576190Y-41147619D01*
X65576190Y-40842857D01*
X65614285Y-40766666D01*
X65690476Y-40728571D01*
X65842857Y-40728571D01*
X65919047Y-40766666D01*
X65957142Y-40842857D01*
X65957142Y-40919047D01*
X65576190Y-40995238D01*
X66414285Y-41261904D02*
X66338095Y-41223809D01*
X66300000Y-41147619D01*
X66300000Y-40461904D01*
D11*
X65723809Y-12500000D02*
X65628571Y-12452380D01*
X65485714Y-12452380D01*
X65342857Y-12500000D01*
X65247619Y-12595238D01*
X65200000Y-12690476D01*
X65152380Y-12880952D01*
X65152380Y-13023809D01*
X65200000Y-13214285D01*
X65247619Y-13309523D01*
X65342857Y-13404761D01*
X65485714Y-13452380D01*
X65580952Y-13452380D01*
X65723809Y-13404761D01*
X65771428Y-13357142D01*
X65771428Y-13023809D01*
X65580952Y-13023809D01*
X66200000Y-13452380D02*
X66200000Y-12452380D01*
X66580952Y-12452380D01*
X66676190Y-12500000D01*
X66723809Y-12547619D01*
X66771428Y-12642857D01*
X66771428Y-12785714D01*
X66723809Y-12880952D01*
X66676190Y-12928571D01*
X66580952Y-12976190D01*
X66200000Y-12976190D01*
X67200000Y-13452380D02*
X67200000Y-12452380D01*
X67866666Y-12452380D02*
X68057142Y-12452380D01*
X68152380Y-12500000D01*
X68247619Y-12595238D01*
X68295238Y-12785714D01*
X68295238Y-13119047D01*
X68247619Y-13309523D01*
X68152380Y-13404761D01*
X68057142Y-13452380D01*
X67866666Y-13452380D01*
X67771428Y-13404761D01*
X67676190Y-13309523D01*
X67628571Y-13119047D01*
X67628571Y-12785714D01*
X67676190Y-12595238D01*
X67771428Y-12500000D01*
X67866666Y-12452380D01*
X68914285Y-12452380D02*
X69009523Y-12452380D01*
X69104761Y-12500000D01*
X69152380Y-12547619D01*
X69200000Y-12642857D01*
X69247619Y-12833333D01*
X69247619Y-13071428D01*
X69200000Y-13261904D01*
X69152380Y-13357142D01*
X69104761Y-13404761D01*
X69009523Y-13452380D01*
X68914285Y-13452380D01*
X68819047Y-13404761D01*
X68771428Y-13357142D01*
X68723809Y-13261904D01*
X68676190Y-13071428D01*
X68676190Y-12833333D01*
X68723809Y-12642857D01*
X68771428Y-12547619D01*
X68819047Y-12500000D01*
X68914285Y-12452380D01*
X43464982Y-34193260D02*
X43512601Y-34145640D01*
X43560220Y-34193260D01*
X43512601Y-34240879D01*
X43464982Y-34193260D01*
X43560220Y-34193260D01*
X43179268Y-34193260D02*
X42607840Y-34240879D01*
X42560220Y-34193260D01*
X42607840Y-34145640D01*
X43179268Y-34193260D01*
X42560220Y-34193260D01*
X42512601Y-28431355D02*
X43798316Y-29288498D01*
X43179268Y-28098021D02*
X43179268Y-27336117D01*
X43179268Y-26859926D02*
X43179268Y-26098021D01*
X43179268Y-25621831D02*
X43179268Y-24859926D01*
X43179268Y-24383736D02*
X43179268Y-23621831D01*
X43179268Y-23145640D02*
X43179268Y-22383736D01*
X42464982Y-22240879D02*
X43750697Y-21383736D01*
X43036411Y-21240879D02*
X43036411Y-20478974D01*
X43322125Y-20478974D02*
X43322125Y-21240879D01*
X43036411Y-20002783D02*
X43036411Y-19240879D01*
X43322125Y-19240879D02*
X43322125Y-20002783D01*
X43036411Y-18764688D02*
X43036411Y-18002783D01*
X43322125Y-18002783D02*
X43322125Y-18764688D01*
X43036411Y-17526593D02*
X43036411Y-16764688D01*
X43322125Y-16764688D02*
X43322125Y-17526593D01*
X43036411Y-16288498D02*
X43036411Y-15526593D01*
X43322125Y-15526593D02*
X43322125Y-16288498D01*
X43036411Y-15050402D02*
X43036411Y-14288498D01*
X43322125Y-14288498D02*
X43322125Y-15050402D01*
X43036411Y-13812307D02*
X43036411Y-13050402D01*
X43322125Y-13050402D02*
X43322125Y-13812307D01*
X43036411Y-12574212D02*
X43036411Y-11812307D01*
X43322125Y-11812307D02*
X43322125Y-12574212D01*
X43036411Y-11336117D02*
X43036411Y-10574212D01*
X43322125Y-10574212D02*
X43322125Y-11336117D01*
X43036411Y-10098021D02*
X43036411Y-9336117D01*
X43322125Y-9336117D02*
X43322125Y-10098021D01*
X43036411Y-8859926D02*
X43036411Y-8098021D01*
X43322125Y-8098021D02*
X43322125Y-8859926D01*
X43036411Y-7621831D02*
X43036411Y-6859926D01*
X43322125Y-6859926D02*
X43322125Y-7621831D01*
X43084030Y-5764688D02*
X43036411Y-5812307D01*
X42988792Y-5907545D01*
X42988792Y-6002783D01*
X43036411Y-6098021D01*
X43084030Y-6145640D01*
X43179268Y-6193259D01*
X43274506Y-6193259D01*
X43369744Y-6145640D01*
X43417363Y-6098021D01*
X43464982Y-6002783D01*
X43464982Y-5907545D01*
X43417363Y-5812307D01*
X43369744Y-5764688D01*
X42988792Y-5764688D02*
X43369744Y-5764688D01*
X43417363Y-5717069D01*
X43417363Y-5669450D01*
X43369744Y-5574212D01*
X43274506Y-5526593D01*
X43036411Y-5526593D01*
X42893554Y-5621831D01*
X42798316Y-5764688D01*
X42750697Y-5955164D01*
X42798316Y-6145640D01*
X42893554Y-6288498D01*
X43036411Y-6383736D01*
X43226887Y-6431355D01*
X43417363Y-6383736D01*
X43560220Y-6288498D01*
X43655459Y-6145640D01*
X43703078Y-5955164D01*
X43655459Y-5764688D01*
X43560220Y-5621831D01*
X45543554Y-33955164D02*
X44114982Y-33955164D01*
X45305459Y-33478974D02*
X45305459Y-32717069D01*
X45305459Y-32717069D02*
X45305459Y-31955164D01*
X45305459Y-31955164D02*
X45305459Y-31193260D01*
X45305459Y-31193260D02*
X45305459Y-30431355D01*
X45305459Y-30431355D02*
X45305459Y-29669450D01*
X44162601Y-28717069D02*
X45448316Y-29574212D01*
X45305459Y-28621831D02*
X45305459Y-27859926D01*
X45305459Y-27859926D02*
X45305459Y-27098021D01*
X45305459Y-27098021D02*
X45305459Y-26336117D01*
X45305459Y-26336117D02*
X45305459Y-25574212D01*
X45305459Y-25574212D02*
X45305459Y-24812307D01*
X45305459Y-24812307D02*
X45305459Y-24050402D01*
X45305459Y-24050402D02*
X45305459Y-23288498D01*
X44114982Y-23383736D02*
X45400697Y-22526593D01*
X45305459Y-22621831D02*
X45305459Y-21859926D01*
X45305459Y-21859926D02*
X45305459Y-21098021D01*
X45305459Y-21098021D02*
X45305459Y-20336117D01*
X45305459Y-20336117D02*
X45305459Y-19574212D01*
X45305459Y-19574212D02*
X45305459Y-18812307D01*
X45812601Y-34240879D02*
X47098316Y-35098021D01*
X46955459Y-34145640D02*
X46955459Y-33383736D01*
X46955459Y-33383736D02*
X46955459Y-32621831D01*
X46955459Y-32621831D02*
X46955459Y-31859926D01*
X46955459Y-31859926D02*
X46955459Y-31098021D01*
X46955459Y-31098021D02*
X46955459Y-30336117D01*
X46955459Y-30336117D02*
X46955459Y-29574212D01*
X46955459Y-29574212D02*
X46955459Y-28812307D01*
X46955459Y-28812307D02*
X46955459Y-28050402D01*
X46955459Y-28050402D02*
X46955459Y-27288498D01*
X46955459Y-27288498D02*
X46955459Y-26526593D01*
X46955459Y-26526593D02*
X46955459Y-25764688D01*
X46955459Y-25764688D02*
X46955459Y-25002783D01*
X46955459Y-25002783D02*
X46955459Y-24240879D01*
X46955459Y-24240879D02*
X46955459Y-23478974D01*
X46955459Y-23478974D02*
X46955459Y-22717069D01*
X46955459Y-22717069D02*
X46955459Y-21955164D01*
X46955459Y-21955164D02*
X46955459Y-21193260D01*
X46955459Y-21193260D02*
X46955459Y-20431355D01*
X46955459Y-20431355D02*
X46955459Y-19669450D01*
X46955459Y-19669450D02*
X46955459Y-18907545D01*
X45764982Y-19002783D02*
X47050697Y-18145640D01*
X47414982Y-34526593D02*
X48700697Y-33669450D01*
X48129268Y-33526593D02*
X48129268Y-32764688D01*
X48510220Y-33145640D02*
X47748316Y-33145640D01*
X48605459Y-32526593D02*
X48605459Y-31764688D01*
X48605459Y-31764688D02*
X48605459Y-31002783D01*
X48129268Y-30764688D02*
X48129268Y-30002783D01*
X48510220Y-30383736D02*
X47748316Y-30383736D01*
X48605459Y-29764688D02*
X48605459Y-29002783D01*
X48605459Y-29002783D02*
X48605459Y-28240879D01*
X48129268Y-28002783D02*
X48129268Y-27240879D01*
X48510220Y-27621831D02*
X47748316Y-27621831D01*
X48605459Y-27002783D02*
X48605459Y-26240879D01*
X48605459Y-26240879D02*
X48605459Y-25478974D01*
X48129268Y-25240879D02*
X48129268Y-24478974D01*
X48510220Y-24859926D02*
X47748316Y-24859926D01*
X48605459Y-24240879D02*
X48605459Y-23478974D01*
X48605459Y-23478974D02*
X48605459Y-22717069D01*
X48129268Y-22478974D02*
X48129268Y-21717069D01*
X48510220Y-22098021D02*
X47748316Y-22098021D01*
X48605459Y-21478974D02*
X48605459Y-20717069D01*
X48605459Y-20717069D02*
X48605459Y-19955164D01*
X48129268Y-19717069D02*
X48129268Y-18955164D01*
X48510220Y-19336117D02*
X47748316Y-19336117D01*
X48605459Y-18717069D02*
X48605459Y-17955164D01*
X48605459Y-17955164D02*
X48605459Y-17193260D01*
X47510220Y-16812307D02*
X47748316Y-16812307D01*
X47653078Y-17050402D02*
X47748316Y-16812307D01*
X47653078Y-16574212D01*
X47938792Y-16955164D02*
X47748316Y-16812307D01*
X47938792Y-16669450D01*
X47462601Y-15478974D02*
X48748316Y-16336117D01*
D13*
X20657457Y-34286971D02*
X21557457Y-34286971D01*
X21557457Y-34501257D01*
X21514600Y-34629828D01*
X21428885Y-34715542D01*
X21343171Y-34758400D01*
X21171742Y-34801257D01*
X21043171Y-34801257D01*
X20871742Y-34758400D01*
X20786028Y-34715542D01*
X20700314Y-34629828D01*
X20657457Y-34501257D01*
X20657457Y-34286971D01*
X20700314Y-35529828D02*
X20657457Y-35444114D01*
X20657457Y-35272685D01*
X20700314Y-35186971D01*
X20786028Y-35144114D01*
X21128885Y-35144114D01*
X21214600Y-35186971D01*
X21257457Y-35272685D01*
X21257457Y-35444114D01*
X21214600Y-35529828D01*
X21128885Y-35572685D01*
X21043171Y-35572685D01*
X20957457Y-35144114D01*
X20700314Y-35915542D02*
X20657457Y-36001257D01*
X20657457Y-36172685D01*
X20700314Y-36258400D01*
X20786028Y-36301257D01*
X20828885Y-36301257D01*
X20914600Y-36258400D01*
X20957457Y-36172685D01*
X20957457Y-36044114D01*
X21000314Y-35958400D01*
X21086028Y-35915542D01*
X21128885Y-35915542D01*
X21214600Y-35958400D01*
X21257457Y-36044114D01*
X21257457Y-36172685D01*
X21214600Y-36258400D01*
X20657457Y-36686971D02*
X21257457Y-36686971D01*
X21557457Y-36686971D02*
X21514600Y-36644114D01*
X21471742Y-36686971D01*
X21514600Y-36729828D01*
X21557457Y-36686971D01*
X21471742Y-36686971D01*
X21257457Y-37501257D02*
X20528885Y-37501257D01*
X20443171Y-37458400D01*
X20400314Y-37415542D01*
X20357457Y-37329828D01*
X20357457Y-37201257D01*
X20400314Y-37115542D01*
X20700314Y-37501257D02*
X20657457Y-37415542D01*
X20657457Y-37244114D01*
X20700314Y-37158400D01*
X20743171Y-37115542D01*
X20828885Y-37072685D01*
X21086028Y-37072685D01*
X21171742Y-37115542D01*
X21214600Y-37158400D01*
X21257457Y-37244114D01*
X21257457Y-37415542D01*
X21214600Y-37501257D01*
X21257457Y-37929828D02*
X20657457Y-37929828D01*
X21171742Y-37929828D02*
X21214600Y-37972685D01*
X21257457Y-38058400D01*
X21257457Y-38186971D01*
X21214600Y-38272685D01*
X21128885Y-38315542D01*
X20657457Y-38315542D01*
X20700314Y-39086971D02*
X20657457Y-39001257D01*
X20657457Y-38829828D01*
X20700314Y-38744114D01*
X20786028Y-38701257D01*
X21128885Y-38701257D01*
X21214600Y-38744114D01*
X21257457Y-38829828D01*
X21257457Y-39001257D01*
X21214600Y-39086971D01*
X21128885Y-39129828D01*
X21043171Y-39129828D01*
X20957457Y-38701257D01*
X20657457Y-39901257D02*
X21557457Y-39901257D01*
X20700314Y-39901257D02*
X20657457Y-39815542D01*
X20657457Y-39644114D01*
X20700314Y-39558400D01*
X20743171Y-39515542D01*
X20828885Y-39472685D01*
X21086028Y-39472685D01*
X21171742Y-39515542D01*
X21214600Y-39558400D01*
X21257457Y-39644114D01*
X21257457Y-39815542D01*
X21214600Y-39901257D01*
X21257457Y-40929828D02*
X20657457Y-41101257D01*
X21086028Y-41272685D01*
X20657457Y-41444114D01*
X21257457Y-41615542D01*
X20657457Y-41958400D02*
X21257457Y-41958400D01*
X21557457Y-41958400D02*
X21514600Y-41915542D01*
X21471742Y-41958400D01*
X21514600Y-42001257D01*
X21557457Y-41958400D01*
X21471742Y-41958400D01*
X21257457Y-42258400D02*
X21257457Y-42601257D01*
X21557457Y-42386971D02*
X20786028Y-42386971D01*
X20700314Y-42429828D01*
X20657457Y-42515542D01*
X20657457Y-42601257D01*
X20657457Y-42901257D02*
X21557457Y-42901257D01*
X20657457Y-43286971D02*
X21128885Y-43286971D01*
X21214600Y-43244114D01*
X21257457Y-43158400D01*
X21257457Y-43029828D01*
X21214600Y-42944114D01*
X21171742Y-42901257D01*
X20657457Y-44529828D02*
X20700314Y-44444114D01*
X20786028Y-44401257D01*
X21557457Y-44401257D01*
X20657457Y-45001257D02*
X20700314Y-44915542D01*
X20743171Y-44872685D01*
X20828885Y-44829828D01*
X21086028Y-44829828D01*
X21171742Y-44872685D01*
X21214600Y-44915542D01*
X21257457Y-45001257D01*
X21257457Y-45129828D01*
X21214600Y-45215542D01*
X21171742Y-45258400D01*
X21086028Y-45301257D01*
X20828885Y-45301257D01*
X20743171Y-45258400D01*
X20700314Y-45215542D01*
X20657457Y-45129828D01*
X20657457Y-45001257D01*
X21257457Y-45601257D02*
X20657457Y-45815542D01*
X21257457Y-46029828D01*
X20700314Y-46715542D02*
X20657457Y-46629828D01*
X20657457Y-46458400D01*
X20700314Y-46372685D01*
X20786028Y-46329828D01*
X21128885Y-46329828D01*
X21214600Y-46372685D01*
X21257457Y-46458400D01*
X21257457Y-46629828D01*
X21214600Y-46715542D01*
X21128885Y-46758400D01*
X21043171Y-46758400D01*
X20957457Y-46329828D01*
X20657457Y-47829828D02*
X21557457Y-47829828D01*
X21214600Y-47829828D02*
X21257457Y-47915542D01*
X21257457Y-48086971D01*
X21214600Y-48172685D01*
X21171742Y-48215542D01*
X21086028Y-48258400D01*
X20828885Y-48258400D01*
X20743171Y-48215542D01*
X20700314Y-48172685D01*
X20657457Y-48086971D01*
X20657457Y-47915542D01*
X20700314Y-47829828D01*
X21257457Y-48558400D02*
X20657457Y-48772685D01*
X21257457Y-48986971D02*
X20657457Y-48772685D01*
X20443171Y-48686971D01*
X20400314Y-48644114D01*
X20357457Y-48558400D01*
X20743171Y-49329828D02*
X20700314Y-49372685D01*
X20657457Y-49329828D01*
X20700314Y-49286971D01*
X20743171Y-49329828D01*
X20657457Y-49329828D01*
X21214600Y-49329828D02*
X21171742Y-49372685D01*
X21128885Y-49329828D01*
X21171742Y-49286971D01*
X21214600Y-49329828D01*
X21128885Y-49329828D01*
X19167457Y-37351257D02*
X20067457Y-37351257D01*
X19424600Y-37651257D01*
X20067457Y-37951257D01*
X19167457Y-37951257D01*
X19167457Y-38765542D02*
X19638885Y-38765542D01*
X19724600Y-38722685D01*
X19767457Y-38636971D01*
X19767457Y-38465542D01*
X19724600Y-38379828D01*
X19210314Y-38765542D02*
X19167457Y-38679828D01*
X19167457Y-38465542D01*
X19210314Y-38379828D01*
X19296028Y-38336971D01*
X19381742Y-38336971D01*
X19467457Y-38379828D01*
X19510314Y-38465542D01*
X19510314Y-38679828D01*
X19553171Y-38765542D01*
X19167457Y-39194114D02*
X19767457Y-39194114D01*
X19596028Y-39194114D02*
X19681742Y-39236971D01*
X19724600Y-39279828D01*
X19767457Y-39365542D01*
X19767457Y-39451257D01*
X19767457Y-39622685D02*
X19767457Y-39965542D01*
X20067457Y-39751257D02*
X19296028Y-39751257D01*
X19210314Y-39794114D01*
X19167457Y-39879828D01*
X19167457Y-39965542D01*
X19167457Y-40265542D02*
X19767457Y-40265542D01*
X20067457Y-40265542D02*
X20024600Y-40222685D01*
X19981742Y-40265542D01*
X20024600Y-40308400D01*
X20067457Y-40265542D01*
X19981742Y-40265542D01*
X19767457Y-40694114D02*
X19167457Y-40694114D01*
X19681742Y-40694114D02*
X19724600Y-40736971D01*
X19767457Y-40822685D01*
X19767457Y-40951257D01*
X19724600Y-41036971D01*
X19638885Y-41079828D01*
X19167457Y-41079828D01*
X19167457Y-42194114D02*
X20067457Y-42194114D01*
X20067457Y-42536971D01*
X20024600Y-42622685D01*
X19981742Y-42665542D01*
X19896028Y-42708400D01*
X19767457Y-42708400D01*
X19681742Y-42665542D01*
X19638885Y-42622685D01*
X19596028Y-42536971D01*
X19596028Y-42194114D01*
X19767457Y-42965542D02*
X19767457Y-43308400D01*
X20067457Y-43094114D02*
X19296028Y-43094114D01*
X19210314Y-43136971D01*
X19167457Y-43222685D01*
X19167457Y-43308400D01*
X19167457Y-43994114D02*
X19638885Y-43994114D01*
X19724600Y-43951257D01*
X19767457Y-43865542D01*
X19767457Y-43694114D01*
X19724600Y-43608400D01*
X19210314Y-43994114D02*
X19167457Y-43908400D01*
X19167457Y-43694114D01*
X19210314Y-43608400D01*
X19296028Y-43565542D01*
X19381742Y-43565542D01*
X19467457Y-43608400D01*
X19510314Y-43694114D01*
X19510314Y-43908400D01*
X19553171Y-43994114D01*
X20110314Y-43865542D02*
X19981742Y-43736971D01*
X19210314Y-44808400D02*
X19167457Y-44722685D01*
X19167457Y-44551257D01*
X19210314Y-44465542D01*
X19253171Y-44422685D01*
X19338885Y-44379828D01*
X19596028Y-44379828D01*
X19681742Y-44422685D01*
X19724600Y-44465542D01*
X19767457Y-44551257D01*
X19767457Y-44722685D01*
X19724600Y-44808400D01*
X20110314Y-44465542D02*
X19981742Y-44636971D01*
X20110314Y-44808400D01*
X19210314Y-45536971D02*
X19167457Y-45451257D01*
X19167457Y-45279828D01*
X19210314Y-45194114D01*
X19296028Y-45151257D01*
X19638885Y-45151257D01*
X19724600Y-45194114D01*
X19767457Y-45279828D01*
X19767457Y-45451257D01*
X19724600Y-45536971D01*
X19638885Y-45579828D01*
X19553171Y-45579828D01*
X19467457Y-45151257D01*
X19167457Y-45965542D02*
X20067457Y-45965542D01*
X19510314Y-46051257D02*
X19167457Y-46308400D01*
X19767457Y-46308400D02*
X19424600Y-45965542D01*
X17677457Y-37565542D02*
X18577457Y-37565542D01*
X17934600Y-37865542D01*
X18577457Y-38165542D01*
X17677457Y-38165542D01*
X17677457Y-38979828D02*
X18148885Y-38979828D01*
X18234600Y-38936971D01*
X18277457Y-38851257D01*
X18277457Y-38679828D01*
X18234600Y-38594114D01*
X17720314Y-38979828D02*
X17677457Y-38894114D01*
X17677457Y-38679828D01*
X17720314Y-38594114D01*
X17806028Y-38551257D01*
X17891742Y-38551257D01*
X17977457Y-38594114D01*
X18020314Y-38679828D01*
X18020314Y-38894114D01*
X18063171Y-38979828D01*
X17677457Y-39408400D02*
X18277457Y-39408400D01*
X18106028Y-39408400D02*
X18191742Y-39451257D01*
X18234600Y-39494114D01*
X18277457Y-39579828D01*
X18277457Y-39665542D01*
X17720314Y-40308400D02*
X17677457Y-40222685D01*
X17677457Y-40051257D01*
X17720314Y-39965542D01*
X17806028Y-39922685D01*
X18148885Y-39922685D01*
X18234600Y-39965542D01*
X18277457Y-40051257D01*
X18277457Y-40222685D01*
X18234600Y-40308400D01*
X18148885Y-40351257D01*
X18063171Y-40351257D01*
X17977457Y-39922685D01*
X17677457Y-40736971D02*
X18577457Y-40736971D01*
X18020314Y-40822685D02*
X17677457Y-41079828D01*
X18277457Y-41079828D02*
X17934600Y-40736971D01*
X17763171Y-42665542D02*
X17720314Y-42622685D01*
X17677457Y-42494114D01*
X17677457Y-42408400D01*
X17720314Y-42279828D01*
X17806028Y-42194114D01*
X17891742Y-42151257D01*
X18063171Y-42108400D01*
X18191742Y-42108400D01*
X18363171Y-42151257D01*
X18448885Y-42194114D01*
X18534600Y-42279828D01*
X18577457Y-42408400D01*
X18577457Y-42494114D01*
X18534600Y-42622685D01*
X18491742Y-42665542D01*
X17677457Y-43179828D02*
X17720314Y-43094114D01*
X17763171Y-43051257D01*
X17848885Y-43008400D01*
X18106028Y-43008400D01*
X18191742Y-43051257D01*
X18234600Y-43094114D01*
X18277457Y-43179828D01*
X18277457Y-43308400D01*
X18234600Y-43394114D01*
X18191742Y-43436971D01*
X18106028Y-43479828D01*
X17848885Y-43479828D01*
X17763171Y-43436971D01*
X17720314Y-43394114D01*
X17677457Y-43308400D01*
X17677457Y-43179828D01*
X18277457Y-44251257D02*
X17677457Y-44251257D01*
X18277457Y-43865542D02*
X17806028Y-43865542D01*
X17720314Y-43908400D01*
X17677457Y-43994114D01*
X17677457Y-44122685D01*
X17720314Y-44208400D01*
X17763171Y-44251257D01*
X18277457Y-44551257D02*
X18277457Y-44894114D01*
X17677457Y-44679828D02*
X18448885Y-44679828D01*
X18534600Y-44722685D01*
X18577457Y-44808400D01*
X18577457Y-44894114D01*
X17677457Y-45579828D02*
X18148885Y-45579828D01*
X18234600Y-45536971D01*
X18277457Y-45451257D01*
X18277457Y-45279828D01*
X18234600Y-45194114D01*
X17720314Y-45579828D02*
X17677457Y-45494114D01*
X17677457Y-45279828D01*
X17720314Y-45194114D01*
X17806028Y-45151257D01*
X17891742Y-45151257D01*
X17977457Y-45194114D01*
X18020314Y-45279828D01*
X18020314Y-45494114D01*
X18063171Y-45579828D01*
X17677457Y-46136971D02*
X17720314Y-46051257D01*
X17806028Y-46008400D01*
X18577457Y-46008400D01*
X16187457Y-38486971D02*
X17087457Y-38486971D01*
X17087457Y-38829828D01*
X17044600Y-38915542D01*
X17001742Y-38958400D01*
X16916028Y-39001257D01*
X16787457Y-39001257D01*
X16701742Y-38958400D01*
X16658885Y-38915542D01*
X16616028Y-38829828D01*
X16616028Y-38486971D01*
X16230314Y-39729828D02*
X16187457Y-39644114D01*
X16187457Y-39472685D01*
X16230314Y-39386971D01*
X16316028Y-39344114D01*
X16658885Y-39344114D01*
X16744600Y-39386971D01*
X16787457Y-39472685D01*
X16787457Y-39644114D01*
X16744600Y-39729828D01*
X16658885Y-39772685D01*
X16573171Y-39772685D01*
X16487457Y-39344114D01*
X16787457Y-40029828D02*
X16787457Y-40372685D01*
X17087457Y-40158400D02*
X16316028Y-40158400D01*
X16230314Y-40201257D01*
X16187457Y-40286971D01*
X16187457Y-40372685D01*
X16187457Y-40672685D02*
X16787457Y-40672685D01*
X16616028Y-40672685D02*
X16701742Y-40715542D01*
X16744600Y-40758400D01*
X16787457Y-40844114D01*
X16787457Y-40929828D01*
X17087457Y-41786971D02*
X16187457Y-42086971D01*
X17087457Y-42386971D01*
X16187457Y-43072685D02*
X16658885Y-43072685D01*
X16744600Y-43029828D01*
X16787457Y-42944114D01*
X16787457Y-42772685D01*
X16744600Y-42686971D01*
X16230314Y-43072685D02*
X16187457Y-42986971D01*
X16187457Y-42772685D01*
X16230314Y-42686971D01*
X16316028Y-42644114D01*
X16401742Y-42644114D01*
X16487457Y-42686971D01*
X16530314Y-42772685D01*
X16530314Y-42986971D01*
X16573171Y-43072685D01*
X17130314Y-42944114D02*
X17001742Y-42815542D01*
X16787457Y-43415542D02*
X16187457Y-43629828D01*
X16787457Y-43844114D01*
X16187457Y-44186971D02*
X16787457Y-44186971D01*
X16616028Y-44186971D02*
X16701742Y-44229828D01*
X16744600Y-44272685D01*
X16787457Y-44358400D01*
X16787457Y-44444114D01*
X16187457Y-45129828D02*
X16658885Y-45129828D01*
X16744600Y-45086971D01*
X16787457Y-45001257D01*
X16787457Y-44829828D01*
X16744600Y-44744114D01*
X16230314Y-45129828D02*
X16187457Y-45044114D01*
X16187457Y-44829828D01*
X16230314Y-44744114D01*
X16316028Y-44701257D01*
X16401742Y-44701257D01*
X16487457Y-44744114D01*
X16530314Y-44829828D01*
X16530314Y-45044114D01*
X16573171Y-45129828D01*
X14697457Y-37436971D02*
X15597457Y-37436971D01*
X14954600Y-37736971D01*
X15597457Y-38036971D01*
X14697457Y-38036971D01*
X14697457Y-38851257D02*
X15168885Y-38851257D01*
X15254600Y-38808400D01*
X15297457Y-38722685D01*
X15297457Y-38551257D01*
X15254600Y-38465542D01*
X14740314Y-38851257D02*
X14697457Y-38765542D01*
X14697457Y-38551257D01*
X14740314Y-38465542D01*
X14826028Y-38422685D01*
X14911742Y-38422685D01*
X14997457Y-38465542D01*
X15040314Y-38551257D01*
X15040314Y-38765542D01*
X15083171Y-38851257D01*
X14697457Y-39279828D02*
X15297457Y-39279828D01*
X15126028Y-39279828D02*
X15211742Y-39322685D01*
X15254600Y-39365542D01*
X15297457Y-39451257D01*
X15297457Y-39536971D01*
X15297457Y-39708400D02*
X15297457Y-40051257D01*
X15597457Y-39836971D02*
X14826028Y-39836971D01*
X14740314Y-39879828D01*
X14697457Y-39965542D01*
X14697457Y-40051257D01*
X14697457Y-40351257D02*
X15297457Y-40351257D01*
X15597457Y-40351257D02*
X15554600Y-40308400D01*
X15511742Y-40351257D01*
X15554600Y-40394114D01*
X15597457Y-40351257D01*
X15511742Y-40351257D01*
X15297457Y-40779828D02*
X14697457Y-40779828D01*
X15211742Y-40779828D02*
X15254600Y-40822685D01*
X15297457Y-40908400D01*
X15297457Y-41036971D01*
X15254600Y-41122685D01*
X15168885Y-41165542D01*
X14697457Y-41165542D01*
X14783171Y-42794114D02*
X14740314Y-42751257D01*
X14697457Y-42622685D01*
X14697457Y-42536971D01*
X14740314Y-42408400D01*
X14826028Y-42322685D01*
X14911742Y-42279828D01*
X15083171Y-42236971D01*
X15211742Y-42236971D01*
X15383171Y-42279828D01*
X15468885Y-42322685D01*
X15554600Y-42408400D01*
X15597457Y-42536971D01*
X15597457Y-42622685D01*
X15554600Y-42751257D01*
X15511742Y-42794114D01*
X14697457Y-43308400D02*
X14740314Y-43222685D01*
X14783171Y-43179828D01*
X14868885Y-43136971D01*
X15126028Y-43136971D01*
X15211742Y-43179828D01*
X15254600Y-43222685D01*
X15297457Y-43308400D01*
X15297457Y-43436971D01*
X15254600Y-43522685D01*
X15211742Y-43565542D01*
X15126028Y-43608400D01*
X14868885Y-43608400D01*
X14783171Y-43565542D01*
X14740314Y-43522685D01*
X14697457Y-43436971D01*
X14697457Y-43308400D01*
X15297457Y-44379828D02*
X14697457Y-44379828D01*
X15297457Y-43994114D02*
X14826028Y-43994114D01*
X14740314Y-44036971D01*
X14697457Y-44122685D01*
X14697457Y-44251257D01*
X14740314Y-44336971D01*
X14783171Y-44379828D01*
X15297457Y-44679828D02*
X15297457Y-45022685D01*
X14697457Y-44808400D02*
X15468885Y-44808400D01*
X15554600Y-44851257D01*
X15597457Y-44936971D01*
X15597457Y-45022685D01*
X14697457Y-45708400D02*
X15168885Y-45708400D01*
X15254600Y-45665542D01*
X15297457Y-45579828D01*
X15297457Y-45408400D01*
X15254600Y-45322685D01*
X14740314Y-45708400D02*
X14697457Y-45622685D01*
X14697457Y-45408400D01*
X14740314Y-45322685D01*
X14826028Y-45279828D01*
X14911742Y-45279828D01*
X14997457Y-45322685D01*
X15040314Y-45408400D01*
X15040314Y-45622685D01*
X15083171Y-45708400D01*
X14697457Y-46265542D02*
X14740314Y-46179828D01*
X14826028Y-46136971D01*
X15597457Y-46136971D01*
X13464600Y-38294114D02*
X13464600Y-38722685D01*
X13207457Y-38208400D02*
X14107457Y-38508400D01*
X13207457Y-38808400D01*
X13207457Y-39236971D02*
X13250314Y-39151257D01*
X13336028Y-39108400D01*
X14107457Y-39108400D01*
X13250314Y-39922685D02*
X13207457Y-39836971D01*
X13207457Y-39665542D01*
X13250314Y-39579828D01*
X13336028Y-39536971D01*
X13678885Y-39536971D01*
X13764600Y-39579828D01*
X13807457Y-39665542D01*
X13807457Y-39836971D01*
X13764600Y-39922685D01*
X13678885Y-39965542D01*
X13593171Y-39965542D01*
X13507457Y-39536971D01*
X13250314Y-40308400D02*
X13207457Y-40394114D01*
X13207457Y-40565542D01*
X13250314Y-40651257D01*
X13336028Y-40694114D01*
X13378885Y-40694114D01*
X13464600Y-40651257D01*
X13507457Y-40565542D01*
X13507457Y-40436971D01*
X13550314Y-40351257D01*
X13636028Y-40308400D01*
X13678885Y-40308400D01*
X13764600Y-40351257D01*
X13807457Y-40436971D01*
X13807457Y-40565542D01*
X13764600Y-40651257D01*
X14150314Y-40308400D02*
X14021742Y-40479828D01*
X14150314Y-40651257D01*
X13207457Y-41765542D02*
X14107457Y-41765542D01*
X13207457Y-42279828D02*
X13721742Y-41894114D01*
X14107457Y-42279828D02*
X13593171Y-41765542D01*
X13207457Y-42665542D02*
X13807457Y-42665542D01*
X13636028Y-42665542D02*
X13721742Y-42708400D01*
X13764600Y-42751257D01*
X13807457Y-42836971D01*
X13807457Y-42922685D01*
X13207457Y-43608400D02*
X13678885Y-43608400D01*
X13764600Y-43565542D01*
X13807457Y-43479828D01*
X13807457Y-43308400D01*
X13764600Y-43222685D01*
X13250314Y-43608400D02*
X13207457Y-43522685D01*
X13207457Y-43308400D01*
X13250314Y-43222685D01*
X13336028Y-43179828D01*
X13421742Y-43179828D01*
X13507457Y-43222685D01*
X13550314Y-43308400D01*
X13550314Y-43522685D01*
X13593171Y-43608400D01*
X13207457Y-44036971D02*
X13807457Y-44036971D01*
X13721742Y-44036971D02*
X13764600Y-44079828D01*
X13807457Y-44165542D01*
X13807457Y-44294114D01*
X13764600Y-44379828D01*
X13678885Y-44422685D01*
X13207457Y-44422685D01*
X13678885Y-44422685D02*
X13764600Y-44465542D01*
X13807457Y-44551257D01*
X13807457Y-44679828D01*
X13764600Y-44765542D01*
X13678885Y-44808400D01*
X13207457Y-44808400D01*
X13207457Y-45365542D02*
X13250314Y-45279828D01*
X13336028Y-45236971D01*
X14107457Y-45236971D01*
X12617457Y-37736971D02*
X12617457Y-38251257D01*
X11717457Y-37994114D02*
X12617457Y-37994114D01*
X11717457Y-38679828D02*
X11760314Y-38594114D01*
X11803171Y-38551257D01*
X11888885Y-38508400D01*
X12146028Y-38508400D01*
X12231742Y-38551257D01*
X12274600Y-38594114D01*
X12317457Y-38679828D01*
X12317457Y-38808400D01*
X12274600Y-38894114D01*
X12231742Y-38936971D01*
X12146028Y-38979828D01*
X11888885Y-38979828D01*
X11803171Y-38936971D01*
X11760314Y-38894114D01*
X11717457Y-38808400D01*
X11717457Y-38679828D01*
X11717457Y-39365542D02*
X12317457Y-39365542D01*
X12231742Y-39365542D02*
X12274600Y-39408400D01*
X12317457Y-39494114D01*
X12317457Y-39622685D01*
X12274600Y-39708400D01*
X12188885Y-39751257D01*
X11717457Y-39751257D01*
X12188885Y-39751257D02*
X12274600Y-39794114D01*
X12317457Y-39879828D01*
X12317457Y-40008400D01*
X12274600Y-40094114D01*
X12188885Y-40136971D01*
X11717457Y-40136971D01*
X11717457Y-40951257D02*
X12188885Y-40951257D01*
X12274600Y-40908400D01*
X12317457Y-40822685D01*
X12317457Y-40651257D01*
X12274600Y-40565542D01*
X11760314Y-40951257D02*
X11717457Y-40865542D01*
X11717457Y-40651257D01*
X11760314Y-40565542D01*
X11846028Y-40522685D01*
X11931742Y-40522685D01*
X12017457Y-40565542D01*
X12060314Y-40651257D01*
X12060314Y-40865542D01*
X12103171Y-40951257D01*
X12660314Y-40822685D02*
X12531742Y-40694114D01*
X11760314Y-41336971D02*
X11717457Y-41422685D01*
X11717457Y-41594114D01*
X11760314Y-41679828D01*
X11846028Y-41722685D01*
X11888885Y-41722685D01*
X11974600Y-41679828D01*
X12017457Y-41594114D01*
X12017457Y-41465542D01*
X12060314Y-41379828D01*
X12146028Y-41336971D01*
X12188885Y-41336971D01*
X12274600Y-41379828D01*
X12317457Y-41465542D01*
X12317457Y-41594114D01*
X12274600Y-41679828D01*
X12660314Y-41336971D02*
X12531742Y-41508400D01*
X12660314Y-41679828D01*
X11760314Y-42751257D02*
X11717457Y-42879828D01*
X11717457Y-43094114D01*
X11760314Y-43179828D01*
X11803171Y-43222685D01*
X11888885Y-43265542D01*
X11974600Y-43265542D01*
X12060314Y-43222685D01*
X12103171Y-43179828D01*
X12146028Y-43094114D01*
X12188885Y-42922685D01*
X12231742Y-42836971D01*
X12274600Y-42794114D01*
X12360314Y-42751257D01*
X12446028Y-42751257D01*
X12531742Y-42794114D01*
X12574600Y-42836971D01*
X12617457Y-42922685D01*
X12617457Y-43136971D01*
X12574600Y-43265542D01*
X11717457Y-44036971D02*
X12188885Y-44036971D01*
X12274600Y-43994114D01*
X12317457Y-43908400D01*
X12317457Y-43736971D01*
X12274600Y-43651257D01*
X11760314Y-44036971D02*
X11717457Y-43951257D01*
X11717457Y-43736971D01*
X11760314Y-43651257D01*
X11846028Y-43608400D01*
X11931742Y-43608400D01*
X12017457Y-43651257D01*
X12060314Y-43736971D01*
X12060314Y-43951257D01*
X12103171Y-44036971D01*
X12317457Y-44465542D02*
X11546028Y-44465542D01*
X11460314Y-44422685D01*
X11417457Y-44336971D01*
X11417457Y-44294114D01*
X12617457Y-44465542D02*
X12574600Y-44422685D01*
X12531742Y-44465542D01*
X12574600Y-44508400D01*
X12617457Y-44465542D01*
X12531742Y-44465542D01*
X11717457Y-45279828D02*
X12617457Y-45279828D01*
X11760314Y-45279828D02*
X11717457Y-45194114D01*
X11717457Y-45022685D01*
X11760314Y-44936971D01*
X11803171Y-44894114D01*
X11888885Y-44851257D01*
X12146028Y-44851257D01*
X12231742Y-44894114D01*
X12274600Y-44936971D01*
X12317457Y-45022685D01*
X12317457Y-45194114D01*
X12274600Y-45279828D01*
X11717457Y-45836971D02*
X11760314Y-45751257D01*
X11846028Y-45708400D01*
X12617457Y-45708400D01*
X10227457Y-35422685D02*
X11127457Y-35422685D01*
X10484600Y-35722685D01*
X11127457Y-36022685D01*
X10227457Y-36022685D01*
X10227457Y-36451257D02*
X10827457Y-36451257D01*
X11127457Y-36451257D02*
X11084600Y-36408400D01*
X11041742Y-36451257D01*
X11084600Y-36494114D01*
X11127457Y-36451257D01*
X11041742Y-36451257D01*
X10270314Y-37265542D02*
X10227457Y-37179828D01*
X10227457Y-37008400D01*
X10270314Y-36922685D01*
X10313171Y-36879828D01*
X10398885Y-36836971D01*
X10656028Y-36836971D01*
X10741742Y-36879828D01*
X10784600Y-36922685D01*
X10827457Y-37008400D01*
X10827457Y-37179828D01*
X10784600Y-37265542D01*
X10227457Y-37651257D02*
X11127457Y-37651257D01*
X10227457Y-38036971D02*
X10698885Y-38036971D01*
X10784600Y-37994114D01*
X10827457Y-37908400D01*
X10827457Y-37779828D01*
X10784600Y-37694114D01*
X10741742Y-37651257D01*
X10227457Y-38851257D02*
X10698885Y-38851257D01*
X10784600Y-38808400D01*
X10827457Y-38722685D01*
X10827457Y-38551257D01*
X10784600Y-38465542D01*
X10270314Y-38851257D02*
X10227457Y-38765542D01*
X10227457Y-38551257D01*
X10270314Y-38465542D01*
X10356028Y-38422685D01*
X10441742Y-38422685D01*
X10527457Y-38465542D01*
X10570314Y-38551257D01*
X10570314Y-38765542D01*
X10613171Y-38851257D01*
X10270314Y-39622685D02*
X10227457Y-39536971D01*
X10227457Y-39365542D01*
X10270314Y-39279828D01*
X10356028Y-39236971D01*
X10698885Y-39236971D01*
X10784600Y-39279828D01*
X10827457Y-39365542D01*
X10827457Y-39536971D01*
X10784600Y-39622685D01*
X10698885Y-39665542D01*
X10613171Y-39665542D01*
X10527457Y-39236971D01*
X10227457Y-40179828D02*
X10270314Y-40094114D01*
X10356028Y-40051257D01*
X11127457Y-40051257D01*
X10227457Y-40908399D02*
X10698885Y-40908400D01*
X10784600Y-40865542D01*
X10827457Y-40779828D01*
X10827457Y-40608400D01*
X10784600Y-40522685D01*
X10270314Y-40908399D02*
X10227457Y-40822685D01*
X10227457Y-40608400D01*
X10270314Y-40522685D01*
X10356028Y-40479828D01*
X10441742Y-40479828D01*
X10527457Y-40522685D01*
X10570314Y-40608400D01*
X10570314Y-40822685D01*
X10613171Y-40908400D01*
X10227457Y-42022685D02*
X11127457Y-42022685D01*
X10484600Y-42322685D01*
X11127457Y-42622685D01*
X10227457Y-42622685D01*
X10227457Y-43436971D02*
X10698885Y-43436971D01*
X10784600Y-43394114D01*
X10827457Y-43308400D01*
X10827457Y-43136971D01*
X10784600Y-43051257D01*
X10270314Y-43436971D02*
X10227457Y-43351257D01*
X10227457Y-43136971D01*
X10270314Y-43051257D01*
X10356028Y-43008400D01*
X10441742Y-43008400D01*
X10527457Y-43051257D01*
X10570314Y-43136971D01*
X10570314Y-43351257D01*
X10613171Y-43436971D01*
X10827457Y-43736971D02*
X10827457Y-44079828D01*
X11127457Y-43865542D02*
X10356028Y-43865542D01*
X10270314Y-43908400D01*
X10227457Y-43994114D01*
X10227457Y-44079828D01*
X10270314Y-44722685D02*
X10227457Y-44636971D01*
X10227457Y-44465542D01*
X10270314Y-44379828D01*
X10356028Y-44336971D01*
X10698885Y-44336971D01*
X10784600Y-44379828D01*
X10827457Y-44465542D01*
X10827457Y-44636971D01*
X10784600Y-44722685D01*
X10698885Y-44765542D01*
X10613171Y-44765542D01*
X10527457Y-44336971D01*
X11170314Y-44379828D02*
X11041742Y-44551257D01*
X11170314Y-44722685D01*
X10827457Y-45151257D02*
X10056028Y-45151257D01*
X9970314Y-45108400D01*
X9927457Y-45022685D01*
X9927457Y-44979828D01*
X11127457Y-45151257D02*
X11084600Y-45108400D01*
X11041742Y-45151257D01*
X11084600Y-45194114D01*
X11127457Y-45151257D01*
X11041742Y-45151257D01*
X10227457Y-45579828D02*
X11127457Y-45579828D01*
X10570314Y-45665542D02*
X10227457Y-45922685D01*
X10827457Y-45922685D02*
X10484600Y-45579828D01*
X10227457Y-46436971D02*
X10270314Y-46351257D01*
X10313171Y-46308400D01*
X10398885Y-46265542D01*
X10656028Y-46265542D01*
X10741742Y-46308400D01*
X10784600Y-46351257D01*
X10827457Y-46436971D01*
X10827457Y-46565542D01*
X10784600Y-46651257D01*
X10741742Y-46694114D01*
X10656028Y-46736971D01*
X10398885Y-46736971D01*
X10313171Y-46694114D01*
X10270314Y-46651257D01*
X10227457Y-46565542D01*
X10227457Y-46436971D01*
X10827457Y-47036971D02*
X10227457Y-47251257D01*
X10827457Y-47465542D01*
X10227457Y-48194114D02*
X10698885Y-48194114D01*
X10784599Y-48151257D01*
X10827457Y-48065542D01*
X10827457Y-47894114D01*
X10784599Y-47808400D01*
X10270314Y-48194114D02*
X10227457Y-48108400D01*
X10227457Y-47894114D01*
X10270314Y-47808400D01*
X10356028Y-47765542D01*
X10441742Y-47765542D01*
X10527457Y-47808400D01*
X10570314Y-47894114D01*
X10570314Y-48108400D01*
X10613171Y-48194114D01*
X11170314Y-48065542D02*
X11041742Y-47936971D01*
D14*
X54363157Y-2062114D02*
X54363157Y-3204971D01*
X53791728Y-2633542D02*
X54934585Y-2633542D01*
X53934585Y-5919257D02*
X53863157Y-5847828D01*
X53791728Y-5633542D01*
X53791728Y-5490685D01*
X53863157Y-5276400D01*
X54006014Y-5133542D01*
X54148871Y-5062114D01*
X54434585Y-4990685D01*
X54648871Y-4990685D01*
X54934585Y-5062114D01*
X55077442Y-5133542D01*
X55220300Y-5276400D01*
X55291728Y-5490685D01*
X55291728Y-5633542D01*
X55220300Y-5847828D01*
X55148871Y-5919257D01*
X53791728Y-7276400D02*
X53791728Y-6562114D01*
X55291728Y-6562114D01*
X53791728Y-8919257D02*
X55291728Y-8919257D01*
X55291728Y-9276400D01*
X55220300Y-9490685D01*
X55077442Y-9633542D01*
X54934585Y-9704971D01*
X54648871Y-9776400D01*
X54434585Y-9776400D01*
X54148871Y-9704971D01*
X54006014Y-9633542D01*
X53863157Y-9490685D01*
X53791728Y-9276400D01*
X53791728Y-8919257D01*
X54220300Y-10347828D02*
X54220300Y-11062114D01*
X53791728Y-10204971D02*
X55291728Y-10704971D01*
X53791728Y-11204971D01*
X54363157Y-12847828D02*
X54363157Y-13990685D01*
D15*
X2492857Y-14378571D02*
X3350000Y-14378571D01*
X2921428Y-15878571D02*
X2921428Y-14378571D01*
X3850000Y-15878571D02*
X3850000Y-14878571D01*
X3850000Y-15164285D02*
X3921428Y-15021428D01*
X3992857Y-14950000D01*
X4135714Y-14878571D01*
X4278571Y-14878571D01*
X5421428Y-15878571D02*
X5421428Y-15092857D01*
X5350000Y-14950000D01*
X5207142Y-14878571D01*
X4921428Y-14878571D01*
X4778571Y-14950000D01*
X5421428Y-15807142D02*
X5278571Y-15878571D01*
X4921428Y-15878571D01*
X4778571Y-15807142D01*
X4707142Y-15664285D01*
X4707142Y-15521428D01*
X4778571Y-15378571D01*
X4921428Y-15307142D01*
X5278571Y-15307142D01*
X5421428Y-15235714D01*
X6778571Y-15807142D02*
X6635714Y-15878571D01*
X6350000Y-15878571D01*
X6207142Y-15807142D01*
X6135714Y-15735714D01*
X6064285Y-15592857D01*
X6064285Y-15164285D01*
X6135714Y-15021428D01*
X6207142Y-14950000D01*
X6350000Y-14878571D01*
X6635714Y-14878571D01*
X6778571Y-14950000D01*
X7421428Y-15878571D02*
X7421428Y-14378571D01*
X7564285Y-15307142D02*
X7992857Y-15878571D01*
X7992857Y-14878571D02*
X7421428Y-15450000D01*
X9492857Y-15878571D02*
X8992857Y-15164285D01*
X8635714Y-15878571D02*
X8635714Y-14378571D01*
X9207142Y-14378571D01*
X9350000Y-14450000D01*
X9421428Y-14521428D01*
X9492857Y-14664285D01*
X9492857Y-14878571D01*
X9421428Y-15021428D01*
X9350000Y-15092857D01*
X9207142Y-15164285D01*
X8635714Y-15164285D01*
X10778571Y-15878571D02*
X10778571Y-15092857D01*
X10707142Y-14950000D01*
X10564285Y-14878571D01*
X10278571Y-14878571D01*
X10135714Y-14950000D01*
X10778571Y-15807142D02*
X10635714Y-15878571D01*
X10278571Y-15878571D01*
X10135714Y-15807142D01*
X10064285Y-15664285D01*
X10064285Y-15521428D01*
X10135714Y-15378571D01*
X10278571Y-15307142D01*
X10635714Y-15307142D01*
X10778571Y-15235714D01*
X11350000Y-14878571D02*
X11707142Y-15878571D01*
X12064285Y-14878571D02*
X11707142Y-15878571D01*
X11564285Y-16235714D01*
X11492857Y-16307142D01*
X11350000Y-16378571D01*
X12278571Y-16021428D02*
X13421428Y-16021428D01*
X13778571Y-15878571D02*
X13778571Y-14378571D01*
X13778571Y-15092857D02*
X14635714Y-15092857D01*
X14635714Y-15878571D02*
X14635714Y-14378571D01*
X15635714Y-14378571D02*
X15778571Y-14378571D01*
X15921428Y-14450000D01*
X15992857Y-14521428D01*
X16064285Y-14664285D01*
X16135714Y-14950000D01*
X16135714Y-15307142D01*
X16064285Y-15592857D01*
X15992857Y-15735714D01*
X15921428Y-15807142D01*
X15778571Y-15878571D01*
X15635714Y-15878571D01*
X15492857Y-15807142D01*
X15421428Y-15735714D01*
X15349999Y-15592857D01*
X15278571Y-15307142D01*
X15278571Y-14950000D01*
X15349999Y-14664285D01*
X15421428Y-14521428D01*
X15492857Y-14450000D01*
X15635714Y-14378571D01*
X17564285Y-15878571D02*
X16707142Y-15878571D01*
X17135714Y-15878571D02*
X17135714Y-14378571D01*
X16992857Y-14592857D01*
X16850000Y-14735714D01*
X16707142Y-14807142D01*
D16*
X62817952Y-91857580D02*
X62817952Y-92571866D01*
X62770333Y-92714723D01*
X62675095Y-92809961D01*
X62532238Y-92857580D01*
X62437000Y-92857580D01*
X63770333Y-92857580D02*
X63294142Y-92857580D01*
X63294142Y-91857580D01*
X64675095Y-92762342D02*
X64627476Y-92809961D01*
X64484619Y-92857580D01*
X64389380Y-92857580D01*
X64246523Y-92809961D01*
X64151285Y-92714723D01*
X64103666Y-92619485D01*
X64056047Y-92429009D01*
X64056047Y-92286152D01*
X64103666Y-92095676D01*
X64151285Y-92000438D01*
X64246523Y-91905200D01*
X64389380Y-91857580D01*
X64484619Y-91857580D01*
X64627476Y-91905200D01*
X64675095Y-91952819D01*
X65389380Y-91857580D02*
X65389380Y-92571866D01*
X65341761Y-92714723D01*
X65246523Y-92809961D01*
X65103666Y-92857580D01*
X65008428Y-92857580D01*
X66341761Y-92857580D02*
X65865571Y-92857580D01*
X65865571Y-91857580D01*
X67246523Y-92762342D02*
X67198904Y-92809961D01*
X67056047Y-92857580D01*
X66960809Y-92857580D01*
X66817952Y-92809961D01*
X66722714Y-92714723D01*
X66675095Y-92619485D01*
X66627476Y-92429009D01*
X66627476Y-92286152D01*
X66675095Y-92095676D01*
X66722714Y-92000438D01*
X66817952Y-91905200D01*
X66960809Y-91857580D01*
X67056047Y-91857580D01*
X67198904Y-91905200D01*
X67246523Y-91952819D01*
X67960809Y-91857580D02*
X67960809Y-92571866D01*
X67913190Y-92714723D01*
X67817952Y-92809961D01*
X67675095Y-92857580D01*
X67579857Y-92857580D01*
X68913190Y-92857580D02*
X68437000Y-92857580D01*
X68437000Y-91857580D01*
X69817952Y-92762342D02*
X69770333Y-92809961D01*
X69627476Y-92857580D01*
X69532238Y-92857580D01*
X69389380Y-92809961D01*
X69294142Y-92714723D01*
X69246523Y-92619485D01*
X69198904Y-92429009D01*
X69198904Y-92286152D01*
X69246523Y-92095676D01*
X69294142Y-92000438D01*
X69389380Y-91905200D01*
X69532238Y-91857580D01*
X69627476Y-91857580D01*
X69770333Y-91905200D01*
X69817952Y-91952819D01*
X70532238Y-91857580D02*
X70532238Y-92571866D01*
X70484619Y-92714723D01*
X70389380Y-92809961D01*
X70246523Y-92857580D01*
X70151285Y-92857580D01*
X71484619Y-92857580D02*
X71008428Y-92857580D01*
X71008428Y-91857580D01*
X72389380Y-92762342D02*
X72341761Y-92809961D01*
X72198904Y-92857580D01*
X72103666Y-92857580D01*
X71960809Y-92809961D01*
X71865571Y-92714723D01*
X71817952Y-92619485D01*
X71770333Y-92429009D01*
X71770333Y-92286152D01*
X71817952Y-92095676D01*
X71865571Y-92000438D01*
X71960809Y-91905200D01*
X72103666Y-91857580D01*
X72198904Y-91857580D01*
X72341761Y-91905200D01*
X72389380Y-91952819D01*
D17*
X8104000Y-42475000D02*
X8104000Y-29775000D01*
X1246000Y-29775000D02*
X1246000Y-42475000D01*
D14*
X4874000Y-43237000D02*
G75*
G03X4874000Y-43237000I-200000J0D01*
G01*
D12*
X76975000Y-55800000D02*
G75*
G03X76975000Y-55800000I-1200000J0D01*
G01*
X20759336Y-54681800D02*
X21963464Y-54681800D01*
X20759336Y-52861800D02*
X21963464Y-52861800D01*
X20759336Y-52370400D02*
X21963464Y-52370400D01*
X20759336Y-50550400D02*
X21963464Y-50550400D01*
X73160000Y-63105000D02*
X73160000Y-63261000D01*
X73160000Y-60789000D02*
X73160000Y-60945000D01*
X75761130Y-63104837D02*
G75*
G02X73679039Y-63105000I-1041130J1079837D01*
G01*
X75761130Y-60945163D02*
G75*
G03X73679039Y-60945000I-1041130J-1079837D01*
G01*
X76392335Y-63103608D02*
G75*
G02X73160000Y-63260516I-1672335J1078608D01*
G01*
X76392335Y-60946392D02*
G75*
G03X73160000Y-60789484I-1672335J-1078608D01*
G01*
X225800Y-93819200D02*
X225800Y-73719200D01*
X78225800Y-93819200D02*
X225800Y-93819200D01*
X78225800Y-73719200D02*
X78225800Y-93819200D01*
X225800Y-73719200D02*
X78225800Y-73719200D01*
X70345600Y-43397400D02*
X70345600Y-43997400D01*
X71185600Y-43397400D02*
X70345600Y-43397400D01*
X73169600Y-50017400D02*
X73076600Y-49923400D01*
X75420600Y-52267400D02*
X75361600Y-52208400D01*
X72929600Y-50187400D02*
X72871600Y-50128400D01*
X75214600Y-52472400D02*
X75121600Y-52378400D01*
X78305600Y-53757400D02*
X70584600Y-53757400D01*
X78305600Y-43637400D02*
X70584600Y-43637400D01*
X70584600Y-43637400D02*
X70584600Y-53757400D01*
X78305600Y-43637400D02*
X78305600Y-53757400D01*
X76545600Y-43637400D02*
X76545600Y-53757400D01*
X71845600Y-43637400D02*
X71845600Y-53757400D01*
X71245600Y-43637400D02*
X71245600Y-53757400D01*
X77695600Y-51197400D02*
G75*
G03X77695600Y-51197400I-550000J0D01*
G01*
X75825600Y-51197400D02*
G75*
G03X75825600Y-51197400I-1680000J0D01*
G01*
X77695600Y-46197400D02*
G75*
G03X77695600Y-46197400I-550000J0D01*
G01*
X72465150Y-46226783D02*
G75*
G02X72661600Y-45408400I1680450J29383D01*
G01*
X73356512Y-44713447D02*
G75*
G02X74934600Y-44713400I789088J-1483953D01*
G01*
X75629553Y-45408312D02*
G75*
G02X75629600Y-46986400I-1483953J-789088D01*
G01*
X74934688Y-47681353D02*
G75*
G02X73356600Y-47681400I-789088J1483953D01*
G01*
X72662248Y-46986112D02*
G75*
G02X72465600Y-46197400I1483352J788712D01*
G01*
X55415000Y-14143200D02*
X55415000Y-26643200D01*
X75395000Y-26643200D02*
X75395000Y-14143200D01*
X57785000Y-26643200D02*
X75395000Y-26643200D01*
X55415000Y-26643200D02*
X57785000Y-26643200D01*
X57785000Y-26643200D02*
X57785000Y-29643200D01*
X55415000Y-29643200D02*
X55415000Y-26643200D01*
X75395000Y-29643200D02*
X55415000Y-29643200D01*
X75395000Y-26643200D02*
X75395000Y-29643200D01*
X55415000Y-14143200D02*
X75395000Y-14143200D01*
D18*
X25930000Y-1620000D02*
X52930000Y-1620000D01*
X52930000Y-1620000D02*
X52930000Y-41620000D01*
X52930000Y-41620000D02*
X25930000Y-41620000D01*
X25930000Y-41620000D02*
X25930000Y-1620000D01*
D12*
X58530800Y-12531400D02*
X57200800Y-12531400D01*
X58530800Y-11201400D02*
X58530800Y-12531400D01*
X58530800Y-9931400D02*
X55870800Y-9931400D01*
X55870800Y-9931400D02*
X55870800Y-2251400D01*
X58530800Y-9931400D02*
X58530800Y-2251400D01*
X58530800Y-2251400D02*
X55870800Y-2251400D01*
X61070800Y-12531400D02*
X59740800Y-12531400D01*
X61070800Y-11201400D02*
X61070800Y-12531400D01*
X61070800Y-9931400D02*
X58410800Y-9931400D01*
X58410800Y-9931400D02*
X58410800Y-2251400D01*
X61070800Y-9931400D02*
X61070800Y-2251400D01*
X61070800Y-2251400D02*
X58410800Y-2251400D01*
X63610800Y-12531400D02*
X62280800Y-12531400D01*
X63610800Y-11201400D02*
X63610800Y-12531400D01*
X63610800Y-9931400D02*
X60950800Y-9931400D01*
X60950800Y-9931400D02*
X60950800Y-2251400D01*
X63610800Y-9931400D02*
X63610800Y-2251400D01*
X63610800Y-2251400D02*
X60950800Y-2251400D01*
X47898400Y-67979400D02*
X47898400Y-68135400D01*
X47898400Y-65663400D02*
X47898400Y-65819400D01*
X50499530Y-67979237D02*
G75*
G02X48417439Y-67979400I-1041130J1079837D01*
G01*
X50499530Y-65819563D02*
G75*
G03X48417439Y-65819400I-1041130J-1079837D01*
G01*
X51130735Y-67978008D02*
G75*
G02X47898400Y-68134916I-1672335J1078608D01*
G01*
X51130735Y-65820792D02*
G75*
G03X47898400Y-65663884I-1672335J-1078608D01*
G01*
X27898400Y-67979400D02*
X27898400Y-68135400D01*
X27898400Y-65663400D02*
X27898400Y-65819400D01*
X30499530Y-67979237D02*
G75*
G02X28417439Y-67979400I-1041130J1079837D01*
G01*
X30499530Y-65819563D02*
G75*
G03X28417439Y-65819400I-1041130J-1079837D01*
G01*
X31130735Y-67978008D02*
G75*
G02X27898400Y-68134916I-1672335J1078608D01*
G01*
X31130735Y-65820792D02*
G75*
G03X27898400Y-65663884I-1672335J-1078608D01*
G01*
X47898400Y-62979400D02*
X47898400Y-63135400D01*
X47898400Y-60663400D02*
X47898400Y-60819400D01*
X50499530Y-62979237D02*
G75*
G02X48417439Y-62979400I-1041130J1079837D01*
G01*
X50499530Y-60819563D02*
G75*
G03X48417439Y-60819400I-1041130J-1079837D01*
G01*
X51130735Y-62978008D02*
G75*
G02X47898400Y-63134916I-1672335J1078608D01*
G01*
X51130735Y-60820792D02*
G75*
G03X47898400Y-60663884I-1672335J-1078608D01*
G01*
X32898400Y-67979400D02*
X32898400Y-68135400D01*
X32898400Y-65663400D02*
X32898400Y-65819400D01*
X35499530Y-67979237D02*
G75*
G02X33417439Y-67979400I-1041130J1079837D01*
G01*
X35499530Y-65819563D02*
G75*
G03X33417439Y-65819400I-1041130J-1079837D01*
G01*
X36130735Y-67978008D02*
G75*
G02X32898400Y-68134916I-1672335J1078608D01*
G01*
X36130735Y-65820792D02*
G75*
G03X32898400Y-65663884I-1672335J-1078608D01*
G01*
X42898400Y-67979400D02*
X42898400Y-68135400D01*
X42898400Y-65663400D02*
X42898400Y-65819400D01*
X45499530Y-67979237D02*
G75*
G02X43417439Y-67979400I-1041130J1079837D01*
G01*
X45499530Y-65819563D02*
G75*
G03X43417439Y-65819400I-1041130J-1079837D01*
G01*
X46130735Y-67978008D02*
G75*
G02X42898400Y-68134916I-1672335J1078608D01*
G01*
X46130735Y-65820792D02*
G75*
G03X42898400Y-65663884I-1672335J-1078608D01*
G01*
X42898400Y-62979400D02*
X42898400Y-63135400D01*
X42898400Y-60663400D02*
X42898400Y-60819400D01*
X45499530Y-62979237D02*
G75*
G02X43417439Y-62979400I-1041130J1079837D01*
G01*
X45499530Y-60819563D02*
G75*
G03X43417439Y-60819400I-1041130J-1079837D01*
G01*
X46130735Y-62978008D02*
G75*
G02X42898400Y-63134916I-1672335J1078608D01*
G01*
X46130735Y-60820792D02*
G75*
G03X42898400Y-60663884I-1672335J-1078608D01*
G01*
X37898400Y-67979400D02*
X37898400Y-68135400D01*
X37898400Y-65663400D02*
X37898400Y-65819400D01*
X40499530Y-67979237D02*
G75*
G02X38417439Y-67979400I-1041130J1079837D01*
G01*
X40499530Y-65819563D02*
G75*
G03X38417439Y-65819400I-1041130J-1079837D01*
G01*
X41130735Y-67978008D02*
G75*
G02X37898400Y-68134916I-1672335J1078608D01*
G01*
X41130735Y-65820792D02*
G75*
G03X37898400Y-65663884I-1672335J-1078608D01*
G01*
X37898400Y-62979400D02*
X37898400Y-63135400D01*
X37898400Y-60663400D02*
X37898400Y-60819400D01*
X40499530Y-62979237D02*
G75*
G02X38417439Y-62979400I-1041130J1079837D01*
G01*
X40499530Y-60819563D02*
G75*
G03X38417439Y-60819400I-1041130J-1079837D01*
G01*
X41130735Y-62978008D02*
G75*
G02X37898400Y-63134916I-1672335J1078608D01*
G01*
X41130735Y-60820792D02*
G75*
G03X37898400Y-60663884I-1672335J-1078608D01*
G01*
X32898400Y-47979400D02*
X32898400Y-48135400D01*
X32898400Y-45663400D02*
X32898400Y-45819400D01*
X35499530Y-47979237D02*
G75*
G02X33417439Y-47979400I-1041130J1079837D01*
G01*
X35499530Y-45819563D02*
G75*
G03X33417439Y-45819400I-1041130J-1079837D01*
G01*
X36130735Y-47978008D02*
G75*
G02X32898400Y-48134916I-1672335J1078608D01*
G01*
X36130735Y-45820792D02*
G75*
G03X32898400Y-45663884I-1672335J-1078608D01*
G01*
X47898400Y-57979400D02*
X47898400Y-58135400D01*
X47898400Y-55663400D02*
X47898400Y-55819400D01*
X50499530Y-57979237D02*
G75*
G02X48417439Y-57979400I-1041130J1079837D01*
G01*
X50499530Y-55819563D02*
G75*
G03X48417439Y-55819400I-1041130J-1079837D01*
G01*
X51130735Y-57978008D02*
G75*
G02X47898400Y-58134916I-1672335J1078608D01*
G01*
X51130735Y-55820792D02*
G75*
G03X47898400Y-55663884I-1672335J-1078608D01*
G01*
X27898400Y-57979400D02*
X27898400Y-58135400D01*
X27898400Y-55663400D02*
X27898400Y-55819400D01*
X30499530Y-57979237D02*
G75*
G02X28417439Y-57979400I-1041130J1079837D01*
G01*
X30499530Y-55819563D02*
G75*
G03X28417439Y-55819400I-1041130J-1079837D01*
G01*
X31130735Y-57978008D02*
G75*
G02X27898400Y-58134916I-1672335J1078608D01*
G01*
X31130735Y-55820792D02*
G75*
G03X27898400Y-55663884I-1672335J-1078608D01*
G01*
X32898400Y-62979400D02*
X32898400Y-63135400D01*
X32898400Y-60663400D02*
X32898400Y-60819400D01*
X35499530Y-62979237D02*
G75*
G02X33417439Y-62979400I-1041130J1079837D01*
G01*
X35499530Y-60819563D02*
G75*
G03X33417439Y-60819400I-1041130J-1079837D01*
G01*
X36130735Y-62978008D02*
G75*
G02X32898400Y-63134916I-1672335J1078608D01*
G01*
X36130735Y-60820792D02*
G75*
G03X32898400Y-60663884I-1672335J-1078608D01*
G01*
X32898400Y-52979400D02*
X32898400Y-53135400D01*
X32898400Y-50663400D02*
X32898400Y-50819400D01*
X35499530Y-52979237D02*
G75*
G02X33417439Y-52979400I-1041130J1079837D01*
G01*
X35499530Y-50819563D02*
G75*
G03X33417439Y-50819400I-1041130J-1079837D01*
G01*
X36130735Y-52978008D02*
G75*
G02X32898400Y-53134916I-1672335J1078608D01*
G01*
X36130735Y-50820792D02*
G75*
G03X32898400Y-50663884I-1672335J-1078608D01*
G01*
X47898400Y-47979400D02*
X47898400Y-48135400D01*
X47898400Y-45663400D02*
X47898400Y-45819400D01*
X50499530Y-47979237D02*
G75*
G02X48417439Y-47979400I-1041130J1079837D01*
G01*
X50499530Y-45819563D02*
G75*
G03X48417439Y-45819400I-1041130J-1079837D01*
G01*
X51130735Y-47978008D02*
G75*
G02X47898400Y-48134916I-1672335J1078608D01*
G01*
X51130735Y-45820792D02*
G75*
G03X47898400Y-45663884I-1672335J-1078608D01*
G01*
X37898400Y-47979400D02*
X37898400Y-48135400D01*
X37898400Y-45663400D02*
X37898400Y-45819400D01*
X40499530Y-47979237D02*
G75*
G02X38417439Y-47979400I-1041130J1079837D01*
G01*
X40499530Y-45819563D02*
G75*
G03X38417439Y-45819400I-1041130J-1079837D01*
G01*
X41130735Y-47978008D02*
G75*
G02X37898400Y-48134916I-1672335J1078608D01*
G01*
X41130735Y-45820792D02*
G75*
G03X37898400Y-45663884I-1672335J-1078608D01*
G01*
X32898400Y-57979400D02*
X32898400Y-58135400D01*
X32898400Y-55663400D02*
X32898400Y-55819400D01*
X35499530Y-57979237D02*
G75*
G02X33417439Y-57979400I-1041130J1079837D01*
G01*
X35499530Y-55819563D02*
G75*
G03X33417439Y-55819400I-1041130J-1079837D01*
G01*
X36130735Y-57978008D02*
G75*
G02X32898400Y-58134916I-1672335J1078608D01*
G01*
X36130735Y-55820792D02*
G75*
G03X32898400Y-55663884I-1672335J-1078608D01*
G01*
X42898400Y-57979400D02*
X42898400Y-58135400D01*
X42898400Y-55663400D02*
X42898400Y-55819400D01*
X45499530Y-57979237D02*
G75*
G02X43417439Y-57979400I-1041130J1079837D01*
G01*
X45499530Y-55819563D02*
G75*
G03X43417439Y-55819400I-1041130J-1079837D01*
G01*
X46130735Y-57978008D02*
G75*
G02X42898400Y-58134916I-1672335J1078608D01*
G01*
X46130735Y-55820792D02*
G75*
G03X42898400Y-55663884I-1672335J-1078608D01*
G01*
X42898400Y-52979400D02*
X42898400Y-53135400D01*
X42898400Y-50663400D02*
X42898400Y-50819400D01*
X45499530Y-52979237D02*
G75*
G02X43417439Y-52979400I-1041130J1079837D01*
G01*
X45499530Y-50819563D02*
G75*
G03X43417439Y-50819400I-1041130J-1079837D01*
G01*
X46130735Y-52978008D02*
G75*
G02X42898400Y-53134916I-1672335J1078608D01*
G01*
X46130735Y-50820792D02*
G75*
G03X42898400Y-50663884I-1672335J-1078608D01*
G01*
X27898400Y-62979400D02*
X27898400Y-63135400D01*
X27898400Y-60663400D02*
X27898400Y-60819400D01*
X30499530Y-62979237D02*
G75*
G02X28417439Y-62979400I-1041130J1079837D01*
G01*
X30499530Y-60819563D02*
G75*
G03X28417439Y-60819400I-1041130J-1079837D01*
G01*
X31130735Y-62978008D02*
G75*
G02X27898400Y-63134916I-1672335J1078608D01*
G01*
X31130735Y-60820792D02*
G75*
G03X27898400Y-60663884I-1672335J-1078608D01*
G01*
X37898400Y-52979400D02*
X37898400Y-53135400D01*
X37898400Y-50663400D02*
X37898400Y-50819400D01*
X40499530Y-52979237D02*
G75*
G02X38417439Y-52979400I-1041130J1079837D01*
G01*
X40499530Y-50819563D02*
G75*
G03X38417439Y-50819400I-1041130J-1079837D01*
G01*
X41130735Y-52978008D02*
G75*
G02X37898400Y-53134916I-1672335J1078608D01*
G01*
X41130735Y-50820792D02*
G75*
G03X37898400Y-50663884I-1672335J-1078608D01*
G01*
X42898400Y-47979400D02*
X42898400Y-48135400D01*
X42898400Y-45663400D02*
X42898400Y-45819400D01*
X45499530Y-47979237D02*
G75*
G02X43417439Y-47979400I-1041130J1079837D01*
G01*
X45499530Y-45819563D02*
G75*
G03X43417439Y-45819400I-1041130J-1079837D01*
G01*
X46130735Y-47978008D02*
G75*
G02X42898400Y-48134916I-1672335J1078608D01*
G01*
X46130735Y-45820792D02*
G75*
G03X42898400Y-45663884I-1672335J-1078608D01*
G01*
X37898400Y-57979400D02*
X37898400Y-58135400D01*
X37898400Y-55663400D02*
X37898400Y-55819400D01*
X40499530Y-57979237D02*
G75*
G02X38417439Y-57979400I-1041130J1079837D01*
G01*
X40499530Y-55819563D02*
G75*
G03X38417439Y-55819400I-1041130J-1079837D01*
G01*
X41130735Y-57978008D02*
G75*
G02X37898400Y-58134916I-1672335J1078608D01*
G01*
X41130735Y-55820792D02*
G75*
G03X37898400Y-55663884I-1672335J-1078608D01*
G01*
X47898400Y-52979400D02*
X47898400Y-53135400D01*
X47898400Y-50663400D02*
X47898400Y-50819400D01*
X50499530Y-52979237D02*
G75*
G02X48417439Y-52979400I-1041130J1079837D01*
G01*
X50499530Y-50819563D02*
G75*
G03X48417439Y-50819400I-1041130J-1079837D01*
G01*
X51130735Y-52978008D02*
G75*
G02X47898400Y-53134916I-1672335J1078608D01*
G01*
X51130735Y-50820792D02*
G75*
G03X47898400Y-50663884I-1672335J-1078608D01*
G01*
X27898400Y-52979400D02*
X27898400Y-53135400D01*
X27898400Y-50663400D02*
X27898400Y-50819400D01*
X30499530Y-52979237D02*
G75*
G02X28417439Y-52979400I-1041130J1079837D01*
G01*
X30499530Y-50819563D02*
G75*
G03X28417439Y-50819400I-1041130J-1079837D01*
G01*
X31130735Y-52978008D02*
G75*
G02X27898400Y-53134916I-1672335J1078608D01*
G01*
X31130735Y-50820792D02*
G75*
G03X27898400Y-50663884I-1672335J-1078608D01*
G01*
X27898400Y-47979400D02*
X27898400Y-48135400D01*
X27898400Y-45663400D02*
X27898400Y-45819400D01*
X30499530Y-47979237D02*
G75*
G02X28417439Y-47979400I-1041130J1079837D01*
G01*
X30499530Y-45819563D02*
G75*
G03X28417439Y-45819400I-1041130J-1079837D01*
G01*
X31130735Y-47978008D02*
G75*
G02X27898400Y-48134916I-1672335J1078608D01*
G01*
X31130735Y-45820792D02*
G75*
G03X27898400Y-45663884I-1672335J-1078608D01*
G01*
X23725000Y-11360000D02*
G75*
G03X18675000Y-11360000I-2525000J0D01*
G01*
X23725000Y-17760000D02*
G75*
G02X18675000Y-17760000I-2525000J0D01*
G01*
X23725000Y-17760000D02*
X23725000Y-11360000D01*
X18675000Y-17760000D02*
X18675000Y-11360000D01*
X66085400Y-34488800D02*
X66085400Y-37168800D01*
X59845400Y-37168800D02*
X59845400Y-34488800D01*
X59995400Y-32708800D02*
X65935400Y-32708800D01*
X59995400Y-38948800D02*
X65935400Y-38948800D01*
X64379614Y-35828800D02*
G75*
G03X64379614Y-35828800I-1414214J0D01*
G01*
X66213400Y-3028000D02*
X68893400Y-3028000D01*
X68893400Y-9268000D02*
X66213400Y-9268000D01*
X64433400Y-9118000D02*
X64433400Y-3178000D01*
X70673400Y-9118000D02*
X70673400Y-3178000D01*
X68967614Y-6148000D02*
G75*
G03X68967614Y-6148000I-1414214J0D01*
G01*
X8442800Y-61993200D02*
X13512800Y-61993200D01*
X8442800Y-71763200D02*
X13512800Y-71763200D01*
X13512800Y-71763200D02*
X13512800Y-61993200D01*
X8442800Y-71763200D02*
X8442800Y-61993200D01*
X70345600Y-33397400D02*
X70345600Y-33997400D01*
X71185600Y-33397400D02*
X70345600Y-33397400D01*
X73169600Y-40017400D02*
X73076600Y-39923400D01*
X75420600Y-42267400D02*
X75361600Y-42208400D01*
X72929600Y-40187400D02*
X72871600Y-40128400D01*
X75214600Y-42472400D02*
X75121600Y-42378400D01*
X78305600Y-43757400D02*
X70584600Y-43757400D01*
X78305600Y-33637400D02*
X70584600Y-33637400D01*
X70584600Y-33637400D02*
X70584600Y-43757400D01*
X78305600Y-33637400D02*
X78305600Y-43757400D01*
X76545600Y-33637400D02*
X76545600Y-43757400D01*
X71845600Y-33637400D02*
X71845600Y-43757400D01*
X71245600Y-33637400D02*
X71245600Y-43757400D01*
X77695600Y-41197400D02*
G75*
G03X77695600Y-41197400I-550000J0D01*
G01*
X75825600Y-41197400D02*
G75*
G03X75825600Y-41197400I-1680000J0D01*
G01*
X77695600Y-36197400D02*
G75*
G03X77695600Y-36197400I-550000J0D01*
G01*
X72465150Y-36226783D02*
G75*
G02X72661600Y-35408400I1680450J29383D01*
G01*
X73356512Y-34713447D02*
G75*
G02X74934600Y-34713400I789088J-1483953D01*
G01*
X75629553Y-35408312D02*
G75*
G02X75629600Y-36986400I-1483953J-789088D01*
G01*
X74934688Y-37681353D02*
G75*
G02X73356600Y-37681400I-789088J1483953D01*
G01*
X72662248Y-36986112D02*
G75*
G02X72465600Y-36197400I1483352J788712D01*
G01*
X8259800Y-53798200D02*
X8259800Y-53198200D01*
X7419800Y-53798200D02*
X8259800Y-53798200D01*
X5435800Y-47178200D02*
X5528800Y-47272200D01*
X3184800Y-44928200D02*
X3243800Y-44987200D01*
X5675800Y-47008200D02*
X5733800Y-47067200D01*
X3390800Y-44723200D02*
X3483800Y-44817200D01*
X299800Y-43438200D02*
X8020800Y-43438200D01*
X299800Y-53558200D02*
X8020800Y-53558200D01*
X8020800Y-53558200D02*
X8020800Y-43438200D01*
X299800Y-53558200D02*
X299800Y-43438200D01*
X2059800Y-53558200D02*
X2059800Y-43438200D01*
X6759800Y-53558200D02*
X6759800Y-43438200D01*
X7359800Y-53558200D02*
X7359800Y-43438200D01*
X2009800Y-45998200D02*
G75*
G03X2009800Y-45998200I-550000J0D01*
G01*
X6139800Y-45998200D02*
G75*
G03X6139800Y-45998200I-1680000J0D01*
G01*
X2009800Y-50998200D02*
G75*
G03X2009800Y-50998200I-550000J0D01*
G01*
X6140250Y-50968817D02*
G75*
G02X5943800Y-51787200I-1680450J-29383D01*
G01*
X5248888Y-52482153D02*
G75*
G02X3670800Y-52482200I-789088J1483953D01*
G01*
X2975847Y-51787288D02*
G75*
G02X2975800Y-50209200I1483953J789088D01*
G01*
X3670712Y-49514247D02*
G75*
G02X5248800Y-49514200I789088J-1483953D01*
G01*
X5943152Y-50209488D02*
G75*
G02X6139800Y-50998200I-1483352J-788712D01*
G01*
D19*
X9809600Y-5944000D02*
X9809600Y-9144000D01*
X9809600Y-9144000D02*
X10709600Y-9144000D01*
X15909600Y-9144000D02*
X16809600Y-9144000D01*
X16809600Y-9144000D02*
X16809600Y-5944000D01*
D12*
X6195500Y-60599200D02*
X6195500Y-60443200D01*
X6195500Y-62915200D02*
X6195500Y-62759200D01*
X3594370Y-60599363D02*
G75*
G02X5676461Y-60599200I1041130J-1079837D01*
G01*
X3594370Y-62759037D02*
G75*
G03X5676461Y-62759200I1041130J1079837D01*
G01*
X2963165Y-60600592D02*
G75*
G02X6195500Y-60443684I1672335J-1078608D01*
G01*
X2963165Y-62757808D02*
G75*
G03X6195500Y-62914716I1672335J1078608D01*
G01*
X6195500Y-56027200D02*
X6195500Y-55871200D01*
X6195500Y-58343200D02*
X6195500Y-58187200D01*
X3594370Y-56027363D02*
G75*
G02X5676461Y-56027200I1041130J-1079837D01*
G01*
X3594370Y-58187037D02*
G75*
G03X5676461Y-58187200I1041130J1079837D01*
G01*
X2963165Y-56028592D02*
G75*
G02X6195500Y-55871684I1672335J-1078608D01*
G01*
X2963165Y-58185808D02*
G75*
G03X6195500Y-58342716I1672335J1078608D01*
G01*
X65101600Y-63303600D02*
X65101600Y-63147600D01*
X65101600Y-65619600D02*
X65101600Y-65463600D01*
X62500470Y-63303763D02*
G75*
G02X64582561Y-63303600I1041130J-1079837D01*
G01*
X62500470Y-65463437D02*
G75*
G03X64582561Y-65463600I1041130J1079837D01*
G01*
X61869265Y-63304992D02*
G75*
G02X65101600Y-63148084I1672335J-1078608D01*
G01*
X61869265Y-65462208D02*
G75*
G03X65101600Y-65619116I1672335J1078608D01*
G01*
X65101600Y-58711600D02*
X65101600Y-58555600D01*
X65101600Y-61027600D02*
X65101600Y-60871600D01*
X62500470Y-58711763D02*
G75*
G02X64582561Y-58711600I1041130J-1079837D01*
G01*
X62500470Y-60871437D02*
G75*
G03X64582561Y-60871600I1041130J1079837D01*
G01*
X61869265Y-58712992D02*
G75*
G02X65101600Y-58556084I1672335J-1078608D01*
G01*
X61869265Y-60870208D02*
G75*
G03X65101600Y-61027116I1672335J1078608D01*
G01*
X65101600Y-54111600D02*
X65101600Y-53955600D01*
X65101600Y-56427600D02*
X65101600Y-56271600D01*
X62500470Y-54111763D02*
G75*
G02X64582561Y-54111600I1041130J-1079837D01*
G01*
X62500470Y-56271437D02*
G75*
G03X64582561Y-56271600I1041130J1079837D01*
G01*
X61869265Y-54112992D02*
G75*
G02X65101600Y-53956084I1672335J-1078608D01*
G01*
X61869265Y-56270208D02*
G75*
G03X65101600Y-56427116I1672335J1078608D01*
G01*
X65101600Y-49511600D02*
X65101600Y-49355600D01*
X65101600Y-51827600D02*
X65101600Y-51671600D01*
X62500470Y-49511763D02*
G75*
G02X64582561Y-49511600I1041130J-1079837D01*
G01*
X62500470Y-51671437D02*
G75*
G03X64582561Y-51671600I1041130J1079837D01*
G01*
X61869265Y-49512992D02*
G75*
G02X65101600Y-49356084I1672335J-1078608D01*
G01*
X61869265Y-51670208D02*
G75*
G03X65101600Y-51827116I1672335J1078608D01*
G01*
X65101600Y-44911600D02*
X65101600Y-44755600D01*
X65101600Y-47227600D02*
X65101600Y-47071600D01*
X62500470Y-44911763D02*
G75*
G02X64582561Y-44911600I1041130J-1079837D01*
G01*
X62500470Y-47071437D02*
G75*
G03X64582561Y-47071600I1041130J1079837D01*
G01*
X61869265Y-44912992D02*
G75*
G02X65101600Y-44756084I1672335J-1078608D01*
G01*
X61869265Y-47070208D02*
G75*
G03X65101600Y-47227116I1672335J1078608D01*
G01*
X22348800Y-23225154D02*
X21348800Y-23225154D01*
X21848800Y-22725154D02*
X21848800Y-23725154D01*
X19572800Y-33285800D02*
X18374800Y-33285800D01*
X19835800Y-33245800D02*
X18111800Y-33245800D01*
X20035800Y-33205800D02*
X17911800Y-33205800D01*
X20203800Y-33165800D02*
X17743800Y-33165800D01*
X20351800Y-33125800D02*
X17595800Y-33125800D01*
X20483800Y-33085800D02*
X17463800Y-33085800D01*
X20603800Y-33045800D02*
X17343800Y-33045800D01*
X20715800Y-33005800D02*
X17231800Y-33005800D01*
X20819800Y-32965800D02*
X17127800Y-32965800D01*
X20917800Y-32925800D02*
X17029800Y-32925800D01*
X21010800Y-32885800D02*
X16936800Y-32885800D01*
X21098800Y-32845800D02*
X16848800Y-32845800D01*
X21182800Y-32805800D02*
X16764800Y-32805800D01*
X21262800Y-32765800D02*
X16684800Y-32765800D01*
X21338800Y-32725800D02*
X16608800Y-32725800D01*
X21412800Y-32685800D02*
X16534800Y-32685800D01*
X21483800Y-32645800D02*
X16463800Y-32645800D01*
X21552800Y-32605800D02*
X16394800Y-32605800D01*
X21618800Y-32565800D02*
X16328800Y-32565800D01*
X21682800Y-32525800D02*
X16264800Y-32525800D01*
X21743800Y-32485800D02*
X16203800Y-32485800D01*
X21803800Y-32445800D02*
X16143800Y-32445800D01*
X21862800Y-32405800D02*
X16084800Y-32405800D01*
X21918800Y-32365800D02*
X16028800Y-32365800D01*
X21973800Y-32325800D02*
X15973800Y-32325800D01*
X22027800Y-32285800D02*
X15919800Y-32285800D01*
X22079800Y-32245800D02*
X15867800Y-32245800D01*
X22129800Y-32205800D02*
X15817800Y-32205800D01*
X22179800Y-32165800D02*
X15767800Y-32165800D01*
X22227800Y-32125800D02*
X15719800Y-32125800D01*
X22274800Y-32085800D02*
X15672800Y-32085800D01*
X22320800Y-32045800D02*
X15626800Y-32045800D01*
X22365800Y-32005800D02*
X15581800Y-32005800D01*
X22409800Y-31965800D02*
X15537800Y-31965800D01*
X17732800Y-31925800D02*
X15495800Y-31925800D01*
X22451800Y-31925800D02*
X20214800Y-31925800D01*
X17732800Y-31885800D02*
X15453800Y-31885800D01*
X22493800Y-31885800D02*
X20214800Y-31885800D01*
X17732800Y-31845800D02*
X15412800Y-31845800D01*
X22534800Y-31845800D02*
X20214800Y-31845800D01*
X17732800Y-31805800D02*
X15372800Y-31805800D01*
X22574800Y-31805800D02*
X20214800Y-31805800D01*
X17732800Y-31765800D02*
X15333800Y-31765800D01*
X22613800Y-31765800D02*
X20214800Y-31765800D01*
X17732800Y-31725800D02*
X15294800Y-31725800D01*
X22652800Y-31725800D02*
X20214800Y-31725800D01*
X17732800Y-31685800D02*
X15257800Y-31685800D01*
X22689800Y-31685800D02*
X20214800Y-31685800D01*
X17732800Y-31645800D02*
X15220800Y-31645800D01*
X22726800Y-31645800D02*
X20214800Y-31645800D01*
X17732800Y-31605800D02*
X15184800Y-31605800D01*
X22762800Y-31605800D02*
X20214800Y-31605800D01*
X17732800Y-31565800D02*
X15149800Y-31565800D01*
X22797800Y-31565800D02*
X20214800Y-31565800D01*
X17732800Y-31525800D02*
X15115800Y-31525800D01*
X22831800Y-31525800D02*
X20214800Y-31525800D01*
X17732800Y-31485800D02*
X15081800Y-31485800D01*
X22865800Y-31485800D02*
X20214800Y-31485800D01*
X17732800Y-31445800D02*
X15048800Y-31445800D01*
X22898800Y-31445800D02*
X20214800Y-31445800D01*
X17732800Y-31405800D02*
X15016800Y-31405800D01*
X22930800Y-31405800D02*
X20214800Y-31405800D01*
X17732800Y-31365800D02*
X14984800Y-31365800D01*
X22962800Y-31365800D02*
X20214800Y-31365800D01*
X17732800Y-31325800D02*
X14953800Y-31325800D01*
X22993800Y-31325800D02*
X20214800Y-31325800D01*
X17732800Y-31285800D02*
X14923800Y-31285800D01*
X23023800Y-31285800D02*
X20214800Y-31285800D01*
X17732800Y-31245800D02*
X14893800Y-31245800D01*
X23053800Y-31245800D02*
X20214800Y-31245800D01*
X17732800Y-31205800D02*
X14863800Y-31205800D01*
X23083800Y-31205800D02*
X20214800Y-31205800D01*
X17732800Y-31165800D02*
X14835800Y-31165800D01*
X23111800Y-31165800D02*
X20214800Y-31165800D01*
X17732800Y-31125800D02*
X14807800Y-31125800D01*
X23139800Y-31125800D02*
X20214800Y-31125800D01*
X17732800Y-31085800D02*
X14779800Y-31085800D01*
X23167800Y-31085800D02*
X20214800Y-31085800D01*
X17732800Y-31045800D02*
X14752800Y-31045800D01*
X23194800Y-31045800D02*
X20214800Y-31045800D01*
X17732800Y-31005800D02*
X14726800Y-31005800D01*
X23220800Y-31005800D02*
X20214800Y-31005800D01*
X17732800Y-30965800D02*
X14700800Y-30965800D01*
X23246800Y-30965800D02*
X20214800Y-30965800D01*
X17732800Y-30925800D02*
X14675800Y-30925800D01*
X23271800Y-30925800D02*
X20214800Y-30925800D01*
X17732800Y-30885800D02*
X14650800Y-30885800D01*
X23296800Y-30885800D02*
X20214800Y-30885800D01*
X17732800Y-30845800D02*
X14626800Y-30845800D01*
X23320800Y-30845800D02*
X20214800Y-30845800D01*
X17732800Y-30805800D02*
X14602800Y-30805800D01*
X23344800Y-30805800D02*
X20214800Y-30805800D01*
X17732800Y-30765800D02*
X14578800Y-30765800D01*
X23368800Y-30765800D02*
X20214800Y-30765800D01*
X17732800Y-30725800D02*
X14556800Y-30725800D01*
X23390800Y-30725800D02*
X20214800Y-30725800D01*
X17732800Y-30685800D02*
X14533800Y-30685800D01*
X23413800Y-30685800D02*
X20214800Y-30685800D01*
X17732800Y-30645800D02*
X14511800Y-30645800D01*
X23435800Y-30645800D02*
X20214800Y-30645800D01*
X17732800Y-30605800D02*
X14490800Y-30605800D01*
X23456800Y-30605800D02*
X20214800Y-30605800D01*
X17732800Y-30565800D02*
X14469800Y-30565800D01*
X23477800Y-30565800D02*
X20214800Y-30565800D01*
X17732800Y-30525800D02*
X14448800Y-30525800D01*
X23498800Y-30525800D02*
X20214800Y-30525800D01*
X17732800Y-30485800D02*
X14428800Y-30485800D01*
X23518800Y-30485800D02*
X20214800Y-30485800D01*
X17732800Y-30445800D02*
X14409800Y-30445800D01*
X23537800Y-30445800D02*
X20214800Y-30445800D01*
X17732800Y-30405800D02*
X14389800Y-30405800D01*
X23557800Y-30405800D02*
X20214800Y-30405800D01*
X17732800Y-30365800D02*
X14370800Y-30365800D01*
X23576800Y-30365800D02*
X20214800Y-30365800D01*
X17732800Y-30325800D02*
X14352800Y-30325800D01*
X23594800Y-30325800D02*
X20214800Y-30325800D01*
X17732800Y-30285800D02*
X14334800Y-30285800D01*
X23612800Y-30285800D02*
X20214800Y-30285800D01*
X17732800Y-30245800D02*
X14316800Y-30245800D01*
X23630800Y-30245800D02*
X20214800Y-30245800D01*
X17732800Y-30205800D02*
X14299800Y-30205800D01*
X23647800Y-30205800D02*
X20214800Y-30205800D01*
X17732800Y-30165800D02*
X14283800Y-30165800D01*
X23663800Y-30165800D02*
X20214800Y-30165800D01*
X17732800Y-30125800D02*
X14266800Y-30125800D01*
X23680800Y-30125800D02*
X20214800Y-30125800D01*
X17732800Y-30085800D02*
X14250800Y-30085800D01*
X23696800Y-30085800D02*
X20214800Y-30085800D01*
X17732800Y-30045800D02*
X14235800Y-30045800D01*
X23711800Y-30045800D02*
X20214800Y-30045800D01*
X17732800Y-30005800D02*
X14219800Y-30005800D01*
X23727800Y-30005800D02*
X20214800Y-30005800D01*
X17732800Y-29965800D02*
X14205800Y-29965800D01*
X23741800Y-29965800D02*
X20214800Y-29965800D01*
X17732800Y-29925800D02*
X14190800Y-29925800D01*
X23756800Y-29925800D02*
X20214800Y-29925800D01*
X17732800Y-29885800D02*
X14176800Y-29885800D01*
X23770800Y-29885800D02*
X20214800Y-29885800D01*
X17732800Y-29845800D02*
X14162800Y-29845800D01*
X23784800Y-29845800D02*
X20214800Y-29845800D01*
X17732800Y-29805800D02*
X14149800Y-29805800D01*
X23797800Y-29805800D02*
X20214800Y-29805800D01*
X17732800Y-29765800D02*
X14136800Y-29765800D01*
X23810800Y-29765800D02*
X20214800Y-29765800D01*
X17732800Y-29725800D02*
X14123800Y-29725800D01*
X23823800Y-29725800D02*
X20214800Y-29725800D01*
X17732800Y-29685800D02*
X14111800Y-29685800D01*
X23835800Y-29685800D02*
X20214800Y-29685800D01*
X17732800Y-29645800D02*
X14099800Y-29645800D01*
X23847800Y-29645800D02*
X20214800Y-29645800D01*
X17732800Y-29605800D02*
X14088800Y-29605800D01*
X23858800Y-29605800D02*
X20214800Y-29605800D01*
X17732800Y-29565800D02*
X14076800Y-29565800D01*
X23870800Y-29565800D02*
X20214800Y-29565800D01*
X17732800Y-29525800D02*
X14066800Y-29525800D01*
X23880800Y-29525800D02*
X20214800Y-29525800D01*
X17732800Y-29485800D02*
X14055800Y-29485800D01*
X23891800Y-29485800D02*
X20214800Y-29485800D01*
X23901800Y-29445800D02*
X14045800Y-29445800D01*
X23911800Y-29405800D02*
X14035800Y-29405800D01*
X23920800Y-29365800D02*
X14026800Y-29365800D01*
X23929800Y-29325800D02*
X14017800Y-29325800D01*
X23938800Y-29285800D02*
X14008800Y-29285800D01*
X23947800Y-29245800D02*
X13999800Y-29245800D01*
X23955800Y-29205800D02*
X13991800Y-29205800D01*
X23963800Y-29165800D02*
X13983800Y-29165800D01*
X23970800Y-29125800D02*
X13976800Y-29125800D01*
X23977800Y-29085800D02*
X13969800Y-29085800D01*
X23984800Y-29045800D02*
X13962800Y-29045800D01*
X23991800Y-29005800D02*
X13955800Y-29005800D01*
X23997800Y-28965800D02*
X13949800Y-28965800D01*
X24003800Y-28925800D02*
X13943800Y-28925800D01*
X24008800Y-28884800D02*
X13938800Y-28884800D01*
X24013800Y-28844800D02*
X13933800Y-28844800D01*
X24018800Y-28804800D02*
X13928800Y-28804800D01*
X24023800Y-28764800D02*
X13923800Y-28764800D01*
X24027800Y-28724800D02*
X13919800Y-28724800D01*
X24031800Y-28684800D02*
X13915800Y-28684800D01*
X24035800Y-28644800D02*
X13911800Y-28644800D01*
X24038800Y-28604800D02*
X13908800Y-28604800D01*
X24041800Y-28564800D02*
X13905800Y-28564800D01*
X24043800Y-28524800D02*
X13903800Y-28524800D01*
X24046800Y-28484800D02*
X13900800Y-28484800D01*
X24048800Y-28444800D02*
X13898800Y-28444800D01*
X24050800Y-28404800D02*
X13896800Y-28404800D01*
X24051800Y-28364800D02*
X13895800Y-28364800D01*
X24052800Y-28324800D02*
X13894800Y-28324800D01*
X24053800Y-28284800D02*
X13893800Y-28284800D01*
X24053800Y-28244800D02*
X13893800Y-28244800D01*
X24053800Y-28204800D02*
X13893800Y-28204800D01*
X24093800Y-28204800D02*
G75*
G03X24093800Y-28204800I-5120000J0D01*
G01*
X24603046Y-69389600D02*
X24603046Y-68389600D01*
X25103046Y-68889600D02*
X24103046Y-68889600D01*
X14542400Y-66613600D02*
X14542400Y-65415600D01*
X14582400Y-66876600D02*
X14582400Y-65152600D01*
X14622400Y-67076600D02*
X14622400Y-64952600D01*
X14662400Y-67244600D02*
X14662400Y-64784600D01*
X14702400Y-67392600D02*
X14702400Y-64636600D01*
X14742400Y-67524600D02*
X14742400Y-64504600D01*
X14782400Y-67644600D02*
X14782400Y-64384600D01*
X14822400Y-67756600D02*
X14822400Y-64272600D01*
X14862400Y-67860600D02*
X14862400Y-64168600D01*
X14902400Y-67958600D02*
X14902400Y-64070600D01*
X14942400Y-68051600D02*
X14942400Y-63977600D01*
X14982400Y-68139600D02*
X14982400Y-63889600D01*
X15022400Y-68223600D02*
X15022400Y-63805600D01*
X15062400Y-68303600D02*
X15062400Y-63725600D01*
X15102400Y-68379600D02*
X15102400Y-63649600D01*
X15142400Y-68453600D02*
X15142400Y-63575600D01*
X15182400Y-68524600D02*
X15182400Y-63504600D01*
X15222400Y-68593600D02*
X15222400Y-63435600D01*
X15262400Y-68659600D02*
X15262400Y-63369600D01*
X15302400Y-68723600D02*
X15302400Y-63305600D01*
X15342400Y-68784600D02*
X15342400Y-63244600D01*
X15382400Y-68844600D02*
X15382400Y-63184600D01*
X15422400Y-68903600D02*
X15422400Y-63125600D01*
X15462400Y-68959600D02*
X15462400Y-63069600D01*
X15502400Y-69014600D02*
X15502400Y-63014600D01*
X15542400Y-69068600D02*
X15542400Y-62960600D01*
X15582400Y-69120600D02*
X15582400Y-62908600D01*
X15622400Y-69170600D02*
X15622400Y-62858600D01*
X15662400Y-69220600D02*
X15662400Y-62808600D01*
X15702400Y-69268600D02*
X15702400Y-62760600D01*
X15742400Y-69315600D02*
X15742400Y-62713600D01*
X15782400Y-69361600D02*
X15782400Y-62667600D01*
X15822400Y-69406600D02*
X15822400Y-62622600D01*
X15862400Y-69450600D02*
X15862400Y-62578600D01*
X15902400Y-64773600D02*
X15902400Y-62536600D01*
X15902400Y-69492600D02*
X15902400Y-67255600D01*
X15942400Y-64773600D02*
X15942400Y-62494600D01*
X15942400Y-69534600D02*
X15942400Y-67255600D01*
X15982400Y-64773600D02*
X15982400Y-62453600D01*
X15982400Y-69575600D02*
X15982400Y-67255600D01*
X16022400Y-64773600D02*
X16022400Y-62413600D01*
X16022400Y-69615600D02*
X16022400Y-67255600D01*
X16062400Y-64773600D02*
X16062400Y-62374600D01*
X16062400Y-69654600D02*
X16062400Y-67255600D01*
X16102400Y-64773600D02*
X16102400Y-62335600D01*
X16102400Y-69693600D02*
X16102400Y-67255600D01*
X16142400Y-64773600D02*
X16142400Y-62298600D01*
X16142400Y-69730600D02*
X16142400Y-67255600D01*
X16182400Y-64773600D02*
X16182400Y-62261600D01*
X16182400Y-69767600D02*
X16182400Y-67255600D01*
X16222400Y-64773600D02*
X16222400Y-62225600D01*
X16222400Y-69803600D02*
X16222400Y-67255600D01*
X16262400Y-64773600D02*
X16262400Y-62190600D01*
X16262400Y-69838600D02*
X16262400Y-67255600D01*
X16302400Y-64773600D02*
X16302400Y-62156600D01*
X16302400Y-69872600D02*
X16302400Y-67255600D01*
X16342400Y-64773600D02*
X16342400Y-62122600D01*
X16342400Y-69906600D02*
X16342400Y-67255600D01*
X16382400Y-64773600D02*
X16382400Y-62089600D01*
X16382400Y-69939600D02*
X16382400Y-67255600D01*
X16422400Y-64773600D02*
X16422400Y-62057600D01*
X16422400Y-69971600D02*
X16422400Y-67255600D01*
X16462400Y-64773600D02*
X16462400Y-62025600D01*
X16462400Y-70003600D02*
X16462400Y-67255600D01*
X16502400Y-64773600D02*
X16502400Y-61994600D01*
X16502400Y-70034600D02*
X16502400Y-67255600D01*
X16542400Y-64773600D02*
X16542400Y-61964600D01*
X16542400Y-70064600D02*
X16542400Y-67255600D01*
X16582400Y-64773600D02*
X16582400Y-61934600D01*
X16582400Y-70094600D02*
X16582400Y-67255600D01*
X16622400Y-64773600D02*
X16622400Y-61904600D01*
X16622400Y-70124600D02*
X16622400Y-67255600D01*
X16662400Y-64773600D02*
X16662400Y-61876600D01*
X16662400Y-70152600D02*
X16662400Y-67255600D01*
X16702400Y-64773600D02*
X16702400Y-61848600D01*
X16702400Y-70180600D02*
X16702400Y-67255600D01*
X16742400Y-64773600D02*
X16742400Y-61820600D01*
X16742400Y-70208600D02*
X16742400Y-67255600D01*
X16782400Y-64773600D02*
X16782400Y-61793600D01*
X16782400Y-70235600D02*
X16782400Y-67255600D01*
X16822400Y-64773600D02*
X16822400Y-61767600D01*
X16822400Y-70261600D02*
X16822400Y-67255600D01*
X16862400Y-64773600D02*
X16862400Y-61741600D01*
X16862400Y-70287600D02*
X16862400Y-67255600D01*
X16902400Y-64773600D02*
X16902400Y-61716600D01*
X16902400Y-70312600D02*
X16902400Y-67255600D01*
X16942400Y-64773600D02*
X16942400Y-61691600D01*
X16942400Y-70337600D02*
X16942400Y-67255600D01*
X16982400Y-64773600D02*
X16982400Y-61667600D01*
X16982400Y-70361600D02*
X16982400Y-67255600D01*
X17022400Y-64773600D02*
X17022400Y-61643600D01*
X17022400Y-70385600D02*
X17022400Y-67255600D01*
X17062400Y-64773600D02*
X17062400Y-61619600D01*
X17062400Y-70409600D02*
X17062400Y-67255600D01*
X17102400Y-64773600D02*
X17102400Y-61597600D01*
X17102400Y-70431600D02*
X17102400Y-67255600D01*
X17142400Y-64773600D02*
X17142400Y-61574600D01*
X17142400Y-70454600D02*
X17142400Y-67255600D01*
X17182400Y-64773600D02*
X17182400Y-61552600D01*
X17182400Y-70476600D02*
X17182400Y-67255600D01*
X17222400Y-64773600D02*
X17222400Y-61531600D01*
X17222400Y-70497600D02*
X17222400Y-67255600D01*
X17262400Y-64773600D02*
X17262400Y-61510600D01*
X17262400Y-70518600D02*
X17262400Y-67255600D01*
X17302400Y-64773600D02*
X17302400Y-61489600D01*
X17302400Y-70539600D02*
X17302400Y-67255600D01*
X17342400Y-64773600D02*
X17342400Y-61469600D01*
X17342400Y-70559600D02*
X17342400Y-67255600D01*
X17382400Y-64773600D02*
X17382400Y-61450600D01*
X17382400Y-70578600D02*
X17382400Y-67255600D01*
X17422400Y-64773600D02*
X17422400Y-61430600D01*
X17422400Y-70598600D02*
X17422400Y-67255600D01*
X17462400Y-64773600D02*
X17462400Y-61411600D01*
X17462400Y-70617600D02*
X17462400Y-67255600D01*
X17502400Y-64773600D02*
X17502400Y-61393600D01*
X17502400Y-70635600D02*
X17502400Y-67255600D01*
X17542400Y-64773600D02*
X17542400Y-61375600D01*
X17542400Y-70653600D02*
X17542400Y-67255600D01*
X17582400Y-64773600D02*
X17582400Y-61357600D01*
X17582400Y-70671600D02*
X17582400Y-67255600D01*
X17622400Y-64773600D02*
X17622400Y-61340600D01*
X17622400Y-70688600D02*
X17622400Y-67255600D01*
X17662400Y-64773600D02*
X17662400Y-61324600D01*
X17662400Y-70704600D02*
X17662400Y-67255600D01*
X17702400Y-64773600D02*
X17702400Y-61307600D01*
X17702400Y-70721600D02*
X17702400Y-67255600D01*
X17742400Y-64773600D02*
X17742400Y-61291600D01*
X17742400Y-70737600D02*
X17742400Y-67255600D01*
X17782400Y-64773600D02*
X17782400Y-61276600D01*
X17782400Y-70752600D02*
X17782400Y-67255600D01*
X17822400Y-64773600D02*
X17822400Y-61260600D01*
X17822400Y-70768600D02*
X17822400Y-67255600D01*
X17862400Y-64773600D02*
X17862400Y-61246600D01*
X17862400Y-70782600D02*
X17862400Y-67255600D01*
X17902400Y-64773600D02*
X17902400Y-61231600D01*
X17902400Y-70797600D02*
X17902400Y-67255600D01*
X17942400Y-64773600D02*
X17942400Y-61217600D01*
X17942400Y-70811600D02*
X17942400Y-67255600D01*
X17982400Y-64773600D02*
X17982400Y-61203600D01*
X17982400Y-70825600D02*
X17982400Y-67255600D01*
X18022400Y-64773600D02*
X18022400Y-61190600D01*
X18022400Y-70838600D02*
X18022400Y-67255600D01*
X18062400Y-64773600D02*
X18062400Y-61177600D01*
X18062400Y-70851600D02*
X18062400Y-67255600D01*
X18102400Y-64773600D02*
X18102400Y-61164600D01*
X18102400Y-70864600D02*
X18102400Y-67255600D01*
X18142400Y-64773600D02*
X18142400Y-61152600D01*
X18142400Y-70876600D02*
X18142400Y-67255600D01*
X18182400Y-64773600D02*
X18182400Y-61140600D01*
X18182400Y-70888600D02*
X18182400Y-67255600D01*
X18222400Y-64773600D02*
X18222400Y-61129600D01*
X18222400Y-70899600D02*
X18222400Y-67255600D01*
X18262400Y-64773600D02*
X18262400Y-61117600D01*
X18262400Y-70911600D02*
X18262400Y-67255600D01*
X18302400Y-64773600D02*
X18302400Y-61107600D01*
X18302400Y-70921600D02*
X18302400Y-67255600D01*
X18342400Y-64773600D02*
X18342400Y-61096600D01*
X18342400Y-70932600D02*
X18342400Y-67255600D01*
X18382400Y-70942600D02*
X18382400Y-61086600D01*
X18422400Y-70952600D02*
X18422400Y-61076600D01*
X18462400Y-70961600D02*
X18462400Y-61067600D01*
X18502400Y-70970600D02*
X18502400Y-61058600D01*
X18542400Y-70979600D02*
X18542400Y-61049600D01*
X18582400Y-70988600D02*
X18582400Y-61040600D01*
X18622400Y-70996600D02*
X18622400Y-61032600D01*
X18662400Y-71004600D02*
X18662400Y-61024600D01*
X18702400Y-71011600D02*
X18702400Y-61017600D01*
X18742400Y-71018600D02*
X18742400Y-61010600D01*
X18782400Y-71025600D02*
X18782400Y-61003600D01*
X18822400Y-71032600D02*
X18822400Y-60996600D01*
X18862400Y-71038600D02*
X18862400Y-60990600D01*
X18902400Y-71044600D02*
X18902400Y-60984600D01*
X18943400Y-71049600D02*
X18943400Y-60979600D01*
X18983400Y-71054600D02*
X18983400Y-60974600D01*
X19023400Y-71059600D02*
X19023400Y-60969600D01*
X19063400Y-71064600D02*
X19063400Y-60964600D01*
X19103400Y-71068600D02*
X19103400Y-60960600D01*
X19143400Y-71072600D02*
X19143400Y-60956600D01*
X19183400Y-71076600D02*
X19183400Y-60952600D01*
X19223400Y-71079600D02*
X19223400Y-60949600D01*
X19263400Y-71082600D02*
X19263400Y-60946600D01*
X19303400Y-71084600D02*
X19303400Y-60944600D01*
X19343400Y-71087600D02*
X19343400Y-60941600D01*
X19383400Y-71089600D02*
X19383400Y-60939600D01*
X19423400Y-71091600D02*
X19423400Y-60937600D01*
X19463400Y-71092600D02*
X19463400Y-60936600D01*
X19503400Y-71093600D02*
X19503400Y-60935600D01*
X19543400Y-71094600D02*
X19543400Y-60934600D01*
X19583400Y-71094600D02*
X19583400Y-60934600D01*
X19623400Y-71094600D02*
X19623400Y-60934600D01*
X24743400Y-66014600D02*
G75*
G03X24743400Y-66014600I-5120000J0D01*
G01*
X12724999Y-22784103D02*
G75*
G03X12724999Y-22784103I-6099999J0D01*
G01*
D20*
X9804765Y-33033344D02*
X9852384Y-32890485D01*
X9852384Y-32652388D01*
X9804765Y-32557149D01*
X9757145Y-32509530D01*
X9661906Y-32461910D01*
X9566668Y-32461910D01*
X9471429Y-32509530D01*
X9423809Y-32557149D01*
X9376190Y-32652388D01*
X9328570Y-32842866D01*
X9280951Y-32938105D01*
X9233332Y-32985724D01*
X9138093Y-33033344D01*
X9042854Y-33033344D01*
X8947615Y-32985724D01*
X8899996Y-32938105D01*
X8852376Y-32842866D01*
X8852376Y-32604769D01*
X8899996Y-32461910D01*
X8852376Y-32128574D02*
X9852384Y-31890477D01*
X9138093Y-31700000D01*
X9852384Y-31509522D01*
X8852376Y-31271425D01*
X8852376Y-30985708D02*
X8852376Y-30366656D01*
X9233332Y-30699992D01*
X9233332Y-30557133D01*
X9280951Y-30461894D01*
X9328570Y-30414275D01*
X9423809Y-30366656D01*
X9661906Y-30366656D01*
X9757145Y-30414275D01*
X9804765Y-30461894D01*
X9852384Y-30557133D01*
X9852384Y-30842850D01*
X9804765Y-30938089D01*
X9757145Y-30985708D01*
D11*
X71752380Y-57452380D02*
X72323809Y-57452380D01*
X72038095Y-58452380D02*
X72038095Y-57452380D01*
X72657142Y-58452380D02*
X72657142Y-57452380D01*
X73038095Y-57452380D01*
X73133333Y-57500000D01*
X73180952Y-57547619D01*
X73228571Y-57642857D01*
X73228571Y-57785714D01*
X73180952Y-57880952D01*
X73133333Y-57928571D01*
X73038095Y-57976190D01*
X72657142Y-57976190D01*
X74180952Y-58452380D02*
X73609523Y-58452380D01*
X73895238Y-58452380D02*
X73895238Y-57452380D01*
X73800000Y-57595238D01*
X73704761Y-57690476D01*
X73609523Y-57738095D01*
X74371428Y-58547619D02*
X75133333Y-58547619D01*
X75228571Y-57452380D02*
X75561904Y-58452380D01*
X75895238Y-57452380D01*
X76800000Y-58357142D02*
X76752380Y-58404761D01*
X76609523Y-58452380D01*
X76514285Y-58452380D01*
X76371428Y-58404761D01*
X76276190Y-58309523D01*
X76228571Y-58214285D01*
X76180952Y-58023809D01*
X76180952Y-57880952D01*
X76228571Y-57690476D01*
X76276190Y-57595238D01*
X76371428Y-57500000D01*
X76514285Y-57452380D01*
X76609523Y-57452380D01*
X76752380Y-57500000D01*
X76800000Y-57547619D01*
X77800000Y-58357142D02*
X77752380Y-58404761D01*
X77609523Y-58452380D01*
X77514285Y-58452380D01*
X77371428Y-58404761D01*
X77276190Y-58309523D01*
X77228571Y-58214285D01*
X77180952Y-58023809D01*
X77180952Y-57880952D01*
X77228571Y-57690476D01*
X77276190Y-57595238D01*
X77371428Y-57500000D01*
X77514285Y-57452380D01*
X77609523Y-57452380D01*
X77752380Y-57500000D01*
X77800000Y-57547619D01*
X78752380Y-58452380D02*
X78180952Y-58452380D01*
X78466666Y-58452380D02*
X78466666Y-57452380D01*
X78371428Y-57595238D01*
X78276190Y-57690476D01*
X78180952Y-57738095D01*
X46158304Y-72359780D02*
X46158304Y-71359780D01*
X46158304Y-71835971D02*
X46729733Y-71835971D01*
X46729733Y-72359780D02*
X46729733Y-71359780D01*
X47729733Y-72359780D02*
X47158304Y-72359780D01*
X47444019Y-72359780D02*
X47444019Y-71359780D01*
X47348780Y-71502638D01*
X47253542Y-71597876D01*
X47158304Y-71645495D01*
X48348780Y-71359780D02*
X48444019Y-71359780D01*
X48539257Y-71407400D01*
X48586876Y-71455019D01*
X48634495Y-71550257D01*
X48682114Y-71740733D01*
X48682114Y-71978828D01*
X48634495Y-72169304D01*
X48586876Y-72264542D01*
X48539257Y-72312161D01*
X48444019Y-72359780D01*
X48348780Y-72359780D01*
X48253542Y-72312161D01*
X48205923Y-72264542D01*
X48158304Y-72169304D01*
X48110685Y-71978828D01*
X48110685Y-71740733D01*
X48158304Y-71550257D01*
X48205923Y-71455019D01*
X48253542Y-71407400D01*
X48348780Y-71359780D01*
X35636295Y-72613780D02*
X35636295Y-71613780D01*
X35636295Y-72089971D02*
X36207723Y-72089971D01*
X36207723Y-72613780D02*
X36207723Y-71613780D01*
X36731533Y-72613780D02*
X36922009Y-72613780D01*
X37017247Y-72566161D01*
X37064866Y-72518542D01*
X37160104Y-72375685D01*
X37207723Y-72185209D01*
X37207723Y-71804257D01*
X37160104Y-71709019D01*
X37112485Y-71661400D01*
X37017247Y-71613780D01*
X36826771Y-71613780D01*
X36731533Y-71661400D01*
X36683914Y-71709019D01*
X36636295Y-71804257D01*
X36636295Y-72042352D01*
X36683914Y-72137590D01*
X36731533Y-72185209D01*
X36826771Y-72232828D01*
X37017247Y-72232828D01*
X37112485Y-72185209D01*
X37160104Y-72137590D01*
X37207723Y-72042352D01*
X25445980Y-54922657D02*
X24969790Y-55255990D01*
X25445980Y-55494085D02*
X24445980Y-55494085D01*
X24445980Y-55113133D01*
X24493600Y-55017895D01*
X24541219Y-54970276D01*
X24636457Y-54922657D01*
X24779314Y-54922657D01*
X24874552Y-54970276D01*
X24922171Y-55017895D01*
X24969790Y-55113133D01*
X24969790Y-55494085D01*
X24445980Y-54589323D02*
X24445980Y-53970276D01*
X24826933Y-54303609D01*
X24826933Y-54160752D01*
X24874552Y-54065514D01*
X24922171Y-54017895D01*
X25017409Y-53970276D01*
X25255504Y-53970276D01*
X25350742Y-54017895D01*
X25398361Y-54065514D01*
X25445980Y-54160752D01*
X25445980Y-54446466D01*
X25398361Y-54541704D01*
X25350742Y-54589323D01*
X25445980Y-53017895D02*
X25445980Y-53589323D01*
X25445980Y-53303609D02*
X24445980Y-53303609D01*
X24588838Y-53398847D01*
X24684076Y-53494085D01*
X24731695Y-53589323D01*
X25445980Y-51874657D02*
X24969790Y-52207990D01*
X25445980Y-52446085D02*
X24445980Y-52446085D01*
X24445980Y-52065133D01*
X24493600Y-51969895D01*
X24541219Y-51922276D01*
X24636457Y-51874657D01*
X24779314Y-51874657D01*
X24874552Y-51922276D01*
X24922171Y-51969895D01*
X24969790Y-52065133D01*
X24969790Y-52446085D01*
X24445980Y-51541323D02*
X24445980Y-50922276D01*
X24826933Y-51255609D01*
X24826933Y-51112752D01*
X24874552Y-51017514D01*
X24922171Y-50969895D01*
X25017409Y-50922276D01*
X25255504Y-50922276D01*
X25350742Y-50969895D01*
X25398361Y-51017514D01*
X25445980Y-51112752D01*
X25445980Y-51398466D01*
X25398361Y-51493704D01*
X25350742Y-51541323D01*
X24445980Y-50303228D02*
X24445980Y-50207990D01*
X24493600Y-50112752D01*
X24541219Y-50065133D01*
X24636457Y-50017514D01*
X24826933Y-49969895D01*
X25065028Y-49969895D01*
X25255504Y-50017514D01*
X25350742Y-50065133D01*
X25398361Y-50112752D01*
X25445980Y-50207990D01*
X25445980Y-50303228D01*
X25398361Y-50398466D01*
X25350742Y-50446085D01*
X25255504Y-50493704D01*
X25065028Y-50541323D01*
X24826933Y-50541323D01*
X24636457Y-50493704D01*
X24541219Y-50446085D01*
X24493600Y-50398466D01*
X24445980Y-50303228D01*
X70285714Y-60252380D02*
X70285714Y-59252380D01*
X70523809Y-59252380D01*
X70666666Y-59300000D01*
X70761904Y-59395238D01*
X70809523Y-59490476D01*
X70857142Y-59680952D01*
X70857142Y-59823809D01*
X70809523Y-60014285D01*
X70761904Y-60109523D01*
X70666666Y-60204761D01*
X70523809Y-60252380D01*
X70285714Y-60252380D01*
X71190476Y-59252380D02*
X71809523Y-59252380D01*
X71476190Y-59633333D01*
X71619047Y-59633333D01*
X71714285Y-59680952D01*
X71761904Y-59728571D01*
X71809523Y-59823809D01*
X71809523Y-60061904D01*
X71761904Y-60157142D01*
X71714285Y-60204761D01*
X71619047Y-60252380D01*
X71333333Y-60252380D01*
X71238095Y-60204761D01*
X71190476Y-60157142D01*
X72666666Y-59585714D02*
X72666666Y-60252380D01*
X72428571Y-59204761D02*
X72190476Y-59919047D01*
X72809523Y-59919047D01*
X7438095Y-1552380D02*
X7438095Y-552380D01*
X7438095Y-1028571D02*
X8009523Y-1028571D01*
X8009523Y-1552380D02*
X8009523Y-552380D01*
X8628571Y-980952D02*
X8533333Y-933333D01*
X8485714Y-885714D01*
X8438095Y-790476D01*
X8438095Y-742857D01*
X8485714Y-647619D01*
X8533333Y-600000D01*
X8628571Y-552380D01*
X8819047Y-552380D01*
X8914285Y-600000D01*
X8961904Y-647619D01*
X9009523Y-742857D01*
X9009523Y-790476D01*
X8961904Y-885714D01*
X8914285Y-933333D01*
X8819047Y-980952D01*
X8628571Y-980952D01*
X8533333Y-1028571D01*
X8485714Y-1076190D01*
X8438095Y-1171428D01*
X8438095Y-1361904D01*
X8485714Y-1457142D01*
X8533333Y-1504761D01*
X8628571Y-1552380D01*
X8819047Y-1552380D01*
X8914285Y-1504761D01*
X8961904Y-1457142D01*
X9009523Y-1361904D01*
X9009523Y-1171428D01*
X8961904Y-1076190D01*
X8914285Y-1028571D01*
X8819047Y-980952D01*
X76339795Y-64727080D02*
X76339795Y-63727080D01*
X76339795Y-64203271D02*
X76911223Y-64203271D01*
X76911223Y-64727080D02*
X76911223Y-63727080D01*
X77292176Y-63727080D02*
X77958842Y-63727080D01*
X77530271Y-64727080D01*
X71938095Y-1652380D02*
X71938095Y-652380D01*
X71938095Y-1128571D02*
X72509523Y-1128571D01*
X72509523Y-1652380D02*
X72509523Y-652380D01*
X73414285Y-652380D02*
X73223809Y-652380D01*
X73128571Y-700000D01*
X73080952Y-747619D01*
X72985714Y-890476D01*
X72938095Y-1080952D01*
X72938095Y-1461904D01*
X72985714Y-1557142D01*
X73033333Y-1604761D01*
X73128571Y-1652380D01*
X73319047Y-1652380D01*
X73414285Y-1604761D01*
X73461904Y-1557142D01*
X73509523Y-1461904D01*
X73509523Y-1223809D01*
X73461904Y-1128571D01*
X73414285Y-1080952D01*
X73319047Y-1033333D01*
X73128571Y-1033333D01*
X73033333Y-1080952D01*
X72985714Y-1128571D01*
X72938095Y-1223809D01*
X738095Y-67152380D02*
X738095Y-66152380D01*
X738095Y-66628571D02*
X1309523Y-66628571D01*
X1309523Y-67152380D02*
X1309523Y-66152380D01*
X2261904Y-66152380D02*
X1785714Y-66152380D01*
X1738095Y-66628571D01*
X1785714Y-66580952D01*
X1880952Y-66533333D01*
X2119047Y-66533333D01*
X2214285Y-66580952D01*
X2261904Y-66628571D01*
X2309523Y-66723809D01*
X2309523Y-66961904D01*
X2261904Y-67057142D01*
X2214285Y-67104761D01*
X2119047Y-67152380D01*
X1880952Y-67152380D01*
X1785714Y-67104761D01*
X1738095Y-67057142D01*
X55703885Y-92740171D02*
X55846742Y-92787790D01*
X55894361Y-92835409D01*
X55941980Y-92930647D01*
X55941980Y-93073504D01*
X55894361Y-93168742D01*
X55846742Y-93216361D01*
X55751504Y-93263980D01*
X55370552Y-93263980D01*
X55370552Y-92263980D01*
X55703885Y-92263980D01*
X55799123Y-92311600D01*
X55846742Y-92359219D01*
X55894361Y-92454457D01*
X55894361Y-92549695D01*
X55846742Y-92644933D01*
X55799123Y-92692552D01*
X55703885Y-92740171D01*
X55370552Y-92740171D01*
X56227695Y-92263980D02*
X56799123Y-92263980D01*
X56513409Y-93263980D02*
X56513409Y-92263980D01*
X57656266Y-93263980D02*
X57084838Y-93263980D01*
X57370552Y-93263980D02*
X57370552Y-92263980D01*
X57275314Y-92406838D01*
X57180076Y-92502076D01*
X57084838Y-92549695D01*
X70111880Y-49006023D02*
X69111880Y-49006023D01*
X69826166Y-48672690D01*
X69111880Y-48339357D01*
X70111880Y-48339357D01*
X69111880Y-47958404D02*
X69111880Y-47339357D01*
X69492833Y-47672690D01*
X69492833Y-47529833D01*
X69540452Y-47434595D01*
X69588071Y-47386976D01*
X69683309Y-47339357D01*
X69921404Y-47339357D01*
X70016642Y-47386976D01*
X70064261Y-47434595D01*
X70111880Y-47529833D01*
X70111880Y-47815547D01*
X70064261Y-47910785D01*
X70016642Y-47958404D01*
X64262095Y-23341080D02*
X64262095Y-24150604D01*
X64309714Y-24245842D01*
X64357333Y-24293461D01*
X64452571Y-24341080D01*
X64643047Y-24341080D01*
X64738285Y-24293461D01*
X64785904Y-24245842D01*
X64833523Y-24150604D01*
X64833523Y-23341080D01*
X65262095Y-23436319D02*
X65309714Y-23388700D01*
X65404952Y-23341080D01*
X65643047Y-23341080D01*
X65738285Y-23388700D01*
X65785904Y-23436319D01*
X65833523Y-23531557D01*
X65833523Y-23626795D01*
X65785904Y-23769652D01*
X65214476Y-24341080D01*
X65833523Y-24341080D01*
X62143095Y-20945580D02*
X62143095Y-19945580D01*
X62476428Y-20659866D01*
X62809761Y-19945580D01*
X62809761Y-20945580D01*
X63285952Y-20945580D02*
X63285952Y-19945580D01*
X63666904Y-19945580D01*
X63762142Y-19993200D01*
X63809761Y-20040819D01*
X63857380Y-20136057D01*
X63857380Y-20278914D01*
X63809761Y-20374152D01*
X63762142Y-20421771D01*
X63666904Y-20469390D01*
X63285952Y-20469390D01*
X64285952Y-19945580D02*
X64285952Y-20755104D01*
X64333571Y-20850342D01*
X64381190Y-20897961D01*
X64476428Y-20945580D01*
X64666904Y-20945580D01*
X64762142Y-20897961D01*
X64809761Y-20850342D01*
X64857380Y-20755104D01*
X64857380Y-19945580D01*
X65762142Y-19945580D02*
X65571666Y-19945580D01*
X65476428Y-19993200D01*
X65428809Y-20040819D01*
X65333571Y-20183676D01*
X65285952Y-20374152D01*
X65285952Y-20755104D01*
X65333571Y-20850342D01*
X65381190Y-20897961D01*
X65476428Y-20945580D01*
X65666904Y-20945580D01*
X65762142Y-20897961D01*
X65809761Y-20850342D01*
X65857380Y-20755104D01*
X65857380Y-20517009D01*
X65809761Y-20421771D01*
X65762142Y-20374152D01*
X65666904Y-20326533D01*
X65476428Y-20326533D01*
X65381190Y-20374152D01*
X65333571Y-20421771D01*
X65285952Y-20517009D01*
X66476428Y-19945580D02*
X66571666Y-19945580D01*
X66666904Y-19993200D01*
X66714523Y-20040819D01*
X66762142Y-20136057D01*
X66809761Y-20326533D01*
X66809761Y-20564628D01*
X66762142Y-20755104D01*
X66714523Y-20850342D01*
X66666904Y-20897961D01*
X66571666Y-20945580D01*
X66476428Y-20945580D01*
X66381190Y-20897961D01*
X66333571Y-20850342D01*
X66285952Y-20755104D01*
X66238333Y-20564628D01*
X66238333Y-20326533D01*
X66285952Y-20136057D01*
X66333571Y-20040819D01*
X66381190Y-19993200D01*
X66476428Y-19945580D01*
X67714523Y-19945580D02*
X67238333Y-19945580D01*
X67190714Y-20421771D01*
X67238333Y-20374152D01*
X67333571Y-20326533D01*
X67571666Y-20326533D01*
X67666904Y-20374152D01*
X67714523Y-20421771D01*
X67762142Y-20517009D01*
X67762142Y-20755104D01*
X67714523Y-20850342D01*
X67666904Y-20897961D01*
X67571666Y-20945580D01*
X67333571Y-20945580D01*
X67238333Y-20897961D01*
X67190714Y-20850342D01*
X68381190Y-19945580D02*
X68476428Y-19945580D01*
X68571666Y-19993200D01*
X68619285Y-20040819D01*
X68666904Y-20136057D01*
X68714523Y-20326533D01*
X68714523Y-20564628D01*
X68666904Y-20755104D01*
X68619285Y-20850342D01*
X68571666Y-20897961D01*
X68476428Y-20945580D01*
X68381190Y-20945580D01*
X68285952Y-20897961D01*
X68238333Y-20850342D01*
X68190714Y-20755104D01*
X68143095Y-20564628D01*
X68143095Y-20326533D01*
X68190714Y-20136057D01*
X68238333Y-20040819D01*
X68285952Y-19993200D01*
X68381190Y-19945580D01*
D21*
X37609538Y-3978123D02*
X37609538Y-2708123D01*
X38940014Y-3857171D02*
X38879538Y-3917647D01*
X38698109Y-3978123D01*
X38577157Y-3978123D01*
X38395728Y-3917647D01*
X38274776Y-3796695D01*
X38214300Y-3675742D01*
X38153823Y-3433838D01*
X38153823Y-3252409D01*
X38214300Y-3010504D01*
X38274776Y-2889552D01*
X38395728Y-2768600D01*
X38577157Y-2708123D01*
X38698109Y-2708123D01*
X38879538Y-2768600D01*
X38940014Y-2829076D01*
X40149538Y-3978123D02*
X39423823Y-3978123D01*
X39786680Y-3978123D02*
X39786680Y-2708123D01*
X39665728Y-2889552D01*
X39544776Y-3010504D01*
X39423823Y-3070980D01*
D11*
X56892866Y-12774680D02*
X56892866Y-13488966D01*
X56845247Y-13631823D01*
X56750009Y-13727061D01*
X56607152Y-13774680D01*
X56511914Y-13774680D01*
X57797628Y-13108014D02*
X57797628Y-13774680D01*
X57559533Y-12727061D02*
X57321438Y-13441347D01*
X57940485Y-13441347D01*
X59661466Y-12901680D02*
X59661466Y-13615966D01*
X59613847Y-13758823D01*
X59518609Y-13854061D01*
X59375752Y-13901680D01*
X59280514Y-13901680D01*
X60042419Y-12901680D02*
X60661466Y-12901680D01*
X60328133Y-13282633D01*
X60470990Y-13282633D01*
X60566228Y-13330252D01*
X60613847Y-13377871D01*
X60661466Y-13473109D01*
X60661466Y-13711204D01*
X60613847Y-13806442D01*
X60566228Y-13854061D01*
X60470990Y-13901680D01*
X60185276Y-13901680D01*
X60090038Y-13854061D01*
X60042419Y-13806442D01*
X62023666Y-12876280D02*
X62023666Y-13590566D01*
X61976047Y-13733423D01*
X61880809Y-13828661D01*
X61737952Y-13876280D01*
X61642714Y-13876280D01*
X62452238Y-12971519D02*
X62499857Y-12923900D01*
X62595095Y-12876280D01*
X62833190Y-12876280D01*
X62928428Y-12923900D01*
X62976047Y-12971519D01*
X63023666Y-13066757D01*
X63023666Y-13161995D01*
X62976047Y-13304852D01*
X62404619Y-13876280D01*
X63023666Y-13876280D01*
X4889595Y-92120980D02*
X4889595Y-91120980D01*
X4889595Y-91597171D02*
X5461023Y-91597171D01*
X5461023Y-92120980D02*
X5461023Y-91120980D01*
X6365785Y-91454314D02*
X6365785Y-92120980D01*
X6127690Y-91073361D02*
X5889595Y-91787647D01*
X6508642Y-91787647D01*
X50847614Y-64950580D02*
X50847614Y-63950580D01*
X51085709Y-63950580D01*
X51228566Y-63998200D01*
X51323804Y-64093438D01*
X51371423Y-64188676D01*
X51419042Y-64379152D01*
X51419042Y-64522009D01*
X51371423Y-64712485D01*
X51323804Y-64807723D01*
X51228566Y-64902961D01*
X51085709Y-64950580D01*
X50847614Y-64950580D01*
X51799995Y-64045819D02*
X51847614Y-63998200D01*
X51942852Y-63950580D01*
X52180947Y-63950580D01*
X52276185Y-63998200D01*
X52323804Y-64045819D01*
X52371423Y-64141057D01*
X52371423Y-64236295D01*
X52323804Y-64379152D01*
X51752376Y-64950580D01*
X52371423Y-64950580D01*
X53276185Y-63950580D02*
X52799995Y-63950580D01*
X52752376Y-64426771D01*
X52799995Y-64379152D01*
X52895233Y-64331533D01*
X53133328Y-64331533D01*
X53228566Y-64379152D01*
X53276185Y-64426771D01*
X53323804Y-64522009D01*
X53323804Y-64760104D01*
X53276185Y-64855342D01*
X53228566Y-64902961D01*
X53133328Y-64950580D01*
X52895233Y-64950580D01*
X52799995Y-64902961D01*
X52752376Y-64855342D01*
X30847614Y-64950580D02*
X30847614Y-63950580D01*
X31085709Y-63950580D01*
X31228566Y-63998200D01*
X31323804Y-64093438D01*
X31371423Y-64188676D01*
X31419042Y-64379152D01*
X31419042Y-64522009D01*
X31371423Y-64712485D01*
X31323804Y-64807723D01*
X31228566Y-64902961D01*
X31085709Y-64950580D01*
X30847614Y-64950580D01*
X31799995Y-64045819D02*
X31847614Y-63998200D01*
X31942852Y-63950580D01*
X32180947Y-63950580D01*
X32276185Y-63998200D01*
X32323804Y-64045819D01*
X32371423Y-64141057D01*
X32371423Y-64236295D01*
X32323804Y-64379152D01*
X31752376Y-64950580D01*
X32371423Y-64950580D01*
X33323804Y-64950580D02*
X32752376Y-64950580D01*
X33038090Y-64950580D02*
X33038090Y-63950580D01*
X32942852Y-64093438D01*
X32847614Y-64188676D01*
X32752376Y-64236295D01*
X50847614Y-59950580D02*
X50847614Y-58950580D01*
X51085709Y-58950580D01*
X51228566Y-58998200D01*
X51323804Y-59093438D01*
X51371423Y-59188676D01*
X51419042Y-59379152D01*
X51419042Y-59522009D01*
X51371423Y-59712485D01*
X51323804Y-59807723D01*
X51228566Y-59902961D01*
X51085709Y-59950580D01*
X50847614Y-59950580D01*
X51799995Y-59045819D02*
X51847614Y-58998200D01*
X51942852Y-58950580D01*
X52180947Y-58950580D01*
X52276185Y-58998200D01*
X52323804Y-59045819D01*
X52371423Y-59141057D01*
X52371423Y-59236295D01*
X52323804Y-59379152D01*
X51752376Y-59950580D01*
X52371423Y-59950580D01*
X52990471Y-58950580D02*
X53085709Y-58950580D01*
X53180947Y-58998200D01*
X53228566Y-59045819D01*
X53276185Y-59141057D01*
X53323804Y-59331533D01*
X53323804Y-59569628D01*
X53276185Y-59760104D01*
X53228566Y-59855342D01*
X53180947Y-59902961D01*
X53085709Y-59950580D01*
X52990471Y-59950580D01*
X52895233Y-59902961D01*
X52847614Y-59855342D01*
X52799995Y-59760104D01*
X52752376Y-59569628D01*
X52752376Y-59331533D01*
X52799995Y-59141057D01*
X52847614Y-59045819D01*
X52895233Y-58998200D01*
X52990471Y-58950580D01*
X35847614Y-64950580D02*
X35847614Y-63950580D01*
X36085709Y-63950580D01*
X36228566Y-63998200D01*
X36323804Y-64093438D01*
X36371423Y-64188676D01*
X36419042Y-64379152D01*
X36419042Y-64522009D01*
X36371423Y-64712485D01*
X36323804Y-64807723D01*
X36228566Y-64902961D01*
X36085709Y-64950580D01*
X35847614Y-64950580D01*
X36799995Y-64045819D02*
X36847614Y-63998200D01*
X36942852Y-63950580D01*
X37180947Y-63950580D01*
X37276185Y-63998200D01*
X37323804Y-64045819D01*
X37371423Y-64141057D01*
X37371423Y-64236295D01*
X37323804Y-64379152D01*
X36752376Y-64950580D01*
X37371423Y-64950580D01*
X37752376Y-64045819D02*
X37799995Y-63998200D01*
X37895233Y-63950580D01*
X38133328Y-63950580D01*
X38228566Y-63998200D01*
X38276185Y-64045819D01*
X38323804Y-64141057D01*
X38323804Y-64236295D01*
X38276185Y-64379152D01*
X37704757Y-64950580D01*
X38323804Y-64950580D01*
X45847614Y-64950580D02*
X45847614Y-63950580D01*
X46085709Y-63950580D01*
X46228566Y-63998200D01*
X46323804Y-64093438D01*
X46371423Y-64188676D01*
X46419042Y-64379152D01*
X46419042Y-64522009D01*
X46371423Y-64712485D01*
X46323804Y-64807723D01*
X46228566Y-64902961D01*
X46085709Y-64950580D01*
X45847614Y-64950580D01*
X46799995Y-64045819D02*
X46847614Y-63998200D01*
X46942852Y-63950580D01*
X47180947Y-63950580D01*
X47276185Y-63998200D01*
X47323804Y-64045819D01*
X47371423Y-64141057D01*
X47371423Y-64236295D01*
X47323804Y-64379152D01*
X46752376Y-64950580D01*
X47371423Y-64950580D01*
X48228566Y-64283914D02*
X48228566Y-64950580D01*
X47990471Y-63902961D02*
X47752376Y-64617247D01*
X48371423Y-64617247D01*
X45847614Y-59950580D02*
X45847614Y-58950580D01*
X46085709Y-58950580D01*
X46228566Y-58998200D01*
X46323804Y-59093438D01*
X46371423Y-59188676D01*
X46419042Y-59379152D01*
X46419042Y-59522009D01*
X46371423Y-59712485D01*
X46323804Y-59807723D01*
X46228566Y-59902961D01*
X46085709Y-59950580D01*
X45847614Y-59950580D01*
X47371423Y-59950580D02*
X46799995Y-59950580D01*
X47085709Y-59950580D02*
X47085709Y-58950580D01*
X46990471Y-59093438D01*
X46895233Y-59188676D01*
X46799995Y-59236295D01*
X47847614Y-59950580D02*
X48038090Y-59950580D01*
X48133328Y-59902961D01*
X48180947Y-59855342D01*
X48276185Y-59712485D01*
X48323804Y-59522009D01*
X48323804Y-59141057D01*
X48276185Y-59045819D01*
X48228566Y-58998200D01*
X48133328Y-58950580D01*
X47942852Y-58950580D01*
X47847614Y-58998200D01*
X47799995Y-59045819D01*
X47752376Y-59141057D01*
X47752376Y-59379152D01*
X47799995Y-59474390D01*
X47847614Y-59522009D01*
X47942852Y-59569628D01*
X48133328Y-59569628D01*
X48228566Y-59522009D01*
X48276185Y-59474390D01*
X48323804Y-59379152D01*
X40847614Y-64950580D02*
X40847614Y-63950580D01*
X41085709Y-63950580D01*
X41228566Y-63998200D01*
X41323804Y-64093438D01*
X41371423Y-64188676D01*
X41419042Y-64379152D01*
X41419042Y-64522009D01*
X41371423Y-64712485D01*
X41323804Y-64807723D01*
X41228566Y-64902961D01*
X41085709Y-64950580D01*
X40847614Y-64950580D01*
X41799995Y-64045819D02*
X41847614Y-63998200D01*
X41942852Y-63950580D01*
X42180947Y-63950580D01*
X42276185Y-63998200D01*
X42323804Y-64045819D01*
X42371423Y-64141057D01*
X42371423Y-64236295D01*
X42323804Y-64379152D01*
X41752376Y-64950580D01*
X42371423Y-64950580D01*
X42704757Y-63950580D02*
X43323804Y-63950580D01*
X42990471Y-64331533D01*
X43133328Y-64331533D01*
X43228566Y-64379152D01*
X43276185Y-64426771D01*
X43323804Y-64522009D01*
X43323804Y-64760104D01*
X43276185Y-64855342D01*
X43228566Y-64902961D01*
X43133328Y-64950580D01*
X42847614Y-64950580D01*
X42752376Y-64902961D01*
X42704757Y-64855342D01*
X40847614Y-59950580D02*
X40847614Y-58950580D01*
X41085709Y-58950580D01*
X41228566Y-58998200D01*
X41323804Y-59093438D01*
X41371423Y-59188676D01*
X41419042Y-59379152D01*
X41419042Y-59522009D01*
X41371423Y-59712485D01*
X41323804Y-59807723D01*
X41228566Y-59902961D01*
X41085709Y-59950580D01*
X40847614Y-59950580D01*
X42371423Y-59950580D02*
X41799995Y-59950580D01*
X42085709Y-59950580D02*
X42085709Y-58950580D01*
X41990471Y-59093438D01*
X41895233Y-59188676D01*
X41799995Y-59236295D01*
X42942852Y-59379152D02*
X42847614Y-59331533D01*
X42799995Y-59283914D01*
X42752376Y-59188676D01*
X42752376Y-59141057D01*
X42799995Y-59045819D01*
X42847614Y-58998200D01*
X42942852Y-58950580D01*
X43133328Y-58950580D01*
X43228566Y-58998200D01*
X43276185Y-59045819D01*
X43323804Y-59141057D01*
X43323804Y-59188676D01*
X43276185Y-59283914D01*
X43228566Y-59331533D01*
X43133328Y-59379152D01*
X42942852Y-59379152D01*
X42847614Y-59426771D01*
X42799995Y-59474390D01*
X42752376Y-59569628D01*
X42752376Y-59760104D01*
X42799995Y-59855342D01*
X42847614Y-59902961D01*
X42942852Y-59950580D01*
X43133328Y-59950580D01*
X43228566Y-59902961D01*
X43276185Y-59855342D01*
X43323804Y-59760104D01*
X43323804Y-59569628D01*
X43276185Y-59474390D01*
X43228566Y-59426771D01*
X43133328Y-59379152D01*
X36323804Y-44950580D02*
X36323804Y-43950580D01*
X36561900Y-43950580D01*
X36704757Y-43998200D01*
X36799995Y-44093438D01*
X36847614Y-44188676D01*
X36895233Y-44379152D01*
X36895233Y-44522009D01*
X36847614Y-44712485D01*
X36799995Y-44807723D01*
X36704757Y-44902961D01*
X36561900Y-44950580D01*
X36323804Y-44950580D01*
X37276185Y-44045819D02*
X37323804Y-43998200D01*
X37419042Y-43950580D01*
X37657138Y-43950580D01*
X37752376Y-43998200D01*
X37799995Y-44045819D01*
X37847614Y-44141057D01*
X37847614Y-44236295D01*
X37799995Y-44379152D01*
X37228566Y-44950580D01*
X37847614Y-44950580D01*
X50847614Y-54950580D02*
X50847614Y-53950580D01*
X51085709Y-53950580D01*
X51228566Y-53998200D01*
X51323804Y-54093438D01*
X51371423Y-54188676D01*
X51419042Y-54379152D01*
X51419042Y-54522009D01*
X51371423Y-54712485D01*
X51323804Y-54807723D01*
X51228566Y-54902961D01*
X51085709Y-54950580D01*
X50847614Y-54950580D01*
X52371423Y-54950580D02*
X51799995Y-54950580D01*
X52085709Y-54950580D02*
X52085709Y-53950580D01*
X51990471Y-54093438D01*
X51895233Y-54188676D01*
X51799995Y-54236295D01*
X53276185Y-53950580D02*
X52799995Y-53950580D01*
X52752376Y-54426771D01*
X52799995Y-54379152D01*
X52895233Y-54331533D01*
X53133328Y-54331533D01*
X53228566Y-54379152D01*
X53276185Y-54426771D01*
X53323804Y-54522009D01*
X53323804Y-54760104D01*
X53276185Y-54855342D01*
X53228566Y-54902961D01*
X53133328Y-54950580D01*
X52895233Y-54950580D01*
X52799995Y-54902961D01*
X52752376Y-54855342D01*
X30847614Y-54950580D02*
X30847614Y-53950580D01*
X31085709Y-53950580D01*
X31228566Y-53998200D01*
X31323804Y-54093438D01*
X31371423Y-54188676D01*
X31419042Y-54379152D01*
X31419042Y-54522009D01*
X31371423Y-54712485D01*
X31323804Y-54807723D01*
X31228566Y-54902961D01*
X31085709Y-54950580D01*
X30847614Y-54950580D01*
X32371423Y-54950580D02*
X31799995Y-54950580D01*
X32085709Y-54950580D02*
X32085709Y-53950580D01*
X31990471Y-54093438D01*
X31895233Y-54188676D01*
X31799995Y-54236295D01*
X33323804Y-54950580D02*
X32752376Y-54950580D01*
X33038090Y-54950580D02*
X33038090Y-53950580D01*
X32942852Y-54093438D01*
X32847614Y-54188676D01*
X32752376Y-54236295D01*
X35847614Y-59950580D02*
X35847614Y-58950580D01*
X36085709Y-58950580D01*
X36228566Y-58998200D01*
X36323804Y-59093438D01*
X36371423Y-59188676D01*
X36419042Y-59379152D01*
X36419042Y-59522009D01*
X36371423Y-59712485D01*
X36323804Y-59807723D01*
X36228566Y-59902961D01*
X36085709Y-59950580D01*
X35847614Y-59950580D01*
X37371423Y-59950580D02*
X36799995Y-59950580D01*
X37085709Y-59950580D02*
X37085709Y-58950580D01*
X36990471Y-59093438D01*
X36895233Y-59188676D01*
X36799995Y-59236295D01*
X37704757Y-58950580D02*
X38371423Y-58950580D01*
X37942852Y-59950580D01*
X36323804Y-49950580D02*
X36323804Y-48950580D01*
X36561900Y-48950580D01*
X36704757Y-48998200D01*
X36799995Y-49093438D01*
X36847614Y-49188676D01*
X36895233Y-49379152D01*
X36895233Y-49522009D01*
X36847614Y-49712485D01*
X36799995Y-49807723D01*
X36704757Y-49902961D01*
X36561900Y-49950580D01*
X36323804Y-49950580D01*
X37228566Y-48950580D02*
X37895233Y-48950580D01*
X37466661Y-49950580D01*
X51323804Y-44950580D02*
X51323804Y-43950580D01*
X51561900Y-43950580D01*
X51704757Y-43998200D01*
X51799995Y-44093438D01*
X51847614Y-44188676D01*
X51895233Y-44379152D01*
X51895233Y-44522009D01*
X51847614Y-44712485D01*
X51799995Y-44807723D01*
X51704757Y-44902961D01*
X51561900Y-44950580D01*
X51323804Y-44950580D01*
X52799995Y-43950580D02*
X52323804Y-43950580D01*
X52276185Y-44426771D01*
X52323804Y-44379152D01*
X52419042Y-44331533D01*
X52657138Y-44331533D01*
X52752376Y-44379152D01*
X52799995Y-44426771D01*
X52847614Y-44522009D01*
X52847614Y-44760104D01*
X52799995Y-44855342D01*
X52752376Y-44902961D01*
X52657138Y-44950580D01*
X52419042Y-44950580D01*
X52323804Y-44902961D01*
X52276185Y-44855342D01*
X41323804Y-44950580D02*
X41323804Y-43950580D01*
X41561900Y-43950580D01*
X41704757Y-43998200D01*
X41799995Y-44093438D01*
X41847614Y-44188676D01*
X41895233Y-44379152D01*
X41895233Y-44522009D01*
X41847614Y-44712485D01*
X41799995Y-44807723D01*
X41704757Y-44902961D01*
X41561900Y-44950580D01*
X41323804Y-44950580D01*
X42228566Y-43950580D02*
X42847614Y-43950580D01*
X42514280Y-44331533D01*
X42657138Y-44331533D01*
X42752376Y-44379152D01*
X42799995Y-44426771D01*
X42847614Y-44522009D01*
X42847614Y-44760104D01*
X42799995Y-44855342D01*
X42752376Y-44902961D01*
X42657138Y-44950580D01*
X42371423Y-44950580D01*
X42276185Y-44902961D01*
X42228566Y-44855342D01*
X35847614Y-54950580D02*
X35847614Y-53950580D01*
X36085709Y-53950580D01*
X36228566Y-53998200D01*
X36323804Y-54093438D01*
X36371423Y-54188676D01*
X36419042Y-54379152D01*
X36419042Y-54522009D01*
X36371423Y-54712485D01*
X36323804Y-54807723D01*
X36228566Y-54902961D01*
X36085709Y-54950580D01*
X35847614Y-54950580D01*
X37371423Y-54950580D02*
X36799995Y-54950580D01*
X37085709Y-54950580D02*
X37085709Y-53950580D01*
X36990471Y-54093438D01*
X36895233Y-54188676D01*
X36799995Y-54236295D01*
X37752376Y-54045819D02*
X37799995Y-53998200D01*
X37895233Y-53950580D01*
X38133328Y-53950580D01*
X38228566Y-53998200D01*
X38276185Y-54045819D01*
X38323804Y-54141057D01*
X38323804Y-54236295D01*
X38276185Y-54379152D01*
X37704757Y-54950580D01*
X38323804Y-54950580D01*
X45847614Y-54950580D02*
X45847614Y-53950580D01*
X46085709Y-53950580D01*
X46228566Y-53998200D01*
X46323804Y-54093438D01*
X46371423Y-54188676D01*
X46419042Y-54379152D01*
X46419042Y-54522009D01*
X46371423Y-54712485D01*
X46323804Y-54807723D01*
X46228566Y-54902961D01*
X46085709Y-54950580D01*
X45847614Y-54950580D01*
X47371423Y-54950580D02*
X46799995Y-54950580D01*
X47085709Y-54950580D02*
X47085709Y-53950580D01*
X46990471Y-54093438D01*
X46895233Y-54188676D01*
X46799995Y-54236295D01*
X48228566Y-54283914D02*
X48228566Y-54950580D01*
X47990471Y-53902961D02*
X47752376Y-54617247D01*
X48371423Y-54617247D01*
X46323804Y-49950580D02*
X46323804Y-48950580D01*
X46561900Y-48950580D01*
X46704757Y-48998200D01*
X46799995Y-49093438D01*
X46847614Y-49188676D01*
X46895233Y-49379152D01*
X46895233Y-49522009D01*
X46847614Y-49712485D01*
X46799995Y-49807723D01*
X46704757Y-49902961D01*
X46561900Y-49950580D01*
X46323804Y-49950580D01*
X47371423Y-49950580D02*
X47561900Y-49950580D01*
X47657138Y-49902961D01*
X47704757Y-49855342D01*
X47799995Y-49712485D01*
X47847614Y-49522009D01*
X47847614Y-49141057D01*
X47799995Y-49045819D01*
X47752376Y-48998200D01*
X47657138Y-48950580D01*
X47466661Y-48950580D01*
X47371423Y-48998200D01*
X47323804Y-49045819D01*
X47276185Y-49141057D01*
X47276185Y-49379152D01*
X47323804Y-49474390D01*
X47371423Y-49522009D01*
X47466661Y-49569628D01*
X47657138Y-49569628D01*
X47752376Y-49522009D01*
X47799995Y-49474390D01*
X47847614Y-49379152D01*
X30847614Y-59950580D02*
X30847614Y-58950580D01*
X31085709Y-58950580D01*
X31228566Y-58998200D01*
X31323804Y-59093438D01*
X31371423Y-59188676D01*
X31419042Y-59379152D01*
X31419042Y-59522009D01*
X31371423Y-59712485D01*
X31323804Y-59807723D01*
X31228566Y-59902961D01*
X31085709Y-59950580D01*
X30847614Y-59950580D01*
X32371423Y-59950580D02*
X31799995Y-59950580D01*
X32085709Y-59950580D02*
X32085709Y-58950580D01*
X31990471Y-59093438D01*
X31895233Y-59188676D01*
X31799995Y-59236295D01*
X33228566Y-58950580D02*
X33038090Y-58950580D01*
X32942852Y-58998200D01*
X32895233Y-59045819D01*
X32799995Y-59188676D01*
X32752376Y-59379152D01*
X32752376Y-59760104D01*
X32799995Y-59855342D01*
X32847614Y-59902961D01*
X32942852Y-59950580D01*
X33133328Y-59950580D01*
X33228566Y-59902961D01*
X33276185Y-59855342D01*
X33323804Y-59760104D01*
X33323804Y-59522009D01*
X33276185Y-59426771D01*
X33228566Y-59379152D01*
X33133328Y-59331533D01*
X32942852Y-59331533D01*
X32847614Y-59379152D01*
X32799995Y-59426771D01*
X32752376Y-59522009D01*
X41323804Y-49950580D02*
X41323804Y-48950580D01*
X41561900Y-48950580D01*
X41704757Y-48998200D01*
X41799995Y-49093438D01*
X41847614Y-49188676D01*
X41895233Y-49379152D01*
X41895233Y-49522009D01*
X41847614Y-49712485D01*
X41799995Y-49807723D01*
X41704757Y-49902961D01*
X41561900Y-49950580D01*
X41323804Y-49950580D01*
X42466661Y-49379152D02*
X42371423Y-49331533D01*
X42323804Y-49283914D01*
X42276185Y-49188676D01*
X42276185Y-49141057D01*
X42323804Y-49045819D01*
X42371423Y-48998200D01*
X42466661Y-48950580D01*
X42657138Y-48950580D01*
X42752376Y-48998200D01*
X42799995Y-49045819D01*
X42847614Y-49141057D01*
X42847614Y-49188676D01*
X42799995Y-49283914D01*
X42752376Y-49331533D01*
X42657138Y-49379152D01*
X42466661Y-49379152D01*
X42371423Y-49426771D01*
X42323804Y-49474390D01*
X42276185Y-49569628D01*
X42276185Y-49760104D01*
X42323804Y-49855342D01*
X42371423Y-49902961D01*
X42466661Y-49950580D01*
X42657138Y-49950580D01*
X42752376Y-49902961D01*
X42799995Y-49855342D01*
X42847614Y-49760104D01*
X42847614Y-49569628D01*
X42799995Y-49474390D01*
X42752376Y-49426771D01*
X42657138Y-49379152D01*
X46323804Y-44950580D02*
X46323804Y-43950580D01*
X46561900Y-43950580D01*
X46704757Y-43998200D01*
X46799995Y-44093438D01*
X46847614Y-44188676D01*
X46895233Y-44379152D01*
X46895233Y-44522009D01*
X46847614Y-44712485D01*
X46799995Y-44807723D01*
X46704757Y-44902961D01*
X46561900Y-44950580D01*
X46323804Y-44950580D01*
X47752376Y-44283914D02*
X47752376Y-44950580D01*
X47514280Y-43902961D02*
X47276185Y-44617247D01*
X47895233Y-44617247D01*
X40847614Y-54950580D02*
X40847614Y-53950580D01*
X41085709Y-53950580D01*
X41228566Y-53998200D01*
X41323804Y-54093438D01*
X41371423Y-54188676D01*
X41419042Y-54379152D01*
X41419042Y-54522009D01*
X41371423Y-54712485D01*
X41323804Y-54807723D01*
X41228566Y-54902961D01*
X41085709Y-54950580D01*
X40847614Y-54950580D01*
X42371423Y-54950580D02*
X41799995Y-54950580D01*
X42085709Y-54950580D02*
X42085709Y-53950580D01*
X41990471Y-54093438D01*
X41895233Y-54188676D01*
X41799995Y-54236295D01*
X42704757Y-53950580D02*
X43323804Y-53950580D01*
X42990471Y-54331533D01*
X43133328Y-54331533D01*
X43228566Y-54379152D01*
X43276185Y-54426771D01*
X43323804Y-54522009D01*
X43323804Y-54760104D01*
X43276185Y-54855342D01*
X43228566Y-54902961D01*
X43133328Y-54950580D01*
X42847614Y-54950580D01*
X42752376Y-54902961D01*
X42704757Y-54855342D01*
X50847614Y-49950580D02*
X50847614Y-48950580D01*
X51085709Y-48950580D01*
X51228566Y-48998200D01*
X51323804Y-49093438D01*
X51371423Y-49188676D01*
X51419042Y-49379152D01*
X51419042Y-49522009D01*
X51371423Y-49712485D01*
X51323804Y-49807723D01*
X51228566Y-49902961D01*
X51085709Y-49950580D01*
X50847614Y-49950580D01*
X52371423Y-49950580D02*
X51799995Y-49950580D01*
X52085709Y-49950580D02*
X52085709Y-48950580D01*
X51990471Y-49093438D01*
X51895233Y-49188676D01*
X51799995Y-49236295D01*
X52990471Y-48950580D02*
X53085709Y-48950580D01*
X53180947Y-48998200D01*
X53228566Y-49045819D01*
X53276185Y-49141057D01*
X53323804Y-49331533D01*
X53323804Y-49569628D01*
X53276185Y-49760104D01*
X53228566Y-49855342D01*
X53180947Y-49902961D01*
X53085709Y-49950580D01*
X52990471Y-49950580D01*
X52895233Y-49902961D01*
X52847614Y-49855342D01*
X52799995Y-49760104D01*
X52752376Y-49569628D01*
X52752376Y-49331533D01*
X52799995Y-49141057D01*
X52847614Y-49045819D01*
X52895233Y-48998200D01*
X52990471Y-48950580D01*
X31323804Y-49950580D02*
X31323804Y-48950580D01*
X31561900Y-48950580D01*
X31704757Y-48998200D01*
X31799995Y-49093438D01*
X31847614Y-49188676D01*
X31895233Y-49379152D01*
X31895233Y-49522009D01*
X31847614Y-49712485D01*
X31799995Y-49807723D01*
X31704757Y-49902961D01*
X31561900Y-49950580D01*
X31323804Y-49950580D01*
X32752376Y-48950580D02*
X32561900Y-48950580D01*
X32466661Y-48998200D01*
X32419042Y-49045819D01*
X32323804Y-49188676D01*
X32276185Y-49379152D01*
X32276185Y-49760104D01*
X32323804Y-49855342D01*
X32371423Y-49902961D01*
X32466661Y-49950580D01*
X32657138Y-49950580D01*
X32752376Y-49902961D01*
X32799995Y-49855342D01*
X32847614Y-49760104D01*
X32847614Y-49522009D01*
X32799995Y-49426771D01*
X32752376Y-49379152D01*
X32657138Y-49331533D01*
X32466661Y-49331533D01*
X32371423Y-49379152D01*
X32323804Y-49426771D01*
X32276185Y-49522009D01*
X31323804Y-44950580D02*
X31323804Y-43950580D01*
X31561900Y-43950580D01*
X31704757Y-43998200D01*
X31799995Y-44093438D01*
X31847614Y-44188676D01*
X31895233Y-44379152D01*
X31895233Y-44522009D01*
X31847614Y-44712485D01*
X31799995Y-44807723D01*
X31704757Y-44902961D01*
X31561900Y-44950580D01*
X31323804Y-44950580D01*
X32847614Y-44950580D02*
X32276185Y-44950580D01*
X32561900Y-44950580D02*
X32561900Y-43950580D01*
X32466661Y-44093438D01*
X32371423Y-44188676D01*
X32276185Y-44236295D01*
X21070890Y-7677090D02*
X21547080Y-7677090D01*
X20547080Y-8010423D02*
X21070890Y-7677090D01*
X20547080Y-7343757D01*
X21547080Y-6486614D02*
X21547080Y-7058042D01*
X21547080Y-6772328D02*
X20547080Y-6772328D01*
X20689938Y-6867566D01*
X20785176Y-6962804D01*
X20832795Y-7058042D01*
X60871266Y-32103961D02*
X61014123Y-32151580D01*
X61252219Y-32151580D01*
X61347457Y-32103961D01*
X61395076Y-32056342D01*
X61442695Y-31961104D01*
X61442695Y-31865866D01*
X61395076Y-31770628D01*
X61347457Y-31723009D01*
X61252219Y-31675390D01*
X61061742Y-31627771D01*
X60966504Y-31580152D01*
X60918885Y-31532533D01*
X60871266Y-31437295D01*
X60871266Y-31342057D01*
X60918885Y-31246819D01*
X60966504Y-31199200D01*
X61061742Y-31151580D01*
X61299838Y-31151580D01*
X61442695Y-31199200D01*
X61776028Y-31151580D02*
X62014123Y-32151580D01*
X62204600Y-31437295D01*
X62395076Y-32151580D01*
X62633171Y-31151580D01*
X62966504Y-31246819D02*
X63014123Y-31199200D01*
X63109361Y-31151580D01*
X63347457Y-31151580D01*
X63442695Y-31199200D01*
X63490314Y-31246819D01*
X63537933Y-31342057D01*
X63537933Y-31437295D01*
X63490314Y-31580152D01*
X62918885Y-32151580D01*
X63537933Y-32151580D01*
X66281466Y-12076061D02*
X66424323Y-12123680D01*
X66662419Y-12123680D01*
X66757657Y-12076061D01*
X66805276Y-12028442D01*
X66852895Y-11933204D01*
X66852895Y-11837966D01*
X66805276Y-11742728D01*
X66757657Y-11695109D01*
X66662419Y-11647490D01*
X66471942Y-11599871D01*
X66376704Y-11552252D01*
X66329085Y-11504633D01*
X66281466Y-11409395D01*
X66281466Y-11314157D01*
X66329085Y-11218919D01*
X66376704Y-11171300D01*
X66471942Y-11123680D01*
X66710038Y-11123680D01*
X66852895Y-11171300D01*
X67186228Y-11123680D02*
X67424323Y-12123680D01*
X67614800Y-11409395D01*
X67805276Y-12123680D01*
X68043371Y-11123680D01*
X68948133Y-12123680D02*
X68376704Y-12123680D01*
X68662419Y-12123680D02*
X68662419Y-11123680D01*
X68567180Y-11266538D01*
X68471942Y-11361776D01*
X68376704Y-11409395D01*
X15204761Y-60952380D02*
X14871428Y-60476190D01*
X14633333Y-60952380D02*
X14633333Y-59952380D01*
X15014285Y-59952380D01*
X15109523Y-60000000D01*
X15157142Y-60047619D01*
X15204761Y-60142857D01*
X15204761Y-60285714D01*
X15157142Y-60380952D01*
X15109523Y-60428571D01*
X15014285Y-60476190D01*
X14633333Y-60476190D01*
X15490476Y-59952380D02*
X15823809Y-60952380D01*
X16157142Y-59952380D01*
X17014285Y-60952380D02*
X16442857Y-60952380D01*
X16728571Y-60952380D02*
X16728571Y-59952380D01*
X16633333Y-60095238D01*
X16538095Y-60190476D01*
X16442857Y-60238095D01*
X70010280Y-38096723D02*
X69010280Y-38096723D01*
X69724566Y-37763390D01*
X69010280Y-37430057D01*
X70010280Y-37430057D01*
X69105519Y-37001485D02*
X69057900Y-36953866D01*
X69010280Y-36858628D01*
X69010280Y-36620533D01*
X69057900Y-36525295D01*
X69105519Y-36477676D01*
X69200757Y-36430057D01*
X69295995Y-36430057D01*
X69438852Y-36477676D01*
X70010280Y-37049104D01*
X70010280Y-36430057D01*
X9596380Y-49526723D02*
X8596380Y-49526723D01*
X9310666Y-49193390D01*
X8596380Y-48860057D01*
X9596380Y-48860057D01*
X9596380Y-47860057D02*
X9596380Y-48431485D01*
X9596380Y-48145771D02*
X8596380Y-48145771D01*
X8739238Y-48241009D01*
X8834476Y-48336247D01*
X8882095Y-48431485D01*
X13179466Y-4633980D02*
X13179466Y-5348266D01*
X13131847Y-5491123D01*
X13036609Y-5586361D01*
X12893752Y-5633980D01*
X12798514Y-5633980D01*
X14179466Y-5633980D02*
X13608038Y-5633980D01*
X13893752Y-5633980D02*
X13893752Y-4633980D01*
X13798514Y-4776838D01*
X13703276Y-4872076D01*
X13608038Y-4919695D01*
X75590495Y-89123780D02*
X75590495Y-88123780D01*
X75590495Y-88599971D02*
X76161923Y-88599971D01*
X76161923Y-89123780D02*
X76161923Y-88123780D01*
X76542876Y-88123780D02*
X77161923Y-88123780D01*
X76828590Y-88504733D01*
X76971447Y-88504733D01*
X77066685Y-88552352D01*
X77114304Y-88599971D01*
X77161923Y-88695209D01*
X77161923Y-88933304D01*
X77114304Y-89028542D01*
X77066685Y-89076161D01*
X76971447Y-89123780D01*
X76685733Y-89123780D01*
X76590495Y-89076161D01*
X76542876Y-89028542D01*
X72338095Y-7952380D02*
X72338095Y-6952380D01*
X72338095Y-7428571D02*
X72909523Y-7428571D01*
X72909523Y-7952380D02*
X72909523Y-6952380D01*
X73338095Y-7047619D02*
X73385714Y-7000000D01*
X73480952Y-6952380D01*
X73719047Y-6952380D01*
X73814285Y-7000000D01*
X73861904Y-7047619D01*
X73909523Y-7142857D01*
X73909523Y-7238095D01*
X73861904Y-7380952D01*
X73290476Y-7952380D01*
X73909523Y-7952380D01*
X4538095Y-8352380D02*
X4538095Y-7352380D01*
X4538095Y-7828571D02*
X5109523Y-7828571D01*
X5109523Y-8352380D02*
X5109523Y-7352380D01*
X6109523Y-8352380D02*
X5538095Y-8352380D01*
X5823809Y-8352380D02*
X5823809Y-7352380D01*
X5728571Y-7495238D01*
X5633333Y-7590476D01*
X5538095Y-7638095D01*
X3585714Y-65252380D02*
X3585714Y-64252380D01*
X3823809Y-64252380D01*
X3966666Y-64300000D01*
X4061904Y-64395238D01*
X4109523Y-64490476D01*
X4157142Y-64680952D01*
X4157142Y-64823809D01*
X4109523Y-65014285D01*
X4061904Y-65109523D01*
X3966666Y-65204761D01*
X3823809Y-65252380D01*
X3585714Y-65252380D01*
X4490476Y-64252380D02*
X5109523Y-64252380D01*
X4776190Y-64633333D01*
X4919047Y-64633333D01*
X5014285Y-64680952D01*
X5061904Y-64728571D01*
X5109523Y-64823809D01*
X5109523Y-65061904D01*
X5061904Y-65157142D01*
X5014285Y-65204761D01*
X4919047Y-65252380D01*
X4633333Y-65252380D01*
X4538095Y-65204761D01*
X4490476Y-65157142D01*
X5490476Y-64347619D02*
X5538095Y-64300000D01*
X5633333Y-64252380D01*
X5871428Y-64252380D01*
X5966666Y-64300000D01*
X6014285Y-64347619D01*
X6061904Y-64442857D01*
X6061904Y-64538095D01*
X6014285Y-64680952D01*
X5442857Y-65252380D01*
X6061904Y-65252380D01*
X7612214Y-57640480D02*
X7612214Y-56640480D01*
X7850309Y-56640480D01*
X7993166Y-56688100D01*
X8088404Y-56783338D01*
X8136023Y-56878576D01*
X8183642Y-57069052D01*
X8183642Y-57211909D01*
X8136023Y-57402385D01*
X8088404Y-57497623D01*
X7993166Y-57592861D01*
X7850309Y-57640480D01*
X7612214Y-57640480D01*
X8516976Y-56640480D02*
X9136023Y-56640480D01*
X8802690Y-57021433D01*
X8945547Y-57021433D01*
X9040785Y-57069052D01*
X9088404Y-57116671D01*
X9136023Y-57211909D01*
X9136023Y-57450004D01*
X9088404Y-57545242D01*
X9040785Y-57592861D01*
X8945547Y-57640480D01*
X8659833Y-57640480D01*
X8564595Y-57592861D01*
X8516976Y-57545242D01*
X10088404Y-57640480D02*
X9516976Y-57640480D01*
X9802690Y-57640480D02*
X9802690Y-56640480D01*
X9707452Y-56783338D01*
X9612214Y-56878576D01*
X9516976Y-56926195D01*
X66730714Y-65082680D02*
X66730714Y-64082680D01*
X66968809Y-64082680D01*
X67111666Y-64130300D01*
X67206904Y-64225538D01*
X67254523Y-64320776D01*
X67302142Y-64511252D01*
X67302142Y-64654109D01*
X67254523Y-64844585D01*
X67206904Y-64939823D01*
X67111666Y-65035061D01*
X66968809Y-65082680D01*
X66730714Y-65082680D01*
X67635476Y-64082680D02*
X68254523Y-64082680D01*
X67921190Y-64463633D01*
X68064047Y-64463633D01*
X68159285Y-64511252D01*
X68206904Y-64558871D01*
X68254523Y-64654109D01*
X68254523Y-64892204D01*
X68206904Y-64987442D01*
X68159285Y-65035061D01*
X68064047Y-65082680D01*
X67778333Y-65082680D01*
X67683095Y-65035061D01*
X67635476Y-64987442D01*
X68873571Y-64082680D02*
X68968809Y-64082680D01*
X69064047Y-64130300D01*
X69111666Y-64177919D01*
X69159285Y-64273157D01*
X69206904Y-64463633D01*
X69206904Y-64701728D01*
X69159285Y-64892204D01*
X69111666Y-64987442D01*
X69064047Y-65035061D01*
X68968809Y-65082680D01*
X68873571Y-65082680D01*
X68778333Y-65035061D01*
X68730714Y-64987442D01*
X68683095Y-64892204D01*
X68635476Y-64701728D01*
X68635476Y-64463633D01*
X68683095Y-64273157D01*
X68730714Y-64177919D01*
X68778333Y-64130300D01*
X68873571Y-64082680D01*
X66565614Y-60269380D02*
X66565614Y-59269380D01*
X66803709Y-59269380D01*
X66946566Y-59317000D01*
X67041804Y-59412238D01*
X67089423Y-59507476D01*
X67137042Y-59697952D01*
X67137042Y-59840809D01*
X67089423Y-60031285D01*
X67041804Y-60126523D01*
X66946566Y-60221761D01*
X66803709Y-60269380D01*
X66565614Y-60269380D01*
X67517995Y-59364619D02*
X67565614Y-59317000D01*
X67660852Y-59269380D01*
X67898947Y-59269380D01*
X67994185Y-59317000D01*
X68041804Y-59364619D01*
X68089423Y-59459857D01*
X68089423Y-59555095D01*
X68041804Y-59697952D01*
X67470376Y-60269380D01*
X68089423Y-60269380D01*
X68565614Y-60269380D02*
X68756090Y-60269380D01*
X68851328Y-60221761D01*
X68898947Y-60174142D01*
X68994185Y-60031285D01*
X69041804Y-59840809D01*
X69041804Y-59459857D01*
X68994185Y-59364619D01*
X68946566Y-59317000D01*
X68851328Y-59269380D01*
X68660852Y-59269380D01*
X68565614Y-59317000D01*
X68517995Y-59364619D01*
X68470376Y-59459857D01*
X68470376Y-59697952D01*
X68517995Y-59793190D01*
X68565614Y-59840809D01*
X68660852Y-59888428D01*
X68851328Y-59888428D01*
X68946566Y-59840809D01*
X68994185Y-59793190D01*
X69041804Y-59697952D01*
X66489414Y-55621180D02*
X66489414Y-54621180D01*
X66727509Y-54621180D01*
X66870366Y-54668800D01*
X66965604Y-54764038D01*
X67013223Y-54859276D01*
X67060842Y-55049752D01*
X67060842Y-55192609D01*
X67013223Y-55383085D01*
X66965604Y-55478323D01*
X66870366Y-55573561D01*
X66727509Y-55621180D01*
X66489414Y-55621180D01*
X67441795Y-54716419D02*
X67489414Y-54668800D01*
X67584652Y-54621180D01*
X67822747Y-54621180D01*
X67917985Y-54668800D01*
X67965604Y-54716419D01*
X68013223Y-54811657D01*
X68013223Y-54906895D01*
X67965604Y-55049752D01*
X67394176Y-55621180D01*
X68013223Y-55621180D01*
X68584652Y-55049752D02*
X68489414Y-55002133D01*
X68441795Y-54954514D01*
X68394176Y-54859276D01*
X68394176Y-54811657D01*
X68441795Y-54716419D01*
X68489414Y-54668800D01*
X68584652Y-54621180D01*
X68775128Y-54621180D01*
X68870366Y-54668800D01*
X68917985Y-54716419D01*
X68965604Y-54811657D01*
X68965604Y-54859276D01*
X68917985Y-54954514D01*
X68870366Y-55002133D01*
X68775128Y-55049752D01*
X68584652Y-55049752D01*
X68489414Y-55097371D01*
X68441795Y-55144990D01*
X68394176Y-55240228D01*
X68394176Y-55430704D01*
X68441795Y-55525942D01*
X68489414Y-55573561D01*
X68584652Y-55621180D01*
X68775128Y-55621180D01*
X68870366Y-55573561D01*
X68917985Y-55525942D01*
X68965604Y-55430704D01*
X68965604Y-55240228D01*
X68917985Y-55144990D01*
X68870366Y-55097371D01*
X68775128Y-55049752D01*
X67452380Y-49414285D02*
X66452380Y-49414285D01*
X66452380Y-49176190D01*
X66500000Y-49033333D01*
X66595238Y-48938095D01*
X66690476Y-48890476D01*
X66880952Y-48842857D01*
X67023809Y-48842857D01*
X67214285Y-48890476D01*
X67309523Y-48938095D01*
X67404761Y-49033333D01*
X67452380Y-49176190D01*
X67452380Y-49414285D01*
X66547619Y-48461904D02*
X66500000Y-48414285D01*
X66452380Y-48319047D01*
X66452380Y-48080952D01*
X66500000Y-47985714D01*
X66547619Y-47938095D01*
X66642857Y-47890476D01*
X66738095Y-47890476D01*
X66880952Y-47938095D01*
X67452380Y-48509523D01*
X67452380Y-47890476D01*
X66452380Y-47557142D02*
X66452380Y-46890476D01*
X67452380Y-47319047D01*
X62185714Y-43152380D02*
X62185714Y-42152380D01*
X62423809Y-42152380D01*
X62566666Y-42200000D01*
X62661904Y-42295238D01*
X62709523Y-42390476D01*
X62757142Y-42580952D01*
X62757142Y-42723809D01*
X62709523Y-42914285D01*
X62661904Y-43009523D01*
X62566666Y-43104761D01*
X62423809Y-43152380D01*
X62185714Y-43152380D01*
X63138095Y-42247619D02*
X63185714Y-42200000D01*
X63280952Y-42152380D01*
X63519047Y-42152380D01*
X63614285Y-42200000D01*
X63661904Y-42247619D01*
X63709523Y-42342857D01*
X63709523Y-42438095D01*
X63661904Y-42580952D01*
X63090476Y-43152380D01*
X63709523Y-43152380D01*
X64566666Y-42152380D02*
X64376190Y-42152380D01*
X64280952Y-42200000D01*
X64233333Y-42247619D01*
X64138095Y-42390476D01*
X64090476Y-42580952D01*
X64090476Y-42961904D01*
X64138095Y-43057142D01*
X64185714Y-43104761D01*
X64280952Y-43152380D01*
X64471428Y-43152380D01*
X64566666Y-43104761D01*
X64614285Y-43057142D01*
X64661904Y-42961904D01*
X64661904Y-42723809D01*
X64614285Y-42628571D01*
X64566666Y-42580952D01*
X64471428Y-42533333D01*
X64280952Y-42533333D01*
X64185714Y-42580952D01*
X64138095Y-42628571D01*
X64090476Y-42723809D01*
X12120642Y-31738842D02*
X12073023Y-31786461D01*
X11930166Y-31834080D01*
X11834928Y-31834080D01*
X11692071Y-31786461D01*
X11596833Y-31691223D01*
X11549214Y-31595985D01*
X11501595Y-31405509D01*
X11501595Y-31262652D01*
X11549214Y-31072176D01*
X11596833Y-30976938D01*
X11692071Y-30881700D01*
X11834928Y-30834080D01*
X11930166Y-30834080D01*
X12073023Y-30881700D01*
X12120642Y-30929319D01*
X13073023Y-31834080D02*
X12501595Y-31834080D01*
X12787309Y-31834080D02*
X12787309Y-30834080D01*
X12692071Y-30976938D01*
X12596833Y-31072176D01*
X12501595Y-31119795D01*
X13549214Y-31834080D02*
X13739690Y-31834080D01*
X13834928Y-31786461D01*
X13882547Y-31738842D01*
X13977785Y-31595985D01*
X14025404Y-31405509D01*
X14025404Y-31024557D01*
X13977785Y-30929319D01*
X13930166Y-30881700D01*
X13834928Y-30834080D01*
X13644452Y-30834080D01*
X13549214Y-30881700D01*
X13501595Y-30929319D01*
X13453976Y-31024557D01*
X13453976Y-31262652D01*
X13501595Y-31357890D01*
X13549214Y-31405509D01*
X13644452Y-31453128D01*
X13834928Y-31453128D01*
X13930166Y-31405509D01*
X13977785Y-31357890D01*
X14025404Y-31262652D01*
X18980542Y-72621742D02*
X18932923Y-72669361D01*
X18790066Y-72716980D01*
X18694828Y-72716980D01*
X18551971Y-72669361D01*
X18456733Y-72574123D01*
X18409114Y-72478885D01*
X18361495Y-72288409D01*
X18361495Y-72145552D01*
X18409114Y-71955076D01*
X18456733Y-71859838D01*
X18551971Y-71764600D01*
X18694828Y-71716980D01*
X18790066Y-71716980D01*
X18932923Y-71764600D01*
X18980542Y-71812219D01*
X19932923Y-72716980D02*
X19361495Y-72716980D01*
X19647209Y-72716980D02*
X19647209Y-71716980D01*
X19551971Y-71859838D01*
X19456733Y-71955076D01*
X19361495Y-72002695D01*
X20266257Y-71716980D02*
X20885304Y-71716980D01*
X20551971Y-72097933D01*
X20694828Y-72097933D01*
X20790066Y-72145552D01*
X20837685Y-72193171D01*
X20885304Y-72288409D01*
X20885304Y-72526504D01*
X20837685Y-72621742D01*
X20790066Y-72669361D01*
X20694828Y-72716980D01*
X20409114Y-72716980D01*
X20313876Y-72669361D01*
X20266257Y-72621742D01*
X4771382Y-22276358D02*
X4801572Y-22423886D01*
X4784142Y-22488934D01*
X4725473Y-22577793D01*
X4601755Y-22649221D01*
X4495467Y-22655601D01*
X4430418Y-22638171D01*
X4341559Y-22579502D01*
X4151083Y-22249588D01*
X5017109Y-21749588D01*
X5183775Y-22038263D01*
X5190155Y-22144551D01*
X5172725Y-22209600D01*
X5114056Y-22298458D01*
X5031578Y-22346077D01*
X4925289Y-22352457D01*
X4860241Y-22335027D01*
X4771382Y-22276358D01*
X4604716Y-21987683D01*
X5469490Y-22533134D02*
X5802823Y-23110485D01*
X4603464Y-23033134D01*
X4936798Y-23610485D01*
X5389178Y-24394032D02*
X5103464Y-23899160D01*
X5246321Y-24146596D02*
X6112347Y-23646596D01*
X5941010Y-23635546D01*
X5810912Y-23600686D01*
X5722054Y-23542017D01*
X6077959Y-27059459D02*
X6458912Y-27719288D01*
X5938521Y-27579850D02*
X6598350Y-27198898D01*
M02*
