M48
; DRILL file {KiCad (5.1.5)-3} date 04/05/2020 23:07:45
; FORMAT={-:-/ absolute / inch / decimal}
; #@! TF.CreationDate,2020-05-04T23:07:45+02:00
; #@! TF.GenerationSoftware,Kicad,Pcbnew,(5.1.5)-3
; #@! TF.FileFunction,Plated,1,2,PTH
FMAT,2
INCH
T1C0.0079
T2C0.0118
T3C0.0130
T4C0.0157
T5C0.0197
T6C0.0236
T7C0.0280
T8C0.0315
T9C0.0354
T10C0.0394
T11C0.0437
T12C0.0512
T13C0.0760
T14C0.0787
%
G90
G05
T1
X0.3244Y-2.9886
X0.3244Y-3.028
X0.3244Y-3.0674
X0.3796Y-2.9886
X0.3796Y-3.028
X0.3796Y-3.0674
T2
X0.518Y-3.052
X0.519Y-3.001
X0.5437Y-1.9261
X0.633Y-3.069
X0.635Y-2.992
X0.654Y-1.955
X0.676Y-1.819
X0.803Y-1.951
X1.199Y-3.138
X1.243Y-3.098
X2.653Y-3.453
X2.727Y-3.449
X2.8907Y-3.376
X2.8907Y-3.4409
T3
X0.5389Y-2.1065
X0.5389Y-2.1655
X0.598Y-2.1065
X0.598Y-2.1655
X0.6571Y-2.1065
X0.6571Y-2.1655
T4
X0.1008Y-0.53
X0.109Y-2.953
X0.1694Y-0.5021
X0.177Y-3.103
X0.181Y-3.003
X0.189Y-3.161
X0.247Y-3.146
X0.26Y-2.9
X0.2997Y-1.7841
X0.316Y-0.3725
X0.3432Y-1.6163
X0.355Y-1.8
X0.3743Y-1.7
X0.4055Y-2.0118
X0.4217Y-1.8859
X0.433Y-1.631
X0.4624Y-1.9607
X0.502Y-2.42
X0.511Y-1.385
X0.5773Y-1.7393
X0.5962Y-2.4548
X0.607Y-1.9063
X0.6369Y-1.8012
X0.6949Y-2.4548
X0.7191Y-2.0301
X0.7285Y-0.3155
X0.7485Y-0.826
X0.777Y-1.62
X0.8484Y-0.753
X0.861Y-1.433
X0.8879Y-0.8851
X0.9059Y-1.5906
X0.9373Y-1.3221
X0.985Y-0.9935
X1.0153Y-0.7493
X1.0153Y-0.8621
X1.0226Y-1.3221
X1.0464Y-0.4732
X1.048Y-1.004
X1.0517Y-1.0512
X1.0517Y-1.1491
X1.107Y-1.17
X1.1151Y-1.6932
X1.174Y-0.31
X1.176Y-0.976
X1.182Y-0.892
X1.1846Y-1.0844
X1.1871Y-1.3378
X1.1945Y-0.7405
X1.2277Y-1.3667
X1.2448Y-1.6423
X1.2641Y-1.0056
X1.273Y-3.29
X1.273Y-3.324
X1.275Y-3.502
X1.2794Y-1.3386
X1.3112Y-1.6556
X1.316Y-3.499
X1.3166Y-0.1756
X1.32Y-1.499
X1.324Y-0.224
X1.3459Y-1.3324
X1.3591Y-0.9238
X1.3675Y-1.0445
X1.369Y-0.7425
X1.3925Y-1.2996
X1.4025Y-1.1271
X1.4075Y-0.087
X1.409Y-0.795
X1.409Y-0.874
X1.4091Y-0.4189
X1.453Y-0.109
X1.4552Y-1.1707
X1.465Y-1.0075
X1.49Y-1.0852
X1.4938Y-1.3733
X1.499Y-0.55
X1.499Y-0.59
X1.499Y-0.63
X1.499Y-0.67
X1.521Y-1.169
X1.521Y-3.46
X1.527Y-3.37
X1.53Y-0.907
X1.539Y-0.55
X1.539Y-0.59
X1.539Y-0.63
X1.539Y-0.67
X1.5709Y-1.1672
X1.5825Y-0.55
X1.5825Y-0.59
X1.5825Y-0.63
X1.5825Y-0.67
X1.605Y-0.86
X1.6166Y-1.3586
X1.6225Y-0.55
X1.6225Y-0.59
X1.6225Y-0.63
X1.6225Y-0.67
X1.6646Y-1.3232
X1.678Y-1.6309
X1.6802Y-1.512
X1.6822Y-1.3586
X1.685Y-0.4115
X1.686Y-0.277
X1.6879Y-1.5494
X1.6978Y-1.2937
X1.732Y-1.499
X1.757Y-3.58
X1.792Y-1.7703
X1.807Y-0.559
X1.8657Y-3.0113
X1.8905Y-0.6155
X1.892Y-3.049
X1.893Y-1.9637
X1.8968Y-2.9187
X1.898Y-0.257
X1.8994Y-1.9122
X1.9135Y-1.5025
X1.932Y-1.17
X1.9467Y-1.7087
X1.992Y-1.165
X2.085Y-1.5606
X2.154Y-1.309
X2.2424Y-3.2022
X2.2568Y-1.4302
X2.2592Y-3.06
X2.316Y-3.0945
X2.404Y-2.624
X2.46Y-1.572
X2.472Y-3.087
X2.474Y-3.354
X2.511Y-3.514
X2.521Y-3.476
X2.642Y-3.506
X2.678Y-3.501
X2.687Y-1.26
X2.737Y-1.615
X2.7707Y-3.2844
X3.044Y-1.774
T5
X0.2305Y-2.1215
X1.079Y-3.562
X1.128Y-3.562
T6
X2.523Y-1.522
T7
X0.461Y-0.36
X0.4925Y-0.3128
X0.524Y-0.36
X0.5555Y-0.3128
X0.587Y-0.36
T8
X0.8346Y-0.4772
X0.8346Y-0.6693
X0.432Y-2.533
X0.432Y-2.633
X0.432Y-2.733
X2.225Y-1.108
X2.325Y-1.108
X2.425Y-1.108
X2.525Y-1.108
X2.625Y-1.108
X2.725Y-1.108
X2.825Y-1.108
X2.925Y-1.108
T9
X1.5035Y-2.0433
X1.6035Y-2.0433
X1.3066Y-1.8464
X1.4066Y-1.8464
X1.5035Y-2.437
X1.6035Y-2.437
X2.8917Y-2.4419
X2.9917Y-2.4419
X1.7003Y-2.2401
X1.8003Y-2.2401
X1.7003Y-2.437
X1.8003Y-2.437
X1.7003Y-2.0433
X1.8003Y-2.0433
X1.8972Y-2.0433
X1.9972Y-2.0433
X1.8972Y-1.8464
X1.9972Y-1.8464
X1.3066Y-2.6338
X1.4066Y-2.6338
X1.3066Y-2.2401
X1.4066Y-2.2401
X1.5035Y-2.2401
X1.6035Y-2.2401
X1.1098Y-1.8464
X1.2098Y-1.8464
X1.5035Y-1.8464
X1.6035Y-1.8464
X1.7003Y-2.6338
X1.8003Y-2.6338
X1.7003Y-1.8464
X1.8003Y-1.8464
X2.4516Y-1.9918
X2.5516Y-1.9918
X1.3066Y-2.0433
X1.4066Y-2.0433
X2.4516Y-1.8107
X2.5516Y-1.8107
X1.5035Y-2.6338
X1.6035Y-2.6338
X2.4516Y-2.5348
X2.5516Y-2.5348
X1.1098Y-2.6338
X1.2098Y-2.6338
X1.3066Y-2.437
X1.4066Y-2.437
X2.4516Y-2.354
X2.5516Y-2.354
X1.1098Y-2.437
X1.2098Y-2.437
X0.1325Y-2.2483
X0.2325Y-2.2483
X1.8972Y-2.6338
X1.9972Y-2.6338
X1.8972Y-2.437
X1.9972Y-2.437
X1.8972Y-2.2401
X1.9972Y-2.2401
X1.1098Y-2.0433
X1.2098Y-2.0433
X0.1325Y-2.4283
X0.2325Y-2.4283
X1.1098Y-2.2401
X1.2098Y-2.2401
X2.4516Y-2.1729
X2.5516Y-2.1729
T10
X2.252Y-0.141
X2.252Y-0.241
X2.252Y-0.341
X2.252Y-0.441
X0.6741Y-2.599
X0.871Y-2.599
X2.571Y-0.1141
X2.571Y-0.37
X2.7482Y-0.1141
X2.7482Y-0.37
X2.352Y-0.141
X2.352Y-0.241
X2.352Y-0.341
X2.352Y-0.441
X2.351Y-1.322
X2.351Y-1.4992
X2.6069Y-1.322
X2.6069Y-1.4992
X0.747Y-1.012
X0.747Y-1.2089
X2.452Y-0.141
X2.452Y-0.241
X2.452Y-0.341
X2.452Y-0.441
X0.186Y-0.7674
X0.3356Y-1.0266
X2.9833Y-2.1969
T11
X1.1024Y-0.2441
X1.1024Y-0.3441
X1.1024Y-0.4441
X1.1024Y-0.5441
X1.1024Y-0.6441
X1.1024Y-0.7441
X1.1024Y-0.8441
X1.1024Y-0.9441
X2.0024Y-0.2441
X2.0024Y-0.3441
X2.0024Y-0.4441
X2.0024Y-0.5441
X2.0024Y-0.6441
X2.0024Y-0.7441
X2.0024Y-0.8441
X2.0024Y-0.9441
T12
X2.9191Y-1.8188
X2.9191Y-2.0156
X0.1756Y-1.811
X0.1756Y-2.0078
X2.9191Y-1.4251
X2.9191Y-1.6219
T13
X0.3882Y-0.1612
X0.6598Y-0.1612
T14
X0.127Y-3.298
X2.9616Y-3.298
T9
G00X0.1388Y-1.2372
M15
G01X0.2293Y-1.2372
M16
G05
G00X0.1388Y-1.4222
M15
G01X0.2293Y-1.4222
M16
G05
G00X0.1388Y-1.6072
M15
G01X0.2293Y-1.6072
M16
G05
T0
M30
