G04 #@! TF.GenerationSoftware,KiCad,Pcbnew,(5.1.5)-3*
G04 #@! TF.CreationDate,2020-03-20T16:35:38+01:00*
G04 #@! TF.ProjectId,TrackRay_H00,54726163-6b52-4617-995f-4830302e6b69,rev?*
G04 #@! TF.SameCoordinates,Original*
G04 #@! TF.FileFunction,Legend,Top*
G04 #@! TF.FilePolarity,Positive*
%FSLAX46Y46*%
G04 Gerber Fmt 4.6, Leading zero omitted, Abs format (unit mm)*
G04 Created by KiCad (PCBNEW (5.1.5)-3) date 2020-03-20 16:35:38*
%MOMM*%
%LPD*%
G04 APERTURE LIST*
%ADD10C,0.150000*%
%ADD11C,0.300000*%
%ADD12C,0.350000*%
%ADD13C,0.200000*%
%ADD14C,0.120000*%
%ADD15C,0.100000*%
%ADD16C,0.203200*%
%ADD17C,0.254000*%
G04 APERTURE END LIST*
D10*
X43464982Y-34193260D02*
X43512601Y-34145640D01*
X43560220Y-34193260D01*
X43512601Y-34240879D01*
X43464982Y-34193260D01*
X43560220Y-34193260D01*
X43179268Y-34193260D02*
X42607840Y-34240879D01*
X42560220Y-34193260D01*
X42607840Y-34145640D01*
X43179268Y-34193260D01*
X42560220Y-34193260D01*
X42512601Y-28431355D02*
X43798316Y-29288498D01*
X43179268Y-28098021D02*
X43179268Y-27336117D01*
X43179268Y-26859926D02*
X43179268Y-26098021D01*
X43179268Y-25621831D02*
X43179268Y-24859926D01*
X43179268Y-24383736D02*
X43179268Y-23621831D01*
X43179268Y-23145640D02*
X43179268Y-22383736D01*
X42464982Y-22240879D02*
X43750697Y-21383736D01*
X43036411Y-21240879D02*
X43036411Y-20478974D01*
X43322125Y-20478974D02*
X43322125Y-21240879D01*
X43036411Y-20002783D02*
X43036411Y-19240879D01*
X43322125Y-19240879D02*
X43322125Y-20002783D01*
X43036411Y-18764688D02*
X43036411Y-18002783D01*
X43322125Y-18002783D02*
X43322125Y-18764688D01*
X43036411Y-17526593D02*
X43036411Y-16764688D01*
X43322125Y-16764688D02*
X43322125Y-17526593D01*
X43036411Y-16288498D02*
X43036411Y-15526593D01*
X43322125Y-15526593D02*
X43322125Y-16288498D01*
X43036411Y-15050402D02*
X43036411Y-14288498D01*
X43322125Y-14288498D02*
X43322125Y-15050402D01*
X43036411Y-13812307D02*
X43036411Y-13050402D01*
X43322125Y-13050402D02*
X43322125Y-13812307D01*
X43036411Y-12574212D02*
X43036411Y-11812307D01*
X43322125Y-11812307D02*
X43322125Y-12574212D01*
X43036411Y-11336117D02*
X43036411Y-10574212D01*
X43322125Y-10574212D02*
X43322125Y-11336117D01*
X43036411Y-10098021D02*
X43036411Y-9336117D01*
X43322125Y-9336117D02*
X43322125Y-10098021D01*
X43036411Y-8859926D02*
X43036411Y-8098021D01*
X43322125Y-8098021D02*
X43322125Y-8859926D01*
X43036411Y-7621831D02*
X43036411Y-6859926D01*
X43322125Y-6859926D02*
X43322125Y-7621831D01*
X43084030Y-5764688D02*
X43036411Y-5812307D01*
X42988792Y-5907545D01*
X42988792Y-6002783D01*
X43036411Y-6098021D01*
X43084030Y-6145640D01*
X43179268Y-6193259D01*
X43274506Y-6193259D01*
X43369744Y-6145640D01*
X43417363Y-6098021D01*
X43464982Y-6002783D01*
X43464982Y-5907545D01*
X43417363Y-5812307D01*
X43369744Y-5764688D01*
X42988792Y-5764688D02*
X43369744Y-5764688D01*
X43417363Y-5717069D01*
X43417363Y-5669450D01*
X43369744Y-5574212D01*
X43274506Y-5526593D01*
X43036411Y-5526593D01*
X42893554Y-5621831D01*
X42798316Y-5764688D01*
X42750697Y-5955164D01*
X42798316Y-6145640D01*
X42893554Y-6288498D01*
X43036411Y-6383736D01*
X43226887Y-6431355D01*
X43417363Y-6383736D01*
X43560220Y-6288498D01*
X43655459Y-6145640D01*
X43703078Y-5955164D01*
X43655459Y-5764688D01*
X43560220Y-5621831D01*
X45543554Y-33955164D02*
X44114982Y-33955164D01*
X45305459Y-33478974D02*
X45305459Y-32717069D01*
X45305459Y-32717069D02*
X45305459Y-31955164D01*
X45305459Y-31955164D02*
X45305459Y-31193260D01*
X45305459Y-31193260D02*
X45305459Y-30431355D01*
X45305459Y-30431355D02*
X45305459Y-29669450D01*
X44162601Y-28717069D02*
X45448316Y-29574212D01*
X45305459Y-28621831D02*
X45305459Y-27859926D01*
X45305459Y-27859926D02*
X45305459Y-27098021D01*
X45305459Y-27098021D02*
X45305459Y-26336117D01*
X45305459Y-26336117D02*
X45305459Y-25574212D01*
X45305459Y-25574212D02*
X45305459Y-24812307D01*
X45305459Y-24812307D02*
X45305459Y-24050402D01*
X45305459Y-24050402D02*
X45305459Y-23288498D01*
X44114982Y-23383736D02*
X45400697Y-22526593D01*
X45305459Y-22621831D02*
X45305459Y-21859926D01*
X45305459Y-21859926D02*
X45305459Y-21098021D01*
X45305459Y-21098021D02*
X45305459Y-20336117D01*
X45305459Y-20336117D02*
X45305459Y-19574212D01*
X45305459Y-19574212D02*
X45305459Y-18812307D01*
X45812601Y-34240879D02*
X47098316Y-35098021D01*
X46955459Y-34145640D02*
X46955459Y-33383736D01*
X46955459Y-33383736D02*
X46955459Y-32621831D01*
X46955459Y-32621831D02*
X46955459Y-31859926D01*
X46955459Y-31859926D02*
X46955459Y-31098021D01*
X46955459Y-31098021D02*
X46955459Y-30336117D01*
X46955459Y-30336117D02*
X46955459Y-29574212D01*
X46955459Y-29574212D02*
X46955459Y-28812307D01*
X46955459Y-28812307D02*
X46955459Y-28050402D01*
X46955459Y-28050402D02*
X46955459Y-27288498D01*
X46955459Y-27288498D02*
X46955459Y-26526593D01*
X46955459Y-26526593D02*
X46955459Y-25764688D01*
X46955459Y-25764688D02*
X46955459Y-25002783D01*
X46955459Y-25002783D02*
X46955459Y-24240879D01*
X46955459Y-24240879D02*
X46955459Y-23478974D01*
X46955459Y-23478974D02*
X46955459Y-22717069D01*
X46955459Y-22717069D02*
X46955459Y-21955164D01*
X46955459Y-21955164D02*
X46955459Y-21193260D01*
X46955459Y-21193260D02*
X46955459Y-20431355D01*
X46955459Y-20431355D02*
X46955459Y-19669450D01*
X46955459Y-19669450D02*
X46955459Y-18907545D01*
X45764982Y-19002783D02*
X47050697Y-18145640D01*
X47414982Y-34526593D02*
X48700697Y-33669450D01*
X48129268Y-33526593D02*
X48129268Y-32764688D01*
X48510220Y-33145640D02*
X47748316Y-33145640D01*
X48605459Y-32526593D02*
X48605459Y-31764688D01*
X48605459Y-31764688D02*
X48605459Y-31002783D01*
X48129268Y-30764688D02*
X48129268Y-30002783D01*
X48510220Y-30383736D02*
X47748316Y-30383736D01*
X48605459Y-29764688D02*
X48605459Y-29002783D01*
X48605459Y-29002783D02*
X48605459Y-28240879D01*
X48129268Y-28002783D02*
X48129268Y-27240879D01*
X48510220Y-27621831D02*
X47748316Y-27621831D01*
X48605459Y-27002783D02*
X48605459Y-26240879D01*
X48605459Y-26240879D02*
X48605459Y-25478974D01*
X48129268Y-25240879D02*
X48129268Y-24478974D01*
X48510220Y-24859926D02*
X47748316Y-24859926D01*
X48605459Y-24240879D02*
X48605459Y-23478974D01*
X48605459Y-23478974D02*
X48605459Y-22717069D01*
X48129268Y-22478974D02*
X48129268Y-21717069D01*
X48510220Y-22098021D02*
X47748316Y-22098021D01*
X48605459Y-21478974D02*
X48605459Y-20717069D01*
X48605459Y-20717069D02*
X48605459Y-19955164D01*
X48129268Y-19717069D02*
X48129268Y-18955164D01*
X48510220Y-19336117D02*
X47748316Y-19336117D01*
X48605459Y-18717069D02*
X48605459Y-17955164D01*
X48605459Y-17955164D02*
X48605459Y-17193260D01*
X47510220Y-16812307D02*
X47748316Y-16812307D01*
X47653078Y-17050402D02*
X47748316Y-16812307D01*
X47653078Y-16574212D01*
X47938792Y-16955164D02*
X47748316Y-16812307D01*
X47938792Y-16669450D01*
X47462601Y-15478974D02*
X48748316Y-16336117D01*
X19661919Y-34594257D02*
X20661919Y-34594257D01*
X20661919Y-34832352D01*
X20614300Y-34975209D01*
X20519061Y-35070447D01*
X20423823Y-35118066D01*
X20233347Y-35165685D01*
X20090490Y-35165685D01*
X19900014Y-35118066D01*
X19804776Y-35070447D01*
X19709538Y-34975209D01*
X19661919Y-34832352D01*
X19661919Y-34594257D01*
X19709538Y-35975209D02*
X19661919Y-35879971D01*
X19661919Y-35689495D01*
X19709538Y-35594257D01*
X19804776Y-35546638D01*
X20185728Y-35546638D01*
X20280966Y-35594257D01*
X20328585Y-35689495D01*
X20328585Y-35879971D01*
X20280966Y-35975209D01*
X20185728Y-36022828D01*
X20090490Y-36022828D01*
X19995252Y-35546638D01*
X19709538Y-36403780D02*
X19661919Y-36499019D01*
X19661919Y-36689495D01*
X19709538Y-36784733D01*
X19804776Y-36832352D01*
X19852395Y-36832352D01*
X19947633Y-36784733D01*
X19995252Y-36689495D01*
X19995252Y-36546638D01*
X20042871Y-36451400D01*
X20138109Y-36403780D01*
X20185728Y-36403780D01*
X20280966Y-36451400D01*
X20328585Y-36546638D01*
X20328585Y-36689495D01*
X20280966Y-36784733D01*
X19661919Y-37260923D02*
X20328585Y-37260923D01*
X20661919Y-37260923D02*
X20614300Y-37213304D01*
X20566680Y-37260923D01*
X20614300Y-37308542D01*
X20661919Y-37260923D01*
X20566680Y-37260923D01*
X20328585Y-38165685D02*
X19519061Y-38165685D01*
X19423823Y-38118066D01*
X19376204Y-38070447D01*
X19328585Y-37975209D01*
X19328585Y-37832352D01*
X19376204Y-37737114D01*
X19709538Y-38165685D02*
X19661919Y-38070447D01*
X19661919Y-37879971D01*
X19709538Y-37784733D01*
X19757157Y-37737114D01*
X19852395Y-37689495D01*
X20138109Y-37689495D01*
X20233347Y-37737114D01*
X20280966Y-37784733D01*
X20328585Y-37879971D01*
X20328585Y-38070447D01*
X20280966Y-38165685D01*
X20328585Y-38641876D02*
X19661919Y-38641876D01*
X20233347Y-38641876D02*
X20280966Y-38689495D01*
X20328585Y-38784733D01*
X20328585Y-38927590D01*
X20280966Y-39022828D01*
X20185728Y-39070447D01*
X19661919Y-39070447D01*
X19709538Y-39927590D02*
X19661919Y-39832352D01*
X19661919Y-39641876D01*
X19709538Y-39546638D01*
X19804776Y-39499019D01*
X20185728Y-39499019D01*
X20280966Y-39546638D01*
X20328585Y-39641876D01*
X20328585Y-39832352D01*
X20280966Y-39927590D01*
X20185728Y-39975209D01*
X20090490Y-39975209D01*
X19995252Y-39499019D01*
X19661919Y-40832352D02*
X20661919Y-40832352D01*
X19709538Y-40832352D02*
X19661919Y-40737114D01*
X19661919Y-40546638D01*
X19709538Y-40451400D01*
X19757157Y-40403780D01*
X19852395Y-40356161D01*
X20138109Y-40356161D01*
X20233347Y-40403780D01*
X20280966Y-40451400D01*
X20328585Y-40546638D01*
X20328585Y-40737114D01*
X20280966Y-40832352D01*
X20328585Y-41975209D02*
X19661919Y-42165685D01*
X20138109Y-42356161D01*
X19661919Y-42546638D01*
X20328585Y-42737114D01*
X19661919Y-43118066D02*
X20328585Y-43118066D01*
X20661919Y-43118066D02*
X20614300Y-43070447D01*
X20566680Y-43118066D01*
X20614300Y-43165685D01*
X20661919Y-43118066D01*
X20566680Y-43118066D01*
X20328585Y-43451400D02*
X20328585Y-43832352D01*
X20661919Y-43594257D02*
X19804776Y-43594257D01*
X19709538Y-43641876D01*
X19661919Y-43737114D01*
X19661919Y-43832352D01*
X19661919Y-44165685D02*
X20661919Y-44165685D01*
X19661919Y-44594257D02*
X20185728Y-44594257D01*
X20280966Y-44546638D01*
X20328585Y-44451400D01*
X20328585Y-44308542D01*
X20280966Y-44213304D01*
X20233347Y-44165685D01*
X19661919Y-45975209D02*
X19709538Y-45879971D01*
X19804776Y-45832352D01*
X20661919Y-45832352D01*
X19661919Y-46499019D02*
X19709538Y-46403780D01*
X19757157Y-46356161D01*
X19852395Y-46308542D01*
X20138109Y-46308542D01*
X20233347Y-46356161D01*
X20280966Y-46403780D01*
X20328585Y-46499019D01*
X20328585Y-46641876D01*
X20280966Y-46737114D01*
X20233347Y-46784733D01*
X20138109Y-46832352D01*
X19852395Y-46832352D01*
X19757157Y-46784733D01*
X19709538Y-46737114D01*
X19661919Y-46641876D01*
X19661919Y-46499019D01*
X20328585Y-47165685D02*
X19661919Y-47403780D01*
X20328585Y-47641876D01*
X19709538Y-48403780D02*
X19661919Y-48308542D01*
X19661919Y-48118066D01*
X19709538Y-48022828D01*
X19804776Y-47975209D01*
X20185728Y-47975209D01*
X20280966Y-48022828D01*
X20328585Y-48118066D01*
X20328585Y-48308542D01*
X20280966Y-48403780D01*
X20185728Y-48451400D01*
X20090490Y-48451400D01*
X19995252Y-47975209D01*
X19661919Y-49641876D02*
X20661919Y-49641876D01*
X20280966Y-49641876D02*
X20328585Y-49737114D01*
X20328585Y-49927590D01*
X20280966Y-50022828D01*
X20233347Y-50070447D01*
X20138109Y-50118066D01*
X19852395Y-50118066D01*
X19757157Y-50070447D01*
X19709538Y-50022828D01*
X19661919Y-49927590D01*
X19661919Y-49737114D01*
X19709538Y-49641876D01*
X20328585Y-50451400D02*
X19661919Y-50689495D01*
X20328585Y-50927590D02*
X19661919Y-50689495D01*
X19423823Y-50594257D01*
X19376204Y-50546638D01*
X19328585Y-50451400D01*
X19757157Y-51308542D02*
X19709538Y-51356161D01*
X19661919Y-51308542D01*
X19709538Y-51260923D01*
X19757157Y-51308542D01*
X19661919Y-51308542D01*
X20280966Y-51308542D02*
X20233347Y-51356161D01*
X20185728Y-51308542D01*
X20233347Y-51260923D01*
X20280966Y-51308542D01*
X20185728Y-51308542D01*
X18011919Y-37999019D02*
X19011919Y-37999019D01*
X18297633Y-38332352D01*
X19011919Y-38665685D01*
X18011919Y-38665685D01*
X18011919Y-39570447D02*
X18535728Y-39570447D01*
X18630966Y-39522828D01*
X18678585Y-39427590D01*
X18678585Y-39237114D01*
X18630966Y-39141876D01*
X18059538Y-39570447D02*
X18011919Y-39475209D01*
X18011919Y-39237114D01*
X18059538Y-39141876D01*
X18154776Y-39094257D01*
X18250014Y-39094257D01*
X18345252Y-39141876D01*
X18392871Y-39237114D01*
X18392871Y-39475209D01*
X18440490Y-39570447D01*
X18011919Y-40046638D02*
X18678585Y-40046638D01*
X18488109Y-40046638D02*
X18583347Y-40094257D01*
X18630966Y-40141876D01*
X18678585Y-40237114D01*
X18678585Y-40332352D01*
X18678585Y-40522828D02*
X18678585Y-40903780D01*
X19011919Y-40665685D02*
X18154776Y-40665685D01*
X18059538Y-40713304D01*
X18011919Y-40808542D01*
X18011919Y-40903780D01*
X18011919Y-41237114D02*
X18678585Y-41237114D01*
X19011919Y-41237114D02*
X18964300Y-41189495D01*
X18916680Y-41237114D01*
X18964300Y-41284733D01*
X19011919Y-41237114D01*
X18916680Y-41237114D01*
X18678585Y-41713304D02*
X18011919Y-41713304D01*
X18583347Y-41713304D02*
X18630966Y-41760923D01*
X18678585Y-41856161D01*
X18678585Y-41999019D01*
X18630966Y-42094257D01*
X18535728Y-42141876D01*
X18011919Y-42141876D01*
X18011919Y-43379971D02*
X19011919Y-43379971D01*
X19011919Y-43760923D01*
X18964300Y-43856161D01*
X18916680Y-43903780D01*
X18821442Y-43951400D01*
X18678585Y-43951400D01*
X18583347Y-43903780D01*
X18535728Y-43856161D01*
X18488109Y-43760923D01*
X18488109Y-43379971D01*
X18678585Y-44237114D02*
X18678585Y-44618066D01*
X19011919Y-44379971D02*
X18154776Y-44379971D01*
X18059538Y-44427590D01*
X18011919Y-44522828D01*
X18011919Y-44618066D01*
X18011919Y-45379971D02*
X18535728Y-45379971D01*
X18630966Y-45332352D01*
X18678585Y-45237114D01*
X18678585Y-45046638D01*
X18630966Y-44951400D01*
X18059538Y-45379971D02*
X18011919Y-45284733D01*
X18011919Y-45046638D01*
X18059538Y-44951400D01*
X18154776Y-44903780D01*
X18250014Y-44903780D01*
X18345252Y-44951400D01*
X18392871Y-45046638D01*
X18392871Y-45284733D01*
X18440490Y-45379971D01*
X19059538Y-45237114D02*
X18916680Y-45094257D01*
X18059538Y-46284733D02*
X18011919Y-46189495D01*
X18011919Y-45999019D01*
X18059538Y-45903780D01*
X18107157Y-45856161D01*
X18202395Y-45808542D01*
X18488109Y-45808542D01*
X18583347Y-45856161D01*
X18630966Y-45903780D01*
X18678585Y-45999019D01*
X18678585Y-46189495D01*
X18630966Y-46284733D01*
X19059538Y-45903780D02*
X18916680Y-46094257D01*
X19059538Y-46284733D01*
X18059538Y-47094257D02*
X18011919Y-46999019D01*
X18011919Y-46808542D01*
X18059538Y-46713304D01*
X18154776Y-46665685D01*
X18535728Y-46665685D01*
X18630966Y-46713304D01*
X18678585Y-46808542D01*
X18678585Y-46999019D01*
X18630966Y-47094257D01*
X18535728Y-47141876D01*
X18440490Y-47141876D01*
X18345252Y-46665685D01*
X18011919Y-47570447D02*
X19011919Y-47570447D01*
X18392871Y-47665685D02*
X18011919Y-47951400D01*
X18678585Y-47951400D02*
X18297633Y-47570447D01*
X16361919Y-38237114D02*
X17361919Y-38237114D01*
X16647633Y-38570447D01*
X17361919Y-38903780D01*
X16361919Y-38903780D01*
X16361919Y-39808542D02*
X16885728Y-39808542D01*
X16980966Y-39760923D01*
X17028585Y-39665685D01*
X17028585Y-39475209D01*
X16980966Y-39379971D01*
X16409538Y-39808542D02*
X16361919Y-39713304D01*
X16361919Y-39475209D01*
X16409538Y-39379971D01*
X16504776Y-39332352D01*
X16600014Y-39332352D01*
X16695252Y-39379971D01*
X16742871Y-39475209D01*
X16742871Y-39713304D01*
X16790490Y-39808542D01*
X16361919Y-40284733D02*
X17028585Y-40284733D01*
X16838109Y-40284733D02*
X16933347Y-40332352D01*
X16980966Y-40379971D01*
X17028585Y-40475209D01*
X17028585Y-40570447D01*
X16409538Y-41284733D02*
X16361919Y-41189495D01*
X16361919Y-40999019D01*
X16409538Y-40903780D01*
X16504776Y-40856161D01*
X16885728Y-40856161D01*
X16980966Y-40903780D01*
X17028585Y-40999019D01*
X17028585Y-41189495D01*
X16980966Y-41284733D01*
X16885728Y-41332352D01*
X16790490Y-41332352D01*
X16695252Y-40856161D01*
X16361919Y-41760923D02*
X17361919Y-41760923D01*
X16742871Y-41856161D02*
X16361919Y-42141876D01*
X17028585Y-42141876D02*
X16647633Y-41760923D01*
X16457157Y-43903780D02*
X16409538Y-43856161D01*
X16361919Y-43713304D01*
X16361919Y-43618066D01*
X16409538Y-43475209D01*
X16504776Y-43379971D01*
X16600014Y-43332352D01*
X16790490Y-43284733D01*
X16933347Y-43284733D01*
X17123823Y-43332352D01*
X17219061Y-43379971D01*
X17314300Y-43475209D01*
X17361919Y-43618066D01*
X17361919Y-43713304D01*
X17314300Y-43856161D01*
X17266680Y-43903780D01*
X16361919Y-44475209D02*
X16409538Y-44379971D01*
X16457157Y-44332352D01*
X16552395Y-44284733D01*
X16838109Y-44284733D01*
X16933347Y-44332352D01*
X16980966Y-44379971D01*
X17028585Y-44475209D01*
X17028585Y-44618066D01*
X16980966Y-44713304D01*
X16933347Y-44760923D01*
X16838109Y-44808542D01*
X16552395Y-44808542D01*
X16457157Y-44760923D01*
X16409538Y-44713304D01*
X16361919Y-44618066D01*
X16361919Y-44475209D01*
X17028585Y-45665685D02*
X16361919Y-45665685D01*
X17028585Y-45237114D02*
X16504776Y-45237114D01*
X16409538Y-45284733D01*
X16361919Y-45379971D01*
X16361919Y-45522828D01*
X16409538Y-45618066D01*
X16457157Y-45665685D01*
X17028585Y-45999019D02*
X17028585Y-46379971D01*
X16361919Y-46141876D02*
X17219061Y-46141876D01*
X17314300Y-46189495D01*
X17361919Y-46284733D01*
X17361919Y-46379971D01*
X16361919Y-47141876D02*
X16885728Y-47141876D01*
X16980966Y-47094257D01*
X17028585Y-46999019D01*
X17028585Y-46808542D01*
X16980966Y-46713304D01*
X16409538Y-47141876D02*
X16361919Y-47046638D01*
X16361919Y-46808542D01*
X16409538Y-46713304D01*
X16504776Y-46665685D01*
X16600014Y-46665685D01*
X16695252Y-46713304D01*
X16742871Y-46808542D01*
X16742871Y-47046638D01*
X16790490Y-47141876D01*
X16361919Y-47760923D02*
X16409538Y-47665685D01*
X16504776Y-47618066D01*
X17361919Y-47618066D01*
X14711919Y-39260923D02*
X15711919Y-39260923D01*
X15711919Y-39641876D01*
X15664300Y-39737114D01*
X15616680Y-39784733D01*
X15521442Y-39832352D01*
X15378585Y-39832352D01*
X15283347Y-39784733D01*
X15235728Y-39737114D01*
X15188109Y-39641876D01*
X15188109Y-39260923D01*
X14759538Y-40641876D02*
X14711919Y-40546638D01*
X14711919Y-40356161D01*
X14759538Y-40260923D01*
X14854776Y-40213304D01*
X15235728Y-40213304D01*
X15330966Y-40260923D01*
X15378585Y-40356161D01*
X15378585Y-40546638D01*
X15330966Y-40641876D01*
X15235728Y-40689495D01*
X15140490Y-40689495D01*
X15045252Y-40213304D01*
X15378585Y-40975209D02*
X15378585Y-41356161D01*
X15711919Y-41118066D02*
X14854776Y-41118066D01*
X14759538Y-41165685D01*
X14711919Y-41260923D01*
X14711919Y-41356161D01*
X14711919Y-41689495D02*
X15378585Y-41689495D01*
X15188109Y-41689495D02*
X15283347Y-41737114D01*
X15330966Y-41784733D01*
X15378585Y-41879971D01*
X15378585Y-41975209D01*
X15711919Y-42927590D02*
X14711919Y-43260923D01*
X15711919Y-43594257D01*
X14711919Y-44356161D02*
X15235728Y-44356161D01*
X15330966Y-44308542D01*
X15378585Y-44213304D01*
X15378585Y-44022828D01*
X15330966Y-43927590D01*
X14759538Y-44356161D02*
X14711919Y-44260923D01*
X14711919Y-44022828D01*
X14759538Y-43927590D01*
X14854776Y-43879971D01*
X14950014Y-43879971D01*
X15045252Y-43927590D01*
X15092871Y-44022828D01*
X15092871Y-44260923D01*
X15140490Y-44356161D01*
X15759538Y-44213304D02*
X15616680Y-44070447D01*
X15378585Y-44737114D02*
X14711919Y-44975209D01*
X15378585Y-45213304D01*
X14711919Y-45594257D02*
X15378585Y-45594257D01*
X15188109Y-45594257D02*
X15283347Y-45641876D01*
X15330966Y-45689495D01*
X15378585Y-45784733D01*
X15378585Y-45879971D01*
X14711919Y-46641876D02*
X15235728Y-46641876D01*
X15330966Y-46594257D01*
X15378585Y-46499019D01*
X15378585Y-46308542D01*
X15330966Y-46213304D01*
X14759538Y-46641876D02*
X14711919Y-46546638D01*
X14711919Y-46308542D01*
X14759538Y-46213304D01*
X14854776Y-46165685D01*
X14950014Y-46165685D01*
X15045252Y-46213304D01*
X15092871Y-46308542D01*
X15092871Y-46546638D01*
X15140490Y-46641876D01*
X13061919Y-38094257D02*
X14061919Y-38094257D01*
X13347633Y-38427590D01*
X14061919Y-38760923D01*
X13061919Y-38760923D01*
X13061919Y-39665685D02*
X13585728Y-39665685D01*
X13680966Y-39618066D01*
X13728585Y-39522828D01*
X13728585Y-39332352D01*
X13680966Y-39237114D01*
X13109538Y-39665685D02*
X13061919Y-39570447D01*
X13061919Y-39332352D01*
X13109538Y-39237114D01*
X13204776Y-39189495D01*
X13300014Y-39189495D01*
X13395252Y-39237114D01*
X13442871Y-39332352D01*
X13442871Y-39570447D01*
X13490490Y-39665685D01*
X13061919Y-40141876D02*
X13728585Y-40141876D01*
X13538109Y-40141876D02*
X13633347Y-40189495D01*
X13680966Y-40237114D01*
X13728585Y-40332352D01*
X13728585Y-40427590D01*
X13728585Y-40618066D02*
X13728585Y-40999019D01*
X14061919Y-40760923D02*
X13204776Y-40760923D01*
X13109538Y-40808542D01*
X13061919Y-40903780D01*
X13061919Y-40999019D01*
X13061919Y-41332352D02*
X13728585Y-41332352D01*
X14061919Y-41332352D02*
X14014300Y-41284733D01*
X13966680Y-41332352D01*
X14014300Y-41379971D01*
X14061919Y-41332352D01*
X13966680Y-41332352D01*
X13728585Y-41808542D02*
X13061919Y-41808542D01*
X13633347Y-41808542D02*
X13680966Y-41856161D01*
X13728585Y-41951400D01*
X13728585Y-42094257D01*
X13680966Y-42189495D01*
X13585728Y-42237114D01*
X13061919Y-42237114D01*
X13157157Y-44046638D02*
X13109538Y-43999019D01*
X13061919Y-43856161D01*
X13061919Y-43760923D01*
X13109538Y-43618066D01*
X13204776Y-43522828D01*
X13300014Y-43475209D01*
X13490490Y-43427590D01*
X13633347Y-43427590D01*
X13823823Y-43475209D01*
X13919061Y-43522828D01*
X14014300Y-43618066D01*
X14061919Y-43760923D01*
X14061919Y-43856161D01*
X14014300Y-43999019D01*
X13966680Y-44046638D01*
X13061919Y-44618066D02*
X13109538Y-44522828D01*
X13157157Y-44475209D01*
X13252395Y-44427590D01*
X13538109Y-44427590D01*
X13633347Y-44475209D01*
X13680966Y-44522828D01*
X13728585Y-44618066D01*
X13728585Y-44760923D01*
X13680966Y-44856161D01*
X13633347Y-44903780D01*
X13538109Y-44951400D01*
X13252395Y-44951400D01*
X13157157Y-44903780D01*
X13109538Y-44856161D01*
X13061919Y-44760923D01*
X13061919Y-44618066D01*
X13728585Y-45808542D02*
X13061919Y-45808542D01*
X13728585Y-45379971D02*
X13204776Y-45379971D01*
X13109538Y-45427590D01*
X13061919Y-45522828D01*
X13061919Y-45665685D01*
X13109538Y-45760923D01*
X13157157Y-45808542D01*
X13728585Y-46141876D02*
X13728585Y-46522828D01*
X13061919Y-46284733D02*
X13919061Y-46284733D01*
X14014300Y-46332352D01*
X14061919Y-46427590D01*
X14061919Y-46522828D01*
X13061919Y-47284733D02*
X13585728Y-47284733D01*
X13680966Y-47237114D01*
X13728585Y-47141876D01*
X13728585Y-46951400D01*
X13680966Y-46856161D01*
X13109538Y-47284733D02*
X13061919Y-47189495D01*
X13061919Y-46951400D01*
X13109538Y-46856161D01*
X13204776Y-46808542D01*
X13300014Y-46808542D01*
X13395252Y-46856161D01*
X13442871Y-46951400D01*
X13442871Y-47189495D01*
X13490490Y-47284733D01*
X13061919Y-47903780D02*
X13109538Y-47808542D01*
X13204776Y-47760923D01*
X14061919Y-47760923D01*
X11697633Y-39046638D02*
X11697633Y-39522828D01*
X11411919Y-38951400D02*
X12411919Y-39284733D01*
X11411919Y-39618066D01*
X11411919Y-40094257D02*
X11459538Y-39999019D01*
X11554776Y-39951400D01*
X12411919Y-39951400D01*
X11459538Y-40856161D02*
X11411919Y-40760923D01*
X11411919Y-40570447D01*
X11459538Y-40475209D01*
X11554776Y-40427590D01*
X11935728Y-40427590D01*
X12030966Y-40475209D01*
X12078585Y-40570447D01*
X12078585Y-40760923D01*
X12030966Y-40856161D01*
X11935728Y-40903780D01*
X11840490Y-40903780D01*
X11745252Y-40427590D01*
X11459538Y-41284733D02*
X11411919Y-41379971D01*
X11411919Y-41570447D01*
X11459538Y-41665685D01*
X11554776Y-41713304D01*
X11602395Y-41713304D01*
X11697633Y-41665685D01*
X11745252Y-41570447D01*
X11745252Y-41427590D01*
X11792871Y-41332352D01*
X11888109Y-41284733D01*
X11935728Y-41284733D01*
X12030966Y-41332352D01*
X12078585Y-41427590D01*
X12078585Y-41570447D01*
X12030966Y-41665685D01*
X12459538Y-41284733D02*
X12316680Y-41475209D01*
X12459538Y-41665685D01*
X11411919Y-42903780D02*
X12411919Y-42903780D01*
X11411919Y-43475209D02*
X11983347Y-43046638D01*
X12411919Y-43475209D02*
X11840490Y-42903780D01*
X11411919Y-43903780D02*
X12078585Y-43903780D01*
X11888109Y-43903780D02*
X11983347Y-43951400D01*
X12030966Y-43999019D01*
X12078585Y-44094257D01*
X12078585Y-44189495D01*
X11411919Y-44951400D02*
X11935728Y-44951400D01*
X12030966Y-44903780D01*
X12078585Y-44808542D01*
X12078585Y-44618066D01*
X12030966Y-44522828D01*
X11459538Y-44951400D02*
X11411919Y-44856161D01*
X11411919Y-44618066D01*
X11459538Y-44522828D01*
X11554776Y-44475209D01*
X11650014Y-44475209D01*
X11745252Y-44522828D01*
X11792871Y-44618066D01*
X11792871Y-44856161D01*
X11840490Y-44951400D01*
X11411919Y-45427590D02*
X12078585Y-45427590D01*
X11983347Y-45427590D02*
X12030966Y-45475209D01*
X12078585Y-45570447D01*
X12078585Y-45713304D01*
X12030966Y-45808542D01*
X11935728Y-45856161D01*
X11411919Y-45856161D01*
X11935728Y-45856161D02*
X12030966Y-45903780D01*
X12078585Y-45999019D01*
X12078585Y-46141876D01*
X12030966Y-46237114D01*
X11935728Y-46284733D01*
X11411919Y-46284733D01*
X11411919Y-46903780D02*
X11459538Y-46808542D01*
X11554776Y-46760923D01*
X12411919Y-46760923D01*
D11*
X54363157Y-2062114D02*
X54363157Y-3204971D01*
X53791728Y-2633542D02*
X54934585Y-2633542D01*
X53934585Y-5919257D02*
X53863157Y-5847828D01*
X53791728Y-5633542D01*
X53791728Y-5490685D01*
X53863157Y-5276400D01*
X54006014Y-5133542D01*
X54148871Y-5062114D01*
X54434585Y-4990685D01*
X54648871Y-4990685D01*
X54934585Y-5062114D01*
X55077442Y-5133542D01*
X55220300Y-5276400D01*
X55291728Y-5490685D01*
X55291728Y-5633542D01*
X55220300Y-5847828D01*
X55148871Y-5919257D01*
X53791728Y-7276400D02*
X53791728Y-6562114D01*
X55291728Y-6562114D01*
X53791728Y-8919257D02*
X55291728Y-8919257D01*
X55291728Y-9276400D01*
X55220300Y-9490685D01*
X55077442Y-9633542D01*
X54934585Y-9704971D01*
X54648871Y-9776400D01*
X54434585Y-9776400D01*
X54148871Y-9704971D01*
X54006014Y-9633542D01*
X53863157Y-9490685D01*
X53791728Y-9276400D01*
X53791728Y-8919257D01*
X54220300Y-10347828D02*
X54220300Y-11062114D01*
X53791728Y-10204971D02*
X55291728Y-10704971D01*
X53791728Y-11204971D01*
X54363157Y-12847828D02*
X54363157Y-13990685D01*
D12*
X57673738Y-42790742D02*
X57673738Y-43933600D01*
X55673738Y-43362171D02*
X57673738Y-43362171D01*
X55673738Y-44600266D02*
X57007071Y-44600266D01*
X56626119Y-44600266D02*
X56816595Y-44695504D01*
X56911833Y-44790742D01*
X57007071Y-44981219D01*
X57007071Y-45171695D01*
X55673738Y-46695504D02*
X56721357Y-46695504D01*
X56911833Y-46600266D01*
X57007071Y-46409790D01*
X57007071Y-46028838D01*
X56911833Y-45838361D01*
X55768976Y-46695504D02*
X55673738Y-46505028D01*
X55673738Y-46028838D01*
X55768976Y-45838361D01*
X55959452Y-45743123D01*
X56149928Y-45743123D01*
X56340404Y-45838361D01*
X56435642Y-46028838D01*
X56435642Y-46505028D01*
X56530880Y-46695504D01*
X55768976Y-48505028D02*
X55673738Y-48314552D01*
X55673738Y-47933600D01*
X55768976Y-47743123D01*
X55864214Y-47647885D01*
X56054690Y-47552647D01*
X56626119Y-47552647D01*
X56816595Y-47647885D01*
X56911833Y-47743123D01*
X57007071Y-47933600D01*
X57007071Y-48314552D01*
X56911833Y-48505028D01*
X55673738Y-49362171D02*
X57673738Y-49362171D01*
X56435642Y-49552647D02*
X55673738Y-50124076D01*
X57007071Y-50124076D02*
X56245166Y-49362171D01*
X55673738Y-52124076D02*
X56626119Y-51457409D01*
X55673738Y-50981219D02*
X57673738Y-50981219D01*
X57673738Y-51743123D01*
X57578500Y-51933600D01*
X57483261Y-52028838D01*
X57292785Y-52124076D01*
X57007071Y-52124076D01*
X56816595Y-52028838D01*
X56721357Y-51933600D01*
X56626119Y-51743123D01*
X56626119Y-50981219D01*
X55673738Y-53838361D02*
X56721357Y-53838361D01*
X56911833Y-53743123D01*
X57007071Y-53552647D01*
X57007071Y-53171695D01*
X56911833Y-52981219D01*
X55768976Y-53838361D02*
X55673738Y-53647885D01*
X55673738Y-53171695D01*
X55768976Y-52981219D01*
X55959452Y-52885980D01*
X56149928Y-52885980D01*
X56340404Y-52981219D01*
X56435642Y-53171695D01*
X56435642Y-53647885D01*
X56530880Y-53838361D01*
X57007071Y-54600266D02*
X55673738Y-55076457D01*
X57007071Y-55552647D02*
X55673738Y-55076457D01*
X55197547Y-54885980D01*
X55102309Y-54790742D01*
X55007071Y-54600266D01*
X55483261Y-55838361D02*
X55483261Y-57362171D01*
X55673738Y-57838361D02*
X57673738Y-57838361D01*
X56721357Y-57838361D02*
X56721357Y-58981219D01*
X55673738Y-58981219D02*
X57673738Y-58981219D01*
X57673738Y-60314552D02*
X57673738Y-60505028D01*
X57578500Y-60695504D01*
X57483261Y-60790742D01*
X57292785Y-60885980D01*
X56911833Y-60981219D01*
X56435642Y-60981219D01*
X56054690Y-60885980D01*
X55864214Y-60790742D01*
X55768976Y-60695504D01*
X55673738Y-60505028D01*
X55673738Y-60314552D01*
X55768976Y-60124076D01*
X55864214Y-60028838D01*
X56054690Y-59933600D01*
X56435642Y-59838361D01*
X56911833Y-59838361D01*
X57292785Y-59933600D01*
X57483261Y-60028838D01*
X57578500Y-60124076D01*
X57673738Y-60314552D01*
X57673738Y-62219314D02*
X57673738Y-62409790D01*
X57578500Y-62600266D01*
X57483261Y-62695504D01*
X57292785Y-62790742D01*
X56911833Y-62885980D01*
X56435642Y-62885980D01*
X56054690Y-62790742D01*
X55864214Y-62695504D01*
X55768976Y-62600266D01*
X55673738Y-62409790D01*
X55673738Y-62219314D01*
X55768976Y-62028838D01*
X55864214Y-61933600D01*
X56054690Y-61838361D01*
X56435642Y-61743123D01*
X56911833Y-61743123D01*
X57292785Y-61838361D01*
X57483261Y-61933600D01*
X57578500Y-62028838D01*
X57673738Y-62219314D01*
D13*
X62817952Y-91857580D02*
X62817952Y-92571866D01*
X62770333Y-92714723D01*
X62675095Y-92809961D01*
X62532238Y-92857580D01*
X62437000Y-92857580D01*
X63770333Y-92857580D02*
X63294142Y-92857580D01*
X63294142Y-91857580D01*
X64675095Y-92762342D02*
X64627476Y-92809961D01*
X64484619Y-92857580D01*
X64389380Y-92857580D01*
X64246523Y-92809961D01*
X64151285Y-92714723D01*
X64103666Y-92619485D01*
X64056047Y-92429009D01*
X64056047Y-92286152D01*
X64103666Y-92095676D01*
X64151285Y-92000438D01*
X64246523Y-91905200D01*
X64389380Y-91857580D01*
X64484619Y-91857580D01*
X64627476Y-91905200D01*
X64675095Y-91952819D01*
X65389380Y-91857580D02*
X65389380Y-92571866D01*
X65341761Y-92714723D01*
X65246523Y-92809961D01*
X65103666Y-92857580D01*
X65008428Y-92857580D01*
X66341761Y-92857580D02*
X65865571Y-92857580D01*
X65865571Y-91857580D01*
X67246523Y-92762342D02*
X67198904Y-92809961D01*
X67056047Y-92857580D01*
X66960809Y-92857580D01*
X66817952Y-92809961D01*
X66722714Y-92714723D01*
X66675095Y-92619485D01*
X66627476Y-92429009D01*
X66627476Y-92286152D01*
X66675095Y-92095676D01*
X66722714Y-92000438D01*
X66817952Y-91905200D01*
X66960809Y-91857580D01*
X67056047Y-91857580D01*
X67198904Y-91905200D01*
X67246523Y-91952819D01*
X67960809Y-91857580D02*
X67960809Y-92571866D01*
X67913190Y-92714723D01*
X67817952Y-92809961D01*
X67675095Y-92857580D01*
X67579857Y-92857580D01*
X68913190Y-92857580D02*
X68437000Y-92857580D01*
X68437000Y-91857580D01*
X69817952Y-92762342D02*
X69770333Y-92809961D01*
X69627476Y-92857580D01*
X69532238Y-92857580D01*
X69389380Y-92809961D01*
X69294142Y-92714723D01*
X69246523Y-92619485D01*
X69198904Y-92429009D01*
X69198904Y-92286152D01*
X69246523Y-92095676D01*
X69294142Y-92000438D01*
X69389380Y-91905200D01*
X69532238Y-91857580D01*
X69627476Y-91857580D01*
X69770333Y-91905200D01*
X69817952Y-91952819D01*
X70532238Y-91857580D02*
X70532238Y-92571866D01*
X70484619Y-92714723D01*
X70389380Y-92809961D01*
X70246523Y-92857580D01*
X70151285Y-92857580D01*
X71484619Y-92857580D02*
X71008428Y-92857580D01*
X71008428Y-91857580D01*
X72389380Y-92762342D02*
X72341761Y-92809961D01*
X72198904Y-92857580D01*
X72103666Y-92857580D01*
X71960809Y-92809961D01*
X71865571Y-92714723D01*
X71817952Y-92619485D01*
X71770333Y-92429009D01*
X71770333Y-92286152D01*
X71817952Y-92095676D01*
X71865571Y-92000438D01*
X71960809Y-91905200D01*
X72103666Y-91857580D01*
X72198904Y-91857580D01*
X72341761Y-91905200D01*
X72389380Y-91952819D01*
D14*
X225800Y-93819200D02*
X225800Y-73719200D01*
X78225800Y-93819200D02*
X225800Y-93819200D01*
X78225800Y-73719200D02*
X78225800Y-93819200D01*
X225800Y-73719200D02*
X78225800Y-73719200D01*
X70345600Y-43397400D02*
X70345600Y-43997400D01*
X71185600Y-43397400D02*
X70345600Y-43397400D01*
X73169600Y-50017400D02*
X73076600Y-49923400D01*
X75420600Y-52267400D02*
X75361600Y-52208400D01*
X72929600Y-50187400D02*
X72871600Y-50128400D01*
X75214600Y-52472400D02*
X75121600Y-52378400D01*
X78305600Y-53757400D02*
X70584600Y-53757400D01*
X78305600Y-43637400D02*
X70584600Y-43637400D01*
X70584600Y-43637400D02*
X70584600Y-53757400D01*
X78305600Y-43637400D02*
X78305600Y-53757400D01*
X76545600Y-43637400D02*
X76545600Y-53757400D01*
X71845600Y-43637400D02*
X71845600Y-53757400D01*
X71245600Y-43637400D02*
X71245600Y-53757400D01*
X77695600Y-51197400D02*
G75*
G03X77695600Y-51197400I-550000J0D01*
G01*
X75825600Y-51197400D02*
G75*
G03X75825600Y-51197400I-1680000J0D01*
G01*
X77695600Y-46197400D02*
G75*
G03X77695600Y-46197400I-550000J0D01*
G01*
X72465150Y-46226783D02*
G75*
G02X72661600Y-45408400I1680450J29383D01*
G01*
X73356512Y-44713447D02*
G75*
G02X74934600Y-44713400I789088J-1483953D01*
G01*
X75629553Y-45408312D02*
G75*
G02X75629600Y-46986400I-1483953J-789088D01*
G01*
X74934688Y-47681353D02*
G75*
G02X73356600Y-47681400I-789088J1483953D01*
G01*
X72662248Y-46986112D02*
G75*
G02X72465600Y-46197400I1483352J788712D01*
G01*
X55415000Y-14143200D02*
X55415000Y-26643200D01*
X75395000Y-26643200D02*
X75395000Y-14143200D01*
X57785000Y-26643200D02*
X75395000Y-26643200D01*
X55415000Y-26643200D02*
X57785000Y-26643200D01*
X57785000Y-26643200D02*
X57785000Y-29643200D01*
X55415000Y-29643200D02*
X55415000Y-26643200D01*
X75395000Y-29643200D02*
X55415000Y-29643200D01*
X75395000Y-26643200D02*
X75395000Y-29643200D01*
X55415000Y-14143200D02*
X75395000Y-14143200D01*
D15*
X25930000Y-1620000D02*
X52930000Y-1620000D01*
X52930000Y-1620000D02*
X52930000Y-41620000D01*
X52930000Y-41620000D02*
X25930000Y-41620000D01*
X25930000Y-41620000D02*
X25930000Y-1620000D01*
D14*
X58530800Y-12531400D02*
X57200800Y-12531400D01*
X58530800Y-11201400D02*
X58530800Y-12531400D01*
X58530800Y-9931400D02*
X55870800Y-9931400D01*
X55870800Y-9931400D02*
X55870800Y-2251400D01*
X58530800Y-9931400D02*
X58530800Y-2251400D01*
X58530800Y-2251400D02*
X55870800Y-2251400D01*
X61070800Y-12531400D02*
X59740800Y-12531400D01*
X61070800Y-11201400D02*
X61070800Y-12531400D01*
X61070800Y-9931400D02*
X58410800Y-9931400D01*
X58410800Y-9931400D02*
X58410800Y-2251400D01*
X61070800Y-9931400D02*
X61070800Y-2251400D01*
X61070800Y-2251400D02*
X58410800Y-2251400D01*
X63610800Y-12531400D02*
X62280800Y-12531400D01*
X63610800Y-11201400D02*
X63610800Y-12531400D01*
X63610800Y-9931400D02*
X60950800Y-9931400D01*
X60950800Y-9931400D02*
X60950800Y-2251400D01*
X63610800Y-9931400D02*
X63610800Y-2251400D01*
X63610800Y-2251400D02*
X60950800Y-2251400D01*
X47898400Y-67979400D02*
X47898400Y-68135400D01*
X47898400Y-65663400D02*
X47898400Y-65819400D01*
X50499530Y-67979237D02*
G75*
G02X48417439Y-67979400I-1041130J1079837D01*
G01*
X50499530Y-65819563D02*
G75*
G03X48417439Y-65819400I-1041130J-1079837D01*
G01*
X51130735Y-67978008D02*
G75*
G02X47898400Y-68134916I-1672335J1078608D01*
G01*
X51130735Y-65820792D02*
G75*
G03X47898400Y-65663884I-1672335J-1078608D01*
G01*
X27898400Y-67979400D02*
X27898400Y-68135400D01*
X27898400Y-65663400D02*
X27898400Y-65819400D01*
X30499530Y-67979237D02*
G75*
G02X28417439Y-67979400I-1041130J1079837D01*
G01*
X30499530Y-65819563D02*
G75*
G03X28417439Y-65819400I-1041130J-1079837D01*
G01*
X31130735Y-67978008D02*
G75*
G02X27898400Y-68134916I-1672335J1078608D01*
G01*
X31130735Y-65820792D02*
G75*
G03X27898400Y-65663884I-1672335J-1078608D01*
G01*
X47898400Y-62979400D02*
X47898400Y-63135400D01*
X47898400Y-60663400D02*
X47898400Y-60819400D01*
X50499530Y-62979237D02*
G75*
G02X48417439Y-62979400I-1041130J1079837D01*
G01*
X50499530Y-60819563D02*
G75*
G03X48417439Y-60819400I-1041130J-1079837D01*
G01*
X51130735Y-62978008D02*
G75*
G02X47898400Y-63134916I-1672335J1078608D01*
G01*
X51130735Y-60820792D02*
G75*
G03X47898400Y-60663884I-1672335J-1078608D01*
G01*
X32898400Y-67979400D02*
X32898400Y-68135400D01*
X32898400Y-65663400D02*
X32898400Y-65819400D01*
X35499530Y-67979237D02*
G75*
G02X33417439Y-67979400I-1041130J1079837D01*
G01*
X35499530Y-65819563D02*
G75*
G03X33417439Y-65819400I-1041130J-1079837D01*
G01*
X36130735Y-67978008D02*
G75*
G02X32898400Y-68134916I-1672335J1078608D01*
G01*
X36130735Y-65820792D02*
G75*
G03X32898400Y-65663884I-1672335J-1078608D01*
G01*
X42898400Y-67979400D02*
X42898400Y-68135400D01*
X42898400Y-65663400D02*
X42898400Y-65819400D01*
X45499530Y-67979237D02*
G75*
G02X43417439Y-67979400I-1041130J1079837D01*
G01*
X45499530Y-65819563D02*
G75*
G03X43417439Y-65819400I-1041130J-1079837D01*
G01*
X46130735Y-67978008D02*
G75*
G02X42898400Y-68134916I-1672335J1078608D01*
G01*
X46130735Y-65820792D02*
G75*
G03X42898400Y-65663884I-1672335J-1078608D01*
G01*
X42898400Y-62979400D02*
X42898400Y-63135400D01*
X42898400Y-60663400D02*
X42898400Y-60819400D01*
X45499530Y-62979237D02*
G75*
G02X43417439Y-62979400I-1041130J1079837D01*
G01*
X45499530Y-60819563D02*
G75*
G03X43417439Y-60819400I-1041130J-1079837D01*
G01*
X46130735Y-62978008D02*
G75*
G02X42898400Y-63134916I-1672335J1078608D01*
G01*
X46130735Y-60820792D02*
G75*
G03X42898400Y-60663884I-1672335J-1078608D01*
G01*
X37898400Y-67979400D02*
X37898400Y-68135400D01*
X37898400Y-65663400D02*
X37898400Y-65819400D01*
X40499530Y-67979237D02*
G75*
G02X38417439Y-67979400I-1041130J1079837D01*
G01*
X40499530Y-65819563D02*
G75*
G03X38417439Y-65819400I-1041130J-1079837D01*
G01*
X41130735Y-67978008D02*
G75*
G02X37898400Y-68134916I-1672335J1078608D01*
G01*
X41130735Y-65820792D02*
G75*
G03X37898400Y-65663884I-1672335J-1078608D01*
G01*
X37898400Y-62979400D02*
X37898400Y-63135400D01*
X37898400Y-60663400D02*
X37898400Y-60819400D01*
X40499530Y-62979237D02*
G75*
G02X38417439Y-62979400I-1041130J1079837D01*
G01*
X40499530Y-60819563D02*
G75*
G03X38417439Y-60819400I-1041130J-1079837D01*
G01*
X41130735Y-62978008D02*
G75*
G02X37898400Y-63134916I-1672335J1078608D01*
G01*
X41130735Y-60820792D02*
G75*
G03X37898400Y-60663884I-1672335J-1078608D01*
G01*
X32898400Y-47979400D02*
X32898400Y-48135400D01*
X32898400Y-45663400D02*
X32898400Y-45819400D01*
X35499530Y-47979237D02*
G75*
G02X33417439Y-47979400I-1041130J1079837D01*
G01*
X35499530Y-45819563D02*
G75*
G03X33417439Y-45819400I-1041130J-1079837D01*
G01*
X36130735Y-47978008D02*
G75*
G02X32898400Y-48134916I-1672335J1078608D01*
G01*
X36130735Y-45820792D02*
G75*
G03X32898400Y-45663884I-1672335J-1078608D01*
G01*
X47898400Y-57979400D02*
X47898400Y-58135400D01*
X47898400Y-55663400D02*
X47898400Y-55819400D01*
X50499530Y-57979237D02*
G75*
G02X48417439Y-57979400I-1041130J1079837D01*
G01*
X50499530Y-55819563D02*
G75*
G03X48417439Y-55819400I-1041130J-1079837D01*
G01*
X51130735Y-57978008D02*
G75*
G02X47898400Y-58134916I-1672335J1078608D01*
G01*
X51130735Y-55820792D02*
G75*
G03X47898400Y-55663884I-1672335J-1078608D01*
G01*
X27898400Y-57979400D02*
X27898400Y-58135400D01*
X27898400Y-55663400D02*
X27898400Y-55819400D01*
X30499530Y-57979237D02*
G75*
G02X28417439Y-57979400I-1041130J1079837D01*
G01*
X30499530Y-55819563D02*
G75*
G03X28417439Y-55819400I-1041130J-1079837D01*
G01*
X31130735Y-57978008D02*
G75*
G02X27898400Y-58134916I-1672335J1078608D01*
G01*
X31130735Y-55820792D02*
G75*
G03X27898400Y-55663884I-1672335J-1078608D01*
G01*
X32898400Y-62979400D02*
X32898400Y-63135400D01*
X32898400Y-60663400D02*
X32898400Y-60819400D01*
X35499530Y-62979237D02*
G75*
G02X33417439Y-62979400I-1041130J1079837D01*
G01*
X35499530Y-60819563D02*
G75*
G03X33417439Y-60819400I-1041130J-1079837D01*
G01*
X36130735Y-62978008D02*
G75*
G02X32898400Y-63134916I-1672335J1078608D01*
G01*
X36130735Y-60820792D02*
G75*
G03X32898400Y-60663884I-1672335J-1078608D01*
G01*
X32898400Y-52979400D02*
X32898400Y-53135400D01*
X32898400Y-50663400D02*
X32898400Y-50819400D01*
X35499530Y-52979237D02*
G75*
G02X33417439Y-52979400I-1041130J1079837D01*
G01*
X35499530Y-50819563D02*
G75*
G03X33417439Y-50819400I-1041130J-1079837D01*
G01*
X36130735Y-52978008D02*
G75*
G02X32898400Y-53134916I-1672335J1078608D01*
G01*
X36130735Y-50820792D02*
G75*
G03X32898400Y-50663884I-1672335J-1078608D01*
G01*
X47898400Y-47979400D02*
X47898400Y-48135400D01*
X47898400Y-45663400D02*
X47898400Y-45819400D01*
X50499530Y-47979237D02*
G75*
G02X48417439Y-47979400I-1041130J1079837D01*
G01*
X50499530Y-45819563D02*
G75*
G03X48417439Y-45819400I-1041130J-1079837D01*
G01*
X51130735Y-47978008D02*
G75*
G02X47898400Y-48134916I-1672335J1078608D01*
G01*
X51130735Y-45820792D02*
G75*
G03X47898400Y-45663884I-1672335J-1078608D01*
G01*
X37898400Y-47979400D02*
X37898400Y-48135400D01*
X37898400Y-45663400D02*
X37898400Y-45819400D01*
X40499530Y-47979237D02*
G75*
G02X38417439Y-47979400I-1041130J1079837D01*
G01*
X40499530Y-45819563D02*
G75*
G03X38417439Y-45819400I-1041130J-1079837D01*
G01*
X41130735Y-47978008D02*
G75*
G02X37898400Y-48134916I-1672335J1078608D01*
G01*
X41130735Y-45820792D02*
G75*
G03X37898400Y-45663884I-1672335J-1078608D01*
G01*
X32898400Y-57979400D02*
X32898400Y-58135400D01*
X32898400Y-55663400D02*
X32898400Y-55819400D01*
X35499530Y-57979237D02*
G75*
G02X33417439Y-57979400I-1041130J1079837D01*
G01*
X35499530Y-55819563D02*
G75*
G03X33417439Y-55819400I-1041130J-1079837D01*
G01*
X36130735Y-57978008D02*
G75*
G02X32898400Y-58134916I-1672335J1078608D01*
G01*
X36130735Y-55820792D02*
G75*
G03X32898400Y-55663884I-1672335J-1078608D01*
G01*
X42898400Y-57979400D02*
X42898400Y-58135400D01*
X42898400Y-55663400D02*
X42898400Y-55819400D01*
X45499530Y-57979237D02*
G75*
G02X43417439Y-57979400I-1041130J1079837D01*
G01*
X45499530Y-55819563D02*
G75*
G03X43417439Y-55819400I-1041130J-1079837D01*
G01*
X46130735Y-57978008D02*
G75*
G02X42898400Y-58134916I-1672335J1078608D01*
G01*
X46130735Y-55820792D02*
G75*
G03X42898400Y-55663884I-1672335J-1078608D01*
G01*
X42898400Y-52979400D02*
X42898400Y-53135400D01*
X42898400Y-50663400D02*
X42898400Y-50819400D01*
X45499530Y-52979237D02*
G75*
G02X43417439Y-52979400I-1041130J1079837D01*
G01*
X45499530Y-50819563D02*
G75*
G03X43417439Y-50819400I-1041130J-1079837D01*
G01*
X46130735Y-52978008D02*
G75*
G02X42898400Y-53134916I-1672335J1078608D01*
G01*
X46130735Y-50820792D02*
G75*
G03X42898400Y-50663884I-1672335J-1078608D01*
G01*
X27898400Y-62979400D02*
X27898400Y-63135400D01*
X27898400Y-60663400D02*
X27898400Y-60819400D01*
X30499530Y-62979237D02*
G75*
G02X28417439Y-62979400I-1041130J1079837D01*
G01*
X30499530Y-60819563D02*
G75*
G03X28417439Y-60819400I-1041130J-1079837D01*
G01*
X31130735Y-62978008D02*
G75*
G02X27898400Y-63134916I-1672335J1078608D01*
G01*
X31130735Y-60820792D02*
G75*
G03X27898400Y-60663884I-1672335J-1078608D01*
G01*
X37898400Y-52979400D02*
X37898400Y-53135400D01*
X37898400Y-50663400D02*
X37898400Y-50819400D01*
X40499530Y-52979237D02*
G75*
G02X38417439Y-52979400I-1041130J1079837D01*
G01*
X40499530Y-50819563D02*
G75*
G03X38417439Y-50819400I-1041130J-1079837D01*
G01*
X41130735Y-52978008D02*
G75*
G02X37898400Y-53134916I-1672335J1078608D01*
G01*
X41130735Y-50820792D02*
G75*
G03X37898400Y-50663884I-1672335J-1078608D01*
G01*
X42898400Y-47979400D02*
X42898400Y-48135400D01*
X42898400Y-45663400D02*
X42898400Y-45819400D01*
X45499530Y-47979237D02*
G75*
G02X43417439Y-47979400I-1041130J1079837D01*
G01*
X45499530Y-45819563D02*
G75*
G03X43417439Y-45819400I-1041130J-1079837D01*
G01*
X46130735Y-47978008D02*
G75*
G02X42898400Y-48134916I-1672335J1078608D01*
G01*
X46130735Y-45820792D02*
G75*
G03X42898400Y-45663884I-1672335J-1078608D01*
G01*
X37898400Y-57979400D02*
X37898400Y-58135400D01*
X37898400Y-55663400D02*
X37898400Y-55819400D01*
X40499530Y-57979237D02*
G75*
G02X38417439Y-57979400I-1041130J1079837D01*
G01*
X40499530Y-55819563D02*
G75*
G03X38417439Y-55819400I-1041130J-1079837D01*
G01*
X41130735Y-57978008D02*
G75*
G02X37898400Y-58134916I-1672335J1078608D01*
G01*
X41130735Y-55820792D02*
G75*
G03X37898400Y-55663884I-1672335J-1078608D01*
G01*
X47898400Y-52979400D02*
X47898400Y-53135400D01*
X47898400Y-50663400D02*
X47898400Y-50819400D01*
X50499530Y-52979237D02*
G75*
G02X48417439Y-52979400I-1041130J1079837D01*
G01*
X50499530Y-50819563D02*
G75*
G03X48417439Y-50819400I-1041130J-1079837D01*
G01*
X51130735Y-52978008D02*
G75*
G02X47898400Y-53134916I-1672335J1078608D01*
G01*
X51130735Y-50820792D02*
G75*
G03X47898400Y-50663884I-1672335J-1078608D01*
G01*
X27898400Y-52979400D02*
X27898400Y-53135400D01*
X27898400Y-50663400D02*
X27898400Y-50819400D01*
X30499530Y-52979237D02*
G75*
G02X28417439Y-52979400I-1041130J1079837D01*
G01*
X30499530Y-50819563D02*
G75*
G03X28417439Y-50819400I-1041130J-1079837D01*
G01*
X31130735Y-52978008D02*
G75*
G02X27898400Y-53134916I-1672335J1078608D01*
G01*
X31130735Y-50820792D02*
G75*
G03X27898400Y-50663884I-1672335J-1078608D01*
G01*
X27898400Y-47979400D02*
X27898400Y-48135400D01*
X27898400Y-45663400D02*
X27898400Y-45819400D01*
X30499530Y-47979237D02*
G75*
G02X28417439Y-47979400I-1041130J1079837D01*
G01*
X30499530Y-45819563D02*
G75*
G03X28417439Y-45819400I-1041130J-1079837D01*
G01*
X31130735Y-47978008D02*
G75*
G02X27898400Y-48134916I-1672335J1078608D01*
G01*
X31130735Y-45820792D02*
G75*
G03X27898400Y-45663884I-1672335J-1078608D01*
G01*
X23725000Y-11360000D02*
G75*
G03X18675000Y-11360000I-2525000J0D01*
G01*
X23725000Y-17760000D02*
G75*
G02X18675000Y-17760000I-2525000J0D01*
G01*
X23725000Y-17760000D02*
X23725000Y-11360000D01*
X18675000Y-17760000D02*
X18675000Y-11360000D01*
X8259800Y-43798200D02*
X8259800Y-43198200D01*
X7419800Y-43798200D02*
X8259800Y-43798200D01*
X5435800Y-37178200D02*
X5528800Y-37272200D01*
X3184800Y-34928200D02*
X3243800Y-34987200D01*
X5675800Y-37008200D02*
X5733800Y-37067200D01*
X3390800Y-34723200D02*
X3483800Y-34817200D01*
X299800Y-33438200D02*
X8020800Y-33438200D01*
X299800Y-43558200D02*
X8020800Y-43558200D01*
X8020800Y-43558200D02*
X8020800Y-33438200D01*
X299800Y-43558200D02*
X299800Y-33438200D01*
X2059800Y-43558200D02*
X2059800Y-33438200D01*
X6759800Y-43558200D02*
X6759800Y-33438200D01*
X7359800Y-43558200D02*
X7359800Y-33438200D01*
X2009800Y-35998200D02*
G75*
G03X2009800Y-35998200I-550000J0D01*
G01*
X6139800Y-35998200D02*
G75*
G03X6139800Y-35998200I-1680000J0D01*
G01*
X2009800Y-40998200D02*
G75*
G03X2009800Y-40998200I-550000J0D01*
G01*
X6140250Y-40968817D02*
G75*
G02X5943800Y-41787200I-1680450J-29383D01*
G01*
X5248888Y-42482153D02*
G75*
G02X3670800Y-42482200I-789088J1483953D01*
G01*
X2975847Y-41787288D02*
G75*
G02X2975800Y-40209200I1483953J789088D01*
G01*
X3670712Y-39514247D02*
G75*
G02X5248800Y-39514200I789088J-1483953D01*
G01*
X5943152Y-40209488D02*
G75*
G02X6139800Y-40998200I-1483352J-788712D01*
G01*
X66085400Y-34488800D02*
X66085400Y-37168800D01*
X59845400Y-37168800D02*
X59845400Y-34488800D01*
X59995400Y-32708800D02*
X65935400Y-32708800D01*
X59995400Y-38948800D02*
X65935400Y-38948800D01*
X64379614Y-35828800D02*
G75*
G03X64379614Y-35828800I-1414214J0D01*
G01*
X66213400Y-3028000D02*
X68893400Y-3028000D01*
X68893400Y-9268000D02*
X66213400Y-9268000D01*
X64433400Y-9118000D02*
X64433400Y-3178000D01*
X70673400Y-9118000D02*
X70673400Y-3178000D01*
X68967614Y-6148000D02*
G75*
G03X68967614Y-6148000I-1414214J0D01*
G01*
X8442800Y-61993200D02*
X13512800Y-61993200D01*
X8442800Y-71763200D02*
X13512800Y-71763200D01*
X13512800Y-71763200D02*
X13512800Y-61993200D01*
X8442800Y-71763200D02*
X8442800Y-61993200D01*
X70345600Y-33397400D02*
X70345600Y-33997400D01*
X71185600Y-33397400D02*
X70345600Y-33397400D01*
X73169600Y-40017400D02*
X73076600Y-39923400D01*
X75420600Y-42267400D02*
X75361600Y-42208400D01*
X72929600Y-40187400D02*
X72871600Y-40128400D01*
X75214600Y-42472400D02*
X75121600Y-42378400D01*
X78305600Y-43757400D02*
X70584600Y-43757400D01*
X78305600Y-33637400D02*
X70584600Y-33637400D01*
X70584600Y-33637400D02*
X70584600Y-43757400D01*
X78305600Y-33637400D02*
X78305600Y-43757400D01*
X76545600Y-33637400D02*
X76545600Y-43757400D01*
X71845600Y-33637400D02*
X71845600Y-43757400D01*
X71245600Y-33637400D02*
X71245600Y-43757400D01*
X77695600Y-41197400D02*
G75*
G03X77695600Y-41197400I-550000J0D01*
G01*
X75825600Y-41197400D02*
G75*
G03X75825600Y-41197400I-1680000J0D01*
G01*
X77695600Y-36197400D02*
G75*
G03X77695600Y-36197400I-550000J0D01*
G01*
X72465150Y-36226783D02*
G75*
G02X72661600Y-35408400I1680450J29383D01*
G01*
X73356512Y-34713447D02*
G75*
G02X74934600Y-34713400I789088J-1483953D01*
G01*
X75629553Y-35408312D02*
G75*
G02X75629600Y-36986400I-1483953J-789088D01*
G01*
X74934688Y-37681353D02*
G75*
G02X73356600Y-37681400I-789088J1483953D01*
G01*
X72662248Y-36986112D02*
G75*
G02X72465600Y-36197400I1483352J788712D01*
G01*
X8259800Y-53798200D02*
X8259800Y-53198200D01*
X7419800Y-53798200D02*
X8259800Y-53798200D01*
X5435800Y-47178200D02*
X5528800Y-47272200D01*
X3184800Y-44928200D02*
X3243800Y-44987200D01*
X5675800Y-47008200D02*
X5733800Y-47067200D01*
X3390800Y-44723200D02*
X3483800Y-44817200D01*
X299800Y-43438200D02*
X8020800Y-43438200D01*
X299800Y-53558200D02*
X8020800Y-53558200D01*
X8020800Y-53558200D02*
X8020800Y-43438200D01*
X299800Y-53558200D02*
X299800Y-43438200D01*
X2059800Y-53558200D02*
X2059800Y-43438200D01*
X6759800Y-53558200D02*
X6759800Y-43438200D01*
X7359800Y-53558200D02*
X7359800Y-43438200D01*
X2009800Y-45998200D02*
G75*
G03X2009800Y-45998200I-550000J0D01*
G01*
X6139800Y-45998200D02*
G75*
G03X6139800Y-45998200I-1680000J0D01*
G01*
X2009800Y-50998200D02*
G75*
G03X2009800Y-50998200I-550000J0D01*
G01*
X6140250Y-50968817D02*
G75*
G02X5943800Y-51787200I-1680450J-29383D01*
G01*
X5248888Y-52482153D02*
G75*
G02X3670800Y-52482200I-789088J1483953D01*
G01*
X2975847Y-51787288D02*
G75*
G02X2975800Y-50209200I1483953J789088D01*
G01*
X3670712Y-49514247D02*
G75*
G02X5248800Y-49514200I789088J-1483953D01*
G01*
X5943152Y-50209488D02*
G75*
G02X6139800Y-50998200I-1483352J-788712D01*
G01*
D16*
X9809600Y-5944000D02*
X9809600Y-9144000D01*
X9809600Y-9144000D02*
X10709600Y-9144000D01*
X15909600Y-9144000D02*
X16809600Y-9144000D01*
X16809600Y-9144000D02*
X16809600Y-5944000D01*
D14*
X6195500Y-60599200D02*
X6195500Y-60443200D01*
X6195500Y-62915200D02*
X6195500Y-62759200D01*
X3594370Y-60599363D02*
G75*
G02X5676461Y-60599200I1041130J-1079837D01*
G01*
X3594370Y-62759037D02*
G75*
G03X5676461Y-62759200I1041130J1079837D01*
G01*
X2963165Y-60600592D02*
G75*
G02X6195500Y-60443684I1672335J-1078608D01*
G01*
X2963165Y-62757808D02*
G75*
G03X6195500Y-62914716I1672335J1078608D01*
G01*
X6195500Y-56027200D02*
X6195500Y-55871200D01*
X6195500Y-58343200D02*
X6195500Y-58187200D01*
X3594370Y-56027363D02*
G75*
G02X5676461Y-56027200I1041130J-1079837D01*
G01*
X3594370Y-58187037D02*
G75*
G03X5676461Y-58187200I1041130J1079837D01*
G01*
X2963165Y-56028592D02*
G75*
G02X6195500Y-55871684I1672335J-1078608D01*
G01*
X2963165Y-58185808D02*
G75*
G03X6195500Y-58342716I1672335J1078608D01*
G01*
X65101600Y-63303600D02*
X65101600Y-63147600D01*
X65101600Y-65619600D02*
X65101600Y-65463600D01*
X62500470Y-63303763D02*
G75*
G02X64582561Y-63303600I1041130J-1079837D01*
G01*
X62500470Y-65463437D02*
G75*
G03X64582561Y-65463600I1041130J1079837D01*
G01*
X61869265Y-63304992D02*
G75*
G02X65101600Y-63148084I1672335J-1078608D01*
G01*
X61869265Y-65462208D02*
G75*
G03X65101600Y-65619116I1672335J1078608D01*
G01*
X65101600Y-58711600D02*
X65101600Y-58555600D01*
X65101600Y-61027600D02*
X65101600Y-60871600D01*
X62500470Y-58711763D02*
G75*
G02X64582561Y-58711600I1041130J-1079837D01*
G01*
X62500470Y-60871437D02*
G75*
G03X64582561Y-60871600I1041130J1079837D01*
G01*
X61869265Y-58712992D02*
G75*
G02X65101600Y-58556084I1672335J-1078608D01*
G01*
X61869265Y-60870208D02*
G75*
G03X65101600Y-61027116I1672335J1078608D01*
G01*
X65101600Y-54111600D02*
X65101600Y-53955600D01*
X65101600Y-56427600D02*
X65101600Y-56271600D01*
X62500470Y-54111763D02*
G75*
G02X64582561Y-54111600I1041130J-1079837D01*
G01*
X62500470Y-56271437D02*
G75*
G03X64582561Y-56271600I1041130J1079837D01*
G01*
X61869265Y-54112992D02*
G75*
G02X65101600Y-53956084I1672335J-1078608D01*
G01*
X61869265Y-56270208D02*
G75*
G03X65101600Y-56427116I1672335J1078608D01*
G01*
X65101600Y-49511600D02*
X65101600Y-49355600D01*
X65101600Y-51827600D02*
X65101600Y-51671600D01*
X62500470Y-49511763D02*
G75*
G02X64582561Y-49511600I1041130J-1079837D01*
G01*
X62500470Y-51671437D02*
G75*
G03X64582561Y-51671600I1041130J1079837D01*
G01*
X61869265Y-49512992D02*
G75*
G02X65101600Y-49356084I1672335J-1078608D01*
G01*
X61869265Y-51670208D02*
G75*
G03X65101600Y-51827116I1672335J1078608D01*
G01*
X65101600Y-44911600D02*
X65101600Y-44755600D01*
X65101600Y-47227600D02*
X65101600Y-47071600D01*
X62500470Y-44911763D02*
G75*
G02X64582561Y-44911600I1041130J-1079837D01*
G01*
X62500470Y-47071437D02*
G75*
G03X64582561Y-47071600I1041130J1079837D01*
G01*
X61869265Y-44912992D02*
G75*
G02X65101600Y-44756084I1672335J-1078608D01*
G01*
X61869265Y-47070208D02*
G75*
G03X65101600Y-47227116I1672335J1078608D01*
G01*
X22348800Y-23225154D02*
X21348800Y-23225154D01*
X21848800Y-22725154D02*
X21848800Y-23725154D01*
X19572800Y-33285800D02*
X18374800Y-33285800D01*
X19835800Y-33245800D02*
X18111800Y-33245800D01*
X20035800Y-33205800D02*
X17911800Y-33205800D01*
X20203800Y-33165800D02*
X17743800Y-33165800D01*
X20351800Y-33125800D02*
X17595800Y-33125800D01*
X20483800Y-33085800D02*
X17463800Y-33085800D01*
X20603800Y-33045800D02*
X17343800Y-33045800D01*
X20715800Y-33005800D02*
X17231800Y-33005800D01*
X20819800Y-32965800D02*
X17127800Y-32965800D01*
X20917800Y-32925800D02*
X17029800Y-32925800D01*
X21010800Y-32885800D02*
X16936800Y-32885800D01*
X21098800Y-32845800D02*
X16848800Y-32845800D01*
X21182800Y-32805800D02*
X16764800Y-32805800D01*
X21262800Y-32765800D02*
X16684800Y-32765800D01*
X21338800Y-32725800D02*
X16608800Y-32725800D01*
X21412800Y-32685800D02*
X16534800Y-32685800D01*
X21483800Y-32645800D02*
X16463800Y-32645800D01*
X21552800Y-32605800D02*
X16394800Y-32605800D01*
X21618800Y-32565800D02*
X16328800Y-32565800D01*
X21682800Y-32525800D02*
X16264800Y-32525800D01*
X21743800Y-32485800D02*
X16203800Y-32485800D01*
X21803800Y-32445800D02*
X16143800Y-32445800D01*
X21862800Y-32405800D02*
X16084800Y-32405800D01*
X21918800Y-32365800D02*
X16028800Y-32365800D01*
X21973800Y-32325800D02*
X15973800Y-32325800D01*
X22027800Y-32285800D02*
X15919800Y-32285800D01*
X22079800Y-32245800D02*
X15867800Y-32245800D01*
X22129800Y-32205800D02*
X15817800Y-32205800D01*
X22179800Y-32165800D02*
X15767800Y-32165800D01*
X22227800Y-32125800D02*
X15719800Y-32125800D01*
X22274800Y-32085800D02*
X15672800Y-32085800D01*
X22320800Y-32045800D02*
X15626800Y-32045800D01*
X22365800Y-32005800D02*
X15581800Y-32005800D01*
X22409800Y-31965800D02*
X15537800Y-31965800D01*
X17732800Y-31925800D02*
X15495800Y-31925800D01*
X22451800Y-31925800D02*
X20214800Y-31925800D01*
X17732800Y-31885800D02*
X15453800Y-31885800D01*
X22493800Y-31885800D02*
X20214800Y-31885800D01*
X17732800Y-31845800D02*
X15412800Y-31845800D01*
X22534800Y-31845800D02*
X20214800Y-31845800D01*
X17732800Y-31805800D02*
X15372800Y-31805800D01*
X22574800Y-31805800D02*
X20214800Y-31805800D01*
X17732800Y-31765800D02*
X15333800Y-31765800D01*
X22613800Y-31765800D02*
X20214800Y-31765800D01*
X17732800Y-31725800D02*
X15294800Y-31725800D01*
X22652800Y-31725800D02*
X20214800Y-31725800D01*
X17732800Y-31685800D02*
X15257800Y-31685800D01*
X22689800Y-31685800D02*
X20214800Y-31685800D01*
X17732800Y-31645800D02*
X15220800Y-31645800D01*
X22726800Y-31645800D02*
X20214800Y-31645800D01*
X17732800Y-31605800D02*
X15184800Y-31605800D01*
X22762800Y-31605800D02*
X20214800Y-31605800D01*
X17732800Y-31565800D02*
X15149800Y-31565800D01*
X22797800Y-31565800D02*
X20214800Y-31565800D01*
X17732800Y-31525800D02*
X15115800Y-31525800D01*
X22831800Y-31525800D02*
X20214800Y-31525800D01*
X17732800Y-31485800D02*
X15081800Y-31485800D01*
X22865800Y-31485800D02*
X20214800Y-31485800D01*
X17732800Y-31445800D02*
X15048800Y-31445800D01*
X22898800Y-31445800D02*
X20214800Y-31445800D01*
X17732800Y-31405800D02*
X15016800Y-31405800D01*
X22930800Y-31405800D02*
X20214800Y-31405800D01*
X17732800Y-31365800D02*
X14984800Y-31365800D01*
X22962800Y-31365800D02*
X20214800Y-31365800D01*
X17732800Y-31325800D02*
X14953800Y-31325800D01*
X22993800Y-31325800D02*
X20214800Y-31325800D01*
X17732800Y-31285800D02*
X14923800Y-31285800D01*
X23023800Y-31285800D02*
X20214800Y-31285800D01*
X17732800Y-31245800D02*
X14893800Y-31245800D01*
X23053800Y-31245800D02*
X20214800Y-31245800D01*
X17732800Y-31205800D02*
X14863800Y-31205800D01*
X23083800Y-31205800D02*
X20214800Y-31205800D01*
X17732800Y-31165800D02*
X14835800Y-31165800D01*
X23111800Y-31165800D02*
X20214800Y-31165800D01*
X17732800Y-31125800D02*
X14807800Y-31125800D01*
X23139800Y-31125800D02*
X20214800Y-31125800D01*
X17732800Y-31085800D02*
X14779800Y-31085800D01*
X23167800Y-31085800D02*
X20214800Y-31085800D01*
X17732800Y-31045800D02*
X14752800Y-31045800D01*
X23194800Y-31045800D02*
X20214800Y-31045800D01*
X17732800Y-31005800D02*
X14726800Y-31005800D01*
X23220800Y-31005800D02*
X20214800Y-31005800D01*
X17732800Y-30965800D02*
X14700800Y-30965800D01*
X23246800Y-30965800D02*
X20214800Y-30965800D01*
X17732800Y-30925800D02*
X14675800Y-30925800D01*
X23271800Y-30925800D02*
X20214800Y-30925800D01*
X17732800Y-30885800D02*
X14650800Y-30885800D01*
X23296800Y-30885800D02*
X20214800Y-30885800D01*
X17732800Y-30845800D02*
X14626800Y-30845800D01*
X23320800Y-30845800D02*
X20214800Y-30845800D01*
X17732800Y-30805800D02*
X14602800Y-30805800D01*
X23344800Y-30805800D02*
X20214800Y-30805800D01*
X17732800Y-30765800D02*
X14578800Y-30765800D01*
X23368800Y-30765800D02*
X20214800Y-30765800D01*
X17732800Y-30725800D02*
X14556800Y-30725800D01*
X23390800Y-30725800D02*
X20214800Y-30725800D01*
X17732800Y-30685800D02*
X14533800Y-30685800D01*
X23413800Y-30685800D02*
X20214800Y-30685800D01*
X17732800Y-30645800D02*
X14511800Y-30645800D01*
X23435800Y-30645800D02*
X20214800Y-30645800D01*
X17732800Y-30605800D02*
X14490800Y-30605800D01*
X23456800Y-30605800D02*
X20214800Y-30605800D01*
X17732800Y-30565800D02*
X14469800Y-30565800D01*
X23477800Y-30565800D02*
X20214800Y-30565800D01*
X17732800Y-30525800D02*
X14448800Y-30525800D01*
X23498800Y-30525800D02*
X20214800Y-30525800D01*
X17732800Y-30485800D02*
X14428800Y-30485800D01*
X23518800Y-30485800D02*
X20214800Y-30485800D01*
X17732800Y-30445800D02*
X14409800Y-30445800D01*
X23537800Y-30445800D02*
X20214800Y-30445800D01*
X17732800Y-30405800D02*
X14389800Y-30405800D01*
X23557800Y-30405800D02*
X20214800Y-30405800D01*
X17732800Y-30365800D02*
X14370800Y-30365800D01*
X23576800Y-30365800D02*
X20214800Y-30365800D01*
X17732800Y-30325800D02*
X14352800Y-30325800D01*
X23594800Y-30325800D02*
X20214800Y-30325800D01*
X17732800Y-30285800D02*
X14334800Y-30285800D01*
X23612800Y-30285800D02*
X20214800Y-30285800D01*
X17732800Y-30245800D02*
X14316800Y-30245800D01*
X23630800Y-30245800D02*
X20214800Y-30245800D01*
X17732800Y-30205800D02*
X14299800Y-30205800D01*
X23647800Y-30205800D02*
X20214800Y-30205800D01*
X17732800Y-30165800D02*
X14283800Y-30165800D01*
X23663800Y-30165800D02*
X20214800Y-30165800D01*
X17732800Y-30125800D02*
X14266800Y-30125800D01*
X23680800Y-30125800D02*
X20214800Y-30125800D01*
X17732800Y-30085800D02*
X14250800Y-30085800D01*
X23696800Y-30085800D02*
X20214800Y-30085800D01*
X17732800Y-30045800D02*
X14235800Y-30045800D01*
X23711800Y-30045800D02*
X20214800Y-30045800D01*
X17732800Y-30005800D02*
X14219800Y-30005800D01*
X23727800Y-30005800D02*
X20214800Y-30005800D01*
X17732800Y-29965800D02*
X14205800Y-29965800D01*
X23741800Y-29965800D02*
X20214800Y-29965800D01*
X17732800Y-29925800D02*
X14190800Y-29925800D01*
X23756800Y-29925800D02*
X20214800Y-29925800D01*
X17732800Y-29885800D02*
X14176800Y-29885800D01*
X23770800Y-29885800D02*
X20214800Y-29885800D01*
X17732800Y-29845800D02*
X14162800Y-29845800D01*
X23784800Y-29845800D02*
X20214800Y-29845800D01*
X17732800Y-29805800D02*
X14149800Y-29805800D01*
X23797800Y-29805800D02*
X20214800Y-29805800D01*
X17732800Y-29765800D02*
X14136800Y-29765800D01*
X23810800Y-29765800D02*
X20214800Y-29765800D01*
X17732800Y-29725800D02*
X14123800Y-29725800D01*
X23823800Y-29725800D02*
X20214800Y-29725800D01*
X17732800Y-29685800D02*
X14111800Y-29685800D01*
X23835800Y-29685800D02*
X20214800Y-29685800D01*
X17732800Y-29645800D02*
X14099800Y-29645800D01*
X23847800Y-29645800D02*
X20214800Y-29645800D01*
X17732800Y-29605800D02*
X14088800Y-29605800D01*
X23858800Y-29605800D02*
X20214800Y-29605800D01*
X17732800Y-29565800D02*
X14076800Y-29565800D01*
X23870800Y-29565800D02*
X20214800Y-29565800D01*
X17732800Y-29525800D02*
X14066800Y-29525800D01*
X23880800Y-29525800D02*
X20214800Y-29525800D01*
X17732800Y-29485800D02*
X14055800Y-29485800D01*
X23891800Y-29485800D02*
X20214800Y-29485800D01*
X23901800Y-29445800D02*
X14045800Y-29445800D01*
X23911800Y-29405800D02*
X14035800Y-29405800D01*
X23920800Y-29365800D02*
X14026800Y-29365800D01*
X23929800Y-29325800D02*
X14017800Y-29325800D01*
X23938800Y-29285800D02*
X14008800Y-29285800D01*
X23947800Y-29245800D02*
X13999800Y-29245800D01*
X23955800Y-29205800D02*
X13991800Y-29205800D01*
X23963800Y-29165800D02*
X13983800Y-29165800D01*
X23970800Y-29125800D02*
X13976800Y-29125800D01*
X23977800Y-29085800D02*
X13969800Y-29085800D01*
X23984800Y-29045800D02*
X13962800Y-29045800D01*
X23991800Y-29005800D02*
X13955800Y-29005800D01*
X23997800Y-28965800D02*
X13949800Y-28965800D01*
X24003800Y-28925800D02*
X13943800Y-28925800D01*
X24008800Y-28884800D02*
X13938800Y-28884800D01*
X24013800Y-28844800D02*
X13933800Y-28844800D01*
X24018800Y-28804800D02*
X13928800Y-28804800D01*
X24023800Y-28764800D02*
X13923800Y-28764800D01*
X24027800Y-28724800D02*
X13919800Y-28724800D01*
X24031800Y-28684800D02*
X13915800Y-28684800D01*
X24035800Y-28644800D02*
X13911800Y-28644800D01*
X24038800Y-28604800D02*
X13908800Y-28604800D01*
X24041800Y-28564800D02*
X13905800Y-28564800D01*
X24043800Y-28524800D02*
X13903800Y-28524800D01*
X24046800Y-28484800D02*
X13900800Y-28484800D01*
X24048800Y-28444800D02*
X13898800Y-28444800D01*
X24050800Y-28404800D02*
X13896800Y-28404800D01*
X24051800Y-28364800D02*
X13895800Y-28364800D01*
X24052800Y-28324800D02*
X13894800Y-28324800D01*
X24053800Y-28284800D02*
X13893800Y-28284800D01*
X24053800Y-28244800D02*
X13893800Y-28244800D01*
X24053800Y-28204800D02*
X13893800Y-28204800D01*
X24093800Y-28204800D02*
G75*
G03X24093800Y-28204800I-5120000J0D01*
G01*
X24603046Y-69389600D02*
X24603046Y-68389600D01*
X25103046Y-68889600D02*
X24103046Y-68889600D01*
X14542400Y-66613600D02*
X14542400Y-65415600D01*
X14582400Y-66876600D02*
X14582400Y-65152600D01*
X14622400Y-67076600D02*
X14622400Y-64952600D01*
X14662400Y-67244600D02*
X14662400Y-64784600D01*
X14702400Y-67392600D02*
X14702400Y-64636600D01*
X14742400Y-67524600D02*
X14742400Y-64504600D01*
X14782400Y-67644600D02*
X14782400Y-64384600D01*
X14822400Y-67756600D02*
X14822400Y-64272600D01*
X14862400Y-67860600D02*
X14862400Y-64168600D01*
X14902400Y-67958600D02*
X14902400Y-64070600D01*
X14942400Y-68051600D02*
X14942400Y-63977600D01*
X14982400Y-68139600D02*
X14982400Y-63889600D01*
X15022400Y-68223600D02*
X15022400Y-63805600D01*
X15062400Y-68303600D02*
X15062400Y-63725600D01*
X15102400Y-68379600D02*
X15102400Y-63649600D01*
X15142400Y-68453600D02*
X15142400Y-63575600D01*
X15182400Y-68524600D02*
X15182400Y-63504600D01*
X15222400Y-68593600D02*
X15222400Y-63435600D01*
X15262400Y-68659600D02*
X15262400Y-63369600D01*
X15302400Y-68723600D02*
X15302400Y-63305600D01*
X15342400Y-68784600D02*
X15342400Y-63244600D01*
X15382400Y-68844600D02*
X15382400Y-63184600D01*
X15422400Y-68903600D02*
X15422400Y-63125600D01*
X15462400Y-68959600D02*
X15462400Y-63069600D01*
X15502400Y-69014600D02*
X15502400Y-63014600D01*
X15542400Y-69068600D02*
X15542400Y-62960600D01*
X15582400Y-69120600D02*
X15582400Y-62908600D01*
X15622400Y-69170600D02*
X15622400Y-62858600D01*
X15662400Y-69220600D02*
X15662400Y-62808600D01*
X15702400Y-69268600D02*
X15702400Y-62760600D01*
X15742400Y-69315600D02*
X15742400Y-62713600D01*
X15782400Y-69361600D02*
X15782400Y-62667600D01*
X15822400Y-69406600D02*
X15822400Y-62622600D01*
X15862400Y-69450600D02*
X15862400Y-62578600D01*
X15902400Y-64773600D02*
X15902400Y-62536600D01*
X15902400Y-69492600D02*
X15902400Y-67255600D01*
X15942400Y-64773600D02*
X15942400Y-62494600D01*
X15942400Y-69534600D02*
X15942400Y-67255600D01*
X15982400Y-64773600D02*
X15982400Y-62453600D01*
X15982400Y-69575600D02*
X15982400Y-67255600D01*
X16022400Y-64773600D02*
X16022400Y-62413600D01*
X16022400Y-69615600D02*
X16022400Y-67255600D01*
X16062400Y-64773600D02*
X16062400Y-62374600D01*
X16062400Y-69654600D02*
X16062400Y-67255600D01*
X16102400Y-64773600D02*
X16102400Y-62335600D01*
X16102400Y-69693600D02*
X16102400Y-67255600D01*
X16142400Y-64773600D02*
X16142400Y-62298600D01*
X16142400Y-69730600D02*
X16142400Y-67255600D01*
X16182400Y-64773600D02*
X16182400Y-62261600D01*
X16182400Y-69767600D02*
X16182400Y-67255600D01*
X16222400Y-64773600D02*
X16222400Y-62225600D01*
X16222400Y-69803600D02*
X16222400Y-67255600D01*
X16262400Y-64773600D02*
X16262400Y-62190600D01*
X16262400Y-69838600D02*
X16262400Y-67255600D01*
X16302400Y-64773600D02*
X16302400Y-62156600D01*
X16302400Y-69872600D02*
X16302400Y-67255600D01*
X16342400Y-64773600D02*
X16342400Y-62122600D01*
X16342400Y-69906600D02*
X16342400Y-67255600D01*
X16382400Y-64773600D02*
X16382400Y-62089600D01*
X16382400Y-69939600D02*
X16382400Y-67255600D01*
X16422400Y-64773600D02*
X16422400Y-62057600D01*
X16422400Y-69971600D02*
X16422400Y-67255600D01*
X16462400Y-64773600D02*
X16462400Y-62025600D01*
X16462400Y-70003600D02*
X16462400Y-67255600D01*
X16502400Y-64773600D02*
X16502400Y-61994600D01*
X16502400Y-70034600D02*
X16502400Y-67255600D01*
X16542400Y-64773600D02*
X16542400Y-61964600D01*
X16542400Y-70064600D02*
X16542400Y-67255600D01*
X16582400Y-64773600D02*
X16582400Y-61934600D01*
X16582400Y-70094600D02*
X16582400Y-67255600D01*
X16622400Y-64773600D02*
X16622400Y-61904600D01*
X16622400Y-70124600D02*
X16622400Y-67255600D01*
X16662400Y-64773600D02*
X16662400Y-61876600D01*
X16662400Y-70152600D02*
X16662400Y-67255600D01*
X16702400Y-64773600D02*
X16702400Y-61848600D01*
X16702400Y-70180600D02*
X16702400Y-67255600D01*
X16742400Y-64773600D02*
X16742400Y-61820600D01*
X16742400Y-70208600D02*
X16742400Y-67255600D01*
X16782400Y-64773600D02*
X16782400Y-61793600D01*
X16782400Y-70235600D02*
X16782400Y-67255600D01*
X16822400Y-64773600D02*
X16822400Y-61767600D01*
X16822400Y-70261600D02*
X16822400Y-67255600D01*
X16862400Y-64773600D02*
X16862400Y-61741600D01*
X16862400Y-70287600D02*
X16862400Y-67255600D01*
X16902400Y-64773600D02*
X16902400Y-61716600D01*
X16902400Y-70312600D02*
X16902400Y-67255600D01*
X16942400Y-64773600D02*
X16942400Y-61691600D01*
X16942400Y-70337600D02*
X16942400Y-67255600D01*
X16982400Y-64773600D02*
X16982400Y-61667600D01*
X16982400Y-70361600D02*
X16982400Y-67255600D01*
X17022400Y-64773600D02*
X17022400Y-61643600D01*
X17022400Y-70385600D02*
X17022400Y-67255600D01*
X17062400Y-64773600D02*
X17062400Y-61619600D01*
X17062400Y-70409600D02*
X17062400Y-67255600D01*
X17102400Y-64773600D02*
X17102400Y-61597600D01*
X17102400Y-70431600D02*
X17102400Y-67255600D01*
X17142400Y-64773600D02*
X17142400Y-61574600D01*
X17142400Y-70454600D02*
X17142400Y-67255600D01*
X17182400Y-64773600D02*
X17182400Y-61552600D01*
X17182400Y-70476600D02*
X17182400Y-67255600D01*
X17222400Y-64773600D02*
X17222400Y-61531600D01*
X17222400Y-70497600D02*
X17222400Y-67255600D01*
X17262400Y-64773600D02*
X17262400Y-61510600D01*
X17262400Y-70518600D02*
X17262400Y-67255600D01*
X17302400Y-64773600D02*
X17302400Y-61489600D01*
X17302400Y-70539600D02*
X17302400Y-67255600D01*
X17342400Y-64773600D02*
X17342400Y-61469600D01*
X17342400Y-70559600D02*
X17342400Y-67255600D01*
X17382400Y-64773600D02*
X17382400Y-61450600D01*
X17382400Y-70578600D02*
X17382400Y-67255600D01*
X17422400Y-64773600D02*
X17422400Y-61430600D01*
X17422400Y-70598600D02*
X17422400Y-67255600D01*
X17462400Y-64773600D02*
X17462400Y-61411600D01*
X17462400Y-70617600D02*
X17462400Y-67255600D01*
X17502400Y-64773600D02*
X17502400Y-61393600D01*
X17502400Y-70635600D02*
X17502400Y-67255600D01*
X17542400Y-64773600D02*
X17542400Y-61375600D01*
X17542400Y-70653600D02*
X17542400Y-67255600D01*
X17582400Y-64773600D02*
X17582400Y-61357600D01*
X17582400Y-70671600D02*
X17582400Y-67255600D01*
X17622400Y-64773600D02*
X17622400Y-61340600D01*
X17622400Y-70688600D02*
X17622400Y-67255600D01*
X17662400Y-64773600D02*
X17662400Y-61324600D01*
X17662400Y-70704600D02*
X17662400Y-67255600D01*
X17702400Y-64773600D02*
X17702400Y-61307600D01*
X17702400Y-70721600D02*
X17702400Y-67255600D01*
X17742400Y-64773600D02*
X17742400Y-61291600D01*
X17742400Y-70737600D02*
X17742400Y-67255600D01*
X17782400Y-64773600D02*
X17782400Y-61276600D01*
X17782400Y-70752600D02*
X17782400Y-67255600D01*
X17822400Y-64773600D02*
X17822400Y-61260600D01*
X17822400Y-70768600D02*
X17822400Y-67255600D01*
X17862400Y-64773600D02*
X17862400Y-61246600D01*
X17862400Y-70782600D02*
X17862400Y-67255600D01*
X17902400Y-64773600D02*
X17902400Y-61231600D01*
X17902400Y-70797600D02*
X17902400Y-67255600D01*
X17942400Y-64773600D02*
X17942400Y-61217600D01*
X17942400Y-70811600D02*
X17942400Y-67255600D01*
X17982400Y-64773600D02*
X17982400Y-61203600D01*
X17982400Y-70825600D02*
X17982400Y-67255600D01*
X18022400Y-64773600D02*
X18022400Y-61190600D01*
X18022400Y-70838600D02*
X18022400Y-67255600D01*
X18062400Y-64773600D02*
X18062400Y-61177600D01*
X18062400Y-70851600D02*
X18062400Y-67255600D01*
X18102400Y-64773600D02*
X18102400Y-61164600D01*
X18102400Y-70864600D02*
X18102400Y-67255600D01*
X18142400Y-64773600D02*
X18142400Y-61152600D01*
X18142400Y-70876600D02*
X18142400Y-67255600D01*
X18182400Y-64773600D02*
X18182400Y-61140600D01*
X18182400Y-70888600D02*
X18182400Y-67255600D01*
X18222400Y-64773600D02*
X18222400Y-61129600D01*
X18222400Y-70899600D02*
X18222400Y-67255600D01*
X18262400Y-64773600D02*
X18262400Y-61117600D01*
X18262400Y-70911600D02*
X18262400Y-67255600D01*
X18302400Y-64773600D02*
X18302400Y-61107600D01*
X18302400Y-70921600D02*
X18302400Y-67255600D01*
X18342400Y-64773600D02*
X18342400Y-61096600D01*
X18342400Y-70932600D02*
X18342400Y-67255600D01*
X18382400Y-70942600D02*
X18382400Y-61086600D01*
X18422400Y-70952600D02*
X18422400Y-61076600D01*
X18462400Y-70961600D02*
X18462400Y-61067600D01*
X18502400Y-70970600D02*
X18502400Y-61058600D01*
X18542400Y-70979600D02*
X18542400Y-61049600D01*
X18582400Y-70988600D02*
X18582400Y-61040600D01*
X18622400Y-70996600D02*
X18622400Y-61032600D01*
X18662400Y-71004600D02*
X18662400Y-61024600D01*
X18702400Y-71011600D02*
X18702400Y-61017600D01*
X18742400Y-71018600D02*
X18742400Y-61010600D01*
X18782400Y-71025600D02*
X18782400Y-61003600D01*
X18822400Y-71032600D02*
X18822400Y-60996600D01*
X18862400Y-71038600D02*
X18862400Y-60990600D01*
X18902400Y-71044600D02*
X18902400Y-60984600D01*
X18943400Y-71049600D02*
X18943400Y-60979600D01*
X18983400Y-71054600D02*
X18983400Y-60974600D01*
X19023400Y-71059600D02*
X19023400Y-60969600D01*
X19063400Y-71064600D02*
X19063400Y-60964600D01*
X19103400Y-71068600D02*
X19103400Y-60960600D01*
X19143400Y-71072600D02*
X19143400Y-60956600D01*
X19183400Y-71076600D02*
X19183400Y-60952600D01*
X19223400Y-71079600D02*
X19223400Y-60949600D01*
X19263400Y-71082600D02*
X19263400Y-60946600D01*
X19303400Y-71084600D02*
X19303400Y-60944600D01*
X19343400Y-71087600D02*
X19343400Y-60941600D01*
X19383400Y-71089600D02*
X19383400Y-60939600D01*
X19423400Y-71091600D02*
X19423400Y-60937600D01*
X19463400Y-71092600D02*
X19463400Y-60936600D01*
X19503400Y-71093600D02*
X19503400Y-60935600D01*
X19543400Y-71094600D02*
X19543400Y-60934600D01*
X19583400Y-71094600D02*
X19583400Y-60934600D01*
X19623400Y-71094600D02*
X19623400Y-60934600D01*
X24743400Y-66014600D02*
G75*
G03X24743400Y-66014600I-5120000J0D01*
G01*
X13704600Y-25552400D02*
G75*
G03X13704600Y-25552400I-6100000J0D01*
G01*
D10*
X4254595Y-3919480D02*
X4254595Y-2919480D01*
X4254595Y-3395671D02*
X4826023Y-3395671D01*
X4826023Y-3919480D02*
X4826023Y-2919480D01*
X5445071Y-3348052D02*
X5349833Y-3300433D01*
X5302214Y-3252814D01*
X5254595Y-3157576D01*
X5254595Y-3109957D01*
X5302214Y-3014719D01*
X5349833Y-2967100D01*
X5445071Y-2919480D01*
X5635547Y-2919480D01*
X5730785Y-2967100D01*
X5778404Y-3014719D01*
X5826023Y-3109957D01*
X5826023Y-3157576D01*
X5778404Y-3252814D01*
X5730785Y-3300433D01*
X5635547Y-3348052D01*
X5445071Y-3348052D01*
X5349833Y-3395671D01*
X5302214Y-3443290D01*
X5254595Y-3538528D01*
X5254595Y-3729004D01*
X5302214Y-3824242D01*
X5349833Y-3871861D01*
X5445071Y-3919480D01*
X5635547Y-3919480D01*
X5730785Y-3871861D01*
X5778404Y-3824242D01*
X5826023Y-3729004D01*
X5826023Y-3538528D01*
X5778404Y-3443290D01*
X5730785Y-3395671D01*
X5635547Y-3348052D01*
X76339795Y-64727080D02*
X76339795Y-63727080D01*
X76339795Y-64203271D02*
X76911223Y-64203271D01*
X76911223Y-64727080D02*
X76911223Y-63727080D01*
X77292176Y-63727080D02*
X77958842Y-63727080D01*
X77530271Y-64727080D01*
X73037795Y-4668780D02*
X73037795Y-3668780D01*
X73037795Y-4144971D02*
X73609223Y-4144971D01*
X73609223Y-4668780D02*
X73609223Y-3668780D01*
X74513985Y-3668780D02*
X74323509Y-3668780D01*
X74228271Y-3716400D01*
X74180652Y-3764019D01*
X74085414Y-3906876D01*
X74037795Y-4097352D01*
X74037795Y-4478304D01*
X74085414Y-4573542D01*
X74133033Y-4621161D01*
X74228271Y-4668780D01*
X74418747Y-4668780D01*
X74513985Y-4621161D01*
X74561604Y-4573542D01*
X74609223Y-4478304D01*
X74609223Y-4240209D01*
X74561604Y-4144971D01*
X74513985Y-4097352D01*
X74418747Y-4049733D01*
X74228271Y-4049733D01*
X74133033Y-4097352D01*
X74085414Y-4144971D01*
X74037795Y-4240209D01*
X1028795Y-64790580D02*
X1028795Y-63790580D01*
X1028795Y-64266771D02*
X1600223Y-64266771D01*
X1600223Y-64790580D02*
X1600223Y-63790580D01*
X2552604Y-63790580D02*
X2076414Y-63790580D01*
X2028795Y-64266771D01*
X2076414Y-64219152D01*
X2171652Y-64171533D01*
X2409747Y-64171533D01*
X2504985Y-64219152D01*
X2552604Y-64266771D01*
X2600223Y-64362009D01*
X2600223Y-64600104D01*
X2552604Y-64695342D01*
X2504985Y-64742961D01*
X2409747Y-64790580D01*
X2171652Y-64790580D01*
X2076414Y-64742961D01*
X2028795Y-64695342D01*
X55703885Y-92740171D02*
X55846742Y-92787790D01*
X55894361Y-92835409D01*
X55941980Y-92930647D01*
X55941980Y-93073504D01*
X55894361Y-93168742D01*
X55846742Y-93216361D01*
X55751504Y-93263980D01*
X55370552Y-93263980D01*
X55370552Y-92263980D01*
X55703885Y-92263980D01*
X55799123Y-92311600D01*
X55846742Y-92359219D01*
X55894361Y-92454457D01*
X55894361Y-92549695D01*
X55846742Y-92644933D01*
X55799123Y-92692552D01*
X55703885Y-92740171D01*
X55370552Y-92740171D01*
X56227695Y-92263980D02*
X56799123Y-92263980D01*
X56513409Y-93263980D02*
X56513409Y-92263980D01*
X57656266Y-93263980D02*
X57084838Y-93263980D01*
X57370552Y-93263980D02*
X57370552Y-92263980D01*
X57275314Y-92406838D01*
X57180076Y-92502076D01*
X57084838Y-92549695D01*
X70111880Y-49006023D02*
X69111880Y-49006023D01*
X69826166Y-48672690D01*
X69111880Y-48339357D01*
X70111880Y-48339357D01*
X69111880Y-47958404D02*
X69111880Y-47339357D01*
X69492833Y-47672690D01*
X69492833Y-47529833D01*
X69540452Y-47434595D01*
X69588071Y-47386976D01*
X69683309Y-47339357D01*
X69921404Y-47339357D01*
X70016642Y-47386976D01*
X70064261Y-47434595D01*
X70111880Y-47529833D01*
X70111880Y-47815547D01*
X70064261Y-47910785D01*
X70016642Y-47958404D01*
X64262095Y-23341080D02*
X64262095Y-24150604D01*
X64309714Y-24245842D01*
X64357333Y-24293461D01*
X64452571Y-24341080D01*
X64643047Y-24341080D01*
X64738285Y-24293461D01*
X64785904Y-24245842D01*
X64833523Y-24150604D01*
X64833523Y-23341080D01*
X65262095Y-23436319D02*
X65309714Y-23388700D01*
X65404952Y-23341080D01*
X65643047Y-23341080D01*
X65738285Y-23388700D01*
X65785904Y-23436319D01*
X65833523Y-23531557D01*
X65833523Y-23626795D01*
X65785904Y-23769652D01*
X65214476Y-24341080D01*
X65833523Y-24341080D01*
X62143095Y-20945580D02*
X62143095Y-19945580D01*
X62476428Y-20659866D01*
X62809761Y-19945580D01*
X62809761Y-20945580D01*
X63285952Y-20945580D02*
X63285952Y-19945580D01*
X63666904Y-19945580D01*
X63762142Y-19993200D01*
X63809761Y-20040819D01*
X63857380Y-20136057D01*
X63857380Y-20278914D01*
X63809761Y-20374152D01*
X63762142Y-20421771D01*
X63666904Y-20469390D01*
X63285952Y-20469390D01*
X64285952Y-19945580D02*
X64285952Y-20755104D01*
X64333571Y-20850342D01*
X64381190Y-20897961D01*
X64476428Y-20945580D01*
X64666904Y-20945580D01*
X64762142Y-20897961D01*
X64809761Y-20850342D01*
X64857380Y-20755104D01*
X64857380Y-19945580D01*
X65762142Y-19945580D02*
X65571666Y-19945580D01*
X65476428Y-19993200D01*
X65428809Y-20040819D01*
X65333571Y-20183676D01*
X65285952Y-20374152D01*
X65285952Y-20755104D01*
X65333571Y-20850342D01*
X65381190Y-20897961D01*
X65476428Y-20945580D01*
X65666904Y-20945580D01*
X65762142Y-20897961D01*
X65809761Y-20850342D01*
X65857380Y-20755104D01*
X65857380Y-20517009D01*
X65809761Y-20421771D01*
X65762142Y-20374152D01*
X65666904Y-20326533D01*
X65476428Y-20326533D01*
X65381190Y-20374152D01*
X65333571Y-20421771D01*
X65285952Y-20517009D01*
X66476428Y-19945580D02*
X66571666Y-19945580D01*
X66666904Y-19993200D01*
X66714523Y-20040819D01*
X66762142Y-20136057D01*
X66809761Y-20326533D01*
X66809761Y-20564628D01*
X66762142Y-20755104D01*
X66714523Y-20850342D01*
X66666904Y-20897961D01*
X66571666Y-20945580D01*
X66476428Y-20945580D01*
X66381190Y-20897961D01*
X66333571Y-20850342D01*
X66285952Y-20755104D01*
X66238333Y-20564628D01*
X66238333Y-20326533D01*
X66285952Y-20136057D01*
X66333571Y-20040819D01*
X66381190Y-19993200D01*
X66476428Y-19945580D01*
X67714523Y-19945580D02*
X67238333Y-19945580D01*
X67190714Y-20421771D01*
X67238333Y-20374152D01*
X67333571Y-20326533D01*
X67571666Y-20326533D01*
X67666904Y-20374152D01*
X67714523Y-20421771D01*
X67762142Y-20517009D01*
X67762142Y-20755104D01*
X67714523Y-20850342D01*
X67666904Y-20897961D01*
X67571666Y-20945580D01*
X67333571Y-20945580D01*
X67238333Y-20897961D01*
X67190714Y-20850342D01*
X68381190Y-19945580D02*
X68476428Y-19945580D01*
X68571666Y-19993200D01*
X68619285Y-20040819D01*
X68666904Y-20136057D01*
X68714523Y-20326533D01*
X68714523Y-20564628D01*
X68666904Y-20755104D01*
X68619285Y-20850342D01*
X68571666Y-20897961D01*
X68476428Y-20945580D01*
X68381190Y-20945580D01*
X68285952Y-20897961D01*
X68238333Y-20850342D01*
X68190714Y-20755104D01*
X68143095Y-20564628D01*
X68143095Y-20326533D01*
X68190714Y-20136057D01*
X68238333Y-20040819D01*
X68285952Y-19993200D01*
X68381190Y-19945580D01*
D17*
X37609538Y-3978123D02*
X37609538Y-2708123D01*
X38940014Y-3857171D02*
X38879538Y-3917647D01*
X38698109Y-3978123D01*
X38577157Y-3978123D01*
X38395728Y-3917647D01*
X38274776Y-3796695D01*
X38214300Y-3675742D01*
X38153823Y-3433838D01*
X38153823Y-3252409D01*
X38214300Y-3010504D01*
X38274776Y-2889552D01*
X38395728Y-2768600D01*
X38577157Y-2708123D01*
X38698109Y-2708123D01*
X38879538Y-2768600D01*
X38940014Y-2829076D01*
X40149538Y-3978123D02*
X39423823Y-3978123D01*
X39786680Y-3978123D02*
X39786680Y-2708123D01*
X39665728Y-2889552D01*
X39544776Y-3010504D01*
X39423823Y-3070980D01*
D10*
X56892866Y-12774680D02*
X56892866Y-13488966D01*
X56845247Y-13631823D01*
X56750009Y-13727061D01*
X56607152Y-13774680D01*
X56511914Y-13774680D01*
X57797628Y-13108014D02*
X57797628Y-13774680D01*
X57559533Y-12727061D02*
X57321438Y-13441347D01*
X57940485Y-13441347D01*
X59661466Y-12901680D02*
X59661466Y-13615966D01*
X59613847Y-13758823D01*
X59518609Y-13854061D01*
X59375752Y-13901680D01*
X59280514Y-13901680D01*
X60042419Y-12901680D02*
X60661466Y-12901680D01*
X60328133Y-13282633D01*
X60470990Y-13282633D01*
X60566228Y-13330252D01*
X60613847Y-13377871D01*
X60661466Y-13473109D01*
X60661466Y-13711204D01*
X60613847Y-13806442D01*
X60566228Y-13854061D01*
X60470990Y-13901680D01*
X60185276Y-13901680D01*
X60090038Y-13854061D01*
X60042419Y-13806442D01*
X62023666Y-12876280D02*
X62023666Y-13590566D01*
X61976047Y-13733423D01*
X61880809Y-13828661D01*
X61737952Y-13876280D01*
X61642714Y-13876280D01*
X62452238Y-12971519D02*
X62499857Y-12923900D01*
X62595095Y-12876280D01*
X62833190Y-12876280D01*
X62928428Y-12923900D01*
X62976047Y-12971519D01*
X63023666Y-13066757D01*
X63023666Y-13161995D01*
X62976047Y-13304852D01*
X62404619Y-13876280D01*
X63023666Y-13876280D01*
X4889595Y-92120980D02*
X4889595Y-91120980D01*
X4889595Y-91597171D02*
X5461023Y-91597171D01*
X5461023Y-92120980D02*
X5461023Y-91120980D01*
X6365785Y-91454314D02*
X6365785Y-92120980D01*
X6127690Y-91073361D02*
X5889595Y-91787647D01*
X6508642Y-91787647D01*
X50847614Y-64950580D02*
X50847614Y-63950580D01*
X51085709Y-63950580D01*
X51228566Y-63998200D01*
X51323804Y-64093438D01*
X51371423Y-64188676D01*
X51419042Y-64379152D01*
X51419042Y-64522009D01*
X51371423Y-64712485D01*
X51323804Y-64807723D01*
X51228566Y-64902961D01*
X51085709Y-64950580D01*
X50847614Y-64950580D01*
X51799995Y-64045819D02*
X51847614Y-63998200D01*
X51942852Y-63950580D01*
X52180947Y-63950580D01*
X52276185Y-63998200D01*
X52323804Y-64045819D01*
X52371423Y-64141057D01*
X52371423Y-64236295D01*
X52323804Y-64379152D01*
X51752376Y-64950580D01*
X52371423Y-64950580D01*
X53276185Y-63950580D02*
X52799995Y-63950580D01*
X52752376Y-64426771D01*
X52799995Y-64379152D01*
X52895233Y-64331533D01*
X53133328Y-64331533D01*
X53228566Y-64379152D01*
X53276185Y-64426771D01*
X53323804Y-64522009D01*
X53323804Y-64760104D01*
X53276185Y-64855342D01*
X53228566Y-64902961D01*
X53133328Y-64950580D01*
X52895233Y-64950580D01*
X52799995Y-64902961D01*
X52752376Y-64855342D01*
X30847614Y-64950580D02*
X30847614Y-63950580D01*
X31085709Y-63950580D01*
X31228566Y-63998200D01*
X31323804Y-64093438D01*
X31371423Y-64188676D01*
X31419042Y-64379152D01*
X31419042Y-64522009D01*
X31371423Y-64712485D01*
X31323804Y-64807723D01*
X31228566Y-64902961D01*
X31085709Y-64950580D01*
X30847614Y-64950580D01*
X31799995Y-64045819D02*
X31847614Y-63998200D01*
X31942852Y-63950580D01*
X32180947Y-63950580D01*
X32276185Y-63998200D01*
X32323804Y-64045819D01*
X32371423Y-64141057D01*
X32371423Y-64236295D01*
X32323804Y-64379152D01*
X31752376Y-64950580D01*
X32371423Y-64950580D01*
X33323804Y-64950580D02*
X32752376Y-64950580D01*
X33038090Y-64950580D02*
X33038090Y-63950580D01*
X32942852Y-64093438D01*
X32847614Y-64188676D01*
X32752376Y-64236295D01*
X50847614Y-59950580D02*
X50847614Y-58950580D01*
X51085709Y-58950580D01*
X51228566Y-58998200D01*
X51323804Y-59093438D01*
X51371423Y-59188676D01*
X51419042Y-59379152D01*
X51419042Y-59522009D01*
X51371423Y-59712485D01*
X51323804Y-59807723D01*
X51228566Y-59902961D01*
X51085709Y-59950580D01*
X50847614Y-59950580D01*
X51799995Y-59045819D02*
X51847614Y-58998200D01*
X51942852Y-58950580D01*
X52180947Y-58950580D01*
X52276185Y-58998200D01*
X52323804Y-59045819D01*
X52371423Y-59141057D01*
X52371423Y-59236295D01*
X52323804Y-59379152D01*
X51752376Y-59950580D01*
X52371423Y-59950580D01*
X52990471Y-58950580D02*
X53085709Y-58950580D01*
X53180947Y-58998200D01*
X53228566Y-59045819D01*
X53276185Y-59141057D01*
X53323804Y-59331533D01*
X53323804Y-59569628D01*
X53276185Y-59760104D01*
X53228566Y-59855342D01*
X53180947Y-59902961D01*
X53085709Y-59950580D01*
X52990471Y-59950580D01*
X52895233Y-59902961D01*
X52847614Y-59855342D01*
X52799995Y-59760104D01*
X52752376Y-59569628D01*
X52752376Y-59331533D01*
X52799995Y-59141057D01*
X52847614Y-59045819D01*
X52895233Y-58998200D01*
X52990471Y-58950580D01*
X35847614Y-64950580D02*
X35847614Y-63950580D01*
X36085709Y-63950580D01*
X36228566Y-63998200D01*
X36323804Y-64093438D01*
X36371423Y-64188676D01*
X36419042Y-64379152D01*
X36419042Y-64522009D01*
X36371423Y-64712485D01*
X36323804Y-64807723D01*
X36228566Y-64902961D01*
X36085709Y-64950580D01*
X35847614Y-64950580D01*
X36799995Y-64045819D02*
X36847614Y-63998200D01*
X36942852Y-63950580D01*
X37180947Y-63950580D01*
X37276185Y-63998200D01*
X37323804Y-64045819D01*
X37371423Y-64141057D01*
X37371423Y-64236295D01*
X37323804Y-64379152D01*
X36752376Y-64950580D01*
X37371423Y-64950580D01*
X37752376Y-64045819D02*
X37799995Y-63998200D01*
X37895233Y-63950580D01*
X38133328Y-63950580D01*
X38228566Y-63998200D01*
X38276185Y-64045819D01*
X38323804Y-64141057D01*
X38323804Y-64236295D01*
X38276185Y-64379152D01*
X37704757Y-64950580D01*
X38323804Y-64950580D01*
X45847614Y-64950580D02*
X45847614Y-63950580D01*
X46085709Y-63950580D01*
X46228566Y-63998200D01*
X46323804Y-64093438D01*
X46371423Y-64188676D01*
X46419042Y-64379152D01*
X46419042Y-64522009D01*
X46371423Y-64712485D01*
X46323804Y-64807723D01*
X46228566Y-64902961D01*
X46085709Y-64950580D01*
X45847614Y-64950580D01*
X46799995Y-64045819D02*
X46847614Y-63998200D01*
X46942852Y-63950580D01*
X47180947Y-63950580D01*
X47276185Y-63998200D01*
X47323804Y-64045819D01*
X47371423Y-64141057D01*
X47371423Y-64236295D01*
X47323804Y-64379152D01*
X46752376Y-64950580D01*
X47371423Y-64950580D01*
X48228566Y-64283914D02*
X48228566Y-64950580D01*
X47990471Y-63902961D02*
X47752376Y-64617247D01*
X48371423Y-64617247D01*
X45847614Y-59950580D02*
X45847614Y-58950580D01*
X46085709Y-58950580D01*
X46228566Y-58998200D01*
X46323804Y-59093438D01*
X46371423Y-59188676D01*
X46419042Y-59379152D01*
X46419042Y-59522009D01*
X46371423Y-59712485D01*
X46323804Y-59807723D01*
X46228566Y-59902961D01*
X46085709Y-59950580D01*
X45847614Y-59950580D01*
X47371423Y-59950580D02*
X46799995Y-59950580D01*
X47085709Y-59950580D02*
X47085709Y-58950580D01*
X46990471Y-59093438D01*
X46895233Y-59188676D01*
X46799995Y-59236295D01*
X47847614Y-59950580D02*
X48038090Y-59950580D01*
X48133328Y-59902961D01*
X48180947Y-59855342D01*
X48276185Y-59712485D01*
X48323804Y-59522009D01*
X48323804Y-59141057D01*
X48276185Y-59045819D01*
X48228566Y-58998200D01*
X48133328Y-58950580D01*
X47942852Y-58950580D01*
X47847614Y-58998200D01*
X47799995Y-59045819D01*
X47752376Y-59141057D01*
X47752376Y-59379152D01*
X47799995Y-59474390D01*
X47847614Y-59522009D01*
X47942852Y-59569628D01*
X48133328Y-59569628D01*
X48228566Y-59522009D01*
X48276185Y-59474390D01*
X48323804Y-59379152D01*
X40847614Y-64950580D02*
X40847614Y-63950580D01*
X41085709Y-63950580D01*
X41228566Y-63998200D01*
X41323804Y-64093438D01*
X41371423Y-64188676D01*
X41419042Y-64379152D01*
X41419042Y-64522009D01*
X41371423Y-64712485D01*
X41323804Y-64807723D01*
X41228566Y-64902961D01*
X41085709Y-64950580D01*
X40847614Y-64950580D01*
X41799995Y-64045819D02*
X41847614Y-63998200D01*
X41942852Y-63950580D01*
X42180947Y-63950580D01*
X42276185Y-63998200D01*
X42323804Y-64045819D01*
X42371423Y-64141057D01*
X42371423Y-64236295D01*
X42323804Y-64379152D01*
X41752376Y-64950580D01*
X42371423Y-64950580D01*
X42704757Y-63950580D02*
X43323804Y-63950580D01*
X42990471Y-64331533D01*
X43133328Y-64331533D01*
X43228566Y-64379152D01*
X43276185Y-64426771D01*
X43323804Y-64522009D01*
X43323804Y-64760104D01*
X43276185Y-64855342D01*
X43228566Y-64902961D01*
X43133328Y-64950580D01*
X42847614Y-64950580D01*
X42752376Y-64902961D01*
X42704757Y-64855342D01*
X40847614Y-59950580D02*
X40847614Y-58950580D01*
X41085709Y-58950580D01*
X41228566Y-58998200D01*
X41323804Y-59093438D01*
X41371423Y-59188676D01*
X41419042Y-59379152D01*
X41419042Y-59522009D01*
X41371423Y-59712485D01*
X41323804Y-59807723D01*
X41228566Y-59902961D01*
X41085709Y-59950580D01*
X40847614Y-59950580D01*
X42371423Y-59950580D02*
X41799995Y-59950580D01*
X42085709Y-59950580D02*
X42085709Y-58950580D01*
X41990471Y-59093438D01*
X41895233Y-59188676D01*
X41799995Y-59236295D01*
X42942852Y-59379152D02*
X42847614Y-59331533D01*
X42799995Y-59283914D01*
X42752376Y-59188676D01*
X42752376Y-59141057D01*
X42799995Y-59045819D01*
X42847614Y-58998200D01*
X42942852Y-58950580D01*
X43133328Y-58950580D01*
X43228566Y-58998200D01*
X43276185Y-59045819D01*
X43323804Y-59141057D01*
X43323804Y-59188676D01*
X43276185Y-59283914D01*
X43228566Y-59331533D01*
X43133328Y-59379152D01*
X42942852Y-59379152D01*
X42847614Y-59426771D01*
X42799995Y-59474390D01*
X42752376Y-59569628D01*
X42752376Y-59760104D01*
X42799995Y-59855342D01*
X42847614Y-59902961D01*
X42942852Y-59950580D01*
X43133328Y-59950580D01*
X43228566Y-59902961D01*
X43276185Y-59855342D01*
X43323804Y-59760104D01*
X43323804Y-59569628D01*
X43276185Y-59474390D01*
X43228566Y-59426771D01*
X43133328Y-59379152D01*
X36323804Y-44950580D02*
X36323804Y-43950580D01*
X36561900Y-43950580D01*
X36704757Y-43998200D01*
X36799995Y-44093438D01*
X36847614Y-44188676D01*
X36895233Y-44379152D01*
X36895233Y-44522009D01*
X36847614Y-44712485D01*
X36799995Y-44807723D01*
X36704757Y-44902961D01*
X36561900Y-44950580D01*
X36323804Y-44950580D01*
X37276185Y-44045819D02*
X37323804Y-43998200D01*
X37419042Y-43950580D01*
X37657138Y-43950580D01*
X37752376Y-43998200D01*
X37799995Y-44045819D01*
X37847614Y-44141057D01*
X37847614Y-44236295D01*
X37799995Y-44379152D01*
X37228566Y-44950580D01*
X37847614Y-44950580D01*
X50847614Y-54950580D02*
X50847614Y-53950580D01*
X51085709Y-53950580D01*
X51228566Y-53998200D01*
X51323804Y-54093438D01*
X51371423Y-54188676D01*
X51419042Y-54379152D01*
X51419042Y-54522009D01*
X51371423Y-54712485D01*
X51323804Y-54807723D01*
X51228566Y-54902961D01*
X51085709Y-54950580D01*
X50847614Y-54950580D01*
X52371423Y-54950580D02*
X51799995Y-54950580D01*
X52085709Y-54950580D02*
X52085709Y-53950580D01*
X51990471Y-54093438D01*
X51895233Y-54188676D01*
X51799995Y-54236295D01*
X53276185Y-53950580D02*
X52799995Y-53950580D01*
X52752376Y-54426771D01*
X52799995Y-54379152D01*
X52895233Y-54331533D01*
X53133328Y-54331533D01*
X53228566Y-54379152D01*
X53276185Y-54426771D01*
X53323804Y-54522009D01*
X53323804Y-54760104D01*
X53276185Y-54855342D01*
X53228566Y-54902961D01*
X53133328Y-54950580D01*
X52895233Y-54950580D01*
X52799995Y-54902961D01*
X52752376Y-54855342D01*
X30847614Y-54950580D02*
X30847614Y-53950580D01*
X31085709Y-53950580D01*
X31228566Y-53998200D01*
X31323804Y-54093438D01*
X31371423Y-54188676D01*
X31419042Y-54379152D01*
X31419042Y-54522009D01*
X31371423Y-54712485D01*
X31323804Y-54807723D01*
X31228566Y-54902961D01*
X31085709Y-54950580D01*
X30847614Y-54950580D01*
X32371423Y-54950580D02*
X31799995Y-54950580D01*
X32085709Y-54950580D02*
X32085709Y-53950580D01*
X31990471Y-54093438D01*
X31895233Y-54188676D01*
X31799995Y-54236295D01*
X33323804Y-54950580D02*
X32752376Y-54950580D01*
X33038090Y-54950580D02*
X33038090Y-53950580D01*
X32942852Y-54093438D01*
X32847614Y-54188676D01*
X32752376Y-54236295D01*
X35847614Y-59950580D02*
X35847614Y-58950580D01*
X36085709Y-58950580D01*
X36228566Y-58998200D01*
X36323804Y-59093438D01*
X36371423Y-59188676D01*
X36419042Y-59379152D01*
X36419042Y-59522009D01*
X36371423Y-59712485D01*
X36323804Y-59807723D01*
X36228566Y-59902961D01*
X36085709Y-59950580D01*
X35847614Y-59950580D01*
X37371423Y-59950580D02*
X36799995Y-59950580D01*
X37085709Y-59950580D02*
X37085709Y-58950580D01*
X36990471Y-59093438D01*
X36895233Y-59188676D01*
X36799995Y-59236295D01*
X37704757Y-58950580D02*
X38371423Y-58950580D01*
X37942852Y-59950580D01*
X36323804Y-49950580D02*
X36323804Y-48950580D01*
X36561900Y-48950580D01*
X36704757Y-48998200D01*
X36799995Y-49093438D01*
X36847614Y-49188676D01*
X36895233Y-49379152D01*
X36895233Y-49522009D01*
X36847614Y-49712485D01*
X36799995Y-49807723D01*
X36704757Y-49902961D01*
X36561900Y-49950580D01*
X36323804Y-49950580D01*
X37228566Y-48950580D02*
X37895233Y-48950580D01*
X37466661Y-49950580D01*
X51323804Y-44950580D02*
X51323804Y-43950580D01*
X51561900Y-43950580D01*
X51704757Y-43998200D01*
X51799995Y-44093438D01*
X51847614Y-44188676D01*
X51895233Y-44379152D01*
X51895233Y-44522009D01*
X51847614Y-44712485D01*
X51799995Y-44807723D01*
X51704757Y-44902961D01*
X51561900Y-44950580D01*
X51323804Y-44950580D01*
X52799995Y-43950580D02*
X52323804Y-43950580D01*
X52276185Y-44426771D01*
X52323804Y-44379152D01*
X52419042Y-44331533D01*
X52657138Y-44331533D01*
X52752376Y-44379152D01*
X52799995Y-44426771D01*
X52847614Y-44522009D01*
X52847614Y-44760104D01*
X52799995Y-44855342D01*
X52752376Y-44902961D01*
X52657138Y-44950580D01*
X52419042Y-44950580D01*
X52323804Y-44902961D01*
X52276185Y-44855342D01*
X41323804Y-44950580D02*
X41323804Y-43950580D01*
X41561900Y-43950580D01*
X41704757Y-43998200D01*
X41799995Y-44093438D01*
X41847614Y-44188676D01*
X41895233Y-44379152D01*
X41895233Y-44522009D01*
X41847614Y-44712485D01*
X41799995Y-44807723D01*
X41704757Y-44902961D01*
X41561900Y-44950580D01*
X41323804Y-44950580D01*
X42228566Y-43950580D02*
X42847614Y-43950580D01*
X42514280Y-44331533D01*
X42657138Y-44331533D01*
X42752376Y-44379152D01*
X42799995Y-44426771D01*
X42847614Y-44522009D01*
X42847614Y-44760104D01*
X42799995Y-44855342D01*
X42752376Y-44902961D01*
X42657138Y-44950580D01*
X42371423Y-44950580D01*
X42276185Y-44902961D01*
X42228566Y-44855342D01*
X35847614Y-54950580D02*
X35847614Y-53950580D01*
X36085709Y-53950580D01*
X36228566Y-53998200D01*
X36323804Y-54093438D01*
X36371423Y-54188676D01*
X36419042Y-54379152D01*
X36419042Y-54522009D01*
X36371423Y-54712485D01*
X36323804Y-54807723D01*
X36228566Y-54902961D01*
X36085709Y-54950580D01*
X35847614Y-54950580D01*
X37371423Y-54950580D02*
X36799995Y-54950580D01*
X37085709Y-54950580D02*
X37085709Y-53950580D01*
X36990471Y-54093438D01*
X36895233Y-54188676D01*
X36799995Y-54236295D01*
X37752376Y-54045819D02*
X37799995Y-53998200D01*
X37895233Y-53950580D01*
X38133328Y-53950580D01*
X38228566Y-53998200D01*
X38276185Y-54045819D01*
X38323804Y-54141057D01*
X38323804Y-54236295D01*
X38276185Y-54379152D01*
X37704757Y-54950580D01*
X38323804Y-54950580D01*
X45847614Y-54950580D02*
X45847614Y-53950580D01*
X46085709Y-53950580D01*
X46228566Y-53998200D01*
X46323804Y-54093438D01*
X46371423Y-54188676D01*
X46419042Y-54379152D01*
X46419042Y-54522009D01*
X46371423Y-54712485D01*
X46323804Y-54807723D01*
X46228566Y-54902961D01*
X46085709Y-54950580D01*
X45847614Y-54950580D01*
X47371423Y-54950580D02*
X46799995Y-54950580D01*
X47085709Y-54950580D02*
X47085709Y-53950580D01*
X46990471Y-54093438D01*
X46895233Y-54188676D01*
X46799995Y-54236295D01*
X48228566Y-54283914D02*
X48228566Y-54950580D01*
X47990471Y-53902961D02*
X47752376Y-54617247D01*
X48371423Y-54617247D01*
X46323804Y-49950580D02*
X46323804Y-48950580D01*
X46561900Y-48950580D01*
X46704757Y-48998200D01*
X46799995Y-49093438D01*
X46847614Y-49188676D01*
X46895233Y-49379152D01*
X46895233Y-49522009D01*
X46847614Y-49712485D01*
X46799995Y-49807723D01*
X46704757Y-49902961D01*
X46561900Y-49950580D01*
X46323804Y-49950580D01*
X47371423Y-49950580D02*
X47561900Y-49950580D01*
X47657138Y-49902961D01*
X47704757Y-49855342D01*
X47799995Y-49712485D01*
X47847614Y-49522009D01*
X47847614Y-49141057D01*
X47799995Y-49045819D01*
X47752376Y-48998200D01*
X47657138Y-48950580D01*
X47466661Y-48950580D01*
X47371423Y-48998200D01*
X47323804Y-49045819D01*
X47276185Y-49141057D01*
X47276185Y-49379152D01*
X47323804Y-49474390D01*
X47371423Y-49522009D01*
X47466661Y-49569628D01*
X47657138Y-49569628D01*
X47752376Y-49522009D01*
X47799995Y-49474390D01*
X47847614Y-49379152D01*
X30847614Y-59950580D02*
X30847614Y-58950580D01*
X31085709Y-58950580D01*
X31228566Y-58998200D01*
X31323804Y-59093438D01*
X31371423Y-59188676D01*
X31419042Y-59379152D01*
X31419042Y-59522009D01*
X31371423Y-59712485D01*
X31323804Y-59807723D01*
X31228566Y-59902961D01*
X31085709Y-59950580D01*
X30847614Y-59950580D01*
X32371423Y-59950580D02*
X31799995Y-59950580D01*
X32085709Y-59950580D02*
X32085709Y-58950580D01*
X31990471Y-59093438D01*
X31895233Y-59188676D01*
X31799995Y-59236295D01*
X33228566Y-58950580D02*
X33038090Y-58950580D01*
X32942852Y-58998200D01*
X32895233Y-59045819D01*
X32799995Y-59188676D01*
X32752376Y-59379152D01*
X32752376Y-59760104D01*
X32799995Y-59855342D01*
X32847614Y-59902961D01*
X32942852Y-59950580D01*
X33133328Y-59950580D01*
X33228566Y-59902961D01*
X33276185Y-59855342D01*
X33323804Y-59760104D01*
X33323804Y-59522009D01*
X33276185Y-59426771D01*
X33228566Y-59379152D01*
X33133328Y-59331533D01*
X32942852Y-59331533D01*
X32847614Y-59379152D01*
X32799995Y-59426771D01*
X32752376Y-59522009D01*
X41323804Y-49950580D02*
X41323804Y-48950580D01*
X41561900Y-48950580D01*
X41704757Y-48998200D01*
X41799995Y-49093438D01*
X41847614Y-49188676D01*
X41895233Y-49379152D01*
X41895233Y-49522009D01*
X41847614Y-49712485D01*
X41799995Y-49807723D01*
X41704757Y-49902961D01*
X41561900Y-49950580D01*
X41323804Y-49950580D01*
X42466661Y-49379152D02*
X42371423Y-49331533D01*
X42323804Y-49283914D01*
X42276185Y-49188676D01*
X42276185Y-49141057D01*
X42323804Y-49045819D01*
X42371423Y-48998200D01*
X42466661Y-48950580D01*
X42657138Y-48950580D01*
X42752376Y-48998200D01*
X42799995Y-49045819D01*
X42847614Y-49141057D01*
X42847614Y-49188676D01*
X42799995Y-49283914D01*
X42752376Y-49331533D01*
X42657138Y-49379152D01*
X42466661Y-49379152D01*
X42371423Y-49426771D01*
X42323804Y-49474390D01*
X42276185Y-49569628D01*
X42276185Y-49760104D01*
X42323804Y-49855342D01*
X42371423Y-49902961D01*
X42466661Y-49950580D01*
X42657138Y-49950580D01*
X42752376Y-49902961D01*
X42799995Y-49855342D01*
X42847614Y-49760104D01*
X42847614Y-49569628D01*
X42799995Y-49474390D01*
X42752376Y-49426771D01*
X42657138Y-49379152D01*
X46323804Y-44950580D02*
X46323804Y-43950580D01*
X46561900Y-43950580D01*
X46704757Y-43998200D01*
X46799995Y-44093438D01*
X46847614Y-44188676D01*
X46895233Y-44379152D01*
X46895233Y-44522009D01*
X46847614Y-44712485D01*
X46799995Y-44807723D01*
X46704757Y-44902961D01*
X46561900Y-44950580D01*
X46323804Y-44950580D01*
X47752376Y-44283914D02*
X47752376Y-44950580D01*
X47514280Y-43902961D02*
X47276185Y-44617247D01*
X47895233Y-44617247D01*
X40847614Y-54950580D02*
X40847614Y-53950580D01*
X41085709Y-53950580D01*
X41228566Y-53998200D01*
X41323804Y-54093438D01*
X41371423Y-54188676D01*
X41419042Y-54379152D01*
X41419042Y-54522009D01*
X41371423Y-54712485D01*
X41323804Y-54807723D01*
X41228566Y-54902961D01*
X41085709Y-54950580D01*
X40847614Y-54950580D01*
X42371423Y-54950580D02*
X41799995Y-54950580D01*
X42085709Y-54950580D02*
X42085709Y-53950580D01*
X41990471Y-54093438D01*
X41895233Y-54188676D01*
X41799995Y-54236295D01*
X42704757Y-53950580D02*
X43323804Y-53950580D01*
X42990471Y-54331533D01*
X43133328Y-54331533D01*
X43228566Y-54379152D01*
X43276185Y-54426771D01*
X43323804Y-54522009D01*
X43323804Y-54760104D01*
X43276185Y-54855342D01*
X43228566Y-54902961D01*
X43133328Y-54950580D01*
X42847614Y-54950580D01*
X42752376Y-54902961D01*
X42704757Y-54855342D01*
X50847614Y-49950580D02*
X50847614Y-48950580D01*
X51085709Y-48950580D01*
X51228566Y-48998200D01*
X51323804Y-49093438D01*
X51371423Y-49188676D01*
X51419042Y-49379152D01*
X51419042Y-49522009D01*
X51371423Y-49712485D01*
X51323804Y-49807723D01*
X51228566Y-49902961D01*
X51085709Y-49950580D01*
X50847614Y-49950580D01*
X52371423Y-49950580D02*
X51799995Y-49950580D01*
X52085709Y-49950580D02*
X52085709Y-48950580D01*
X51990471Y-49093438D01*
X51895233Y-49188676D01*
X51799995Y-49236295D01*
X52990471Y-48950580D02*
X53085709Y-48950580D01*
X53180947Y-48998200D01*
X53228566Y-49045819D01*
X53276185Y-49141057D01*
X53323804Y-49331533D01*
X53323804Y-49569628D01*
X53276185Y-49760104D01*
X53228566Y-49855342D01*
X53180947Y-49902961D01*
X53085709Y-49950580D01*
X52990471Y-49950580D01*
X52895233Y-49902961D01*
X52847614Y-49855342D01*
X52799995Y-49760104D01*
X52752376Y-49569628D01*
X52752376Y-49331533D01*
X52799995Y-49141057D01*
X52847614Y-49045819D01*
X52895233Y-48998200D01*
X52990471Y-48950580D01*
X31323804Y-49950580D02*
X31323804Y-48950580D01*
X31561900Y-48950580D01*
X31704757Y-48998200D01*
X31799995Y-49093438D01*
X31847614Y-49188676D01*
X31895233Y-49379152D01*
X31895233Y-49522009D01*
X31847614Y-49712485D01*
X31799995Y-49807723D01*
X31704757Y-49902961D01*
X31561900Y-49950580D01*
X31323804Y-49950580D01*
X32752376Y-48950580D02*
X32561900Y-48950580D01*
X32466661Y-48998200D01*
X32419042Y-49045819D01*
X32323804Y-49188676D01*
X32276185Y-49379152D01*
X32276185Y-49760104D01*
X32323804Y-49855342D01*
X32371423Y-49902961D01*
X32466661Y-49950580D01*
X32657138Y-49950580D01*
X32752376Y-49902961D01*
X32799995Y-49855342D01*
X32847614Y-49760104D01*
X32847614Y-49522009D01*
X32799995Y-49426771D01*
X32752376Y-49379152D01*
X32657138Y-49331533D01*
X32466661Y-49331533D01*
X32371423Y-49379152D01*
X32323804Y-49426771D01*
X32276185Y-49522009D01*
X31323804Y-44950580D02*
X31323804Y-43950580D01*
X31561900Y-43950580D01*
X31704757Y-43998200D01*
X31799995Y-44093438D01*
X31847614Y-44188676D01*
X31895233Y-44379152D01*
X31895233Y-44522009D01*
X31847614Y-44712485D01*
X31799995Y-44807723D01*
X31704757Y-44902961D01*
X31561900Y-44950580D01*
X31323804Y-44950580D01*
X32847614Y-44950580D02*
X32276185Y-44950580D01*
X32561900Y-44950580D02*
X32561900Y-43950580D01*
X32466661Y-44093438D01*
X32371423Y-44188676D01*
X32276185Y-44236295D01*
X21070890Y-7677090D02*
X21547080Y-7677090D01*
X20547080Y-8010423D02*
X21070890Y-7677090D01*
X20547080Y-7343757D01*
X21547080Y-6486614D02*
X21547080Y-7058042D01*
X21547080Y-6772328D02*
X20547080Y-6772328D01*
X20689938Y-6867566D01*
X20785176Y-6962804D01*
X20832795Y-7058042D01*
X9751961Y-39636533D02*
X9799580Y-39493676D01*
X9799580Y-39255580D01*
X9751961Y-39160342D01*
X9704342Y-39112723D01*
X9609104Y-39065104D01*
X9513866Y-39065104D01*
X9418628Y-39112723D01*
X9371009Y-39160342D01*
X9323390Y-39255580D01*
X9275771Y-39446057D01*
X9228152Y-39541295D01*
X9180533Y-39588914D01*
X9085295Y-39636533D01*
X8990057Y-39636533D01*
X8894819Y-39588914D01*
X8847200Y-39541295D01*
X8799580Y-39446057D01*
X8799580Y-39207961D01*
X8847200Y-39065104D01*
X8799580Y-38731771D02*
X9799580Y-38493676D01*
X9085295Y-38303200D01*
X9799580Y-38112723D01*
X8799580Y-37874628D01*
X8799580Y-37588914D02*
X8799580Y-36969866D01*
X9180533Y-37303200D01*
X9180533Y-37160342D01*
X9228152Y-37065104D01*
X9275771Y-37017485D01*
X9371009Y-36969866D01*
X9609104Y-36969866D01*
X9704342Y-37017485D01*
X9751961Y-37065104D01*
X9799580Y-37160342D01*
X9799580Y-37446057D01*
X9751961Y-37541295D01*
X9704342Y-37588914D01*
X60871266Y-32103961D02*
X61014123Y-32151580D01*
X61252219Y-32151580D01*
X61347457Y-32103961D01*
X61395076Y-32056342D01*
X61442695Y-31961104D01*
X61442695Y-31865866D01*
X61395076Y-31770628D01*
X61347457Y-31723009D01*
X61252219Y-31675390D01*
X61061742Y-31627771D01*
X60966504Y-31580152D01*
X60918885Y-31532533D01*
X60871266Y-31437295D01*
X60871266Y-31342057D01*
X60918885Y-31246819D01*
X60966504Y-31199200D01*
X61061742Y-31151580D01*
X61299838Y-31151580D01*
X61442695Y-31199200D01*
X61776028Y-31151580D02*
X62014123Y-32151580D01*
X62204600Y-31437295D01*
X62395076Y-32151580D01*
X62633171Y-31151580D01*
X62966504Y-31246819D02*
X63014123Y-31199200D01*
X63109361Y-31151580D01*
X63347457Y-31151580D01*
X63442695Y-31199200D01*
X63490314Y-31246819D01*
X63537933Y-31342057D01*
X63537933Y-31437295D01*
X63490314Y-31580152D01*
X62918885Y-32151580D01*
X63537933Y-32151580D01*
X66281466Y-12076061D02*
X66424323Y-12123680D01*
X66662419Y-12123680D01*
X66757657Y-12076061D01*
X66805276Y-12028442D01*
X66852895Y-11933204D01*
X66852895Y-11837966D01*
X66805276Y-11742728D01*
X66757657Y-11695109D01*
X66662419Y-11647490D01*
X66471942Y-11599871D01*
X66376704Y-11552252D01*
X66329085Y-11504633D01*
X66281466Y-11409395D01*
X66281466Y-11314157D01*
X66329085Y-11218919D01*
X66376704Y-11171300D01*
X66471942Y-11123680D01*
X66710038Y-11123680D01*
X66852895Y-11171300D01*
X67186228Y-11123680D02*
X67424323Y-12123680D01*
X67614800Y-11409395D01*
X67805276Y-12123680D01*
X68043371Y-11123680D01*
X68948133Y-12123680D02*
X68376704Y-12123680D01*
X68662419Y-12123680D02*
X68662419Y-11123680D01*
X68567180Y-11266538D01*
X68471942Y-11361776D01*
X68376704Y-11409395D01*
X11609461Y-61628280D02*
X11276128Y-61152090D01*
X11038033Y-61628280D02*
X11038033Y-60628280D01*
X11418985Y-60628280D01*
X11514223Y-60675900D01*
X11561842Y-60723519D01*
X11609461Y-60818757D01*
X11609461Y-60961614D01*
X11561842Y-61056852D01*
X11514223Y-61104471D01*
X11418985Y-61152090D01*
X11038033Y-61152090D01*
X11895176Y-60628280D02*
X12228509Y-61628280D01*
X12561842Y-60628280D01*
X13418985Y-61628280D02*
X12847557Y-61628280D01*
X13133271Y-61628280D02*
X13133271Y-60628280D01*
X13038033Y-60771138D01*
X12942795Y-60866376D01*
X12847557Y-60913995D01*
X70010280Y-38096723D02*
X69010280Y-38096723D01*
X69724566Y-37763390D01*
X69010280Y-37430057D01*
X70010280Y-37430057D01*
X69105519Y-37001485D02*
X69057900Y-36953866D01*
X69010280Y-36858628D01*
X69010280Y-36620533D01*
X69057900Y-36525295D01*
X69105519Y-36477676D01*
X69200757Y-36430057D01*
X69295995Y-36430057D01*
X69438852Y-36477676D01*
X70010280Y-37049104D01*
X70010280Y-36430057D01*
X9596380Y-49526723D02*
X8596380Y-49526723D01*
X9310666Y-49193390D01*
X8596380Y-48860057D01*
X9596380Y-48860057D01*
X9596380Y-47860057D02*
X9596380Y-48431485D01*
X9596380Y-48145771D02*
X8596380Y-48145771D01*
X8739238Y-48241009D01*
X8834476Y-48336247D01*
X8882095Y-48431485D01*
X13179466Y-4633980D02*
X13179466Y-5348266D01*
X13131847Y-5491123D01*
X13036609Y-5586361D01*
X12893752Y-5633980D01*
X12798514Y-5633980D01*
X14179466Y-5633980D02*
X13608038Y-5633980D01*
X13893752Y-5633980D02*
X13893752Y-4633980D01*
X13798514Y-4776838D01*
X13703276Y-4872076D01*
X13608038Y-4919695D01*
X75590495Y-89123780D02*
X75590495Y-88123780D01*
X75590495Y-88599971D02*
X76161923Y-88599971D01*
X76161923Y-89123780D02*
X76161923Y-88123780D01*
X76542876Y-88123780D02*
X77161923Y-88123780D01*
X76828590Y-88504733D01*
X76971447Y-88504733D01*
X77066685Y-88552352D01*
X77114304Y-88599971D01*
X77161923Y-88695209D01*
X77161923Y-88933304D01*
X77114304Y-89028542D01*
X77066685Y-89076161D01*
X76971447Y-89123780D01*
X76685733Y-89123780D01*
X76590495Y-89076161D01*
X76542876Y-89028542D01*
X73012395Y-1862080D02*
X73012395Y-862080D01*
X73012395Y-1338271D02*
X73583823Y-1338271D01*
X73583823Y-1862080D02*
X73583823Y-862080D01*
X74012395Y-957319D02*
X74060014Y-909700D01*
X74155252Y-862080D01*
X74393347Y-862080D01*
X74488585Y-909700D01*
X74536204Y-957319D01*
X74583823Y-1052557D01*
X74583823Y-1147795D01*
X74536204Y-1290652D01*
X73964776Y-1862080D01*
X74583823Y-1862080D01*
X4267295Y-1696980D02*
X4267295Y-696980D01*
X4267295Y-1173171D02*
X4838723Y-1173171D01*
X4838723Y-1696980D02*
X4838723Y-696980D01*
X5838723Y-1696980D02*
X5267295Y-1696980D01*
X5553009Y-1696980D02*
X5553009Y-696980D01*
X5457771Y-839838D01*
X5362533Y-935076D01*
X5267295Y-982695D01*
X7574114Y-60866280D02*
X7574114Y-59866280D01*
X7812209Y-59866280D01*
X7955066Y-59913900D01*
X8050304Y-60009138D01*
X8097923Y-60104376D01*
X8145542Y-60294852D01*
X8145542Y-60437709D01*
X8097923Y-60628185D01*
X8050304Y-60723423D01*
X7955066Y-60818661D01*
X7812209Y-60866280D01*
X7574114Y-60866280D01*
X8478876Y-59866280D02*
X9097923Y-59866280D01*
X8764590Y-60247233D01*
X8907447Y-60247233D01*
X9002685Y-60294852D01*
X9050304Y-60342471D01*
X9097923Y-60437709D01*
X9097923Y-60675804D01*
X9050304Y-60771042D01*
X9002685Y-60818661D01*
X8907447Y-60866280D01*
X8621733Y-60866280D01*
X8526495Y-60818661D01*
X8478876Y-60771042D01*
X9478876Y-59961519D02*
X9526495Y-59913900D01*
X9621733Y-59866280D01*
X9859828Y-59866280D01*
X9955066Y-59913900D01*
X10002685Y-59961519D01*
X10050304Y-60056757D01*
X10050304Y-60151995D01*
X10002685Y-60294852D01*
X9431257Y-60866280D01*
X10050304Y-60866280D01*
X7612214Y-57640480D02*
X7612214Y-56640480D01*
X7850309Y-56640480D01*
X7993166Y-56688100D01*
X8088404Y-56783338D01*
X8136023Y-56878576D01*
X8183642Y-57069052D01*
X8183642Y-57211909D01*
X8136023Y-57402385D01*
X8088404Y-57497623D01*
X7993166Y-57592861D01*
X7850309Y-57640480D01*
X7612214Y-57640480D01*
X8516976Y-56640480D02*
X9136023Y-56640480D01*
X8802690Y-57021433D01*
X8945547Y-57021433D01*
X9040785Y-57069052D01*
X9088404Y-57116671D01*
X9136023Y-57211909D01*
X9136023Y-57450004D01*
X9088404Y-57545242D01*
X9040785Y-57592861D01*
X8945547Y-57640480D01*
X8659833Y-57640480D01*
X8564595Y-57592861D01*
X8516976Y-57545242D01*
X10088404Y-57640480D02*
X9516976Y-57640480D01*
X9802690Y-57640480D02*
X9802690Y-56640480D01*
X9707452Y-56783338D01*
X9612214Y-56878576D01*
X9516976Y-56926195D01*
X66730714Y-65082680D02*
X66730714Y-64082680D01*
X66968809Y-64082680D01*
X67111666Y-64130300D01*
X67206904Y-64225538D01*
X67254523Y-64320776D01*
X67302142Y-64511252D01*
X67302142Y-64654109D01*
X67254523Y-64844585D01*
X67206904Y-64939823D01*
X67111666Y-65035061D01*
X66968809Y-65082680D01*
X66730714Y-65082680D01*
X67635476Y-64082680D02*
X68254523Y-64082680D01*
X67921190Y-64463633D01*
X68064047Y-64463633D01*
X68159285Y-64511252D01*
X68206904Y-64558871D01*
X68254523Y-64654109D01*
X68254523Y-64892204D01*
X68206904Y-64987442D01*
X68159285Y-65035061D01*
X68064047Y-65082680D01*
X67778333Y-65082680D01*
X67683095Y-65035061D01*
X67635476Y-64987442D01*
X68873571Y-64082680D02*
X68968809Y-64082680D01*
X69064047Y-64130300D01*
X69111666Y-64177919D01*
X69159285Y-64273157D01*
X69206904Y-64463633D01*
X69206904Y-64701728D01*
X69159285Y-64892204D01*
X69111666Y-64987442D01*
X69064047Y-65035061D01*
X68968809Y-65082680D01*
X68873571Y-65082680D01*
X68778333Y-65035061D01*
X68730714Y-64987442D01*
X68683095Y-64892204D01*
X68635476Y-64701728D01*
X68635476Y-64463633D01*
X68683095Y-64273157D01*
X68730714Y-64177919D01*
X68778333Y-64130300D01*
X68873571Y-64082680D01*
X66565614Y-60269380D02*
X66565614Y-59269380D01*
X66803709Y-59269380D01*
X66946566Y-59317000D01*
X67041804Y-59412238D01*
X67089423Y-59507476D01*
X67137042Y-59697952D01*
X67137042Y-59840809D01*
X67089423Y-60031285D01*
X67041804Y-60126523D01*
X66946566Y-60221761D01*
X66803709Y-60269380D01*
X66565614Y-60269380D01*
X67517995Y-59364619D02*
X67565614Y-59317000D01*
X67660852Y-59269380D01*
X67898947Y-59269380D01*
X67994185Y-59317000D01*
X68041804Y-59364619D01*
X68089423Y-59459857D01*
X68089423Y-59555095D01*
X68041804Y-59697952D01*
X67470376Y-60269380D01*
X68089423Y-60269380D01*
X68565614Y-60269380D02*
X68756090Y-60269380D01*
X68851328Y-60221761D01*
X68898947Y-60174142D01*
X68994185Y-60031285D01*
X69041804Y-59840809D01*
X69041804Y-59459857D01*
X68994185Y-59364619D01*
X68946566Y-59317000D01*
X68851328Y-59269380D01*
X68660852Y-59269380D01*
X68565614Y-59317000D01*
X68517995Y-59364619D01*
X68470376Y-59459857D01*
X68470376Y-59697952D01*
X68517995Y-59793190D01*
X68565614Y-59840809D01*
X68660852Y-59888428D01*
X68851328Y-59888428D01*
X68946566Y-59840809D01*
X68994185Y-59793190D01*
X69041804Y-59697952D01*
X66489414Y-55621180D02*
X66489414Y-54621180D01*
X66727509Y-54621180D01*
X66870366Y-54668800D01*
X66965604Y-54764038D01*
X67013223Y-54859276D01*
X67060842Y-55049752D01*
X67060842Y-55192609D01*
X67013223Y-55383085D01*
X66965604Y-55478323D01*
X66870366Y-55573561D01*
X66727509Y-55621180D01*
X66489414Y-55621180D01*
X67441795Y-54716419D02*
X67489414Y-54668800D01*
X67584652Y-54621180D01*
X67822747Y-54621180D01*
X67917985Y-54668800D01*
X67965604Y-54716419D01*
X68013223Y-54811657D01*
X68013223Y-54906895D01*
X67965604Y-55049752D01*
X67394176Y-55621180D01*
X68013223Y-55621180D01*
X68584652Y-55049752D02*
X68489414Y-55002133D01*
X68441795Y-54954514D01*
X68394176Y-54859276D01*
X68394176Y-54811657D01*
X68441795Y-54716419D01*
X68489414Y-54668800D01*
X68584652Y-54621180D01*
X68775128Y-54621180D01*
X68870366Y-54668800D01*
X68917985Y-54716419D01*
X68965604Y-54811657D01*
X68965604Y-54859276D01*
X68917985Y-54954514D01*
X68870366Y-55002133D01*
X68775128Y-55049752D01*
X68584652Y-55049752D01*
X68489414Y-55097371D01*
X68441795Y-55144990D01*
X68394176Y-55240228D01*
X68394176Y-55430704D01*
X68441795Y-55525942D01*
X68489414Y-55573561D01*
X68584652Y-55621180D01*
X68775128Y-55621180D01*
X68870366Y-55573561D01*
X68917985Y-55525942D01*
X68965604Y-55430704D01*
X68965604Y-55240228D01*
X68917985Y-55144990D01*
X68870366Y-55097371D01*
X68775128Y-55049752D01*
X66425914Y-51163480D02*
X66425914Y-50163480D01*
X66664009Y-50163480D01*
X66806866Y-50211100D01*
X66902104Y-50306338D01*
X66949723Y-50401576D01*
X66997342Y-50592052D01*
X66997342Y-50734909D01*
X66949723Y-50925385D01*
X66902104Y-51020623D01*
X66806866Y-51115861D01*
X66664009Y-51163480D01*
X66425914Y-51163480D01*
X67378295Y-50258719D02*
X67425914Y-50211100D01*
X67521152Y-50163480D01*
X67759247Y-50163480D01*
X67854485Y-50211100D01*
X67902104Y-50258719D01*
X67949723Y-50353957D01*
X67949723Y-50449195D01*
X67902104Y-50592052D01*
X67330676Y-51163480D01*
X67949723Y-51163480D01*
X68283057Y-50163480D02*
X68949723Y-50163480D01*
X68521152Y-51163480D01*
X66362414Y-46388280D02*
X66362414Y-45388280D01*
X66600509Y-45388280D01*
X66743366Y-45435900D01*
X66838604Y-45531138D01*
X66886223Y-45626376D01*
X66933842Y-45816852D01*
X66933842Y-45959709D01*
X66886223Y-46150185D01*
X66838604Y-46245423D01*
X66743366Y-46340661D01*
X66600509Y-46388280D01*
X66362414Y-46388280D01*
X67314795Y-45483519D02*
X67362414Y-45435900D01*
X67457652Y-45388280D01*
X67695747Y-45388280D01*
X67790985Y-45435900D01*
X67838604Y-45483519D01*
X67886223Y-45578757D01*
X67886223Y-45673995D01*
X67838604Y-45816852D01*
X67267176Y-46388280D01*
X67886223Y-46388280D01*
X68743366Y-45388280D02*
X68552890Y-45388280D01*
X68457652Y-45435900D01*
X68410033Y-45483519D01*
X68314795Y-45626376D01*
X68267176Y-45816852D01*
X68267176Y-46197804D01*
X68314795Y-46293042D01*
X68362414Y-46340661D01*
X68457652Y-46388280D01*
X68648128Y-46388280D01*
X68743366Y-46340661D01*
X68790985Y-46293042D01*
X68838604Y-46197804D01*
X68838604Y-45959709D01*
X68790985Y-45864471D01*
X68743366Y-45816852D01*
X68648128Y-45769233D01*
X68457652Y-45769233D01*
X68362414Y-45816852D01*
X68314795Y-45864471D01*
X68267176Y-45959709D01*
X12120642Y-31738842D02*
X12073023Y-31786461D01*
X11930166Y-31834080D01*
X11834928Y-31834080D01*
X11692071Y-31786461D01*
X11596833Y-31691223D01*
X11549214Y-31595985D01*
X11501595Y-31405509D01*
X11501595Y-31262652D01*
X11549214Y-31072176D01*
X11596833Y-30976938D01*
X11692071Y-30881700D01*
X11834928Y-30834080D01*
X11930166Y-30834080D01*
X12073023Y-30881700D01*
X12120642Y-30929319D01*
X13073023Y-31834080D02*
X12501595Y-31834080D01*
X12787309Y-31834080D02*
X12787309Y-30834080D01*
X12692071Y-30976938D01*
X12596833Y-31072176D01*
X12501595Y-31119795D01*
X13549214Y-31834080D02*
X13739690Y-31834080D01*
X13834928Y-31786461D01*
X13882547Y-31738842D01*
X13977785Y-31595985D01*
X14025404Y-31405509D01*
X14025404Y-31024557D01*
X13977785Y-30929319D01*
X13930166Y-30881700D01*
X13834928Y-30834080D01*
X13644452Y-30834080D01*
X13549214Y-30881700D01*
X13501595Y-30929319D01*
X13453976Y-31024557D01*
X13453976Y-31262652D01*
X13501595Y-31357890D01*
X13549214Y-31405509D01*
X13644452Y-31453128D01*
X13834928Y-31453128D01*
X13930166Y-31405509D01*
X13977785Y-31357890D01*
X14025404Y-31262652D01*
X18980542Y-72621742D02*
X18932923Y-72669361D01*
X18790066Y-72716980D01*
X18694828Y-72716980D01*
X18551971Y-72669361D01*
X18456733Y-72574123D01*
X18409114Y-72478885D01*
X18361495Y-72288409D01*
X18361495Y-72145552D01*
X18409114Y-71955076D01*
X18456733Y-71859838D01*
X18551971Y-71764600D01*
X18694828Y-71716980D01*
X18790066Y-71716980D01*
X18932923Y-71764600D01*
X18980542Y-71812219D01*
X19932923Y-72716980D02*
X19361495Y-72716980D01*
X19647209Y-72716980D02*
X19647209Y-71716980D01*
X19551971Y-71859838D01*
X19456733Y-71955076D01*
X19361495Y-72002695D01*
X20266257Y-71716980D02*
X20885304Y-71716980D01*
X20551971Y-72097933D01*
X20694828Y-72097933D01*
X20790066Y-72145552D01*
X20837685Y-72193171D01*
X20885304Y-72288409D01*
X20885304Y-72526504D01*
X20837685Y-72621742D01*
X20790066Y-72669361D01*
X20694828Y-72716980D01*
X20409114Y-72716980D01*
X20313876Y-72669361D01*
X20266257Y-72621742D01*
X1684447Y-31805571D02*
X1827304Y-31853190D01*
X1874923Y-31900809D01*
X1922542Y-31996047D01*
X1922542Y-32138904D01*
X1874923Y-32234142D01*
X1827304Y-32281761D01*
X1732066Y-32329380D01*
X1351114Y-32329380D01*
X1351114Y-31329380D01*
X1684447Y-31329380D01*
X1779685Y-31377000D01*
X1827304Y-31424619D01*
X1874923Y-31519857D01*
X1874923Y-31615095D01*
X1827304Y-31710333D01*
X1779685Y-31757952D01*
X1684447Y-31805571D01*
X1351114Y-31805571D01*
X2255876Y-31329380D02*
X2922542Y-31329380D01*
X2255876Y-32329380D01*
X2922542Y-32329380D01*
X3827304Y-32329380D02*
X3255876Y-32329380D01*
X3541590Y-32329380D02*
X3541590Y-31329380D01*
X3446352Y-31472238D01*
X3351114Y-31567476D01*
X3255876Y-31615095D01*
X11033647Y-28163828D02*
X11795552Y-28163828D01*
X11414600Y-28544780D02*
X11414600Y-27782876D01*
M02*
