  0
SECTION
  2
HEADER
  9
$ACADVER
  1
AC1014
  9
$ACADMAINTVER
 70
     9
  9
$DWGCODEPAGE
  3
ANSI_1252
  9
$INSBASE
 10
0.0
 20
0.0
 30
0.0
  9
$EXTMIN
 10
1.000000000000000E+20
 20
1.000000000000000E+20
 30
1.000000000000000E+20
  9
$EXTMAX
 10
-1.000000000000000E+20
 20
-1.000000000000000E+20
 30
-1.000000000000000E+20
  9
$LIMMIN
 10
0.0
 20
0.0
  9
$LIMMAX
 10
420.0
 20
297.0
  9
$ORTHOMODE
 70
     0
  9
$REGENMODE
 70
     1
  9
$FILLMODE
 70
     1
  9
$QTEXTMODE
 70
     0
  9
$MIRRTEXT
 70
     1
  9
$DRAGMODE
 70
     2
  9
$LTSCALE
 40
12.7
  9
$OSMODE
 70
    23
  9
$ATTMODE
 70
     1
  9
$TEXTSIZE
 40
3.5
  9
$TRACEWID
 40
1.0
  9
$TEXTSTYLE
  7
ONSHAPE-STANDARD
  9
$CLAYER
  8
0
  9
$CELTYPE
  6
BYLAYER
  9
$CECOLOR
 62
   256
  9
$CELTSCALE
 40
1.0
  9
$DELOBJ
 70
     1
  9
$DISPSILH
 70
     0
  9
$DIMSCALE
 40
1.0
  9
$DIMASZ
 40
2.5
  9
$DIMEXO
 40
0.625
  9
$DIMDLI
 40
3.75
  9
$DIMRND
 40
0.0
  9
$DIMDLE
 40
0.0
  9
$DIMEXE
 40
1.25
  9
$DIMTP
 40
0.0
  9
$DIMTM
 40
0.0
  9
$DIMTXT
 40
3.5
  9
$DIMCEN
 40
2.5
  9
$DIMTSZ
 40
0.0
  9
$DIMTOL
 70
     0
  9
$DIMLIM
 70
     0
  9
$DIMTIH
 70
     0
  9
$DIMTOH
 70
     0
  9
$DIMSE1
 70
     0
  9
$DIMSE2
 70
     0
  9
$DIMTAD
 70
     1
  9
$DIMZIN
 70
     8
  9
$DIMBLK
  1

  9
$DIMASO
 70
     1
  9
$DIMSHO
 70
     1
  9
$DIMPOST
  1

  9
$DIMAPOST
  1

  9
$DIMALT
 70
     0
  9
$DIMALTD
 70
     3
  9
$DIMALTF
 40
0.03937
  9
$DIMLFAC
 40
1.0
  9
$DIMTOFL
 70
     1
  9
$DIMTVP
 40
0.0
  9
$DIMTIX
 70
     0
  9
$DIMSOXD
 70
     0
  9
$DIMSAH
 70
     0
  9
$DIMBLK1
  1

  9
$DIMBLK2
  1

  9
$DIMSTYLE
  2
ONSHAPE-ISO-25
  9
$DIMCLRD
 70
     7
  9
$DIMCLRE
 70
     7
  9
$DIMCLRT
 70
     7
  9
$DIMTFAC
 40
1.0
  9
$DIMGAP
 40
0.625
  9
$DIMJUST
 70
     0
  9
$DIMSD1
 70
     0
  9
$DIMSD2
 70
     0
  9
$DIMTOLJ
 70
     0
  9
$DIMTZIN
 70
     8
  9
$DIMALTZ
 70
     8
  9
$DIMALTTZ
 70
     0
  9
$DIMFIT
 70
     3
  9
$DIMUPT
 70
     1
  9
$DIMUNIT
 70
     2
  9
$DIMDEC
 70
     2
  9
$DIMTDEC
 70
     2
  9
$DIMALTU
 70
     2
  9
$DIMALTTD
 70
     3
  9
$DIMTXSTY
  7
ONSHAPE-STANDARD-DIMENSION
  9
$DIMAUNIT
 70
     0
  9
$LUNITS
 70
     2
  9
$LUPREC
 70
     4
  9
$SKETCHINC
 40
1.0
  9
$FILLETRAD
 40
10.0
  9
$AUNITS
 70
     0
  9
$AUPREC
 70
     0
  9
$MENU
  1
.
  9
$ELEVATION
 40
0.0
  9
$PELEVATION
 40
0.0
  9
$THICKNESS
 40
0.0
  9
$LIMCHECK
 70
     0
  9
$CHAMFERA
 40
0.0
  9
$CHAMFERB
 40
0.0
  9
$CHAMFERC
 40
0.0
  9
$CHAMFERD
 40
0.0
  9
$SKPOLY
 70
     0
  9
$TDCREATE
 40
2459117.591337859
  9
$TDUPDATE
 40
2459117.591338588
  9
$TDINDWG
 40
0.0
  9
$TDUSRTIMER
 40
0.0
  9
$USRTIMER
 70
     1
  9
$ANGBASE
 50
0.0
  9
$ANGDIR
 70
     0
  9
$PDMODE
 70
    33
  9
$PDSIZE
 40
1.0
  9
$PLINEWID
 40
0.0
  9
$COORDS
 70
     1
  9
$SPLFRAME
 70
     0
  9
$SPLINETYPE
 70
     6
  9
$SPLINESEGS
 70
     8
  9
$ATTDIA
 70
     0
  9
$ATTREQ
 70
     1
  9
$HANDLING
 70
     1
  9
$HANDSEED
  5
291
  9
$SURFTAB1
 70
     6
  9
$SURFTAB2
 70
     6
  9
$SURFTYPE
 70
     6
  9
$SURFU
 70
     6
  9
$SURFV
 70
     6
  9
$UCSNAME
  2

  9
$UCSORG
 10
0.0
 20
0.0
 30
0.0
  9
$UCSXDIR
 10
1.0
 20
0.0
 30
0.0
  9
$UCSYDIR
 10
0.0
 20
1.0
 30
0.0
  9
$PUCSNAME
  2

  9
$PUCSORG
 10
0.0
 20
0.0
 30
0.0
  9
$PUCSXDIR
 10
1.0
 20
0.0
 30
0.0
  9
$PUCSYDIR
 10
0.0
 20
1.0
 30
0.0
  9
$USERI1
 70
     0
  9
$USERI2
 70
     0
  9
$USERI3
 70
     0
  9
$USERI4
 70
     0
  9
$USERI5
 70
     0
  9
$USERR1
 40
0.0
  9
$USERR2
 40
0.0
  9
$USERR3
 40
0.0
  9
$USERR4
 40
0.0
  9
$USERR5
 40
0.0
  9
$WORLDVIEW
 70
     1
  9
$SHADEDGE
 70
     3
  9
$SHADEDIF
 70
    70
  9
$TILEMODE
 70
     1
  9
$MAXACTVP
 70
    64
  9
$PINSBASE
 10
0.0
 20
0.0
 30
0.0
  9
$PLIMCHECK
 70
     0
  9
$PEXTMIN
 10
1.000000000000000E+20
 20
1.000000000000000E+20
 30
1.000000000000000E+20
  9
$PEXTMAX
 10
-1.000000000000000E+20
 20
-1.000000000000000E+20
 30
-1.000000000000000E+20
  9
$PLIMMIN
 10
0.0
 20
0.0
  9
$PLIMMAX
 10
420.0
 20
297.0
  9
$UNITMODE
 70
     0
  9
$VISRETAIN
 70
     1
  9
$PLINEGEN
 70
     0
  9
$PSLTSCALE
 70
     1
  9
$TREEDEPTH
 70
  3020
  9
$PICKSTYLE
 70
     1
  9
$CMLSTYLE
  2
STANDARD
  9
$CMLJUST
 70
     0
  9
$CMLSCALE
 40
20.0
  9
$PROXYGRAPHICS
 70
     1
  9
$MEASUREMENT
 70
     1
  0
ENDSEC
  0
SECTION
  2
CLASSES
  0
CLASS
  1
ACDBDICTIONARYWDFLT
  2
AcDbDictionaryWithDefault
  3
ObjectDBX Classes
 90
        0
280
     0
281
     0
  0
CLASS
  1
VISUALSTYLE
  2
AcDbVisualStyle
  3
ObjectDBX Classes
 90
     4095
280
     0
281
     0
  0
CLASS
  1
MATERIAL
  2
AcDbMaterial
  3
ObjectDBX Classes
 90
     1153
280
     0
281
     0
  0
CLASS
  1
SCALE
  2
AcDbScale
  3
ObjectDBX Classes
 90
     1153
280
     0
281
     0
  0
CLASS
  1
TABLESTYLE
  2
AcDbTableStyle
  3
ObjectDBX Classes
 90
     4095
280
     0
281
     0
  0
CLASS
  1
MLEADERSTYLE
  2
AcDbMLeaderStyle
  3
ACDB_MLEADERSTYLE_CLASS
 90
     4095
280
     0
281
     0
  0
CLASS
  1
SUN
  2
AcDbSun
  3
SCENEOE
 90
     1153
280
     0
281
     0
  0
CLASS
  1
DICTIONARYVAR
  2
AcDbDictionaryVar
  3
ObjectDBX Classes
 90
        0
280
     0
281
     0
  0
CLASS
  1
XRECORD
  2
AcDbXrecord
  3
ObjectDBX Classes
 90
        0
280
     0
281
     0
  0
CLASS
  1
LWPOLYLINE
  2
AcDbPolyline
  3
ObjectDBX Classes
 90
        0
280
     0
281
     1
  0
CLASS
  1
HATCH
  2
AcDbHatch
  3
ObjectDBX Classes
 90
        0
280
     0
281
     1
  0
CLASS
  1
ACDBPLACEHOLDER
  2
AcDbPlaceHolder
  3
ObjectDBX Classes
 90
        0
280
     0
281
     0
  0
CLASS
  1
LAYOUT
  2
AcDbLayout
  3
ObjectDBX Classes
 90
        0
280
     0
281
     0
  0
ENDSEC
  0
SECTION
  2
TABLES
  0
TABLE
  2
VPORT
  5
8
102
{ACAD_XDICTIONARY
360
286
102
}
330
0
100
AcDbSymbolTable
 70
     1
  0
VPORT
  5
29
330
8
100
AcDbSymbolTableRecord
100
AcDbViewportTableRecord
  2
*ACTIVE
 70
     0
 10
0.0
 20
0.0
 11
1.0
 21
1.0
 12
101.1328622741353
 22
147.5007550749374
 13
0.0
 23
0.0
 14
10.0
 24
10.0
 15
10.0
 25
10.0
 16
0.0
 26
0.0
 36
1.0
 17
0.0
 27
0.0
 37
0.0
 40
297.8566156228892
 41
0.6471527146076053
 42
50.0
 43
0.0
 44
0.0
 50
0.0
 51
0.0
 71
     0
 72
   100
 73
     1
 74
     3
 75
     0
 76
     0
 77
     0
 78
     0
  0
ENDTAB
  0
TABLE
  2
LTYPE
  5
5
330
0
100
AcDbSymbolTable
 70
     1
  0
LTYPE
  5
14
330
5
100
AcDbSymbolTableRecord
100
AcDbLinetypeTableRecord
  2
BYBLOCK
 70
     0
  3

 72
    65
 73
     0
 40
0.0
  0
LTYPE
  5
15
330
5
100
AcDbSymbolTableRecord
100
AcDbLinetypeTableRecord
  2
BYLAYER
 70
     0
  3

 72
    65
 73
     0
 40
0.0
  0
LTYPE
  5
16
330
5
100
AcDbSymbolTableRecord
100
AcDbLinetypeTableRecord
  2
CONTINUOUS
 70
     0
  3
Solid line
 72
    65
 73
     0
 40
0.0
  0
ENDTAB
  0
TABLE
  2
LAYER
  5
2
330
0
100
AcDbSymbolTable
 70
     3
  0
LAYER
  5
10
330
2
100
AcDbSymbolTableRecord
100
AcDbLayerTableRecord
  2
0
 70
     0
 62
     7
  6
CONTINUOUS
  0
LAYER
  5
76
330
2
100
AcDbSymbolTableRecord
100
AcDbLayerTableRecord
  2
ANNOTATION_TEXT
 70
     0
 62
     7
  6
CONTINUOUS
  0
LAYER
  5
B2
330
2
100
AcDbSymbolTableRecord
100
AcDbLayerTableRecord
  2
VISIBLE
 70
     0
 62
     7
  6
CONTINUOUS
  0
ENDTAB
  0
TABLE
  2
STYLE
  5
3
330
0
100
AcDbSymbolTable
 70
    27
  0
STYLE
  5
11
330
3
100
AcDbSymbolTableRecord
100
AcDbTextStyleTableRecord
  2
STANDARD
 70
     0
 40
0.0
 41
1.0
 50
0.0
 71
     0
 42
3.5
  3
txt
  4

  0
STYLE
  5
70
330
3
100
AcDbSymbolTableRecord
100
AcDbTextStyleTableRecord
  2
ONSHAPE-STANDARD
 70
     0
 40
0.0
 41
1.0
 50
0.0
 71
     0
 42
3.5
  3
NotoSans-Regular.ttf
  4

1001
ACAD
1000
Noto Sans
1071
        0
  0
STYLE
  5
72
330
3
100
AcDbSymbolTableRecord
100
AcDbTextStyleTableRecord
  2
ONSHAPE-STANDARD-DIMENSION
 70
     0
 40
0.0
 41
1.0
 50
0.0
 71
     0
 42
3.5
  3

  4

1001
ACAD
1000
Noto Sans
1071
        0
  0
STYLE
  5
78
330
3
100
AcDbSymbolTableRecord
100
AcDbTextStyleTableRecord
  2
ONSHAPE-STANDARD-VIEW-LABE
 70
     0
 40
3.5
 41
1.0
 50
0.0
 71
     0
 42
3.5
  3
NotoSans-Regular.ttf
  4

1001
ACAD
1000
Noto Sans
1071
        0
  0
STYLE
  5
21B
330
3
100
AcDbSymbolTableRecord
100
AcDbTextStyleTableRecord
  2
ONSHAPE-STANDARD-BOLD
 70
     0
 40
0.0
 41
1.0
 50
0.0
 71
     0
 42
3.5
  3
NotoSans-Bold.ttf
  4

1001
ACAD
1000
Noto Sans
1071
 33554432
  0
STYLE
  5
21C
330
3
100
AcDbSymbolTableRecord
100
AcDbTextStyleTableRecord
  2
ONSHAPE-STANDARD-FIELDS
 70
     0
 40
0.0
 41
1.0
 50
0.0
 71
     0
 42
3.5
  3

  4

1001
ACAD
1000
Noto Sans
1071
        0
  0
STYLE
  5
21D
330
3
100
AcDbSymbolTableRecord
100
AcDbTextStyleTableRecord
  2
ONSHAPE-STANDARD-TCFIELDS
 70
     0
 40
0.0
 41
1.0
 50
0.0
 71
     0
 42
3.5
  3
NotoSansTC-Regular.otf
  4

1001
ACAD
1000
Noto Sans TC
1071
        0
  0
STYLE
  5
21E
330
3
100
AcDbSymbolTableRecord
100
AcDbTextStyleTableRecord
  2
ONSHAPE-STANDARD-SCFIELDS
 70
     0
 40
0.0
 41
1.0
 50
0.0
 71
     0
 42
3.5
  3
NotoSansSC-Regular.otf
  4

1001
ACAD
1000
Noto Sans SC
1071
        0
  0
STYLE
  5
21F
330
3
100
AcDbSymbolTableRecord
100
AcDbTextStyleTableRecord
  2
ONSHAPE-STANDARD-KOREANFIE
 70
     0
 40
0.0
 41
1.0
 50
0.0
 71
     0
 42
3.5
  3
NotoSansKR-Regular.otf
  4

1001
ACAD
1000
Noto Sans KR
1071
        0
  0
STYLE
  5
221
330
3
100
AcDbSymbolTableRecord
100
AcDbTextStyleTableRecord
  2
TTFSTYLE
 70
     0
 40
0.0
 41
1.0
 50
0.0
 71
     0
 42
3.5
  3
Verdana.ttf
  4

1001
ACAD
1000
Verdana
1071
       34
  0
STYLE
  5
222
330
3
100
AcDbSymbolTableRecord
100
AcDbTextStyleTableRecord
  2
ONSHAPE-STANDARD-GTOLERANC
 70
     0
 40
0.0
 41
1.0
 50
0.0
 71
     0
 42
3.5
  3

  4

1001
ACAD
1000
Noto Sans
1071
        0
  0
STYLE
  5
223
330
3
100
AcDbSymbolTableRecord
100
AcDbTextStyleTableRecord
  2
ONSHAPE-STANDARD-TABLE-DAT
 70
     0
 40
0.0
 41
1.0
 50
0.0
 71
     0
 42
3.5
  3
NotoSans-Regular.ttf
  4

1001
ACAD
1000
Noto Sans
1071
        0
  0
STYLE
  5
224
330
3
100
AcDbSymbolTableRecord
100
AcDbTextStyleTableRecord
  2
ONSHAPE-STANDARD-TABLE-TIT
 70
     0
 40
0.0
 41
1.0
 50
0.0
 71
     0
 42
3.5
  3
NotoSans-Bold.ttf
  4

1001
ACAD
1000
Noto Sans
1071
 33554432
  0
STYLE
  5
225
330
3
100
AcDbSymbolTableRecord
100
AcDbTextStyleTableRecord
  2
ONSHAPE-STANDARD-TABLE-HEA
 70
     0
 40
0.0
 41
1.0
 50
0.0
 71
     0
 42
3.5
  3
NotoSans-Bold.ttf
  4

1001
ACAD
1000
Noto Sans
1071
 33554432
  0
STYLE
  5
226
330
3
100
AcDbSymbolTableRecord
100
AcDbTextStyleTableRecord
  2
ONSHAPE-STANDARD-BOMTABLE-
 70
     0
 40
0.0
 41
1.0
 50
0.0
 71
     0
 42
3.5
  3
NotoSans-Regular.ttf
  4

1001
ACAD
1000
Noto Sans
1071
        0
  0
STYLE
  5
227
330
3
100
AcDbSymbolTableRecord
100
AcDbTextStyleTableRecord
  2
ONSHAPE-STANDARD-BOMTABLE0
 70
     0
 40
0.0
 41
1.0
 50
0.0
 71
     0
 42
3.5
  3
NotoSans-Bold.ttf
  4

1001
ACAD
1000
Noto Sans
1071
 33554432
  0
STYLE
  5
228
330
3
100
AcDbSymbolTableRecord
100
AcDbTextStyleTableRecord
  2
ONSHAPE-STANDARD-BOMTABLE1
 70
     0
 40
0.0
 41
1.0
 50
0.0
 71
     0
 42
3.5
  3
NotoSans-Bold.ttf
  4

1001
ACAD
1000
Noto Sans
1071
 33554432
  0
STYLE
  5
229
330
3
100
AcDbSymbolTableRecord
100
AcDbTextStyleTableRecord
  2
ONSHAPE-STANDARD-NOTESTYLE
 70
     0
 40
3.5
 41
1.0
 50
0.0
 71
     0
 42
3.5
  3
Noto Sans
  4

1001
ACAD
1000
Noto Sans
1071
        0
  0
STYLE
  5
22B
330
3
100
AcDbSymbolTableRecord
100
AcDbTextStyleTableRecord
  2
ONSHAPE-STANDARD-HOLE-CALL
 70
     0
 40
3.5
 41
1.0
 50
0.0
 71
     0
 42
3.5
  3
Noto Sans
  4

1001
ACAD
1000
Noto Sans
1071
        0
  0
STYLE
  5
22C
330
3
100
AcDbSymbolTableRecord
100
AcDbTextStyleTableRecord
  2
ONSHAPE-STANDARD-HOLETABLE
 70
     0
 40
0.0
 41
1.0
 50
0.0
 71
     0
 42
3.5
  3
NotoSans-Regular.ttf
  4

1001
ACAD
1000
Noto Sans
1071
        0
  0
STYLE
  5
22D
330
3
100
AcDbSymbolTableRecord
100
AcDbTextStyleTableRecord
  2
ONSHAPE-STANDARD-HOLETABL0
 70
     0
 40
0.0
 41
1.0
 50
0.0
 71
     0
 42
3.5
  3
NotoSans-Bold.ttf
  4

1001
ACAD
1000
Noto Sans
1071
 33554432
  0
STYLE
  5
22E
330
3
100
AcDbSymbolTableRecord
100
AcDbTextStyleTableRecord
  2
ONSHAPE-STANDARD-HOLETABL1
 70
     0
 40
0.0
 41
1.0
 50
0.0
 71
     0
 42
3.5
  3
NotoSans-Bold.ttf
  4

1001
ACAD
1000
Noto Sans
1071
 33554432
  0
STYLE
  5
22F
330
3
100
AcDbSymbolTableRecord
100
AcDbTextStyleTableRecord
  2
ONSHAPE-STANDARD-HOLE-TAG
 70
     0
 40
3.5
 41
1.0
 50
0.0
 71
     0
 42
3.5
  3
Noto Sans
  4

1001
ACAD
1000
Noto Sans
1071
        0
  0
STYLE
  5
230
330
3
100
AcDbSymbolTableRecord
100
AcDbTextStyleTableRecord
  2
ONSHAPE-STANDARD-REVISIONT
 70
     0
 40
0.0
 41
1.0
 50
0.0
 71
     0
 42
3.5
  3
NotoSans-Regular.ttf
  4

1001
ACAD
1000
Noto Sans
1071
        0
  0
STYLE
  5
231
330
3
100
AcDbSymbolTableRecord
100
AcDbTextStyleTableRecord
  2
ONSHAPE-STANDARD-REVISION0
 70
     0
 40
0.0
 41
1.0
 50
0.0
 71
     0
 42
3.5
  3
NotoSans-Bold.ttf
  4

1001
ACAD
1000
Noto Sans
1071
 33554432
  0
STYLE
  5
232
330
3
100
AcDbSymbolTableRecord
100
AcDbTextStyleTableRecord
  2
ONSHAPE-STANDARD-REVISION1
 70
     0
 40
0.0
 41
1.0
 50
0.0
 71
     0
 42
3.5
  3
NotoSans-Bold.ttf
  4

1001
ACAD
1000
Noto Sans
1071
 33554432
  0
STYLE
  5
233
330
3
100
AcDbSymbolTableRecord
100
AcDbTextStyleTableRecord
  2
ONSHAPE-STANDARD-REVISION-
 70
     0
 40
3.5
 41
1.0
 50
0.0
 71
     0
 42
3.5
  3
Noto Sans
  4

1001
ACAD
1000
Noto Sans
1071
        0
  0
ENDTAB
  0
TABLE
  2
VIEW
  5
6
330
0
100
AcDbSymbolTable
 70
     0
  0
ENDTAB
  0
TABLE
  2
UCS
  5
7
330
0
100
AcDbSymbolTable
 70
     0
  0
ENDTAB
  0
TABLE
  2
APPID
  5
9
330
0
100
AcDbSymbolTable
 70
     2
  0
APPID
  5
12
330
9
100
AcDbSymbolTableRecord
100
AcDbRegAppTableRecord
  2
ACAD
 70
     0
  0
APPID
  5
290
330
9
100
AcDbSymbolTableRecord
100
AcDbRegAppTableRecord
  2
ACAD_MLEADERVER
 70
     0
  0
ENDTAB
  0
TABLE
  2
DIMSTYLE
  5
A
330
0
100
AcDbSymbolTable
 70
    18
  0
DIMSTYLE
105
27
330
A
100
AcDbSymbolTableRecord
100
AcDbDimStyleTableRecord
  2
ISO-25
 70
     0
  3

  4

  5

  6

  7

 40
1.0
 41
2.5
 42
0.625
 43
3.75
 44
1.25
 45
0.0
 46
0.0
 47
0.0
 48
0.0
140
2.5
141
2.5
142
0.0
143
0.03937007874016
144
1.0
145
0.0
146
1.0
147
0.625
 71
     0
 72
     0
 73
     0
 74
     0
 75
     0
 76
     0
 77
     1
 78
     8
170
     0
171
     3
172
     1
173
     0
174
     0
175
     0
176
     0
177
     0
178
     0
270
     2
271
     2
272
     2
273
     2
274
     3
340
11
275
     0
280
     0
281
     0
282
     0
283
     0
284
     8
285
     0
286
     0
287
     3
288
     0
  0
DIMSTYLE
105
71
330
A
100
AcDbSymbolTableRecord
100
AcDbDimStyleTableRecord
  2
ONSHAPE-ISO-25
 70
     0
  3

  4

  5

  6

  7

 40
1.0
 41
2.5
 42
0.625
 43
3.75
 44
1.25
 45
0.0
 46
0.0
 47
0.0
 48
0.0
140
3.5
141
2.5
142
0.0
143
0.03937
144
1.0
145
0.0
146
1.0
147
0.625
 71
     0
 72
     0
 73
     0
 74
     0
 75
     0
 76
     0
 77
     1
 78
     8
170
     0
171
     3
172
     1
173
     0
174
     0
175
     0
176
     7
177
     7
178
     7
179
     1
270
     2
271
     2
272
     2
273
     2
274
     3
340
72
275
     0
280
     0
281
     0
282
     0
283
     0
284
     8
285
     8
286
     0
287
     3
288
     1
  0
DIMSTYLE
105
236
330
A
100
AcDbSymbolTableRecord
100
AcDbDimStyleTableRecord
  2
ISO
 70
     0
  3

  4
"
  5

  6

  7

 40
1.0
 41
3.5
 42
1.0
 43
10.0
 44
1.0
 45
0.0
 46
0.0
 47
0.1
 48
0.1
140
3.5
141
0.0
142
0.0
143
0.03937
144
1.0
145
0.0
146
0.71
147
1.5
 71
     0
 72
     0
 73
     0
 74
     0
 75
     0
 76
     0
 77
     1
 78
     8
170
     0
171
     3
172
     1
173
     0
174
     0
175
     0
176
     7
177
     7
178
     7
270
     2
271
     2
272
     3
273
     2
274
     3
340
11
275
     0
280
     0
281
     0
282
     0
283
     0
284
     8
285
     8
286
     0
287
     3
288
     1
  0
DIMSTYLE
105
237
330
A
100
AcDbSymbolTableRecord
100
AcDbDimStyleTableRecord
  2
ISO$3
 70
     0
  3

  4
"
  5

  6

  7

 40
1.0
 41
3.5
 42
1.0
 43
10.0
 44
1.0
 45
0.0
 46
0.0
 47
0.1
 48
0.1
140
3.5
141
0.0
142
0.0
143
0.03937
144
1.0
145
0.0
146
0.71
147
1.5
 71
     0
 72
     0
 73
     0
 74
     1
 75
     0
 76
     0
 77
     1
 78
     8
170
     0
171
     3
172
     0
173
     0
174
     0
175
     0
176
     7
177
     7
178
     7
270
     2
271
     2
272
     3
273
     2
274
     3
340
11
275
     0
280
     0
281
     0
282
     0
283
     0
284
     8
285
     8
286
     0
288
     1
  0
DIMSTYLE
105
238
330
A
100
AcDbSymbolTableRecord
100
AcDbDimStyleTableRecord
  2
ISO$4
 70
     0
  3

  4
"
  5

  6

  7

 40
1.0
 41
3.5
 42
1.0
 43
10.0
 44
1.0
 45
0.0
 46
0.0
 47
0.1
 48
0.1
140
3.5
141
0.0
142
0.0
143
0.03937
144
1.0
145
0.0
146
0.71
147
1.5
 71
     0
 72
     0
 73
     0
 74
     0
 75
     0
 76
     0
 77
     1
 78
     8
170
     0
171
     3
172
     1
173
     0
174
     0
175
     0
176
     7
177
     7
178
     7
270
     2
271
     2
272
     3
273
     2
274
     3
340
11
275
     0
280
     0
281
     0
282
     0
283
     0
284
     8
285
     8
286
     0
287
     3
288
     1
  0
DIMSTYLE
105
239
330
A
100
AcDbSymbolTableRecord
100
AcDbDimStyleTableRecord
  2
ISO$6
 70
     0
  3

  4
"
  5

  6

  7

 40
1.0
 41
0.5
 42
1.0
 43
10.0
 44
1.0
 45
0.0
 46
0.0
 47
0.1
 48
0.1
140
3.5
141
0.0
142
0.0
143
0.03937
144
1.0
145
0.0
146
0.71
147
1.5
 71
     0
 72
     0
 73
     0
 74
     0
 75
     0
 76
     0
 77
     0
 78
     8
170
     0
171
     3
172
     1
173
     0
174
     0
175
     0
176
     7
177
     7
178
     7
270
     2
271
     2
272
     3
273
     2
274
     3
340
11
275
     0
280
     0
281
     0
282
     0
283
     0
284
     8
285
     8
286
     0
287
     3
288
     1
  0
DIMSTYLE
105
23A
330
A
100
AcDbSymbolTableRecord
100
AcDbDimStyleTableRecord
  2
ISO$7
 70
     0
  3

  4
"
  5

  6

  7

 40
1.0
 41
3.5
 42
1.0
 43
10.0
 44
1.0
 45
0.0
 46
0.0
 47
0.1
 48
0.1
140
3.5
141
0.0
142
0.0
143
0.03937
144
1.0
145
0.0
146
0.71
147
1.5
 71
     0
 72
     0
 73
     0
 74
     0
 75
     0
 76
     0
 77
     1
 78
     8
170
     0
171
     3
172
     1
173
     0
174
     0
175
     0
176
     7
177
     7
178
     7
270
     2
271
     2
272
     3
273
     2
274
     3
340
11
275
     0
280
     0
281
     0
282
     0
283
     0
284
     8
285
     8
286
     0
287
     3
288
     1
  0
DIMSTYLE
105
23B
330
A
100
AcDbSymbolTableRecord
100
AcDbDimStyleTableRecord
  2
ISO$SF
 70
     0
  3

  4
"
  5

  6

  7

 40
1.0
 41
3.5
 42
1.0
 43
10.0
 44
1.0
 45
0.0
 46
0.0
 47
0.1
 48
0.1
140
3.5
141
0.0
142
0.0
143
0.03937
144
1.0
145
0.0
146
0.71
147
1.5
 71
     0
 72
     0
 73
     0
 74
     0
 75
     1
 76
     1
 77
     1
 78
     8
170
     0
171
     3
172
     1
173
     0
174
     0
175
     0
176
     7
177
     7
178
     7
270
     2
271
     2
272
     3
273
     2
274
     3
340
11
275
     0
280
     0
281
     0
282
     0
283
     0
284
     8
285
     8
286
     0
287
     3
288
     1
  0
DIMSTYLE
105
23C
330
A
100
AcDbSymbolTableRecord
100
AcDbDimStyleTableRecord
  2
ISO$SH
 70
     0
  3

  4
"
  5

  6

  7

 40
1.0
 41
3.5
 42
1.0
 43
10.0
 44
1.0
 45
0.0
 46
0.0
 47
0.1
 48
0.1
140
3.5
141
0.0
142
0.0
143
0.03937
144
2.0
145
0.0
146
0.71
147
1.5
 71
     0
 72
     0
 73
     0
 74
     0
 75
     1
 76
     1
 77
     1
 78
     8
170
     0
171
     3
172
     1
173
     1
174
     0
175
     0
176
     7
177
     7
178
     7
270
     2
271
     2
272
     3
273
     2
274
     3
340
11
275
     0
280
     0
281
     0
282
     0
283
     0
284
     8
285
     8
286
     0
287
     3
288
     1
  0
DIMSTYLE
105
23F
330
A
100
AcDbSymbolTableRecord
100
AcDbDimStyleTableRecord
  2
ONSHAPE-ISO-25$0
 70
     0
  3

  4

  5

  6

  7

 40
1.0
 41
2.5
 42
0.625
 43
3.75
 44
1.25
 45
0.0
 46
0.0
 47
0.0
 48
0.0
140
3.5
141
2.5
142
0.0
143
0.03937
144
1.0
145
0.0
146
1.0
147
0.625
 71
     0
 72
     0
 73
     0
 74
     0
 75
     0
 76
     0
 77
     1
 78
     8
170
     0
171
     3
172
     1
173
     0
174
     0
175
     0
176
     7
177
     7
178
     7
179
     1
270
     2
271
     2
272
     2
273
     2
274
     3
340
72
275
     0
280
     0
281
     0
282
     0
283
     0
284
     8
285
     8
286
     0
287
     3
288
     1
  0
DIMSTYLE
105
240
330
A
100
AcDbSymbolTableRecord
100
AcDbDimStyleTableRecord
  2
ONSHAPE-ISO-25$2
 70
     0
  3

  4

  5

  6

  7

 40
1.0
 41
2.5
 42
0.625
 43
3.75
 44
1.25
 45
0.0
 46
0.0
 47
0.0
 48
0.0
140
3.5
141
2.5
142
0.0
143
0.03937
144
1.0
145
0.0
146
1.0
147
0.625
 71
     0
 72
     0
 73
     0
 74
     0
 75
     0
 76
     0
 77
     1
 78
     8
170
     0
171
     3
172
     1
173
     0
174
     0
175
     0
176
     7
177
     7
178
     7
179
     1
270
     2
271
     2
272
     2
273
     2
274
     3
340
72
275
     0
280
     0
281
     0
282
     0
283
     0
284
     8
285
     8
286
     0
287
     3
288
     1
  0
DIMSTYLE
105
241
330
A
100
AcDbSymbolTableRecord
100
AcDbDimStyleTableRecord
  2
ONSHAPE-ISO-25$3
 70
     0
  3

  4

  5

  6

  7

 40
1.0
 41
2.5
 42
0.625
 43
3.75
 44
1.25
 45
0.0
 46
0.0
 47
0.0
 48
0.0
140
3.5
141
0.0
142
0.0
143
0.03937
144
1.0
145
0.0
146
1.0
147
0.625
 71
     0
 72
     0
 73
     0
 74
     0
 75
     0
 76
     0
 77
     1
 78
     8
170
     0
171
     3
172
     1
173
     0
174
     0
175
     0
176
     7
177
     7
178
     7
179
     1
270
     2
271
     2
272
     2
273
     2
274
     3
340
72
275
     0
280
     0
281
     0
282
     0
283
     0
284
     8
285
     8
286
     0
287
     3
288
     1
  0
DIMSTYLE
105
242
330
A
100
AcDbSymbolTableRecord
100
AcDbDimStyleTableRecord
  2
ONSHAPE-ISO-25$4
 70
     0
  3

  4

  5

  6

  7

 40
1.0
 41
2.5
 42
0.625
 43
3.75
 44
1.25
 45
0.0
 46
0.0
 47
0.0
 48
0.0
140
3.5
141
0.0
142
0.0
143
0.03937
144
1.0
145
0.0
146
1.0
147
0.625
 71
     0
 72
     0
 73
     0
 74
     0
 75
     0
 76
     0
 77
     1
 78
     8
170
     0
171
     3
172
     1
173
     0
174
     0
175
     0
176
     7
177
     7
178
     7
179
     1
270
     2
271
     2
272
     2
273
     2
274
     3
340
72
275
     0
280
     0
281
     0
282
     0
283
     0
284
     8
285
     8
286
     0
287
     3
288
     1
  0
DIMSTYLE
105
243
330
A
100
AcDbSymbolTableRecord
100
AcDbDimStyleTableRecord
  2
ONSHAPE-ISO-25$6
 70
     0
  3

  4

  5

  6

  7

 40
1.0
 41
0.5
 42
0.625
 43
3.75
 44
1.25
 45
0.0
 46
0.0
 47
0.0
 48
0.0
140
3.5
141
2.5
142
0.0
143
0.03937
144
1.0
145
0.0
146
1.0
147
0.625
 71
     0
 72
     0
 73
     0
 74
     0
 75
     0
 76
     0
 77
     1
 78
     8
170
     0
171
     3
172
     1
173
     0
174
     0
175
     0
176
     7
177
     7
178
     7
179
     1
270
     2
271
     2
272
     2
273
     2
274
     3
340
72
275
     0
280
     0
281
     0
282
     0
283
     0
284
     8
285
     8
286
     0
287
     3
288
     1
  0
DIMSTYLE
105
244
330
A
100
AcDbSymbolTableRecord
100
AcDbDimStyleTableRecord
  2
ONSHAPE-ISO-25$7
 70
     0
  3

  4

  5

  6

  7

 40
1.0
 41
2.5
 42
0.625
 43
3.75
 44
1.25
 45
0.0
 46
0.0
 47
0.0
 48
0.0
140
3.5
141
2.5
142
0.0
143
0.03937
144
1.0
145
0.0
146
1.0
147
0.625
 71
     0
 72
     0
 73
     0
 74
     0
 75
     0
 76
     0
 77
     1
 78
     8
170
     0
171
     3
172
     1
173
     0
174
     0
175
     0
176
     7
177
     7
178
     7
179
     1
270
     2
271
     2
272
     2
273
     2
274
     3
340
72
275
     0
280
     0
281
     0
282
     0
283
     0
284
     8
285
     8
286
     0
287
     3
288
     1
  0
DIMSTYLE
105
245
330
A
100
AcDbSymbolTableRecord
100
AcDbDimStyleTableRecord
  2
ONSHAPE-STANDARD-GTOLERANC
 70
     0
  3

  4

  5

  6

  7

 40
1.0
 41
2.5
 42
0.625
 43
3.75
 44
1.25
 45
0.0
 46
0.0
 47
0.0
 48
0.0
140
3.5
141
2.5
142
0.0
143
0.03937
144
1.0
145
0.0
146
1.0
147
0.625
 71
     0
 72
     0
 73
     0
 74
     0
 75
     0
 76
     0
 77
     1
 78
     8
170
     0
171
     3
172
     1
173
     0
174
     0
175
     0
176
     7
177
     7
178
     7
179
     1
270
     2
271
     2
272
     2
273
     2
274
     3
340
222
275
     0
280
     0
281
     0
282
     0
283
     0
284
     8
285
     8
286
     0
287
     3
288
     1
  0
DIMSTYLE
105
247
330
A
100
AcDbSymbolTableRecord
100
AcDbDimStyleTableRecord
  2
ONSHAPE-ORDINATESTYLE
 70
     0
  3

  4

  5

  6

  7

 40
1.0
 41
2.5
 42
0.625
 43
3.75
 44
1.25
 45
0.0
 46
0.0
 47
0.0
 48
0.0
140
3.5
141
2.5
142
0.0
143
0.03937
144
1.0
145
0.0
146
1.0
147
0.625
 71
     0
 72
     0
 73
     0
 74
     0
 75
     0
 76
     0
 77
     1
 78
     8
170
     0
171
     3
172
     1
173
     0
174
     0
175
     0
176
     7
177
     7
178
     7
179
     1
270
     2
271
     2
272
     2
273
     2
274
     3
340
72
275
     0
280
     0
281
     0
282
     0
283
     0
284
     8
285
     8
286
     0
287
     3
288
     1
  0
DIMSTYLE
105
248
330
A
100
AcDbSymbolTableRecord
100
AcDbDimStyleTableRecord
  2
ONSHAPE-CHAMFERDIMSTYLE
 70
     0
  3

  4

  5

  6

  7

 40
1.0
 41
2.5
 42
0.625
 43
3.75
 44
1.25
 45
0.0
 46
0.0
 47
0.0
 48
0.0
140
3.5
141
2.5
142
0.0
143
0.03937
144
1.0
145
0.0
146
1.0
147
0.625
 71
     0
 72
     0
 73
     0
 74
     0
 75
     0
 76
     0
 77
     1
 78
     8
170
     0
171
     3
172
     1
173
     0
174
     0
175
     0
176
     7
177
     7
178
     7
179
     1
270
     2
271
     2
272
     2
273
     2
274
     3
340
72
275
     0
280
     0
281
     0
282
     0
283
     0
284
     8
285
     8
286
     0
287
     3
288
     1
  0
ENDTAB
  0
TABLE
  2
BLOCK_RECORD
  5
1
330
0
100
AcDbSymbolTable
 70
     0
  0
BLOCK_RECORD
  5
1F
330
1
100
AcDbSymbolTableRecord
100
AcDbBlockTableRecord
  2
*MODEL_SPACE
  0
BLOCK_RECORD
  5
1B
330
1
100
AcDbSymbolTableRecord
100
AcDbBlockTableRecord
  2
*PAPER_SPACE
  0
ENDTAB
  0
ENDSEC
  0
SECTION
  2
BLOCKS
  0
BLOCK
  5
20
330
1F
100
AcDbEntity
  8
0
100
AcDbBlockBegin
  2
*MODEL_SPACE
 70
     0
 10
0.0
 20
0.0
 30
0.0
  3
*MODEL_SPACE
  1

  0
ENDBLK
  5
21
330
1F
100
AcDbEntity
  8
0
100
AcDbBlockEnd
  0
BLOCK
  5
1C
330
1B
100
AcDbEntity
 67
     1
  8
0
100
AcDbBlockBegin
  2
*PAPER_SPACE
 70
     0
 10
0.0
 20
0.0
 30
0.0
  3
*PAPER_SPACE
  1

  0
ENDBLK
  5
1D
330
1B
100
AcDbEntity
 67
     1
  8
0
100
AcDbBlockEnd
  0
ENDSEC
  0
SECTION
  2
ENTITIES
  0
MTEXT
  5
73
102
{ACAD_XDICTIONARY
360
74
102
}
330
1F
100
AcDbEntity
  8
ANNOTATION_TEXT
 62
     7
 60
     1
100
AcDbMText
 10
114.9805850875922
 20
155.9468463977665
 30
0.0
 40
3.5
 41
0.0
 71
     2
 72
     1
  1

  7
ONSHAPE-STANDARD-VIEW-LABE
1001
ACAD
1000
ACAD_MTEXT_DEFINED_HEIGHT_BEGIN
1070
    46
1040
3.5
1000
ACAD_MTEXT_DEFINED_HEIGHT_END
  0
MTEXT
  5
79
102
{ACAD_XDICTIONARY
360
7A
102
}
330
1F
100
AcDbEntity
  8
ANNOTATION_TEXT
 62
     7
 60
     1
100
AcDbMText
 10
102.0583739870185
 20
33.13747701674669
 30
0.0
 40
3.5
 41
0.0
 71
     2
 72
     1
  1

  7
ONSHAPE-STANDARD-VIEW-LABE
1001
ACAD
1000
ACAD_MTEXT_DEFINED_HEIGHT_BEGIN
1070
    46
1040
3.5
1000
ACAD_MTEXT_DEFINED_HEIGHT_END
  0
MTEXT
  5
7C
102
{ACAD_XDICTIONARY
360
7D
102
}
330
1F
100
AcDbEntity
  8
ANNOTATION_TEXT
 62
     7
 60
     1
100
AcDbMText
 10
52.07054564142892
 20
133.8815708209848
 30
0.0
 40
3.5
 41
0.0
 71
     2
 72
     1
  1

  7
ONSHAPE-STANDARD-VIEW-LABE
1001
ACAD
1000
ACAD_MTEXT_DEFINED_HEIGHT_BEGIN
1070
    46
1040
3.5
1000
ACAD_MTEXT_DEFINED_HEIGHT_END
  0
MTEXT
  5
7F
102
{ACAD_XDICTIONARY
360
80
102
}
330
1F
100
AcDbEntity
  8
ANNOTATION_TEXT
 62
     7
 60
     1
100
AcDbMText
 10
145.6298059621897
 20
262.2588999881185
 30
0.0
 40
3.5
 41
0.0
 71
     2
 72
     1
  1

  7
ONSHAPE-STANDARD-VIEW-LABE
1001
ACAD
1000
ACAD_MTEXT_DEFINED_HEIGHT_BEGIN
1070
    46
1040
3.5
1000
ACAD_MTEXT_DEFINED_HEIGHT_END
  0
MTEXT
  5
82
102
{ACAD_XDICTIONARY
360
83
102
}
330
1F
100
AcDbEntity
  8
ANNOTATION_TEXT
 62
     7
 60
     1
100
AcDbMText
 10
130.7817156184478
 20
220.8243764734526
 30
0.0
 40
3.5
 41
0.0
 71
     2
 72
     1
  1

  7
ONSHAPE-STANDARD-VIEW-LABE
1001
ACAD
1000
ACAD_MTEXT_DEFINED_HEIGHT_BEGIN
1070
    46
1040
3.5
1000
ACAD_MTEXT_DEFINED_HEIGHT_END
  0
MTEXT
  5
85
102
{ACAD_XDICTIONARY
360
86
102
}
330
1F
100
AcDbEntity
  8
ANNOTATION_TEXT
 62
     7
 60
     1
100
AcDbMText
 10
116.8133703327031
 20
-4.757389838243528
 30
0.0
 40
3.5
 41
0.0
 71
     2
 72
     1
  1

  7
ONSHAPE-STANDARD-VIEW-LABE
1001
ACAD
1000
ACAD_MTEXT_DEFINED_HEIGHT_BEGIN
1070
    46
1040
3.5
1000
ACAD_MTEXT_DEFINED_HEIGHT_END
  0
MTEXT
  5
88
102
{ACAD_XDICTIONARY
360
89
102
}
330
1F
100
AcDbEntity
  8
ANNOTATION_TEXT
 62
     7
 60
     1
100
AcDbMText
 10
41.12906303535829
 20
68.98771025300248
 30
0.0
 40
3.5
 41
0.0
 71
     2
 72
     1
  1

  7
ONSHAPE-STANDARD-VIEW-LABE
1001
ACAD
1000
ACAD_MTEXT_DEFINED_HEIGHT_BEGIN
1070
    46
1040
3.5
1000
ACAD_MTEXT_DEFINED_HEIGHT_END
  0
MTEXT
  5
8B
102
{ACAD_XDICTIONARY
360
8C
102
}
330
1F
100
AcDbEntity
  8
ANNOTATION_TEXT
 62
     7
 60
     1
100
AcDbMText
 10
41.40469792660312
 20
-1.149522353615524
 30
0.0
 40
3.5
 41
0.0
 71
     2
 72
     1
  1

  7
ONSHAPE-STANDARD-VIEW-LABE
1001
ACAD
1000
ACAD_MTEXT_DEFINED_HEIGHT_BEGIN
1070
    46
1040
3.5
1000
ACAD_MTEXT_DEFINED_HEIGHT_END
  0
MTEXT
  5
8E
102
{ACAD_XDICTIONARY
360
8F
102
}
330
1F
100
AcDbEntity
  8
ANNOTATION_TEXT
 62
     7
 60
     1
100
AcDbMText
 10
160.8412350966983
 20
70.26819189784614
 30
0.0
 40
3.5
 41
0.0
 71
     2
 72
     1
  1

  7
ONSHAPE-STANDARD-VIEW-LABE
1001
ACAD
1000
ACAD_MTEXT_DEFINED_HEIGHT_BEGIN
1070
    46
1040
3.5
1000
ACAD_MTEXT_DEFINED_HEIGHT_END
  0
MTEXT
  5
91
102
{ACAD_XDICTIONARY
360
92
102
}
330
1F
100
AcDbEntity
  8
ANNOTATION_TEXT
 62
     7
 60
     1
100
AcDbMText
 10
91.48855822263013
 20
103.4789695907947
 30
0.0
 40
3.5
 41
0.0
 71
     2
 72
     1
  1

  7
ONSHAPE-STANDARD-VIEW-LABE
1001
ACAD
1000
ACAD_MTEXT_DEFINED_HEIGHT_BEGIN
1070
    46
1040
3.5
1000
ACAD_MTEXT_DEFINED_HEIGHT_END
  0
MTEXT
  5
94
102
{ACAD_XDICTIONARY
360
95
102
}
330
1F
100
AcDbEntity
  8
ANNOTATION_TEXT
 62
     7
 60
     1
100
AcDbMText
 10
120.2882845897331
 20
122.5594229850939
 30
0.0
 40
3.5
 41
0.0
 71
     2
 72
     1
  1

  7
ONSHAPE-STANDARD-VIEW-LABE
1001
ACAD
1000
ACAD_MTEXT_DEFINED_HEIGHT_BEGIN
1070
    46
1040
3.5
1000
ACAD_MTEXT_DEFINED_HEIGHT_END
  0
MTEXT
  5
97
102
{ACAD_XDICTIONARY
360
98
102
}
330
1F
100
AcDbEntity
  8
ANNOTATION_TEXT
 62
     7
 60
     1
100
AcDbMText
 10
115.5611841991019
 20
189.8213767919053
 30
0.0
 40
3.5
 41
0.0
 71
     2
 72
     1
  1

  7
ONSHAPE-STANDARD-VIEW-LABE
1001
ACAD
1000
ACAD_MTEXT_DEFINED_HEIGHT_BEGIN
1070
    46
1040
3.5
1000
ACAD_MTEXT_DEFINED_HEIGHT_END
  0
MTEXT
  5
9A
102
{ACAD_XDICTIONARY
360
9B
102
}
330
1F
100
AcDbEntity
  8
ANNOTATION_TEXT
 62
     7
 60
     1
100
AcDbMText
 10
176.8825265379301
 20
210.5911937274436
 30
0.0
 40
3.5
 41
0.0
 71
     2
 72
     1
  1

  7
ONSHAPE-STANDARD-VIEW-LABE
1001
ACAD
1000
ACAD_MTEXT_DEFINED_HEIGHT_BEGIN
1070
    46
1040
3.5
1000
ACAD_MTEXT_DEFINED_HEIGHT_END
  0
MTEXT
  5
9D
102
{ACAD_XDICTIONARY
360
9E
102
}
330
1F
100
AcDbEntity
  8
ANNOTATION_TEXT
 62
     7
 60
     1
100
AcDbMText
 10
143.9048999270073
 20
20.54693053545824
 30
0.0
 40
3.5
 41
0.0
 71
     2
 72
     1
  1

  7
ONSHAPE-STANDARD-VIEW-LABE
1001
ACAD
1000
ACAD_MTEXT_DEFINED_HEIGHT_BEGIN
1070
    46
1040
3.5
1000
ACAD_MTEXT_DEFINED_HEIGHT_END
  0
MTEXT
  5
A0
102
{ACAD_XDICTIONARY
360
A1
102
}
330
1F
100
AcDbEntity
  8
ANNOTATION_TEXT
 62
     7
 60
     1
100
AcDbMText
 10
179.0993810006808
 20
171.437121175739
 30
0.0
 40
3.5
 41
0.0
 71
     2
 72
     1
  1

  7
ONSHAPE-STANDARD-VIEW-LABE
1001
ACAD
1000
ACAD_MTEXT_DEFINED_HEIGHT_BEGIN
1070
    46
1040
3.5
1000
ACAD_MTEXT_DEFINED_HEIGHT_END
  0
MTEXT
  5
A3
102
{ACAD_XDICTIONARY
360
A4
102
}
330
1F
100
AcDbEntity
  8
ANNOTATION_TEXT
 62
     7
 60
     1
100
AcDbMText
 10
179.122429609521
 20
7.223759290811138
 30
0.0
 40
3.5
 41
0.0
 71
     2
 72
     1
  1

  7
ONSHAPE-STANDARD-VIEW-LABE
1001
ACAD
1000
ACAD_MTEXT_DEFINED_HEIGHT_BEGIN
1070
    46
1040
3.5
1000
ACAD_MTEXT_DEFINED_HEIGHT_END
  0
MTEXT
  5
A6
102
{ACAD_XDICTIONARY
360
A7
102
}
330
1F
100
AcDbEntity
  8
ANNOTATION_TEXT
 62
     7
 60
     1
100
AcDbMText
 10
149.208541762402
 20
155.3168577746609
 30
0.0
 40
3.5
 41
0.0
 71
     2
 72
     1
  1

  7
ONSHAPE-STANDARD-VIEW-LABE
1001
ACAD
1000
ACAD_MTEXT_DEFINED_HEIGHT_BEGIN
1070
    46
1040
3.5
1000
ACAD_MTEXT_DEFINED_HEIGHT_END
  0
MTEXT
  5
A9
102
{ACAD_XDICTIONARY
360
AA
102
}
330
1F
100
AcDbEntity
  8
ANNOTATION_TEXT
 62
     7
 60
     1
100
AcDbMText
 10
178.8534962449802
 20
41.09712965872847
 30
0.0
 40
3.5
 41
0.0
 71
     2
 72
     1
  1

  7
ONSHAPE-STANDARD-VIEW-LABE
1001
ACAD
1000
ACAD_MTEXT_DEFINED_HEIGHT_BEGIN
1070
    46
1040
3.5
1000
ACAD_MTEXT_DEFINED_HEIGHT_END
  0
MTEXT
  5
AC
102
{ACAD_XDICTIONARY
360
AD
102
}
330
1F
100
AcDbEntity
  8
ANNOTATION_TEXT
 62
     7
 60
     1
100
AcDbMText
 10
178.4795214736481
 20
137.7422269430965
 30
0.0
 40
3.5
 41
0.0
 71
     2
 72
     1
  1

  7
ONSHAPE-STANDARD-VIEW-LABE
1001
ACAD
1000
ACAD_MTEXT_DEFINED_HEIGHT_BEGIN
1070
    46
1040
3.5
1000
ACAD_MTEXT_DEFINED_HEIGHT_END
  0
MTEXT
  5
AF
102
{ACAD_XDICTIONARY
360
B0
102
}
330
1F
100
AcDbEntity
  8
ANNOTATION_TEXT
 62
     7
 60
     1
100
AcDbMText
 10
150.5147264909358
 20
189.1570406834174
 30
0.0
 40
3.5
 41
0.0
 71
     2
 72
     1
  1

  7
ONSHAPE-STANDARD-VIEW-LABE
1001
ACAD
1000
ACAD_MTEXT_DEFINED_HEIGHT_BEGIN
1070
    46
1040
3.5
1000
ACAD_MTEXT_DEFINED_HEIGHT_END
  0
CIRCLE
  5
B4
330
1F
100
AcDbEntity
  8
VISIBLE
100
AcDbCircle
 10
114.9805850875922
 20
175.8468463977665
 30
0.0
 40
2.75
  0
CIRCLE
  5
B5
330
1F
100
AcDbEntity
  8
VISIBLE
100
AcDbCircle
 10
114.9805850875922
 20
183.5468463977665
 30
0.0
 40
1.5
  0
CIRCLE
  5
B6
330
1F
100
AcDbEntity
  8
VISIBLE
100
AcDbCircle
 10
108.3121894784521
 20
171.9968463977665
 30
0.0
 40
1.5
  0
CIRCLE
  5
B7
330
1F
100
AcDbEntity
  8
VISIBLE
100
AcDbCircle
 10
121.6489806967324
 20
171.9968463977665
 30
0.0
 40
1.5
  0
CIRCLE
  5
B8
330
1F
100
AcDbEntity
  8
VISIBLE
100
AcDbCircle
 10
114.9805850875922
 20
175.8468463977665
 30
0.0
 40
16.5
  0
LINE
  5
BB
330
1F
100
AcDbEntity
  8
VISIBLE
100
AcDbLine
 10
134.207955360947
 20
84.92749546838536
 30
0.0
 11
128.9579553609471
 21
94.02076220812194
 31
0.0
  0
LINE
  5
BC
330
1F
100
AcDbEntity
  8
VISIBLE
100
AcDbLine
 10
134.207955360947
 20
84.92749546838536
 30
0.0
 11
134.7208362181244
 21
83.51836689442025
 31
0.0
  0
LINE
  5
BD
330
1F
100
AcDbEntity
  8
VISIBLE
100
AcDbLine
 10
136.5441420836271
 20
73.1778854877921
 30
0.0
 11
134.7208362181244
 21
83.51836689442025
 31
0.0
  0
LINE
  5
BE
330
1F
100
AcDbEntity
  8
VISIBLE
100
AcDbLine
 10
136.5441420836271
 20
73.1778854877921
 30
0.0
 11
136.5441420836271
 21
71.67832218081779
 31
0.0
  0
LINE
  5
BF
330
1F
100
AcDbEntity
  8
VISIBLE
100
AcDbLine
 10
134.7208362181244
 20
61.3378407741896
 30
0.0
 11
136.5441420836271
 21
71.67832218081779
 31
0.0
  0
LINE
  5
C0
330
1F
100
AcDbEntity
  8
VISIBLE
100
AcDbLine
 10
134.7208362181244
 20
61.3378407741896
 30
0.0
 11
134.207955360947
 21
59.92871220022455
 31
0.0
  0
LINE
  5
C1
330
1F
100
AcDbEntity
  8
VISIBLE
100
AcDbLine
 10
128.957955360947
 20
50.83544546048795
 30
0.0
 11
134.207955360947
 21
59.92871220022455
 31
0.0
  0
LINE
  5
C2
330
1F
100
AcDbEntity
  8
VISIBLE
100
AcDbLine
 10
128.957955360947
 20
50.83544546048795
 30
0.0
 11
127.9940546472834
 21
49.68671332207515
 31
0.0
  0
LINE
  5
C3
330
1F
100
AcDbEntity
  8
VISIBLE
100
AcDbLine
 10
119.9505879945342
 20
42.9374434203665
 30
0.0
 11
127.9940546472834
 21
49.68671332207515
 31
0.0
  0
LINE
  5
C4
330
1F
100
AcDbEntity
  8
VISIBLE
100
AcDbLine
 10
119.9505879945342
 20
42.9374434203665
 30
0.0
 11
118.6519280761114
 21
42.18766176687935
 31
0.0
  0
LINE
  5
C5
330
1F
100
AcDbEntity
  8
VISIBLE
100
AcDbLine
 10
108.7851555578594
 20
38.59645026195983
 30
0.0
 11
118.6519280761114
 21
42.18766176687935
 31
0.0
  0
LINE
  5
C6
330
1F
100
AcDbEntity
  8
VISIBLE
100
AcDbLine
 10
108.7851555578594
 20
38.59645026195983
 30
0.0
 11
107.3083739870185
 21
38.33605382640755
 31
0.0
  0
LINE
  5
C7
330
1F
100
AcDbEntity
  8
VISIBLE
100
AcDbLine
 10
96.80837398701846
 20
38.33605382640755
 30
0.0
 11
107.3083739870185
 21
38.33605382640755
 31
0.0
  0
LINE
  5
C8
330
1F
100
AcDbEntity
  8
VISIBLE
100
AcDbLine
 10
96.80837398701846
 20
38.33605382640755
 30
0.0
 11
95.33159241617754
 21
38.59645026195983
 31
0.0
  0
LINE
  5
C9
330
1F
100
AcDbEntity
  8
VISIBLE
100
AcDbLine
 10
85.46481989792551
 20
42.18766176687935
 30
0.0
 11
95.33159241617754
 21
38.59645026195983
 31
0.0
  0
LINE
  5
CA
330
1F
100
AcDbEntity
  8
VISIBLE
100
AcDbLine
 10
85.46481989792551
 20
42.18766176687935
 30
0.0
 11
84.16615997950275
 21
42.9374434203665
 31
0.0
  0
LINE
  5
CB
330
1F
100
AcDbEntity
  8
VISIBLE
100
AcDbLine
 10
76.1226933267535
 20
49.68671332207517
 30
0.0
 11
84.16615997950275
 21
42.9374434203665
 31
0.0
  0
LINE
  5
CC
330
1F
100
AcDbEntity
  8
VISIBLE
100
AcDbLine
 10
76.1226933267535
 20
49.68671332207517
 30
0.0
 11
75.15879261308986
 21
50.83544546048795
 31
0.0
  0
LINE
  5
CD
330
1F
100
AcDbEntity
  8
VISIBLE
100
AcDbLine
 10
69.90879261308986
 20
59.92871220022455
 30
0.0
 11
75.15879261308986
 21
50.83544546048795
 31
0.0
  0
LINE
  5
CE
330
1F
100
AcDbEntity
  8
VISIBLE
100
AcDbLine
 10
69.90879261308986
 20
59.92871220022455
 30
0.0
 11
69.39591175591255
 21
61.3378407741896
 31
0.0
  0
LINE
  5
CF
330
1F
100
AcDbEntity
  8
VISIBLE
100
AcDbLine
 10
67.5726058904098
 20
71.67832218081779
 30
0.0
 11
69.39591175591255
 21
61.3378407741896
 31
0.0
  0
LINE
  5
D0
330
1F
100
AcDbEntity
  8
VISIBLE
100
AcDbLine
 10
67.5726058904098
 20
71.67832218081779
 30
0.0
 11
67.5726058904098
 21
73.1778854877921
 31
0.0
  0
CIRCLE
  5
D1
330
1F
100
AcDbEntity
  8
VISIBLE
100
AcDbCircle
 10
102.0583739870185
 20
88.42810383430495
 30
0.0
 40
1.525
  0
CIRCLE
  5
D2
330
1F
100
AcDbEntity
  8
VISIBLE
100
AcDbCircle
 10
86.841469726296
 20
77.3723757443041
 30
0.0
 40
1.525
  0
CIRCLE
  5
D3
330
1F
100
AcDbEntity
  8
VISIBLE
100
AcDbCircle
 10
92.65380995033888
 20
59.4838319243058
 30
0.0
 40
1.525
  0
CIRCLE
  5
D4
330
1F
100
AcDbEntity
  8
VISIBLE
100
AcDbCircle
 10
111.462938023698
 20
59.4838319243058
 30
0.0
 40
1.525
  0
CIRCLE
  5
D5
330
1F
100
AcDbEntity
  8
VISIBLE
100
AcDbCircle
 10
117.2752782477409
 20
77.3723757443041
 30
0.0
 40
1.525
  0
CIRCLE
  5
D6
330
1F
100
AcDbEntity
  8
VISIBLE
100
AcDbCircle
 10
102.0583739870185
 20
95.42810383430495
 30
0.0
 40
0.5
  0
CIRCLE
  5
D7
330
1F
100
AcDbEntity
  8
VISIBLE
100
AcDbCircle
 10
102.0583739870185
 20
72.42810383430495
 30
0.0
 40
7.5
  0
LINE
  5
D8
330
1F
100
AcDbEntity
  8
VISIBLE
100
AcDbLine
 10
127.9940546472835
 20
95.16949434653475
 30
0.0
 11
119.9505879945342
 21
101.9187642482433
 31
0.0
  0
LINE
  5
D9
330
1F
100
AcDbEntity
  8
VISIBLE
100
AcDbLine
 10
127.9940546472835
 20
95.16949434653475
 30
0.0
 11
128.9579553609471
 21
94.02076220812194
 31
0.0
  0
LINE
  5
DA
330
1F
100
AcDbEntity
  8
VISIBLE
100
AcDbLine
 10
69.39591175591255
 20
83.51836689442025
 30
0.0
 11
67.5726058904098
 21
73.1778854877921
 31
0.0
  0
LINE
  5
DB
330
1F
100
AcDbEntity
  8
VISIBLE
100
AcDbLine
 10
69.39591175591255
 20
83.51836689442025
 30
0.0
 11
69.90879261308986
 21
84.92749546838536
 31
0.0
  0
LINE
  5
DC
330
1F
100
AcDbEntity
  8
VISIBLE
100
AcDbLine
 10
75.15879261308986
 20
94.02076220812194
 30
0.0
 11
69.90879261308986
 21
84.92749546838536
 31
0.0
  0
LINE
  5
DD
330
1F
100
AcDbEntity
  8
VISIBLE
100
AcDbLine
 10
75.15879261308986
 20
94.02076220812194
 30
0.0
 11
76.1226933267535
 21
95.16949434653475
 31
0.0
  0
LINE
  5
DE
330
1F
100
AcDbEntity
  8
VISIBLE
100
AcDbLine
 10
84.16615997950275
 20
101.9187642482433
 30
0.0
 11
76.1226933267535
 21
95.16949434653475
 31
0.0
  0
LINE
  5
DF
330
1F
100
AcDbEntity
  8
VISIBLE
100
AcDbLine
 10
84.16615997950275
 20
101.9187642482433
 30
0.0
 11
85.46481989792551
 21
102.6685459017306
 31
0.0
  0
LINE
  5
E0
330
1F
100
AcDbEntity
  8
VISIBLE
100
AcDbLine
 10
95.33159241617754
 20
106.2597574066501
 30
0.0
 11
85.46481989792551
 21
102.6685459017306
 31
0.0
  0
LINE
  5
E1
330
1F
100
AcDbEntity
  8
VISIBLE
100
AcDbLine
 10
95.33159241617754
 20
106.2597574066501
 30
0.0
 11
96.80837398701846
 21
106.5201538422023
 31
0.0
  0
LINE
  5
E2
330
1F
100
AcDbEntity
  8
VISIBLE
100
AcDbLine
 10
107.3083739870185
 20
106.5201538422023
 30
0.0
 11
96.80837398701846
 21
106.5201538422023
 31
0.0
  0
LINE
  5
E3
330
1F
100
AcDbEntity
  8
VISIBLE
100
AcDbLine
 10
107.3083739870185
 20
106.5201538422023
 30
0.0
 11
108.7851555578594
 21
106.2597574066501
 31
0.0
  0
LINE
  5
E4
330
1F
100
AcDbEntity
  8
VISIBLE
100
AcDbLine
 10
118.6519280761114
 20
102.6685459017306
 30
0.0
 11
108.7851555578594
 21
106.2597574066501
 31
0.0
  0
LINE
  5
E5
330
1F
100
AcDbEntity
  8
VISIBLE
100
AcDbLine
 10
118.6519280761114
 20
102.6685459017306
 30
0.0
 11
119.9505879945342
 21
101.9187642482433
 31
0.0
  0
CIRCLE
  5
E8
330
1F
100
AcDbEntity
  8
VISIBLE
100
AcDbCircle
 10
42.07054564142892
 20
252.6315708209848
 30
0.0
 40
1.5
  0
CIRCLE
  5
E9
330
1F
100
AcDbEntity
  8
VISIBLE
100
AcDbCircle
 10
32.07054564142892
 20
178.1315708209848
 30
0.0
 40
1.5
  0
CIRCLE
  5
EA
330
1F
100
AcDbEntity
  8
VISIBLE
100
AcDbCircle
 10
88.07054564142892
 20
168.1315708209848
 30
0.0
 40
1.5
  0
CIRCLE
  5
EB
330
1F
100
AcDbEntity
  8
VISIBLE
100
AcDbCircle
 10
62.07054564142892
 20
280.1315708209848
 30
0.0
 40
1.5
  0
CIRCLE
  5
EC
330
1F
100
AcDbEntity
  8
VISIBLE
100
AcDbCircle
 10
16.07054564142892
 20
188.1315708209848
 30
0.0
 40
1.5
  0
LINE
  5
ED
330
1F
100
AcDbEntity
  8
VISIBLE
100
AcDbLine
 10
26.57054564142892
 20
233.1315708209848
 30
0.0
 11
20.07054564142892
 21
233.1315708209848
 31
0.0
  0
LINE
  5
EE
330
1F
100
AcDbEntity
  8
VISIBLE
100
AcDbLine
 10
26.57054564142892
 20
247.1315708209848
 30
0.0
 11
26.57054564142892
 21
233.1315708209848
 31
0.0
  0
LINE
  5
EF
330
1F
100
AcDbEntity
  8
VISIBLE
100
AcDbLine
 10
22.07054564142892
 20
247.1315708209848
 30
0.0
 11
26.57054564142892
 21
247.1315708209848
 31
0.0
  0
LINE
  5
F0
330
1F
100
AcDbEntity
  8
VISIBLE
100
AcDbLine
 10
22.07054564142892
 20
267.1315708209848
 30
0.0
 11
22.07054564142892
 21
247.1315708209848
 31
0.0
  0
LINE
  5
F1
330
1F
100
AcDbEntity
  8
VISIBLE
100
AcDbLine
 10
20.07054564142892
 20
267.1315708209848
 30
0.0
 11
22.07054564142892
 21
267.1315708209848
 31
0.0
  0
LINE
  5
F2
330
1F
100
AcDbEntity
  8
VISIBLE
100
AcDbLine
 10
20.07054564142892
 20
275.1315708209848
 30
0.0
 11
20.07054564142892
 21
267.1315708209848
 31
0.0
  0
LINE
  5
F3
330
1F
100
AcDbEntity
  8
VISIBLE
100
AcDbLine
 10
14.07054564142892
 20
275.1315708209848
 30
0.0
 11
20.07054564142892
 21
275.1315708209848
 31
0.0
  0
LINE
  5
F4
330
1F
100
AcDbEntity
  8
VISIBLE
100
AcDbLine
 10
14.07054564142892
 20
278.1315708209848
 30
0.0
 11
14.07054564142892
 21
275.1315708209848
 31
0.0
  0
LINE
  5
F5
330
1F
100
AcDbEntity
  8
VISIBLE
100
AcDbLine
 10
7.070545641428922
 20
278.1315708209848
 30
0.0
 11
14.07054564142892
 21
278.1315708209848
 31
0.0
  0
LINE
  5
F6
330
1F
100
AcDbEntity
  8
VISIBLE
100
AcDbLine
 10
7.070545641428922
 20
278.1315708209848
 30
0.0
 11
7.070545641428922
 21
293.1315708209848
 31
0.0
  0
LINE
  5
F7
330
1F
100
AcDbEntity
  8
VISIBLE
100
AcDbLine
 10
7.070545641428922
 20
293.1315708209848
 30
0.0
 11
97.07054564142892
 21
293.1315708209848
 31
0.0
  0
LINE
  5
F8
330
1F
100
AcDbEntity
  8
VISIBLE
100
AcDbLine
 10
97.07054564142892
 20
278.1315708209848
 30
0.0
 11
97.07054564142892
 21
293.1315708209848
 31
0.0
  0
LINE
  5
F9
330
1F
100
AcDbEntity
  8
VISIBLE
100
AcDbLine
 10
97.07054564142892
 20
278.1315708209848
 30
0.0
 11
90.07054564142892
 21
278.1315708209848
 31
0.0
  0
LINE
  5
FA
330
1F
100
AcDbEntity
  8
VISIBLE
100
AcDbLine
 10
90.07054564142892
 20
278.1315708209848
 30
0.0
 11
90.07054564142892
 21
275.1315708209848
 31
0.0
  0
LINE
  5
FB
330
1F
100
AcDbEntity
  8
VISIBLE
100
AcDbLine
 10
90.07054564142892
 20
275.1315708209848
 30
0.0
 11
84.07054564142892
 21
275.1315708209848
 31
0.0
  0
LINE
  5
FC
330
1F
100
AcDbEntity
  8
VISIBLE
100
AcDbLine
 10
84.07054564142892
 20
275.1315708209848
 30
0.0
 11
84.07054564142892
 21
267.1315708209848
 31
0.0
  0
LINE
  5
FD
330
1F
100
AcDbEntity
  8
VISIBLE
100
AcDbLine
 10
84.07054564142892
 20
267.1315708209848
 30
0.0
 11
82.07054564142892
 21
267.1315708209848
 31
0.0
  0
LINE
  5
FE
330
1F
100
AcDbEntity
  8
VISIBLE
100
AcDbLine
 10
82.07054564142892
 20
267.1315708209848
 30
0.0
 11
82.07054564142892
 21
247.1315708209848
 31
0.0
  0
LINE
  5
FF
330
1F
100
AcDbEntity
  8
VISIBLE
100
AcDbLine
 10
82.07054564142892
 20
247.1315708209848
 30
0.0
 11
77.57054564142892
 21
247.1315708209848
 31
0.0
  0
LINE
  5
100
330
1F
100
AcDbEntity
  8
VISIBLE
100
AcDbLine
 10
77.57054564142892
 20
247.1315708209848
 30
0.0
 11
77.57054564142892
 21
233.1315708209848
 31
0.0
  0
LINE
  5
101
330
1F
100
AcDbEntity
  8
VISIBLE
100
AcDbLine
 10
77.57054564142892
 20
233.1315708209848
 30
0.0
 11
84.07054564142892
 21
233.1315708209848
 31
0.0
  0
LINE
  5
102
330
1F
100
AcDbEntity
  8
VISIBLE
100
AcDbLine
 10
84.07054564142892
 20
233.1315708209848
 30
0.0
 11
84.07054564142892
 21
218.1315708209848
 31
0.0
  0
LINE
  5
103
330
1F
100
AcDbEntity
  8
VISIBLE
100
AcDbLine
 10
84.07054564142892
 20
218.1315708209848
 30
0.0
 11
97.07054564142892
 21
218.1315708209848
 31
0.0
  0
LINE
  5
104
330
1F
100
AcDbEntity
  8
VISIBLE
100
AcDbLine
 10
97.07054564142892
 20
143.1315708209848
 30
0.0
 11
97.07054564142892
 21
218.1315708209848
 31
0.0
  0
LINE
  5
105
330
1F
100
AcDbEntity
  8
VISIBLE
100
AcDbLine
 10
97.07054564142892
 20
143.1315708209848
 30
0.0
 11
7.070545641428922
 21
143.1315708209848
 31
0.0
  0
LINE
  5
106
330
1F
100
AcDbEntity
  8
VISIBLE
100
AcDbLine
 10
7.070545641428922
 20
143.1315708209848
 30
0.0
 11
7.070545641428922
 21
218.1315708209848
 31
0.0
  0
LINE
  5
107
330
1F
100
AcDbEntity
  8
VISIBLE
100
AcDbLine
 10
20.07054564142892
 20
218.1315708209848
 30
0.0
 11
7.070545641428922
 21
218.1315708209848
 31
0.0
  0
LINE
  5
108
330
1F
100
AcDbEntity
  8
VISIBLE
100
AcDbLine
 10
20.07054564142892
 20
233.1315708209848
 30
0.0
 11
20.07054564142892
 21
218.1315708209848
 31
0.0
  0
CIRCLE
  5
109
330
1F
100
AcDbEntity
  8
VISIBLE
100
AcDbCircle
 10
42.07054564142892
 20
280.1315708209848
 30
0.0
 40
1.5
  0
CIRCLE
  5
10A
330
1F
100
AcDbEntity
  8
VISIBLE
100
AcDbCircle
 10
88.07054564142892
 20
188.1315708209848
 30
0.0
 40
1.5
  0
CIRCLE
  5
10B
330
1F
100
AcDbEntity
  8
VISIBLE
100
AcDbCircle
 10
16.07054564142892
 20
168.1315708209848
 30
0.0
 40
1.5
  0
CIRCLE
  5
10C
330
1F
100
AcDbEntity
  8
VISIBLE
100
AcDbCircle
 10
59.57054564142892
 20
148.1315708209848
 30
0.0
 40
1.5
  0
CIRCLE
  5
10D
330
1F
100
AcDbEntity
  8
VISIBLE
100
AcDbCircle
 10
44.57054564142892
 20
148.1315708209848
 30
0.0
 40
1.5
  0
CIRCLE
  5
10E
330
1F
100
AcDbEntity
  8
VISIBLE
100
AcDbCircle
 10
72.07054564142892
 20
178.1315708209848
 30
0.0
 40
1.5
  0
CIRCLE
  5
10F
330
1F
100
AcDbEntity
  8
VISIBLE
100
AcDbCircle
 10
62.07054564142892
 20
252.6315708209848
 30
0.0
 40
1.5
  0
CIRCLE
  5
112
330
1F
100
AcDbEntity
  8
VISIBLE
100
AcDbCircle
 10
181.6298059621897
 20
278.5088999881185
 30
0.0
 40
1.5
  0
CIRCLE
  5
113
330
1F
100
AcDbEntity
  8
VISIBLE
100
AcDbCircle
 10
181.6298059621897
 20
288.5088999881185
 30
0.0
 40
1.5
  0
CIRCLE
  5
114
330
1F
100
AcDbEntity
  8
VISIBLE
100
AcDbCircle
 10
140.6298059621897
 20
275.5088999881185
 30
0.0
 40
1.5
  0
LINE
  5
115
330
1F
100
AcDbEntity
  8
VISIBLE
100
AcDbLine
 10
100.6298059621897
 20
293.5088999881185
 30
0.0
 11
100.6298059621897
 21
268.5088999881185
 31
0.0
  0
LINE
  5
116
330
1F
100
AcDbEntity
  8
VISIBLE
100
AcDbLine
 10
100.6298059621897
 20
293.5088999881185
 30
0.0
 11
190.6298059621897
 21
293.5088999881185
 31
0.0
  0
LINE
  5
117
330
1F
100
AcDbEntity
  8
VISIBLE
100
AcDbLine
 10
190.6298059621897
 20
293.5088999881185
 30
0.0
 11
190.6298059621897
 21
268.5088999881185
 31
0.0
  0
LINE
  5
118
330
1F
100
AcDbEntity
  8
VISIBLE
100
AcDbLine
 10
100.6298059621897
 20
268.5088999881185
 30
0.0
 11
190.6298059621897
 21
268.5088999881185
 31
0.0
  0
CIRCLE
  5
119
330
1F
100
AcDbEntity
  8
VISIBLE
100
AcDbCircle
 10
109.6298059621897
 20
288.5088999881185
 30
0.0
 40
1.5
  0
CIRCLE
  5
11A
330
1F
100
AcDbEntity
  8
VISIBLE
100
AcDbCircle
 10
109.6298059621897
 20
278.5088999881185
 30
0.0
 40
1.5
  0
CIRCLE
  5
11B
330
1F
100
AcDbEntity
  8
VISIBLE
100
AcDbCircle
 10
150.6298059621897
 20
275.5088999881185
 30
0.0
 40
1.5
  0
CIRCLE
  5
11C
330
1F
100
AcDbEntity
  8
VISIBLE
100
AcDbCircle
 10
122.6298059621897
 20
278.5088999881185
 30
0.0
 40
1.5
  0
CIRCLE
  5
11D
330
1F
100
AcDbEntity
  8
VISIBLE
100
AcDbCircle
 10
122.6298059621897
 20
288.5088999881185
 30
0.0
 40
1.5
  0
ARC
  5
120
330
1F
100
AcDbEntity
  8
VISIBLE
100
AcDbCircle
 10
172.7817156184478
 20
263.5743764734527
 30
-0.0000000000000001
 40
3.0
100
AcDbArc
 50
0.0
 51
90.0
  0
LINE
  5
121
330
1F
100
AcDbEntity
  8
VISIBLE
100
AcDbLine
 10
175.7817156184478
 20
263.5743764734527
 30
0.0
 11
175.7817156184478
 21
255.0743764734526
 31
0.0
  0
LINE
  5
122
330
1F
100
AcDbEntity
  8
VISIBLE
100
AcDbLine
 10
169.7817156184478
 20
255.0743764734526
 30
0.0
 11
175.7817156184478
 21
255.0743764734526
 31
0.0
  0
LINE
  5
123
330
1F
100
AcDbEntity
  8
VISIBLE
100
AcDbLine
 10
169.7817156184478
 20
247.0743764734526
 30
0.0
 11
169.7817156184478
 21
255.0743764734526
 31
0.0
  0
LINE
  5
124
330
1F
100
AcDbEntity
  8
VISIBLE
100
AcDbLine
 10
156.2817156184478
 20
247.0743764734526
 30
0.0
 11
169.7817156184478
 21
247.0743764734526
 31
0.0
  0
LINE
  5
125
330
1F
100
AcDbEntity
  8
VISIBLE
100
AcDbLine
 10
156.2817156184478
 20
227.0743764734526
 30
0.0
 11
156.2817156184478
 21
247.0743764734526
 31
0.0
  0
LINE
  5
126
330
1F
100
AcDbEntity
  8
VISIBLE
100
AcDbLine
 10
105.2817156184478
 20
227.0743764734526
 30
0.0
 11
105.2817156184478
 21
247.0743764734526
 31
0.0
  0
LINE
  5
127
330
1F
100
AcDbEntity
  8
VISIBLE
100
AcDbLine
 10
105.2817156184478
 20
247.0743764734526
 30
0.0
 11
91.78171561844776
 21
247.0743764734526
 31
0.0
  0
LINE
  5
128
330
1F
100
AcDbEntity
  8
VISIBLE
100
AcDbLine
 10
91.78171561844776
 20
247.0743764734526
 30
0.0
 11
91.78171561844776
 21
255.0743764734526
 31
0.0
  0
LINE
  5
129
330
1F
100
AcDbEntity
  8
VISIBLE
100
AcDbLine
 10
91.78171561844776
 20
255.0743764734526
 30
0.0
 11
85.78171561844776
 21
255.0743764734526
 31
0.0
  0
LINE
  5
12A
330
1F
100
AcDbEntity
  8
VISIBLE
100
AcDbLine
 10
85.78171561844776
 20
263.5743764734527
 30
0.0
 11
85.78171561844776
 21
255.0743764734526
 31
0.0
  0
ARC
  5
12B
330
1F
100
AcDbEntity
  8
VISIBLE
100
AcDbCircle
 10
88.78171561844776
 20
263.5743764734527
 30
-0.0000000000000001
 40
3.0
100
AcDbArc
 50
90.0
 51
180.0
  0
LINE
  5
12C
330
1F
100
AcDbEntity
  8
VISIBLE
100
AcDbLine
 10
88.78171561844776
 20
266.5743764734527
 30
0.0
 11
172.7817156184478
 21
266.5743764734527
 31
0.0
  0
LINE
  5
12D
330
1F
100
AcDbEntity
  8
VISIBLE
100
AcDbLine
 10
93.08171561844776
 20
262.5743764734527
 30
0.0
 11
97.08171561844776
 21
262.5743764734527
 31
0.0
  0
ARC
  5
12E
330
1F
100
AcDbEntity
  8
VISIBLE
100
AcDbCircle
 10
93.08171561844776
 20
261.0743764734527
 30
0.0
 40
1.5
100
AcDbArc
 50
90.0
 51
270.0
  0
LINE
  5
12F
330
1F
100
AcDbEntity
  8
VISIBLE
100
AcDbLine
 10
97.08171561844776
 20
259.5743764734527
 30
0.0
 11
93.08171561844776
 21
259.5743764734527
 31
0.0
  0
ARC
  5
130
330
1F
100
AcDbEntity
  8
VISIBLE
100
AcDbCircle
 10
97.08171561844776
 20
261.0743764734527
 30
0.0
 40
1.5
100
AcDbArc
 50
270.0
 51
90.0
  0
CIRCLE
  5
131
330
1F
100
AcDbEntity
  8
VISIBLE
100
AcDbCircle
 10
135.7817156184478
 20
234.0743764734526
 30
0.0
 40
1.5
  0
CIRCLE
  5
132
330
1F
100
AcDbEntity
  8
VISIBLE
100
AcDbCircle
 10
125.7817156184478
 20
234.0743764734526
 30
0.0
 40
1.5
  0
LINE
  5
133
330
1F
100
AcDbEntity
  8
VISIBLE
100
AcDbLine
 10
168.4817156184478
 20
262.5743764734527
 30
0.0
 11
164.4817156184478
 21
262.5743764734527
 31
0.0
  0
ARC
  5
134
330
1F
100
AcDbEntity
  8
VISIBLE
100
AcDbCircle
 10
164.4817156184478
 20
261.0743764734527
 30
0.0
 40
1.5
100
AcDbArc
 50
90.0
 51
270.0
  0
LINE
  5
135
330
1F
100
AcDbEntity
  8
VISIBLE
100
AcDbLine
 10
164.4817156184478
 20
259.5743764734527
 30
0.0
 11
168.4817156184478
 21
259.5743764734527
 31
0.0
  0
ARC
  5
136
330
1F
100
AcDbEntity
  8
VISIBLE
100
AcDbCircle
 10
168.4817156184478
 20
261.0743764734527
 30
0.0
 40
1.5
100
AcDbArc
 50
270.0
 51
90.0
  0
LINE
  5
137
330
1F
100
AcDbEntity
  8
VISIBLE
100
AcDbLine
 10
105.2817156184478
 20
227.0743764734526
 30
0.0
 11
156.2817156184478
 21
227.0743764734526
 31
0.0
  0
LINE
  5
13A
330
1F
100
AcDbEntity
  8
VISIBLE
100
AcDbLine
 10
71.81337033270307
 20
1.492610161756474
 30
0.0
 11
161.8133703327031
 21
1.492610161756474
 31
0.0
  0
CIRCLE
  5
13B
330
1F
100
AcDbEntity
  8
VISIBLE
100
AcDbCircle
 10
121.8133703327031
 20
10.33836568811735
 30
0.0
 40
1.5
  0
CIRCLE
  5
13C
330
1F
100
AcDbEntity
  8
VISIBLE
100
AcDbCircle
 10
111.8133703327031
 20
10.33836568811735
 30
0.0
 40
1.5
  0
LINE
  5
13D
330
1F
100
AcDbEntity
  8
VISIBLE
100
AcDbLine
 10
71.81337033270307
 20
21.49261016175647
 30
0.0
 11
71.81337033270307
 21
1.492610161756474
 31
0.0
  0
LINE
  5
13E
330
1F
100
AcDbEntity
  8
VISIBLE
100
AcDbLine
 10
161.8133703327031
 20
21.49261016175647
 30
0.0
 11
161.8133703327031
 21
1.492610161756474
 31
0.0
  0
LINE
  5
13F
330
1F
100
AcDbEntity
  8
VISIBLE
100
AcDbLine
 10
71.81337033270307
 20
21.49261016175647
 30
0.0
 11
161.8133703327031
 21
21.49261016175647
 31
0.0
  0
LINE
  5
142
330
1F
100
AcDbEntity
  8
VISIBLE
100
AcDbLine
 10
73.27864440928688
 20
120.7777287046411
 30
0.0
 11
68.02864440928694
 21
129.8709954443777
 31
0.0
  0
LINE
  5
143
330
1F
100
AcDbEntity
  8
VISIBLE
100
AcDbLine
 10
73.27864440928688
 20
120.7777287046411
 30
0.0
 11
73.79152526646419
 21
119.368600130676
 31
0.0
  0
LINE
  5
144
330
1F
100
AcDbEntity
  8
VISIBLE
100
AcDbLine
 10
75.61483113196694
 20
109.0281187240479
 30
0.0
 11
73.79152526646419
 21
119.368600130676
 31
0.0
  0
LINE
  5
145
330
1F
100
AcDbEntity
  8
VISIBLE
100
AcDbLine
 10
75.61483113196694
 20
109.0281187240479
 30
0.0
 11
75.61483113196694
 21
107.5285554170736
 31
0.0
  0
LINE
  5
146
330
1F
100
AcDbEntity
  8
VISIBLE
100
AcDbLine
 10
73.79152526646419
 20
97.18807401044539
 30
0.0
 11
75.61483113196694
 21
107.5285554170736
 31
0.0
  0
LINE
  5
147
330
1F
100
AcDbEntity
  8
VISIBLE
100
AcDbLine
 10
73.79152526646419
 20
97.18807401044539
 30
0.0
 11
73.27864440928688
 21
95.77894543648034
 31
0.0
  0
LINE
  5
148
330
1F
100
AcDbEntity
  8
VISIBLE
100
AcDbLine
 10
68.02864440928688
 20
86.68567869674374
 30
0.0
 11
73.27864440928688
 21
95.77894543648034
 31
0.0
  0
LINE
  5
149
330
1F
100
AcDbEntity
  8
VISIBLE
100
AcDbLine
 10
68.02864440928688
 20
86.68567869674374
 30
0.0
 11
67.06474369562324
 21
85.53694655833094
 31
0.0
  0
LINE
  5
14A
330
1F
100
AcDbEntity
  8
VISIBLE
100
AcDbLine
 10
59.02127704287399
 20
78.7876766566223
 30
0.0
 11
67.06474369562324
 21
85.53694655833094
 31
0.0
  0
LINE
  5
14B
330
1F
100
AcDbEntity
  8
VISIBLE
100
AcDbLine
 10
59.02127704287399
 20
78.7876766566223
 30
0.0
 11
57.72261712445123
 21
78.03789500313513
 31
0.0
  0
LINE
  5
14C
330
1F
100
AcDbEntity
  8
VISIBLE
100
AcDbLine
 10
47.85584460619921
 20
74.44668349821562
 30
0.0
 11
57.72261712445123
 21
78.03789500313513
 31
0.0
  0
LINE
  5
14D
330
1F
100
AcDbEntity
  8
VISIBLE
100
AcDbLine
 10
47.85584460619921
 20
74.44668349821562
 30
0.0
 11
46.37906303535829
 21
74.18628706266334
 31
0.0
  0
LINE
  5
14E
330
1F
100
AcDbEntity
  8
VISIBLE
100
AcDbLine
 10
35.87906303535829
 20
74.18628706266334
 30
0.0
 11
46.37906303535829
 21
74.18628706266334
 31
0.0
  0
LINE
  5
14F
330
1F
100
AcDbEntity
  8
VISIBLE
100
AcDbLine
 10
35.87906303535829
 20
74.18628706266334
 30
0.0
 11
34.40228146451737
 21
74.44668349821562
 31
0.0
  0
LINE
  5
150
330
1F
100
AcDbEntity
  8
VISIBLE
100
AcDbLine
 10
24.53550894626534
 20
78.03789500313513
 30
0.0
 11
34.40228146451737
 21
74.44668349821562
 31
0.0
  0
LINE
  5
151
330
1F
100
AcDbEntity
  8
VISIBLE
100
AcDbLine
 10
24.53550894626534
 20
78.03789500313513
 30
0.0
 11
23.23684902784258
 21
78.7876766566223
 31
0.0
  0
LINE
  5
152
330
1F
100
AcDbEntity
  8
VISIBLE
100
AcDbLine
 10
15.19338237509334
 20
85.53694655833095
 30
0.0
 11
23.23684902784258
 21
78.7876766566223
 31
0.0
  0
LINE
  5
153
330
1F
100
AcDbEntity
  8
VISIBLE
100
AcDbLine
 10
15.19338237509334
 20
85.53694655833095
 30
0.0
 11
14.22948166142969
 21
86.68567869674374
 31
0.0
  0
LINE
  5
154
330
1F
100
AcDbEntity
  8
VISIBLE
100
AcDbLine
 10
8.979481661429688
 20
95.77894543648034
 30
0.0
 11
14.22948166142969
 21
86.68567869674374
 31
0.0
  0
LINE
  5
155
330
1F
100
AcDbEntity
  8
VISIBLE
100
AcDbLine
 10
8.979481661429688
 20
95.77894543648034
 30
0.0
 11
8.466600804252387
 21
97.18807401044539
 31
0.0
  0
LINE
  5
156
330
1F
100
AcDbEntity
  8
VISIBLE
100
AcDbLine
 10
6.643294938749634
 20
107.5285554170736
 30
0.0
 11
8.466600804252387
 21
97.18807401044539
 31
0.0
  0
LINE
  5
157
330
1F
100
AcDbEntity
  8
VISIBLE
100
AcDbLine
 10
6.643294938749634
 20
107.5285554170736
 30
0.0
 11
6.643294938749634
 21
109.0281187240479
 31
0.0
  0
CIRCLE
  5
158
330
1F
100
AcDbEntity
  8
VISIBLE
100
AcDbCircle
 10
41.12906303535829
 20
124.2783370705607
 30
0.0
 40
1.525
  0
CIRCLE
  5
159
330
1F
100
AcDbEntity
  8
VISIBLE
100
AcDbCircle
 10
25.91215877463583
 20
113.2226089805599
 30
0.0
 40
1.525
  0
CIRCLE
  5
15A
330
1F
100
AcDbEntity
  8
VISIBLE
100
AcDbCircle
 10
31.72449899867872
 20
95.3340651605616
 30
0.0
 40
1.525
  0
CIRCLE
  5
15B
330
1F
100
AcDbEntity
  8
VISIBLE
100
AcDbCircle
 10
50.53362707203786
 20
95.3340651605616
 30
0.0
 40
1.525
  0
CIRCLE
  5
15C
330
1F
100
AcDbEntity
  8
VISIBLE
100
AcDbCircle
 10
56.34596729608074
 20
113.2226089805599
 30
0.0
 40
1.525
  0
CIRCLE
  5
15D
330
1F
100
AcDbEntity
  8
VISIBLE
100
AcDbCircle
 10
41.12906303535829
 20
131.2783370705607
 30
0.0
 40
0.5
  0
CIRCLE
  5
15E
330
1F
100
AcDbEntity
  8
VISIBLE
100
AcDbCircle
 10
41.12906303535829
 20
108.2783370705607
 30
0.0
 40
7.5
  0
LINE
  5
15F
330
1F
100
AcDbEntity
  8
VISIBLE
100
AcDbLine
 10
67.06474369562329
 20
131.0197275827906
 30
0.0
 11
59.02127704287399
 21
137.7689974844992
 31
0.0
  0
LINE
  5
160
330
1F
100
AcDbEntity
  8
VISIBLE
100
AcDbLine
 10
67.06474369562329
 20
131.0197275827906
 30
0.0
 11
68.02864440928694
 21
129.8709954443777
 31
0.0
  0
LINE
  5
161
330
1F
100
AcDbEntity
  8
VISIBLE
100
AcDbLine
 10
8.466600804252387
 20
119.368600130676
 30
0.0
 11
6.643294938749634
 21
109.0281187240479
 31
0.0
  0
LINE
  5
162
330
1F
100
AcDbEntity
  8
VISIBLE
100
AcDbLine
 10
8.466600804252387
 20
119.368600130676
 30
0.0
 11
8.979481661429688
 21
120.7777287046411
 31
0.0
  0
LINE
  5
163
330
1F
100
AcDbEntity
  8
VISIBLE
100
AcDbLine
 10
14.22948166142969
 20
129.8709954443777
 30
0.0
 11
8.979481661429688
 21
120.7777287046411
 31
0.0
  0
LINE
  5
164
330
1F
100
AcDbEntity
  8
VISIBLE
100
AcDbLine
 10
14.22948166142969
 20
129.8709954443777
 30
0.0
 11
15.19338237509334
 21
131.0197275827906
 31
0.0
  0
LINE
  5
165
330
1F
100
AcDbEntity
  8
VISIBLE
100
AcDbLine
 10
23.23684902784258
 20
137.7689974844992
 30
0.0
 11
15.19338237509334
 21
131.0197275827906
 31
0.0
  0
LINE
  5
166
330
1F
100
AcDbEntity
  8
VISIBLE
100
AcDbLine
 10
23.23684902784258
 20
137.7689974844992
 30
0.0
 11
24.53550894626534
 21
138.5187791379863
 31
0.0
  0
LINE
  5
167
330
1F
100
AcDbEntity
  8
VISIBLE
100
AcDbLine
 10
34.40228146451737
 20
142.1099906429058
 30
0.0
 11
24.53550894626534
 21
138.5187791379863
 31
0.0
  0
LINE
  5
168
330
1F
100
AcDbEntity
  8
VISIBLE
100
AcDbLine
 10
34.40228146451737
 20
142.1099906429058
 30
0.0
 11
35.87906303535829
 21
142.3703870784581
 31
0.0
  0
LINE
  5
169
330
1F
100
AcDbEntity
  8
VISIBLE
100
AcDbLine
 10
46.37906303535829
 20
142.3703870784581
 30
0.0
 11
35.87906303535829
 21
142.3703870784581
 31
0.0
  0
LINE
  5
16A
330
1F
100
AcDbEntity
  8
VISIBLE
100
AcDbLine
 10
46.37906303535829
 20
142.3703870784581
 30
0.0
 11
47.85584460619921
 21
142.1099906429058
 31
0.0
  0
LINE
  5
16B
330
1F
100
AcDbEntity
  8
VISIBLE
100
AcDbLine
 10
57.72261712445123
 20
138.5187791379863
 30
0.0
 11
47.85584460619921
 21
142.1099906429058
 31
0.0
  0
LINE
  5
16C
330
1F
100
AcDbEntity
  8
VISIBLE
100
AcDbLine
 10
57.72261712445123
 20
138.5187791379863
 30
0.0
 11
59.02127704287399
 21
137.7689974844992
 31
0.0
  0
LINE
  5
16F
330
1F
100
AcDbEntity
  8
VISIBLE
100
AcDbLine
 10
73.55427930053172
 20
50.64049609802314
 30
0.0
 11
68.30427930053177
 21
59.73376283775973
 31
0.0
  0
LINE
  5
170
330
1F
100
AcDbEntity
  8
VISIBLE
100
AcDbLine
 10
73.55427930053172
 20
50.64049609802314
 30
0.0
 11
74.06716015770903
 21
49.23136752405804
 31
0.0
  0
LINE
  5
171
330
1F
100
AcDbEntity
  8
VISIBLE
100
AcDbLine
 10
75.89046602321177
 20
38.89088611742989
 30
0.0
 11
74.06716015770903
 21
49.23136752405804
 31
0.0
  0
LINE
  5
172
330
1F
100
AcDbEntity
  8
VISIBLE
100
AcDbLine
 10
75.89046602321177
 20
38.89088611742989
 30
0.0
 11
75.89046602321177
 21
37.39132281045558
 31
0.0
  0
LINE
  5
173
330
1F
100
AcDbEntity
  8
VISIBLE
100
AcDbLine
 10
74.06716015770903
 20
27.05084140382739
 30
0.0
 11
75.89046602321177
 21
37.39132281045558
 31
0.0
  0
LINE
  5
174
330
1F
100
AcDbEntity
  8
VISIBLE
100
AcDbLine
 10
74.06716015770903
 20
27.05084140382739
 30
0.0
 11
73.55427930053172
 21
25.64171282986234
 31
0.0
  0
LINE
  5
175
330
1F
100
AcDbEntity
  8
VISIBLE
100
AcDbLine
 10
68.30427930053172
 20
16.54844609012574
 30
0.0
 11
73.55427930053172
 21
25.64171282986234
 31
0.0
  0
LINE
  5
176
330
1F
100
AcDbEntity
  8
VISIBLE
100
AcDbLine
 10
68.30427930053172
 20
16.54844609012574
 30
0.0
 11
67.34037858686807
 21
15.39971395171294
 31
0.0
  0
LINE
  5
177
330
1F
100
AcDbEntity
  8
VISIBLE
100
AcDbLine
 10
59.29691193411882
 20
8.650444050004289
 30
0.0
 11
67.34037858686807
 21
15.39971395171294
 31
0.0
  0
LINE
  5
178
330
1F
100
AcDbEntity
  8
VISIBLE
100
AcDbLine
 10
59.29691193411882
 20
8.650444050004289
 30
0.0
 11
57.99825201569607
 21
7.900662396517139
 31
0.0
  0
LINE
  5
179
330
1F
100
AcDbEntity
  8
VISIBLE
100
AcDbLine
 10
48.13147949744404
 20
4.30945089159762
 30
0.0
 11
57.99825201569607
 21
7.900662396517139
 31
0.0
  0
LINE
  5
17A
330
1F
100
AcDbEntity
  8
VISIBLE
100
AcDbLine
 10
48.13147949744404
 20
4.30945089159762
 30
0.0
 11
46.65469792660312
 21
4.049054456045339
 31
0.0
  0
LINE
  5
17B
330
1F
100
AcDbEntity
  8
VISIBLE
100
AcDbLine
 10
36.15469792660312
 20
4.049054456045339
 30
0.0
 11
46.65469792660312
 21
4.049054456045339
 31
0.0
  0
LINE
  5
17C
330
1F
100
AcDbEntity
  8
VISIBLE
100
AcDbLine
 10
36.15469792660312
 20
4.049054456045339
 30
0.0
 11
34.67791635576221
 21
4.309450891597622
 31
0.0
  0
LINE
  5
17D
330
1F
100
AcDbEntity
  8
VISIBLE
100
AcDbLine
 10
24.81114383751017
 20
7.900662396517139
 30
0.0
 11
34.67791635576221
 21
4.309450891597622
 31
0.0
  0
LINE
  5
17E
330
1F
100
AcDbEntity
  8
VISIBLE
100
AcDbLine
 10
24.81114383751017
 20
7.900662396517139
 30
0.0
 11
23.51248391908742
 21
8.650444050004289
 31
0.0
  0
LINE
  5
17F
330
1F
100
AcDbEntity
  8
VISIBLE
100
AcDbLine
 10
15.46901726633817
 20
15.39971395171296
 30
0.0
 11
23.51248391908742
 21
8.650444050004289
 31
0.0
  0
LINE
  5
180
330
1F
100
AcDbEntity
  8
VISIBLE
100
AcDbLine
 10
15.46901726633817
 20
15.39971395171296
 30
0.0
 11
14.50511655267452
 21
16.54844609012574
 31
0.0
  0
LINE
  5
181
330
1F
100
AcDbEntity
  8
VISIBLE
100
AcDbLine
 10
9.255116552674522
 20
25.64171282986234
 30
0.0
 11
14.50511655267452
 21
16.54844609012574
 31
0.0
  0
LINE
  5
182
330
1F
100
AcDbEntity
  8
VISIBLE
100
AcDbLine
 10
9.255116552674522
 20
25.64171282986234
 30
0.0
 11
8.742235695497222
 21
27.05084140382739
 31
0.0
  0
LINE
  5
183
330
1F
100
AcDbEntity
  8
VISIBLE
100
AcDbLine
 10
6.918929829994468
 20
37.39132281045558
 30
0.0
 11
8.742235695497222
 21
27.05084140382739
 31
0.0
  0
LINE
  5
184
330
1F
100
AcDbEntity
  8
VISIBLE
100
AcDbLine
 10
6.918929829994468
 20
37.39132281045558
 30
0.0
 11
6.918929829994468
 21
38.89088611742989
 31
0.0
  0
CIRCLE
  5
185
330
1F
100
AcDbEntity
  8
VISIBLE
100
AcDbCircle
 10
41.40469792660312
 20
54.14110446394274
 30
0.0
 40
1.525
  0
CIRCLE
  5
186
330
1F
100
AcDbEntity
  8
VISIBLE
100
AcDbCircle
 10
26.18779366588067
 20
43.08537637394189
 30
0.0
 40
1.525
  0
CIRCLE
  5
187
330
1F
100
AcDbEntity
  8
VISIBLE
100
AcDbCircle
 10
32.00013388992355
 20
25.19683255394359
 30
0.0
 40
1.525
  0
CIRCLE
  5
188
330
1F
100
AcDbEntity
  8
VISIBLE
100
AcDbCircle
 10
50.80926196328269
 20
25.19683255394359
 30
0.0
 40
1.525
  0
CIRCLE
  5
189
330
1F
100
AcDbEntity
  8
VISIBLE
100
AcDbCircle
 10
56.62160218732557
 20
43.08537637394189
 30
0.0
 40
1.525
  0
CIRCLE
  5
18A
330
1F
100
AcDbEntity
  8
VISIBLE
100
AcDbCircle
 10
41.40469792660312
 20
61.14110446394274
 30
0.0
 40
0.5
  0
CIRCLE
  5
18B
330
1F
100
AcDbEntity
  8
VISIBLE
100
AcDbCircle
 10
41.40469792660313
 20
38.14110446394274
 30
0.0
 40
7.5
  0
LINE
  5
18C
330
1F
100
AcDbEntity
  8
VISIBLE
100
AcDbLine
 10
67.34037858686813
 20
60.88249497617254
 30
0.0
 11
59.29691193411882
 21
67.63176487788114
 31
0.0
  0
LINE
  5
18D
330
1F
100
AcDbEntity
  8
VISIBLE
100
AcDbLine
 10
67.34037858686813
 20
60.88249497617254
 30
0.0
 11
68.30427930053177
 21
59.73376283775973
 31
0.0
  0
LINE
  5
18E
330
1F
100
AcDbEntity
  8
VISIBLE
100
AcDbLine
 10
8.742235695497222
 20
49.23136752405804
 30
0.0
 11
6.918929829994468
 21
38.89088611742989
 31
0.0
  0
LINE
  5
18F
330
1F
100
AcDbEntity
  8
VISIBLE
100
AcDbLine
 10
8.742235695497222
 20
49.23136752405804
 30
0.0
 11
9.255116552674522
 21
50.64049609802314
 31
0.0
  0
LINE
  5
190
330
1F
100
AcDbEntity
  8
VISIBLE
100
AcDbLine
 10
14.50511655267452
 20
59.73376283775973
 30
0.0
 11
9.255116552674522
 21
50.64049609802314
 31
0.0
  0
LINE
  5
191
330
1F
100
AcDbEntity
  8
VISIBLE
100
AcDbLine
 10
14.50511655267452
 20
59.73376283775973
 30
0.0
 11
15.46901726633817
 21
60.88249497617254
 31
0.0
  0
LINE
  5
192
330
1F
100
AcDbEntity
  8
VISIBLE
100
AcDbLine
 10
23.51248391908742
 20
67.63176487788114
 30
0.0
 11
15.46901726633817
 21
60.88249497617254
 31
0.0
  0
LINE
  5
193
330
1F
100
AcDbEntity
  8
VISIBLE
100
AcDbLine
 10
23.51248391908742
 20
67.63176487788114
 30
0.0
 11
24.81114383751017
 21
68.38154653136834
 31
0.0
  0
LINE
  5
194
330
1F
100
AcDbEntity
  8
VISIBLE
100
AcDbLine
 10
34.67791635576221
 20
71.97275803628784
 30
0.0
 11
24.81114383751017
 21
68.38154653136834
 31
0.0
  0
LINE
  5
195
330
1F
100
AcDbEntity
  8
VISIBLE
100
AcDbLine
 10
34.67791635576221
 20
71.97275803628784
 30
0.0
 11
36.15469792660312
 21
72.23315447184014
 31
0.0
  0
LINE
  5
196
330
1F
100
AcDbEntity
  8
VISIBLE
100
AcDbLine
 10
46.65469792660312
 20
72.23315447184014
 30
0.0
 11
36.15469792660312
 21
72.23315447184014
 31
0.0
  0
LINE
  5
197
330
1F
100
AcDbEntity
  8
VISIBLE
100
AcDbLine
 10
46.65469792660312
 20
72.23315447184014
 30
0.0
 11
48.13147949744405
 21
71.97275803628784
 31
0.0
  0
LINE
  5
198
330
1F
100
AcDbEntity
  8
VISIBLE
100
AcDbLine
 10
57.99825201569607
 20
68.38154653136834
 30
0.0
 11
48.13147949744405
 21
71.97275803628784
 31
0.0
  0
LINE
  5
199
330
1F
100
AcDbEntity
  8
VISIBLE
100
AcDbLine
 10
57.99825201569607
 20
68.38154653136834
 30
0.0
 11
59.29691193411882
 21
67.63176487788114
 31
0.0
  0
LINE
  5
19C
330
1F
100
AcDbEntity
  8
VISIBLE
100
AcDbLine
 10
192.990816470627
 20
122.0582103494848
 30
0.0
 11
187.740816470627
 21
131.1514770892214
 31
0.0
  0
LINE
  5
19D
330
1F
100
AcDbEntity
  8
VISIBLE
100
AcDbLine
 10
192.990816470627
 20
122.0582103494848
 30
0.0
 11
193.5036973278042
 21
120.6490817755197
 31
0.0
  0
LINE
  5
19E
330
1F
100
AcDbEntity
  8
VISIBLE
100
AcDbLine
 10
195.327003193307
 20
110.3086003688915
 30
0.0
 11
193.5036973278042
 21
120.6490817755197
 31
0.0
  0
LINE
  5
19F
330
1F
100
AcDbEntity
  8
VISIBLE
100
AcDbLine
 10
195.327003193307
 20
110.3086003688915
 30
0.0
 11
195.327003193307
 21
108.8090370619173
 31
0.0
  0
LINE
  5
1A0
330
1F
100
AcDbEntity
  8
VISIBLE
100
AcDbLine
 10
193.5036973278042
 20
98.46855565528905
 30
0.0
 11
195.327003193307
 21
108.8090370619173
 31
0.0
  0
LINE
  5
1A1
330
1F
100
AcDbEntity
  8
VISIBLE
100
AcDbLine
 10
193.5036973278042
 20
98.46855565528905
 30
0.0
 11
192.990816470627
 21
97.059427081324
 31
0.0
  0
LINE
  5
1A2
330
1F
100
AcDbEntity
  8
VISIBLE
100
AcDbLine
 10
187.740816470627
 20
87.9661603415874
 30
0.0
 11
192.990816470627
 21
97.059427081324
 31
0.0
  0
LINE
  5
1A3
330
1F
100
AcDbEntity
  8
VISIBLE
100
AcDbLine
 10
187.740816470627
 20
87.9661603415874
 30
0.0
 11
186.7769157569633
 21
86.8174282031746
 31
0.0
  0
LINE
  5
1A4
330
1F
100
AcDbEntity
  8
VISIBLE
100
AcDbLine
 10
178.733449104214
 20
80.06815830146596
 30
0.0
 11
186.7769157569633
 21
86.8174282031746
 31
0.0
  0
LINE
  5
1A5
330
1F
100
AcDbEntity
  8
VISIBLE
100
AcDbLine
 10
178.733449104214
 20
80.06815830146596
 30
0.0
 11
177.4347891857913
 21
79.3183766479788
 31
0.0
  0
LINE
  5
1A6
330
1F
100
AcDbEntity
  8
VISIBLE
100
AcDbLine
 10
167.5680166675393
 20
75.72716514305928
 30
0.0
 11
177.4347891857913
 21
79.3183766479788
 31
0.0
  0
LINE
  5
1A7
330
1F
100
AcDbEntity
  8
VISIBLE
100
AcDbLine
 10
167.5680166675393
 20
75.72716514305928
 30
0.0
 11
166.0912350966983
 21
75.466768707507
 31
0.0
  0
LINE
  5
1A8
330
1F
100
AcDbEntity
  8
VISIBLE
100
AcDbLine
 10
155.5912350966983
 20
75.466768707507
 30
0.0
 11
166.0912350966983
 21
75.466768707507
 31
0.0
  0
LINE
  5
1A9
330
1F
100
AcDbEntity
  8
VISIBLE
100
AcDbLine
 10
155.5912350966983
 20
75.466768707507
 30
0.0
 11
154.1144535258574
 21
75.72716514305928
 31
0.0
  0
LINE
  5
1AA
330
1F
100
AcDbEntity
  8
VISIBLE
100
AcDbLine
 10
144.2476810076054
 20
79.3183766479788
 30
0.0
 11
154.1144535258574
 21
75.72716514305928
 31
0.0
  0
LINE
  5
1AB
330
1F
100
AcDbEntity
  8
VISIBLE
100
AcDbLine
 10
144.2476810076054
 20
79.3183766479788
 30
0.0
 11
142.9490210891827
 21
80.06815830146596
 31
0.0
  0
LINE
  5
1AC
330
1F
100
AcDbEntity
  8
VISIBLE
100
AcDbLine
 10
134.9055544364334
 20
86.81742820317461
 30
0.0
 11
142.9490210891827
 21
80.06815830146596
 31
0.0
  0
LINE
  5
1AD
330
1F
100
AcDbEntity
  8
VISIBLE
100
AcDbLine
 10
134.9055544364334
 20
86.81742820317461
 30
0.0
 11
133.9416537227697
 21
87.9661603415874
 31
0.0
  0
LINE
  5
1AE
330
1F
100
AcDbEntity
  8
VISIBLE
100
AcDbLine
 10
128.6916537227697
 20
97.059427081324
 30
0.0
 11
133.9416537227697
 21
87.9661603415874
 31
0.0
  0
LINE
  5
1AF
330
1F
100
AcDbEntity
  8
VISIBLE
100
AcDbLine
 10
128.6916537227697
 20
97.059427081324
 30
0.0
 11
128.1787728655924
 21
98.46855565528905
 31
0.0
  0
LINE
  5
1B0
330
1F
100
AcDbEntity
  8
VISIBLE
100
AcDbLine
 10
126.3554670000897
 20
108.8090370619173
 30
0.0
 11
128.1787728655924
 21
98.46855565528905
 31
0.0
  0
LINE
  5
1B1
330
1F
100
AcDbEntity
  8
VISIBLE
100
AcDbLine
 10
126.3554670000897
 20
108.8090370619173
 30
0.0
 11
126.3554670000897
 21
110.3086003688915
 31
0.0
  0
CIRCLE
  5
1B2
330
1F
100
AcDbEntity
  8
VISIBLE
100
AcDbCircle
 10
160.8412350966983
 20
125.5588187154044
 30
0.0
 40
1.525
  0
CIRCLE
  5
1B3
330
1F
100
AcDbEntity
  8
VISIBLE
100
AcDbCircle
 10
145.6243308359759
 20
114.5030906254036
 30
0.0
 40
1.525
  0
CIRCLE
  5
1B4
330
1F
100
AcDbEntity
  8
VISIBLE
100
AcDbCircle
 10
151.4366710600188
 20
96.61454680540525
 30
0.0
 40
1.525
  0
CIRCLE
  5
1B5
330
1F
100
AcDbEntity
  8
VISIBLE
100
AcDbCircle
 10
170.2457991333779
 20
96.61454680540525
 30
0.0
 40
1.525
  0
CIRCLE
  5
1B6
330
1F
100
AcDbEntity
  8
VISIBLE
100
AcDbCircle
 10
176.0581393574208
 20
114.5030906254036
 30
0.0
 40
1.525
  0
CIRCLE
  5
1B7
330
1F
100
AcDbEntity
  8
VISIBLE
100
AcDbCircle
 10
160.8412350966983
 20
132.5588187154044
 30
0.0
 40
0.5
  0
CIRCLE
  5
1B8
330
1F
100
AcDbEntity
  8
VISIBLE
100
AcDbCircle
 10
160.8412350966983
 20
109.5588187154044
 30
0.0
 40
7.5
  0
LINE
  5
1B9
330
1F
100
AcDbEntity
  8
VISIBLE
100
AcDbLine
 10
186.7769157569633
 20
132.3002092276342
 30
0.0
 11
178.733449104214
 21
139.0494791293428
 31
0.0
  0
LINE
  5
1BA
330
1F
100
AcDbEntity
  8
VISIBLE
100
AcDbLine
 10
186.7769157569633
 20
132.3002092276342
 30
0.0
 11
187.740816470627
 21
131.1514770892214
 31
0.0
  0
LINE
  5
1BB
330
1F
100
AcDbEntity
  8
VISIBLE
100
AcDbLine
 10
128.1787728655924
 20
120.6490817755197
 30
0.0
 11
126.3554670000897
 21
110.3086003688915
 31
0.0
  0
LINE
  5
1BC
330
1F
100
AcDbEntity
  8
VISIBLE
100
AcDbLine
 10
128.1787728655924
 20
120.6490817755197
 30
0.0
 11
128.6916537227697
 21
122.0582103494848
 31
0.0
  0
LINE
  5
1BD
330
1F
100
AcDbEntity
  8
VISIBLE
100
AcDbLine
 10
133.9416537227697
 20
131.1514770892214
 30
0.0
 11
128.6916537227697
 21
122.0582103494848
 31
0.0
  0
LINE
  5
1BE
330
1F
100
AcDbEntity
  8
VISIBLE
100
AcDbLine
 10
133.9416537227697
 20
131.1514770892214
 30
0.0
 11
134.9055544364334
 21
132.3002092276342
 31
0.0
  0
LINE
  5
1BF
330
1F
100
AcDbEntity
  8
VISIBLE
100
AcDbLine
 10
142.9490210891827
 20
139.0494791293428
 30
0.0
 11
134.9055544364334
 21
132.3002092276342
 31
0.0
  0
LINE
  5
1C0
330
1F
100
AcDbEntity
  8
VISIBLE
100
AcDbLine
 10
142.9490210891827
 20
139.0494791293428
 30
0.0
 11
144.2476810076054
 21
139.79926078283
 31
0.0
  0
LINE
  5
1C1
330
1F
100
AcDbEntity
  8
VISIBLE
100
AcDbLine
 10
154.1144535258574
 20
143.3904722877495
 30
0.0
 11
144.2476810076054
 21
139.79926078283
 31
0.0
  0
LINE
  5
1C2
330
1F
100
AcDbEntity
  8
VISIBLE
100
AcDbLine
 10
154.1144535258574
 20
143.3904722877495
 30
0.0
 11
155.5912350966983
 21
143.6508687233018
 31
0.0
  0
LINE
  5
1C3
330
1F
100
AcDbEntity
  8
VISIBLE
100
AcDbLine
 10
166.0912350966983
 20
143.6508687233018
 30
0.0
 11
155.5912350966983
 21
143.6508687233018
 31
0.0
  0
LINE
  5
1C4
330
1F
100
AcDbEntity
  8
VISIBLE
100
AcDbLine
 10
166.0912350966983
 20
143.6508687233018
 30
0.0
 11
167.5680166675393
 21
143.3904722877495
 31
0.0
  0
LINE
  5
1C5
330
1F
100
AcDbEntity
  8
VISIBLE
100
AcDbLine
 10
177.4347891857913
 20
139.79926078283
 30
0.0
 11
167.5680166675393
 21
143.3904722877495
 31
0.0
  0
LINE
  5
1C6
330
1F
100
AcDbEntity
  8
VISIBLE
100
AcDbLine
 10
177.4347891857913
 20
139.79926078283
 30
0.0
 11
178.733449104214
 21
139.0494791293428
 31
0.0
  0
CIRCLE
  5
1C9
330
1F
100
AcDbEntity
  8
VISIBLE
100
AcDbCircle
 10
91.48855822263013
 20
123.3789695907947
 30
0.0
 40
2.75
  0
CIRCLE
  5
1CA
330
1F
100
AcDbEntity
  8
VISIBLE
100
AcDbCircle
 10
91.48855822263013
 20
131.0789695907947
 30
0.0
 40
1.5
  0
CIRCLE
  5
1CB
330
1F
100
AcDbEntity
  8
VISIBLE
100
AcDbCircle
 10
84.82016261348996
 20
119.5289695907947
 30
0.0
 40
1.5
  0
CIRCLE
  5
1CC
330
1F
100
AcDbEntity
  8
VISIBLE
100
AcDbCircle
 10
98.15695383177031
 20
119.5289695907947
 30
0.0
 40
1.5
  0
CIRCLE
  5
1CD
330
1F
100
AcDbEntity
  8
VISIBLE
100
AcDbCircle
 10
91.48855822263013
 20
123.3789695907947
 30
0.0
 40
16.5
  0
CIRCLE
  5
1D0
330
1F
100
AcDbEntity
  8
VISIBLE
100
AcDbCircle
 10
120.2882845897331
 20
142.4594229850939
 30
0.0
 40
2.75
  0
CIRCLE
  5
1D1
330
1F
100
AcDbEntity
  8
VISIBLE
100
AcDbCircle
 10
120.2882845897331
 20
150.1594229850939
 30
0.0
 40
1.5
  0
CIRCLE
  5
1D2
330
1F
100
AcDbEntity
  8
VISIBLE
100
AcDbCircle
 10
113.6198889805929
 20
138.6094229850939
 30
0.0
 40
1.5
  0
CIRCLE
  5
1D3
330
1F
100
AcDbEntity
  8
VISIBLE
100
AcDbCircle
 10
126.9566801988732
 20
138.6094229850939
 30
0.0
 40
1.5
  0
CIRCLE
  5
1D4
330
1F
100
AcDbEntity
  8
VISIBLE
100
AcDbCircle
 10
120.2882845897331
 20
142.4594229850939
 30
0.0
 40
16.5
  0
CIRCLE
  5
1D7
330
1F
100
AcDbEntity
  8
VISIBLE
100
AcDbCircle
 10
115.5611841991019
 20
209.7213767919053
 30
0.0
 40
2.75
  0
CIRCLE
  5
1D8
330
1F
100
AcDbEntity
  8
VISIBLE
100
AcDbCircle
 10
115.5611841991019
 20
217.4213767919053
 30
0.0
 40
1.5
  0
CIRCLE
  5
1D9
330
1F
100
AcDbEntity
  8
VISIBLE
100
AcDbCircle
 10
108.8927885899617
 20
205.8713767919053
 30
0.0
 40
1.5
  0
CIRCLE
  5
1DA
330
1F
100
AcDbEntity
  8
VISIBLE
100
AcDbCircle
 10
122.2295798082421
 20
205.8713767919053
 30
0.0
 40
1.5
  0
CIRCLE
  5
1DB
330
1F
100
AcDbEntity
  8
VISIBLE
100
AcDbCircle
 10
115.5611841991019
 20
209.7213767919053
 30
0.0
 40
16.5
  0
CIRCLE
  5
1DE
330
1F
100
AcDbEntity
  8
VISIBLE
100
AcDbCircle
 10
176.8825265379301
 20
230.4911937274436
 30
0.0
 40
2.75
  0
CIRCLE
  5
1DF
330
1F
100
AcDbEntity
  8
VISIBLE
100
AcDbCircle
 10
176.8825265379301
 20
238.1911937274436
 30
0.0
 40
1.5
  0
CIRCLE
  5
1E0
330
1F
100
AcDbEntity
  8
VISIBLE
100
AcDbCircle
 10
170.2141309287899
 20
226.6411937274436
 30
0.0
 40
1.5
  0
CIRCLE
  5
1E1
330
1F
100
AcDbEntity
  8
VISIBLE
100
AcDbCircle
 10
183.5509221470703
 20
226.6411937274436
 30
0.0
 40
1.5
  0
CIRCLE
  5
1E2
330
1F
100
AcDbEntity
  8
VISIBLE
100
AcDbCircle
 10
176.8825265379301
 20
230.4911937274436
 30
0.0
 40
16.5
  0
CIRCLE
  5
1E5
330
1F
100
AcDbEntity
  8
VISIBLE
100
AcDbCircle
 10
143.9048999270073
 20
40.44693053545824
 30
0.0
 40
2.75
  0
CIRCLE
  5
1E6
330
1F
100
AcDbEntity
  8
VISIBLE
100
AcDbCircle
 10
143.9048999270073
 20
48.14693053545824
 30
0.0
 40
1.5
  0
CIRCLE
  5
1E7
330
1F
100
AcDbEntity
  8
VISIBLE
100
AcDbCircle
 10
137.2365043178671
 20
36.59693053545823
 30
0.0
 40
1.5
  0
CIRCLE
  5
1E8
330
1F
100
AcDbEntity
  8
VISIBLE
100
AcDbCircle
 10
150.5732955361475
 20
36.59693053545823
 30
0.0
 40
1.5
  0
CIRCLE
  5
1E9
330
1F
100
AcDbEntity
  8
VISIBLE
100
AcDbCircle
 10
143.9048999270073
 20
40.44693053545824
 30
0.0
 40
16.5
  0
CIRCLE
  5
1EC
330
1F
100
AcDbEntity
  8
VISIBLE
100
AcDbCircle
 10
179.0993810006808
 20
191.337121175739
 30
0.0
 40
2.75
  0
CIRCLE
  5
1ED
330
1F
100
AcDbEntity
  8
VISIBLE
100
AcDbCircle
 10
179.0993810006808
 20
199.037121175739
 30
0.0
 40
1.5
  0
CIRCLE
  5
1EE
330
1F
100
AcDbEntity
  8
VISIBLE
100
AcDbCircle
 10
172.4309853915406
 20
187.487121175739
 30
0.0
 40
1.5
  0
CIRCLE
  5
1EF
330
1F
100
AcDbEntity
  8
VISIBLE
100
AcDbCircle
 10
185.767776609821
 20
187.487121175739
 30
0.0
 40
1.5
  0
CIRCLE
  5
1F0
330
1F
100
AcDbEntity
  8
VISIBLE
100
AcDbCircle
 10
179.0993810006808
 20
191.337121175739
 30
0.0
 40
16.5
  0
CIRCLE
  5
1F3
330
1F
100
AcDbEntity
  8
VISIBLE
100
AcDbCircle
 10
179.122429609521
 20
27.12375929081114
 30
0.0
 40
2.75
  0
CIRCLE
  5
1F4
330
1F
100
AcDbEntity
  8
VISIBLE
100
AcDbCircle
 10
179.122429609521
 20
34.82375929081114
 30
0.0
 40
1.5
  0
CIRCLE
  5
1F5
330
1F
100
AcDbEntity
  8
VISIBLE
100
AcDbCircle
 10
172.4540340003808
 20
23.27375929081114
 30
0.0
 40
1.5
  0
CIRCLE
  5
1F6
330
1F
100
AcDbEntity
  8
VISIBLE
100
AcDbCircle
 10
185.7908252186612
 20
23.27375929081114
 30
0.0
 40
1.5
  0
CIRCLE
  5
1F7
330
1F
100
AcDbEntity
  8
VISIBLE
100
AcDbCircle
 10
179.122429609521
 20
27.12375929081114
 30
0.0
 40
16.5
  0
CIRCLE
  5
1FA
330
1F
100
AcDbEntity
  8
VISIBLE
100
AcDbCircle
 10
149.208541762402
 20
175.216857774661
 30
0.0
 40
2.75
  0
CIRCLE
  5
1FB
330
1F
100
AcDbEntity
  8
VISIBLE
100
AcDbCircle
 10
149.208541762402
 20
182.9168577746609
 30
0.0
 40
1.5
  0
CIRCLE
  5
1FC
330
1F
100
AcDbEntity
  8
VISIBLE
100
AcDbCircle
 10
142.5401461532618
 20
171.366857774661
 30
0.0
 40
1.5
  0
CIRCLE
  5
1FD
330
1F
100
AcDbEntity
  8
VISIBLE
100
AcDbCircle
 10
155.8769373715422
 20
171.366857774661
 30
0.0
 40
1.5
  0
CIRCLE
  5
1FE
330
1F
100
AcDbEntity
  8
VISIBLE
100
AcDbCircle
 10
149.208541762402
 20
175.216857774661
 30
0.0
 40
16.5
  0
CIRCLE
  5
201
330
1F
100
AcDbEntity
  8
VISIBLE
100
AcDbCircle
 10
178.8534962449802
 20
60.99712965872847
 30
0.0
 40
2.75
  0
CIRCLE
  5
202
330
1F
100
AcDbEntity
  8
VISIBLE
100
AcDbCircle
 10
178.8534962449802
 20
68.69712965872847
 30
0.0
 40
1.5
  0
CIRCLE
  5
203
330
1F
100
AcDbEntity
  8
VISIBLE
100
AcDbCircle
 10
172.1851006358401
 20
57.14712965872847
 30
0.0
 40
1.5
  0
CIRCLE
  5
204
330
1F
100
AcDbEntity
  8
VISIBLE
100
AcDbCircle
 10
185.5218918541204
 20
57.14712965872847
 30
0.0
 40
1.5
  0
CIRCLE
  5
205
330
1F
100
AcDbEntity
  8
VISIBLE
100
AcDbCircle
 10
178.8534962449802
 20
60.99712965872847
 30
0.0
 40
16.5
  0
CIRCLE
  5
208
330
1F
100
AcDbEntity
  8
VISIBLE
100
AcDbCircle
 10
178.4795214736481
 20
157.6422269430965
 30
0.0
 40
2.75
  0
CIRCLE
  5
209
330
1F
100
AcDbEntity
  8
VISIBLE
100
AcDbCircle
 10
178.4795214736481
 20
165.3422269430965
 30
0.0
 40
1.5
  0
CIRCLE
  5
20A
330
1F
100
AcDbEntity
  8
VISIBLE
100
AcDbCircle
 10
171.8111258645079
 20
153.7922269430966
 30
0.0
 40
1.5
  0
CIRCLE
  5
20B
330
1F
100
AcDbEntity
  8
VISIBLE
100
AcDbCircle
 10
185.1479170827883
 20
153.7922269430966
 30
0.0
 40
1.5
  0
CIRCLE
  5
20C
330
1F
100
AcDbEntity
  8
VISIBLE
100
AcDbCircle
 10
178.4795214736481
 20
157.6422269430965
 30
0.0
 40
16.5
  0
CIRCLE
  5
20F
330
1F
100
AcDbEntity
  8
VISIBLE
100
AcDbCircle
 10
150.5147264909358
 20
209.0570406834174
 30
0.0
 40
2.75
  0
CIRCLE
  5
210
330
1F
100
AcDbEntity
  8
VISIBLE
100
AcDbCircle
 10
150.5147264909358
 20
216.7570406834174
 30
0.0
 40
1.5
  0
CIRCLE
  5
211
330
1F
100
AcDbEntity
  8
VISIBLE
100
AcDbCircle
 10
143.8463308817956
 20
205.2070406834174
 30
0.0
 40
1.5
  0
CIRCLE
  5
212
330
1F
100
AcDbEntity
  8
VISIBLE
100
AcDbCircle
 10
157.183122100076
 20
205.2070406834174
 30
0.0
 40
1.5
  0
CIRCLE
  5
213
330
1F
100
AcDbEntity
  8
VISIBLE
100
AcDbCircle
 10
150.5147264909358
 20
209.0570406834174
 30
0.0
 40
16.5
  0
ENDSEC
  0
SECTION
  2
OBJECTS
  0
DICTIONARY
  5
C
330
0
100
AcDbDictionary
  3
ACAD_GROUP
350
D
  3
ACAD_LAYOUT
350
1A
  3
ACAD_MATERIAL
350
43
  3
ACAD_MLEADERSTYLE
350
6B
  3
ACAD_MLINESTYLE
350
17
  3
ACAD_PLOTSETTINGS
350
19
  3
ACAD_SCALELIST
350
47
  3
ACAD_VISUALSTYLE
350
2A
  3
ACDBHEADERROUNDTRIPXREC
350
25B
  3
ACDBVARIABLEDICTIONARY
350
6E
  3
ONSHAPE_DATA
350
214
  0
DICTIONARY
  5
286
330
8
100
AcDbDictionary
280
     1
  3
ACAD_XREC_ROUNDTRIP
360
287
  0
DICTIONARY
  5
74
330
73
100
AcDbDictionary
280
     1
  3
ONSHAPE_VIEW_ID
360
75
  0
DICTIONARY
  5
7A
330
79
100
AcDbDictionary
280
     1
  3
ONSHAPE_VIEW_ID
360
7B
  0
DICTIONARY
  5
7D
330
7C
100
AcDbDictionary
280
     1
  3
ONSHAPE_VIEW_ID
360
7E
  0
DICTIONARY
  5
80
330
7F
100
AcDbDictionary
280
     1
  3
ONSHAPE_VIEW_ID
360
81
  0
DICTIONARY
  5
83
330
82
100
AcDbDictionary
280
     1
  3
ONSHAPE_VIEW_ID
360
84
  0
DICTIONARY
  5
86
330
85
100
AcDbDictionary
280
     1
  3
ONSHAPE_VIEW_ID
360
87
  0
DICTIONARY
  5
89
330
88
100
AcDbDictionary
280
     1
  3
ONSHAPE_VIEW_ID
360
8A
  0
DICTIONARY
  5
8C
330
8B
100
AcDbDictionary
280
     1
  3
ONSHAPE_VIEW_ID
360
8D
  0
DICTIONARY
  5
8F
330
8E
100
AcDbDictionary
280
     1
  3
ONSHAPE_VIEW_ID
360
90
  0
DICTIONARY
  5
92
330
91
100
AcDbDictionary
280
     1
  3
ONSHAPE_VIEW_ID
360
93
  0
DICTIONARY
  5
95
330
94
100
AcDbDictionary
280
     1
  3
ONSHAPE_VIEW_ID
360
96
  0
DICTIONARY
  5
98
330
97
100
AcDbDictionary
280
     1
  3
ONSHAPE_VIEW_ID
360
99
  0
DICTIONARY
  5
9B
330
9A
100
AcDbDictionary
280
     1
  3
ONSHAPE_VIEW_ID
360
9C
  0
DICTIONARY
  5
9E
330
9D
100
AcDbDictionary
280
     1
  3
ONSHAPE_VIEW_ID
360
9F
  0
DICTIONARY
  5
A1
330
A0
100
AcDbDictionary
280
     1
  3
ONSHAPE_VIEW_ID
360
A2
  0
DICTIONARY
  5
A4
330
A3
100
AcDbDictionary
280
     1
  3
ONSHAPE_VIEW_ID
360
A5
  0
DICTIONARY
  5
A7
330
A6
100
AcDbDictionary
280
     1
  3
ONSHAPE_VIEW_ID
360
A8
  0
DICTIONARY
  5
AA
330
A9
100
AcDbDictionary
280
     1
  3
ONSHAPE_VIEW_ID
360
AB
  0
DICTIONARY
  5
AD
330
AC
100
AcDbDictionary
280
     1
  3
ONSHAPE_VIEW_ID
360
AE
  0
DICTIONARY
  5
B0
330
AF
100
AcDbDictionary
280
     1
  3
ONSHAPE_VIEW_ID
360
B1
  0
DICTIONARY
  5
D
102
{ACAD_REACTORS
330
C
102
}
330
C
100
AcDbDictionary
  0
DICTIONARY
  5
1A
102
{ACAD_REACTORS
330
C
102
}
330
C
100
AcDbDictionary
  0
DICTIONARY
  5
43
102
{ACAD_REACTORS
330
C
102
}
330
C
100
AcDbDictionary
  3
BYBLOCK
350
45
  3
BYLAYER
350
44
  3
GLOBAL
350
46
  0
DICTIONARY
  5
6B
102
{ACAD_REACTORS
330
C
102
}
330
C
100
AcDbDictionary
  3
STANDARD
350
6C
  0
DICTIONARY
  5
17
102
{ACAD_REACTORS
330
C
102
}
330
C
100
AcDbDictionary
  3
STANDARD
350
18
  0
DICTIONARY
  5
19
102
{ACAD_REACTORS
330
C
102
}
330
C
100
AcDbDictionary
  0
DICTIONARY
  5
47
102
{ACAD_REACTORS
330
C
102
}
330
C
100
AcDbDictionary
  3
A0
350
48
  3
A1
350
49
  3
A2
350
4A
  3
A3
350
4B
  3
A4
350
4C
  3
A5
350
4D
  3
A6
350
4E
  3
A7
350
4F
  3
A8
350
50
  3
A9
350
51
  3
B0
350
52
  3
B1
350
53
  3
B2
350
54
  3
B3
350
55
  3
B4
350
56
  3
B5
350
57
  3
B6
350
58
  3
B7
350
59
  3
B8
350
5A
  3
B9
350
5B
  3
C0
350
5C
  3
C1
350
5D
  3
C2
350
5E
  3
C3
350
5F
  3
C4
350
60
  3
C5
350
61
  3
C6
350
62
  3
C7
350
63
  3
C8
350
64
  3
C9
350
65
  3
D0
350
66
  3
D1
350
67
  3
D2
350
68
  0
DICTIONARY
  5
2A
102
{ACAD_REACTORS
330
C
102
}
330
C
100
AcDbDictionary
  3
2DWIREFRAME
350
2F
  3
BASIC
350
32
  3
BRIGHTEN
350
36
  3
COLORCHANGE
350
3A
  3
CONCEPTUAL
350
34
  3
DIM
350
35
  3
EDGECOLOROFF
350
3D
  3
FACEPATTERN
350
39
  3
FLAT
350
2B
  3
FLATWITHEDGES
350
2C
  3
GOURAUD
350
2D
  3
GOURAUDWITHEDGES
350
2E
  3
HIDDEN
350
31
  3
JITTEROFF
350
3B
  3
LINEPATTERN
350
38
  3
OVERHANGOFF
350
3C
  3
REALISTIC
350
33
  3
SHADED
350
42
  3
SHADED_WITH_EDGES
350
41
  3
SHADES_OF_GRAY
350
3E
  3
SKETCHY
350
3F
  3
THICKEN
350
37
  3
WIREFRAME
350
30
  3
X-RAY
350
40
  0
DICTIONARY
  5
25B
102
{ACAD_REACTORS
330
C
102
}
330
C
100
AcDbDictionary
  3
CEPSNID
350
265
  3
CEPSNTYPE
350
264
  3
DIMSTYLEDATA
350
27B
  3
FINGERPRINTGUID
350
266
  3
HYPERLINKBASE
350
25E
  3
INSUNITS
350
263
  3
LAYOUTDICT
350
260
  3
LWETCUNION
350
262
  3
PLOTSETDICT
350
261
  3
PSVPSCALE
350
268
  3
PUCSBASE
350
26B
  3
PUCSORGBACK
350
271
  3
PUCSORGBOTTOM
350
26D
  3
PUCSORGFRONT
350
270
  3
PUCSORGLEFT
350
26E
  3
PUCSORGRIGHT
350
26F
  3
PUCSORGTOP
350
26C
  3
PUCSORTHOREF
350
269
  3
PUCSORTHOVIEW
350
26A
  3
STYLESHEET
350
25F
  3
TSTACKALIGN
350
25C
  3
TSTACKSIZE
350
25D
  3
UCSBASE
350
274
  3
UCSORGBACK
350
27A
  3
UCSORGBOTTOM
350
276
  3
UCSORGFRONT
350
279
  3
UCSORGLEFT
350
277
  3
UCSORGRIGHT
350
278
  3
UCSORGTOP
350
275
  3
UCSORTHOREF
350
272
  3
UCSORTHOVIEW
350
273
  3
VERSIONGUID
350
267
  0
DICTIONARY
  5
6E
102
{ACAD_REACTORS
330
C
102
}
330
C
100
AcDbDictionary
  3
CANNOSCALE
350
288
  3
CENTEREXE
350
282
  3
CENTERLTYPEFILE
350
283
  3
CMLEADERSTYLE
350
27D
  3
CTABLESTYLE
350
27C
  3
DIMASSOC
350
284
  3
HIDETEXT
350
285
  3
MSLTSCALE
350
289
  3
OLEFRAME
350
6F
  3
PSOLHEIGHT
350
27F
  3
PSOLWIDTH
350
27E
  0
DICTIONARY
  5
214
102
{ACAD_REACTORS
330
C
102
}
330
C
100
AcDbDictionary
280
     1
  3
DIM_UNITS
360
215
  3
ONSHAPE_ANG_TOL_PRECISION
360
218
  3
ONSHAPE_VSHARP_EXTENSION
360
217
  3
ONSHAPE_WELD_STANDARD
360
216
  0
XRECORD
  5
287
102
{ACAD_REACTORS
330
286
102
}
330
286
100
AcDbXrecord
102
VTR_0.000_0.000_1.000_1.000_VISUALSTYLE
340
2F
102
VTR_0.000_0.000_1.000_1.000_GRIDDISPLAY
 70
     3
102
VTR_0.000_0.000_1.000_1.000_GRIDMAJOR
 70
     5
102
VTR_0.000_0.000_1.000_1.000_DEFAULTLIGHTING
280
     1
102
VTR_0.000_0.000_1.000_1.000_DEFAULTLIGHTINGTYPE
 70
     1
102
VTR_0.000_0.000_1.000_1.000_BRIGHTNESS
141
0.0
102
VTR_0.000_0.000_1.000_1.000_CONTRAST
142
0.0
  0
XRECORD
  5
75
102
{ACAD_REACTORS
330
74
102
}
330
74
100
AcDbXrecord
330
0
  0
XRECORD
  5
7B
102
{ACAD_REACTORS
330
7A
102
}
330
7A
100
AcDbXrecord
330
0
  0
XRECORD
  5
7E
102
{ACAD_REACTORS
330
7D
102
}
330
7D
100
AcDbXrecord
330
0
  0
XRECORD
  5
81
102
{ACAD_REACTORS
330
80
102
}
330
80
100
AcDbXrecord
330
0
  0
XRECORD
  5
84
102
{ACAD_REACTORS
330
83
102
}
330
83
100
AcDbXrecord
330
0
  0
XRECORD
  5
87
102
{ACAD_REACTORS
330
86
102
}
330
86
100
AcDbXrecord
330
0
  0
XRECORD
  5
8A
102
{ACAD_REACTORS
330
89
102
}
330
89
100
AcDbXrecord
330
0
  0
XRECORD
  5
8D
102
{ACAD_REACTORS
330
8C
102
}
330
8C
100
AcDbXrecord
330
0
  0
XRECORD
  5
90
102
{ACAD_REACTORS
330
8F
102
}
330
8F
100
AcDbXrecord
330
0
  0
XRECORD
  5
93
102
{ACAD_REACTORS
330
92
102
}
330
92
100
AcDbXrecord
330
0
  0
XRECORD
  5
96
102
{ACAD_REACTORS
330
95
102
}
330
95
100
AcDbXrecord
330
0
  0
XRECORD
  5
99
102
{ACAD_REACTORS
330
98
102
}
330
98
100
AcDbXrecord
330
0
  0
XRECORD
  5
9C
102
{ACAD_REACTORS
330
9B
102
}
330
9B
100
AcDbXrecord
330
0
  0
XRECORD
  5
9F
102
{ACAD_REACTORS
330
9E
102
}
330
9E
100
AcDbXrecord
330
0
  0
XRECORD
  5
A2
102
{ACAD_REACTORS
330
A1
102
}
330
A1
100
AcDbXrecord
330
0
  0
XRECORD
  5
A5
102
{ACAD_REACTORS
330
A4
102
}
330
A4
100
AcDbXrecord
330
0
  0
XRECORD
  5
A8
102
{ACAD_REACTORS
330
A7
102
}
330
A7
100
AcDbXrecord
330
0
  0
XRECORD
  5
AB
102
{ACAD_REACTORS
330
AA
102
}
330
AA
100
AcDbXrecord
330
0
  0
XRECORD
  5
AE
102
{ACAD_REACTORS
330
AD
102
}
330
AD
100
AcDbXrecord
330
0
  0
XRECORD
  5
B1
102
{ACAD_REACTORS
330
B0
102
}
330
B0
100
AcDbXrecord
330
0
  0
MATERIAL
  5
45
102
{ACAD_REACTORS
330
43
102
}
102
{ACAD_XDICTIONARY
360
28C
102
}
330
43
100
AcDbMaterial
  1
BYBLOCK
  0
MATERIAL
  5
44
102
{ACAD_REACTORS
330
43
102
}
102
{ACAD_XDICTIONARY
360
28A
102
}
330
43
100
AcDbMaterial
  1
BYLAYER
  0
MATERIAL
  5
46
102
{ACAD_REACTORS
330
43
102
}
102
{ACAD_XDICTIONARY
360
28E
102
}
330
43
100
AcDbMaterial
  1
GLOBAL
  0
ACAD_PROXY_OBJECT
  5
6C
102
{ACAD_REACTORS
330
6B
102
}
330
6B
100
AcDbProxyObject
 90
      499
 91
      505
 93
      610
310
40901902A4063FBFFFFFE0000000000000020400000000000020404214DD185B99185C990000000000000104090140501A00000000000004100000000000000041025764000000000000039000
340
14
340
0
340
11
340
0
 94
        0
1001
ACAD_MLEADERVER
1070
     2
  0
MLINESTYLE
  5
18
102
{ACAD_REACTORS
330
17
102
}
330
17
100
AcDbMlineStyle
  2
Standard
 70
     0
  3

 62
   256
 51
90.0
 52
90.0
 71
     2
 49
0.5
 62
   256
  6
BYLAYER
 49
-0.5
 62
   256
  6
BYLAYER
  0
ACAD_PROXY_OBJECT
  5
48
102
{ACAD_REACTORS
330
47
102
}
330
47
100
AcDbProxyObject
 90
      499
 91
      503
 93
       41
310
903313A31580
  0
ACAD_PROXY_OBJECT
  5
49
102
{ACAD_REACTORS
330
47
102
}
330
47
100
AcDbProxyObject
 90
      499
 91
      503
 93
      105
310
903313A324000000000000004000
  0
ACAD_PROXY_OBJECT
  5
4A
102
{ACAD_REACTORS
330
47
102
}
330
47
100
AcDbProxyObject
 90
      499
 91
      503
 93
      105
310
903313A344000000000000104000
  0
ACAD_PROXY_OBJECT
  5
4B
102
{ACAD_REACTORS
330
47
102
}
330
47
100
AcDbProxyObject
 90
      499
 91
      503
 93
      105
310
903313A354000000000000144000
  0
ACAD_PROXY_OBJECT
  5
4C
102
{ACAD_REACTORS
330
47
102
}
330
47
100
AcDbProxyObject
 90
      499
 91
      503
 93
      105
310
903313A384000000000000204000
  0
ACAD_PROXY_OBJECT
  5
4D
102
{ACAD_REACTORS
330
47
102
}
330
47
100
AcDbProxyObject
 90
      499
 91
      503
 93
      113
310
904313A31304000000000000244000
  0
ACAD_PROXY_OBJECT
  5
4E
102
{ACAD_REACTORS
330
47
102
}
330
47
100
AcDbProxyObject
 90
      499
 91
      503
 93
      113
310
904313A31364000000000000304000
  0
ACAD_PROXY_OBJECT
  5
4F
102
{ACAD_REACTORS
330
47
102
}
330
47
100
AcDbProxyObject
 90
      499
 91
      503
 93
      113
310
904313A32304000000000000344000
  0
ACAD_PROXY_OBJECT
  5
50
102
{ACAD_REACTORS
330
47
102
}
330
47
100
AcDbProxyObject
 90
      499
 91
      503
 93
      113
310
904313A333040000000000003E4000
  0
ACAD_PROXY_OBJECT
  5
51
102
{ACAD_REACTORS
330
47
102
}
330
47
100
AcDbProxyObject
 90
      499
 91
      503
 93
      113
310
904313A34304000000000000444000
  0
ACAD_PROXY_OBJECT
  5
52
102
{ACAD_REACTORS
330
47
102
}
330
47
100
AcDbProxyObject
 90
      499
 91
      503
 93
      113
310
904313A35304000000000000494000
  0
ACAD_PROXY_OBJECT
  5
53
102
{ACAD_REACTORS
330
47
102
}
330
47
100
AcDbProxyObject
 90
      499
 91
      503
 93
      121
310
905313A3130304000000000000594000
  0
ACAD_PROXY_OBJECT
  5
54
102
{ACAD_REACTORS
330
47
102
}
330
47
100
AcDbProxyObject
 90
      499
 91
      503
 93
      105
310
903323A310000000000000010100
  0
ACAD_PROXY_OBJECT
  5
55
102
{ACAD_REACTORS
330
47
102
}
330
47
100
AcDbProxyObject
 90
      499
 91
      503
 93
      105
310
903343A310000000000000410100
  0
ACAD_PROXY_OBJECT
  5
56
102
{ACAD_REACTORS
330
47
102
}
330
47
100
AcDbProxyObject
 90
      499
 91
      503
 93
      105
310
903383A310000000000000810100
  0
ACAD_PROXY_OBJECT
  5
57
102
{ACAD_REACTORS
330
47
102
}
330
47
100
AcDbProxyObject
 90
      499
 91
      503
 93
      113
310
90431303A310000000000000910100
  0
ACAD_PROXY_OBJECT
  5
58
102
{ACAD_REACTORS
330
47
102
}
330
47
100
AcDbProxyObject
 90
      499
 91
      503
 93
      121
310
9053130303A310000000000001650100
  0
ACAD_PROXY_OBJECT
  5
59
102
{ACAD_REACTORS
330
47
102
}
330
47
100
AcDbProxyObject
 90
      499
 91
      503
 93
      257
310
90E312F31323822203D2031272D3022000000000000200FC000000000000284000
  0
ACAD_PROXY_OBJECT
  5
5A
102
{ACAD_REACTORS
330
47
102
}
330
47
100
AcDbProxyObject
 90
      499
 91
      503
 93
      249
310
90D312F363422203D2031272D3022000000000000240FC000000000000284000
  0
ACAD_PROXY_OBJECT
  5
5B
102
{ACAD_REACTORS
330
47
102
}
330
47
100
AcDbProxyObject
 90
      499
 91
      503
 93
      249
310
90D312F333222203D2031272D3022000000000000280FC000000000000284000
  0
ACAD_PROXY_OBJECT
  5
5C
102
{ACAD_REACTORS
330
47
102
}
330
47
100
AcDbProxyObject
 90
      499
 91
      503
 93
      249
310
90D312F313622203D2031272D30220000000000002C0FC000000000000284000
  0
ACAD_PROXY_OBJECT
  5
5D
102
{ACAD_REACTORS
330
47
102
}
330
47
100
AcDbProxyObject
 90
      499
 91
      503
 93
      249
310
90D332F333222203D2031272D30220000000000002E0FC000000000000284000
  0
ACAD_PROXY_OBJECT
  5
5E
102
{ACAD_REACTORS
330
47
102
}
330
47
100
AcDbProxyObject
 90
      499
 91
      503
 93
      241
310
90C312F3822203D2031272D3022000000000000300FC000000000000284000
  0
ACAD_PROXY_OBJECT
  5
5F
102
{ACAD_REACTORS
330
47
102
}
330
47
100
AcDbProxyObject
 90
      499
 91
      503
 93
      249
310
90D332F313622203D2031272D3022000000000000320FC000000000000284000
  0
ACAD_PROXY_OBJECT
  5
60
102
{ACAD_REACTORS
330
47
102
}
330
47
100
AcDbProxyObject
 90
      499
 91
      503
 93
      241
310
90C312F3422203D2031272D3022000000000000340FC000000000000284000
  0
ACAD_PROXY_OBJECT
  5
61
102
{ACAD_REACTORS
330
47
102
}
330
47
100
AcDbProxyObject
 90
      499
 91
      503
 93
      241
310
90C332F3822203D2031272D3022000000000000360FC000000000000284000
  0
ACAD_PROXY_OBJECT
  5
62
102
{ACAD_REACTORS
330
47
102
}
330
47
100
AcDbProxyObject
 90
      499
 91
      503
 93
      241
310
90C312F3222203D2031272D3022000000000000380FC000000000000284000
  0
ACAD_PROXY_OBJECT
  5
63
102
{ACAD_REACTORS
330
47
102
}
330
47
100
AcDbProxyObject
 90
      499
 91
      503
 93
      241
310
90C332F3422203D2031272D30220000000000003A0FC000000000000284000
  0
ACAD_PROXY_OBJECT
  5
64
102
{ACAD_REACTORS
330
47
102
}
330
47
100
AcDbProxyObject
 90
      499
 91
      503
 93
      161
310
90A3122203D2031272D30224000000000000284000
  0
ACAD_PROXY_OBJECT
  5
65
102
{ACAD_REACTORS
330
47
102
}
330
47
100
AcDbProxyObject
 90
      499
 91
      503
 93
      257
310
90E312D312F3222203D2031272D30220000000000003E0FC000000000000284000
  0
ACAD_PROXY_OBJECT
  5
66
102
{ACAD_REACTORS
330
47
102
}
330
47
100
AcDbProxyObject
 90
      499
 91
      503
 93
      225
310
90A3322203D2031272D302200000000000002100000000000000284000
  0
ACAD_PROXY_OBJECT
  5
67
102
{ACAD_REACTORS
330
47
102
}
330
47
100
AcDbProxyObject
 90
      499
 91
      503
 93
      225
310
90A3622203D2031272D302200000000000006100000000000000284000
  0
ACAD_PROXY_OBJECT
  5
68
102
{ACAD_REACTORS
330
47
102
}
330
47
100
AcDbProxyObject
 90
      499
 91
      503
 93
      249
310
90D31272D3022203D2031272D30220000000000000A100000000000000284000
  0
ACAD_PROXY_OBJECT
  5
2F
102
{ACAD_REACTORS
330
2A
102
}
330
2A
100
AcDbProxyObject
 90
      499
 91
      501
 93
      436
310
42CC9915DA5C99599C985B595049028333333333333E33F0000000000000F90107901411070040501600405405064090741402480A0340
1001
ACAD
1000
AcDbSavedByObjectVersion
1070
     0
  0
ACAD_PROXY_OBJECT
  5
32
102
{ACAD_REACTORS
330
2A
102
}
330
2A
100
AcDbProxyObject
 90
      499
 91
      501
 93
      388
310
4150985CDA58D07406404333333333333E33F0000000000000F90107A41107004050150841D405064090741402480A0350
1001
ACAD
1000
AcDbSavedByObjectVersion
1070
     0
  0
ACAD_PROXY_OBJECT
  5
36
102
{ACAD_REACTORS
330
2A
102
}
330
2A
100
AcDbProxyObject
 90
      499
 91
      501
 93
      428
310
42109C9A59DA1D195B90C409028333333333333E33F0000000000000F9010790141107004050150841D405064090741402480A029950
1001
ACAD
1000
AcDbSavedByObjectVersion
1070
     0
  0
ACAD_PROXY_OBJECT
  5
3A
102
{ACAD_REACTORS
330
2A
102
}
330
2A
100
AcDbProxyObject
 90
      499
 91
      501
 93
      452
310
42D0DBDB1BDC90DA185B99D95104090240C333333333333E33F0000000000000F90108901411070040501508421405064090741402480A0350
1001
ACAD
1000
AcDbSavedByObjectVersion
1070
     0
  0
ACAD_PROXY_OBJECT
  5
34
102
{ACAD_REACTORS
330
2A
102
}
330
2A
100
AcDbProxyObject
 90
      499
 91
      501
 93
      500
310
4290DBDB98D95C1D1D585B10940D028333333333333E33F0000000000000F90107902409070040501000000000018199010841D405064090740C02480A0340
1001
ACAD
1000
AcDbSavedByObjectVersion
1070
     0
  0
ACAD_PROXY_OBJECT
  5
35
102
{ACAD_REACTORS
330
2A
102
}
330
2A
100
AcDbProxyObject
 90
      499
 91
      501
 93
      412
310
40D11A5B50B409028333333333333E33F0000000000000F9010790141107004050150841D405064090741402480A02677FFFFFD0
1001
ACAD
1000
AcDbSavedByObjectVersion
1070
     0
  0
ACAD_PROXY_OBJECT
  5
3D
102
{ACAD_REACTORS
330
2A
102
}
330
2A
100
AcDbProxyObject
 90
      499
 91
      501
 93
      452
310
43115919D950DBDB1BDC93D999916409028333333333333E33F0000000000000F9010790141107004050150841D405064090741402480A0350
1001
ACAD
1000
AcDbSavedByObjectVersion
1070
     0
  0
ACAD_PROXY_OBJECT
  5
39
102
{ACAD_REACTORS
330
2A
102
}
330
2A
100
AcDbProxyObject
 90
      499
 91
      501
 93
      444
310
42D19858D95C185D1D195C9B90F409028333333333333E33F0000000000000F9010790141107004050150841D405064090741402480A0350
1001
ACAD
1000
AcDbSavedByObjectVersion
1070
     0
  0
ACAD_PROXY_OBJECT
  5
2B
102
{ACAD_REACTORS
330
2A
102
}
330
2A
100
AcDbProxyObject
 90
      499
 91
      501
 93
      380
310
41119B185D240901404333333333333E33F0000000000000F9010740A907004050150841D405064090741402480A1B50
1001
ACAD
1000
AcDbSavedByObjectVersion
1070
     0
  0
ACAD_PROXY_OBJECT
  5
2C
102
{ACAD_REACTORS
330
2A
102
}
330
2A
100
AcDbProxyObject
 90
      499
 91
      501
 93
      468
310
43519B185D15DA5D1A115919D95CD0140901404333333333333E33F0000000000000F90107409019070040501600405405064090741402480A1B50
1001
ACAD
1000
AcDbSavedByObjectVersion
1070
     0
  0
ACAD_PROXY_OBJECT
  5
2D
102
{ACAD_REACTORS
330
2A
102
}
330
2A
100
AcDbProxyObject
 90
      499
 91
      501
 93
      404
310
41D1DBDD5C985D5910240902404333333333333E33F0000000000000F9010740A9070040501641D405064090741402480A1B50
1001
ACAD
1000
AcDbSavedByObjectVersion
1070
     0
  0
ACAD_PROXY_OBJECT
  5
2E
102
{ACAD_REACTORS
330
2A
102
}
330
2A
100
AcDbProxyObject
 90
      499
 91
      501
 93
      492
310
4411DBDD5C985D5915DA5D1A115919D95CD0340902404333333333333E33F0000000000000F90107409019070040501600405405064090741402480A1B50
1001
ACAD
1000
AcDbSavedByObjectVersion
1070
     0
  0
ACAD_PROXY_OBJECT
  5
31
102
{ACAD_REACTORS
330
2A
102
}
330
2A
100
AcDbProxyObject
 90
      499
 91
      501
 93
      476
310
41921A5919195B90640502408333333333333E33F0000000000000F901079024090700405020000000000001110200405405064090740C02480A0340
1001
ACAD
1000
AcDbSavedByObjectVersion
1070
     0
  0
ACAD_PROXY_OBJECT
  5
3B
102
{ACAD_REACTORS
330
2A
102
}
330
2A
100
AcDbProxyObject
 90
      499
 91
      501
 93
      428
310
42529A5D1D195C93D999914409028333333333333E33F0000000000000F9010790141107004050150A41D405064090741402480A0350
1001
ACAD
1000
AcDbSavedByObjectVersion
1070
     0
  0
ACAD_PROXY_OBJECT
  5
38
102
{ACAD_REACTORS
330
2A
102
}
330
2A
100
AcDbProxyObject
 90
      499
 91
      501
 93
      444
310
42D31A5B995C185D1D195C9B90E409028333333333333E33F0000000000000F9010790141107004050750841D405064090741402483A0350
1001
ACAD
1000
AcDbSavedByObjectVersion
1070
     0
  0
ACAD_PROXY_OBJECT
  5
3C
102
{ACAD_REACTORS
330
2A
102
}
330
2A
100
AcDbProxyObject
 90
      499
 91
      501
 93
      444
310
42D3DD995C9A185B99D3D999915409028333333333333E33F0000000000000F9010790141107004050150941D405064090741402480A0350
1001
ACAD
1000
AcDbSavedByObjectVersion
1070
     0
  0
ACAD_PROXY_OBJECT
  5
33
102
{ACAD_REACTORS
330
2A
102
}
330
2A
100
AcDbProxyObject
 90
      499
 91
      501
 93
      428
310
425499585B1A5CDD1A58D08409038333333333333E33F0000000000000F9010740A907004050150800405405064090740C02480A1B40
1001
ACAD
1000
AcDbSavedByObjectVersion
1070
     0
  0
ACAD_PROXY_OBJECT
  5
42
102
{ACAD_REACTORS
330
2A
102
}
330
2A
100
AcDbProxyObject
 90
      499
 91
      501
 93
      420
310
4194DA1859195911B40902404333333333333E33F0000000000000F9010740A41107004050150800405405064090840C02480A0B40
1001
ACAD
1000
AcDbSavedByObjectVersion
1070
     0
  0
ACAD_PROXY_OBJECT
  5
41
102
{ACAD_REACTORS
330
2A
102
}
330
2A
100
AcDbProxyObject
 90
      499
 91
      501
 93
      516
310
4454DA18591959081DDA5D1A08195919D95CD1A40902404333333333333E33F0000000000000F901074090142907004050250800405405064090740C02480A0B40
1001
ACAD
1000
AcDbSavedByObjectVersion
1070
     0
  0
ACAD_PROXY_OBJECT
  5
3E
102
{ACAD_REACTORS
330
2A
102
}
330
2A
100
AcDbProxyObject
 90
      499
 91
      501
 93
      532
310
4394DA1859195CC81BD98811DC985E5174090240C333333333333E33F0000000000000F901079024090741D01000000000000111010841D405064090740C02480A0340
1001
ACAD
1000
AcDbSavedByObjectVersion
1070
     0
  0
ACAD_PROXY_OBJECT
  5
3F
102
{ACAD_REACTORS
330
2A
102
}
330
2A
100
AcDbProxyObject
 90
      499
 91
      501
 93
      476
310
41D4DAD95D18DA1E51840502408333333333333E33F0000000000000F901079024090741D01000000000000111010B41D405064090741802480A0340
1001
ACAD
1000
AcDbSavedByObjectVersion
1070
     0
  0
ACAD_PROXY_OBJECT
  5
37
102
{ACAD_REACTORS
330
2A
102
}
330
2A
100
AcDbProxyObject
 90
      499
 91
      501
 93
      412
310
41D51A1A58DAD95B90D409028333333333333E33F0000000000000F9010790141107004050150C41D405064090741402480A0350
1001
ACAD
1000
AcDbSavedByObjectVersion
1070
     0
  0
ACAD_PROXY_OBJECT
  5
30
102
{ACAD_REACTORS
330
2A
102
}
330
2A
100
AcDbProxyObject
 90
      499
 91
      501
 93
      420
310
4255DA5C99599C985B595059028333333333333E33F0000000000000F90107901411070040501600405405064090740C02480A0340
1001
ACAD
1000
AcDbSavedByObjectVersion
1070
     0
  0
ACAD_PROXY_OBJECT
  5
40
102
{ACAD_REACTORS
330
2A
102
}
330
2A
100
AcDbProxyObject
 90
      499
 91
      501
 93
      404
310
41560B54985E51940902404000000000000E03F0000000000000F9010740501907004050150841D405064090740C02480A1B40
1001
ACAD
1000
AcDbSavedByObjectVersion
1070
     0
  0
XRECORD
  5
265
102
{ACAD_REACTORS
330
25B
102
}
330
25B
100
AcDbXrecord
340
0
  0
XRECORD
  5
264
102
{ACAD_REACTORS
330
25B
102
}
330
25B
100
AcDbXrecord
 90
        0
  0
XRECORD
  5
27B
102
{ACAD_REACTORS
330
25B
102
}
330
25B
100
AcDbXrecord
1000
DSTYLE
1002
{
1070
   179
 70
     1
1070
   143
 40
0.03937
1070
   285
 70
     8
1070
   176
 70
     7
1070
   177
 70
     7
1070
   178
 70
     7
1070
   371
 70
    13
1070
   372
 70
    13
1070
   340
340
72
1070
   140
 40
3.5
1070
   288
 70
     1
1002
}
  0
XRECORD
  5
266
102
{ACAD_REACTORS
330
25B
102
}
330
25B
100
AcDbXrecord
  1
{72b23871-63b9-3565-3431-7065b96271b6}
  0
XRECORD
  5
25E
102
{ACAD_REACTORS
330
25B
102
}
330
25B
100
AcDbXrecord
  1

  0
XRECORD
  5
263
102
{ACAD_REACTORS
330
25B
102
}
330
25B
100
AcDbXrecord
 90
        4
  0
XRECORD
  5
260
102
{ACAD_REACTORS
330
25B
102
}
330
25B
100
AcDbXrecord
340
1A
  0
XRECORD
  5
262
102
{ACAD_REACTORS
330
25B
102
}
330
25B
100
AcDbXrecord
 90
    10269
  0
XRECORD
  5
261
102
{ACAD_REACTORS
330
25B
102
}
330
25B
100
AcDbXrecord
340
19
  0
XRECORD
  5
268
102
{ACAD_REACTORS
330
25B
102
}
330
25B
100
AcDbXrecord
 40
0.0
  0
XRECORD
  5
26B
102
{ACAD_REACTORS
330
25B
102
}
330
25B
100
AcDbXrecord
340
0
  0
XRECORD
  5
271
102
{ACAD_REACTORS
330
25B
102
}
330
25B
100
AcDbXrecord
 10
0.0
 20
0.0
 30
0.0
  0
XRECORD
  5
26D
102
{ACAD_REACTORS
330
25B
102
}
330
25B
100
AcDbXrecord
 10
0.0
 20
0.0
 30
0.0
  0
XRECORD
  5
270
102
{ACAD_REACTORS
330
25B
102
}
330
25B
100
AcDbXrecord
 10
0.0
 20
0.0
 30
0.0
  0
XRECORD
  5
26E
102
{ACAD_REACTORS
330
25B
102
}
330
25B
100
AcDbXrecord
 10
0.0
 20
0.0
 30
0.0
  0
XRECORD
  5
26F
102
{ACAD_REACTORS
330
25B
102
}
330
25B
100
AcDbXrecord
 10
0.0
 20
0.0
 30
0.0
  0
XRECORD
  5
26C
102
{ACAD_REACTORS
330
25B
102
}
330
25B
100
AcDbXrecord
 10
0.0
 20
0.0
 30
0.0
  0
XRECORD
  5
269
102
{ACAD_REACTORS
330
25B
102
}
330
25B
100
AcDbXrecord
340
0
  0
XRECORD
  5
26A
102
{ACAD_REACTORS
330
25B
102
}
330
25B
100
AcDbXrecord
 70
     0
  0
XRECORD
  5
25F
102
{ACAD_REACTORS
330
25B
102
}
330
25B
100
AcDbXrecord
  1

  0
XRECORD
  5
25C
102
{ACAD_REACTORS
330
25B
102
}
330
25B
100
AcDbXrecord
 90
        1
  0
XRECORD
  5
25D
102
{ACAD_REACTORS
330
25B
102
}
330
25B
100
AcDbXrecord
 90
       70
  0
XRECORD
  5
274
102
{ACAD_REACTORS
330
25B
102
}
330
25B
100
AcDbXrecord
340
0
  0
XRECORD
  5
27A
102
{ACAD_REACTORS
330
25B
102
}
330
25B
100
AcDbXrecord
 10
0.0
 20
0.0
 30
0.0
  0
XRECORD
  5
276
102
{ACAD_REACTORS
330
25B
102
}
330
25B
100
AcDbXrecord
 10
0.0
 20
0.0
 30
0.0
  0
XRECORD
  5
279
102
{ACAD_REACTORS
330
25B
102
}
330
25B
100
AcDbXrecord
 10
0.0
 20
0.0
 30
0.0
  0
XRECORD
  5
277
102
{ACAD_REACTORS
330
25B
102
}
330
25B
100
AcDbXrecord
 10
0.0
 20
0.0
 30
0.0
  0
XRECORD
  5
278
102
{ACAD_REACTORS
330
25B
102
}
330
25B
100
AcDbXrecord
 10
0.0
 20
0.0
 30
0.0
  0
XRECORD
  5
275
102
{ACAD_REACTORS
330
25B
102
}
330
25B
100
AcDbXrecord
 10
0.0
 20
0.0
 30
0.0
  0
XRECORD
  5
272
102
{ACAD_REACTORS
330
25B
102
}
330
25B
100
AcDbXrecord
340
0
  0
XRECORD
  5
273
102
{ACAD_REACTORS
330
25B
102
}
330
25B
100
AcDbXrecord
 70
     0
  0
XRECORD
  5
267
102
{ACAD_REACTORS
330
25B
102
}
330
25B
100
AcDbXrecord
  1
{FAEB1C32-E019-11D5-929B-00C0DF256EC4}
  0
DICTIONARYVAR
  5
288
102
{ACAD_REACTORS
330
6E
102
}
330
6E
100
DictionaryVariables
280
     0
  1
1:1
  0
DICTIONARYVAR
  5
282
102
{ACAD_REACTORS
330
6E
102
}
330
6E
100
DictionaryVariables
280
     0
  1
3.500000
  0
DICTIONARYVAR
  5
283
102
{ACAD_REACTORS
330
6E
102
}
330
6E
100
DictionaryVariables
280
     0
  1
MM.LIN
  0
DICTIONARYVAR
  5
27D
102
{ACAD_REACTORS
330
6E
102
}
330
6E
100
DictionaryVariables
280
     0
  1
Standard
  0
DICTIONARYVAR
  5
27C
102
{ACAD_REACTORS
330
6E
102
}
330
6E
100
DictionaryVariables
280
     0
  1
Onshape-Standard
  0
DICTIONARYVAR
  5
284
102
{ACAD_REACTORS
330
6E
102
}
330
6E
100
DictionaryVariables
280
     0
  1
2
  0
DICTIONARYVAR
  5
285
102
{ACAD_REACTORS
330
6E
102
}
330
6E
100
DictionaryVariables
280
     0
  1
1
  0
DICTIONARYVAR
  5
289
102
{ACAD_REACTORS
330
6E
102
}
330
6E
100
DictionaryVariables
280
     0
  1
1
  0
DICTIONARYVAR
  5
6F
102
{ACAD_REACTORS
330
6E
102
}
330
6E
100
DictionaryVariables
280
     0
  1
0
  0
DICTIONARYVAR
  5
27F
102
{ACAD_REACTORS
330
6E
102
}
330
6E
100
DictionaryVariables
280
     0
  1
80.000000
  0
DICTIONARYVAR
  5
27E
102
{ACAD_REACTORS
330
6E
102
}
330
6E
100
DictionaryVariables
280
     0
  1
5.000000
  0
XRECORD
  5
215
102
{ACAD_REACTORS
330
214
102
}
330
214
100
AcDbXrecord
 70
     4
  0
XRECORD
  5
218
102
{ACAD_REACTORS
330
214
102
}
330
214
100
AcDbXrecord
 90
        0
  0
XRECORD
  5
217
102
{ACAD_REACTORS
330
214
102
}
330
214
100
AcDbXrecord
 90
        0
  0
XRECORD
  5
216
102
{ACAD_REACTORS
330
214
102
}
330
214
100
AcDbXrecord
 90
        1
  0
DICTIONARY
  5
28C
330
45
100
AcDbDictionary
280
     1
  3
ACAD_XREC_ROUNDTRIP
360
28D
  0
DICTIONARY
  5
28A
330
44
100
AcDbDictionary
280
     1
  3
ACAD_XREC_ROUNDTRIP
360
28B
  0
DICTIONARY
  5
28E
330
46
100
AcDbDictionary
280
     1
  3
ACAD_XREC_ROUNDTRIP
360
28F
  0
XRECORD
  5
28D
102
{ACAD_REACTORS
330
28C
102
}
330
28C
100
AcDbXrecord
102
MATERIAL
148
0.0
149
0.0
149
0.0
 93
        0
 94
      127
282
     0
 72
     1
 77
     1
171
     1
175
     1
179
     1
273
     0
  0
XRECORD
  5
28B
102
{ACAD_REACTORS
330
28A
102
}
330
28A
100
AcDbXrecord
102
MATERIAL
148
0.0
149
0.0
149
0.0
 93
        0
 94
      127
282
     0
 72
     1
 77
     1
171
     1
175
     1
179
     1
273
     0
  0
XRECORD
  5
28F
102
{ACAD_REACTORS
330
28E
102
}
330
28E
100
AcDbXrecord
102
MATERIAL
148
0.0
149
0.0
149
0.0
 93
        0
 94
      127
282
     0
 72
     1
 77
     1
171
     1
175
     1
179
     1
273
     0
  0
ENDSEC
  0
EOF
